<svg xmlns="http://www.w3.org/2000/svg" viewBox="0 0 128 128"><g id="Layer_2" data-name="Layer 2"><g id="unlock"><g id="Group_4" data-name="Group 4"><path d="M107.784,78.889V62.22L85.79,48.447,73.911,55.864V40.316a5.135,5.135,0,0,0-.03-.546,5.635,5.635,0,0,0-.208-.991c-.01,0-.01-.01-.01-.03a5.28,5.28,0,0,0-5.017-3.659H64.679V27.98A26.026,26.026,0,0,0,45.789,2.992c-.2-.06-.4-.119-.615-.169a26.388,26.388,0,0,0-4.482-.744,1.809,1.809,0,0,0-.228-.01c-.307-.029-.614-.039-.922-.049-.268-.01-.535-.02-.8-.02-.288,0-.575.01-.853.02-.307.01-.615.02-.922.049a1.74,1.74,0,0,0-.228.01c-.387.03-.764.07-1.141.119-.763.09-1.507.218-2.25.367-.367.08-.734.169-1.1.258-.2.05-.407.109-.605.169a25.76,25.76,0,0,0-2.985,1.041c-.644.277-1.279.575-1.894.892h-.01a26.034,26.034,0,0,0-14,23.055v7.11H8.872a5.457,5.457,0,0,0-5.107,3.669c0,.01-.01.02-.01.03a5.537,5.537,0,0,0-.208.991,4.508,4.508,0,0,0-.03.526V80.862c0,.179.01.367.01.536a10.311,10.311,0,0,0,1.8,5.315c.188.287.4.545.605.813a9.7,9.7,0,0,0,.694.744c.238.237.476.456.734.674.128.109.277.218.416.317a10.637,10.637,0,0,0,5.791,2.063,3.4,3.4,0,0,0,.456.02h33.05v20.922l22,13.734,16.7-10.422L102.479,126l22-13.734V89.35ZM23.131,27.98c0-.208.01-.416.02-.625a2.9,2.9,0,0,1,.02-.416c.01-.119.01-.238.02-.357l.029-.2a4.336,4.336,0,0,1,.06-.506c.039-.317.1-.635.158-.942.07-.377.159-.734.258-1.1.06-.208.129-.426.189-.635.049-.168.109-.327.168-.485a15.008,15.008,0,0,1,1.319-2.757c.079-.139.159-.268.248-.4.02-.039.05-.079.069-.119.1-.139.189-.277.288-.416A14.305,14.305,0,0,1,27.5,17.191q.178-.193.357-.357c.139-.138.278-.267.416-.4a9.263,9.263,0,0,1,.9-.744,5.235,5.235,0,0,1,.466-.357,5.619,5.619,0,0,1,.476-.317,5.265,5.265,0,0,1,.486-.318,15.416,15.416,0,0,1,5.771-2.1h.059c.228-.029.447-.069.665-.089a.893.893,0,0,1,.168-.01c.228-.03.456-.04.685-.05.247-.009.495-.019.733-.019.258,0,.526.01.784.019.228.01.456.02.684.05a.948.948,0,0,0,.168.01A15.573,15.573,0,0,1,54.3,27.98v7.11H23.131ZM14.207,80.961a.342.342,0,0,1-.02-.1V45.472H63.519V80.8a.179.179,0,0,1-.159.158ZM82.647,107.6l-13.565,8.468L55.507,107.6V93.991l13.575-8.468,13.565,8.5ZM72.206,80.456V66.861l13.575-8.469,13.575,8.5V80.456L85.781,88.934Zm43.848,27.14-13.575,8.468L88.9,107.6V93.991l13.575-8.468,13.575,8.5Z" style="fill:#fff"/><path d="M38.671,75.429a5.2,5.2,0,0,1-5.148-5.24V57.621a5.193,5.193,0,0,1,10.386-.006h0V70.2a5.209,5.209,0,0,1-5.191,5.224Z" style="fill:#fff"/></g></g></g></svg>