<svg xmlns="http://www.w3.org/2000/svg" viewBox="0 0 128 128"><g id="Layer_2" data-name="Layer 2"><rect x="2" y="40.016" width="50.027" height="50.027" rx="2.806" style="fill:#fff"/><path d="M106.772,83.229a4.808,4.808,0,0,1-3.4-8.2l6.215-6.215H62.762a4.807,4.807,0,0,1,0-9.614h46.826l-6.215-6.221a4.807,4.807,0,0,1,6.8-6.8h0L124.591,60.6A4.791,4.791,0,0,1,126,63.987h0v.028h0a4.791,4.791,0,0,1-1.409,3.385l-14.42,14.42A4.793,4.793,0,0,1,106.772,83.229Z" style="fill:#fff"/><path d="M110.789,38.046a4.808,4.808,0,0,1-6.383-6.172l3.228-8.176L64.677,42.337a4.807,4.807,0,0,1-3.827-8.82l42.957-18.638L95.63,11.646a4.806,4.806,0,1,1,3.53-8.941h0L118.13,10.2a4.785,4.785,0,0,1,2.639,2.544h0l.011.026h0a4.787,4.787,0,0,1,.055,3.666L113.346,35.4A4.786,4.786,0,0,1,110.789,38.046Z" style="fill:#fff"/><path d="M113.346,92.6l7.489,18.968a4.787,4.787,0,0,1-.055,3.666h0l-.011.026h0a4.785,4.785,0,0,1-2.639,2.544L99.16,125.3h0a4.806,4.806,0,1,1-3.53-8.941l8.177-3.233L60.85,94.483a4.807,4.807,0,0,1,3.827-8.82L107.634,104.3l-3.228-8.176a4.805,4.805,0,1,1,8.94-3.527Z" style="fill:#fff"/></g></svg>