<svg id="Layer_1" data-name="Layer 1" xmlns="http://www.w3.org/2000/svg" viewBox="0 0 128 128"><path d="M75.112,124.681H88.367a2.24,2.24,0,0,0,2.241-2.24v-3.922a2.241,2.241,0,0,1,2.241-2.241h13.266a2.241,2.241,0,0,1,2.241,2.241h0a2.241,2.241,0,0,0,2.241,2.241h13.255a2.241,2.241,0,0,0,2.241-2.241V88.547a2.241,2.241,0,0,0-2.241-2.241H53.184A2.207,2.207,0,0,1,51.15,85a25.572,25.572,0,1,0,.01,20.349,2.207,2.207,0,0,1,2.034-1.308H70.63a2.241,2.241,0,0,1,2.241,2.241v16.157A2.241,2.241,0,0,0,75.112,124.681ZM19.84,95.18a7.844,7.844,0,1,1,7.844,7.843A7.838,7.838,0,0,1,19.84,95.18Z" style="fill:#fff"/><path d="M55.314,56.429V40.273a2.241,2.241,0,0,1,2.241-2.241H74.991a2.209,2.209,0,0,1,2.035,1.308,25.6,25.6,0,1,0,.009-20.349A2.206,2.206,0,0,1,75,20.3H4.333a2.24,2.24,0,0,0-2.24,2.241V52.508a2.241,2.241,0,0,0,2.24,2.241H17.588a2.241,2.241,0,0,0,2.241-2.241h0a2.241,2.241,0,0,1,2.241-2.241H35.336a2.241,2.241,0,0,1,2.241,2.241v3.921a2.241,2.241,0,0,0,2.241,2.241H53.073A2.241,2.241,0,0,0,55.314,56.429ZM100.5,37.012a7.843,7.843,0,1,1,7.843-7.843A7.852,7.852,0,0,1,100.5,37.012Z" style="fill:#fff"/></svg>