<svg xmlns="http://www.w3.org/2000/svg" viewBox="0 0 128 128"><g id="Layer_2" data-name="Layer 2"><path d="M28.38,24.419a.283.283,0,0,1,.208-.086h2.864a.294.294,0,0,1,.294.294v16.55a.285.285,0,0,1-.086.208.278.278,0,0,1-.208.085H28.686a.348.348,0,0,1-.343-.2L22,30.8c-.033-.048-.066-.069-.1-.061s-.049.046-.049.11L21.9,41.177a.292.292,0,0,1-.294.293H18.746a.278.278,0,0,1-.208-.085.285.285,0,0,1-.086-.208V24.627a.294.294,0,0,1,.294-.294h2.766a.35.35,0,0,1,.343.2l6.317,10.429c.032.049.065.07.1.061s.049-.045.049-.109l-.024-10.283A.281.281,0,0,1,28.38,24.419Z" style="fill:#fff"/><path d="M45.749,35.962a.284.284,0,0,1-.318.293H37.867c-.1,0-.131.041-.1.123a4.345,4.345,0,0,0,.269.979,2.565,2.565,0,0,0,2.6,1.371,2.952,2.952,0,0,0,2.472-1.272.221.221,0,0,1,.392-.05l1.763,1.738a.34.34,0,0,1,.123.221.507.507,0,0,1-.1.2A5.343,5.343,0,0,1,43.2,41.116a6.974,6.974,0,0,1-2.79.551,6.356,6.356,0,0,1-3.563-.956,5.3,5.3,0,0,1-2.093-2.668,8.408,8.408,0,0,1-.514-3.207,7.041,7.041,0,0,1,.367-2.375A5.383,5.383,0,0,1,36.581,29.7a5.51,5.51,0,0,1,3.342-1.028,5.444,5.444,0,0,1,3.929,1.419,6.22,6.22,0,0,1,1.8,3.8A10.581,10.581,0,0,1,45.749,35.962ZM37.915,33.1a5.823,5.823,0,0,0-.171.783.108.108,0,0,0,.123.122H42.1c.1,0,.13-.04.1-.122-.082-.474-.123-.7-.123-.686a2.114,2.114,0,0,0-.771-1.137,2.232,2.232,0,0,0-1.358-.405A1.963,1.963,0,0,0,37.915,33.1Z" style="fill:#fff"/><path d="M54.722,31.568a.286.286,0,0,1-.209.085H52.164a.108.108,0,0,0-.123.123v5.19a1.824,1.824,0,0,0,.331,1.2,1.316,1.316,0,0,0,1.065.392h.808a.291.291,0,0,1,.208.085.287.287,0,0,1,.085.208v2.327a.3.3,0,0,1-.293.318c-.687.032-1.176.049-1.47.049a5.5,5.5,0,0,1-3.035-.673,2.889,2.889,0,0,1-1.029-2.535v-6.56a.108.108,0,0,0-.122-.123H47.194a.29.29,0,0,1-.294-.294V29.181a.29.29,0,0,1,.294-.294h1.395a.108.108,0,0,0,.122-.123V25.851a.29.29,0,0,1,.294-.293h2.742a.292.292,0,0,1,.294.293v2.913a.108.108,0,0,0,.123.123h2.349a.29.29,0,0,1,.294.294v2.178A.288.288,0,0,1,54.722,31.568Z" style="fill:#fff"/><path d="M59.68,41.225l-3.526-12.02-.025-.1c0-.162.09-.245.269-.245h2.963a.324.324,0,0,1,.343.245L61.467,36.5c.016.048.04.073.072.073s.058-.025.074-.073l1.836-7.394a.324.324,0,0,1,.343-.245h2.57a.324.324,0,0,1,.343.245l1.934,7.418c.016.049.042.073.074.073s.058-.024.074-.073l1.908-7.418a.325.325,0,0,1,.343-.245l2.939.05a.236.236,0,0,1,.207.085.3.3,0,0,1,.038.233l-3.575,12a.307.307,0,0,1-.318.245H67.366a.323.323,0,0,1-.343-.245l-1.884-6.56c-.016-.049-.041-.074-.074-.074s-.057.025-.073.074l-1.665,6.56a.322.322,0,0,1-.343.245H60.022A.32.32,0,0,1,59.68,41.225Z" style="fill:#fff"/><path d="M77.282,40.589a5.374,5.374,0,0,1-2.008-2.938,8.692,8.692,0,0,1-.343-2.5,9.07,9.07,0,0,1,.343-2.6,5.265,5.265,0,0,1,2.032-2.839,5.986,5.986,0,0,1,3.526-1.029,5.737,5.737,0,0,1,3.427,1.016,5.418,5.418,0,0,1,2.008,2.828,8.381,8.381,0,0,1,.391,2.57,8.6,8.6,0,0,1-.343,2.472,5.473,5.473,0,0,1-1.994,3,5.709,5.709,0,0,1-3.515,1.09A5.794,5.794,0,0,1,77.282,40.589Zm4.9-2.375a2.707,2.707,0,0,0,.809-1.346,7.14,7.14,0,0,0,.195-1.714,6.71,6.71,0,0,0-.195-1.739,2.709,2.709,0,0,0-.833-1.3,2.27,2.27,0,0,0-2.753,0,2.6,2.6,0,0,0-.8,1.3,5.867,5.867,0,0,0-.195,1.739,6.68,6.68,0,0,0,.171,1.714,2.667,2.667,0,0,0,.821,1.346,2.09,2.09,0,0,0,1.406.49A2.009,2.009,0,0,0,82.177,38.214Z" style="fill:#fff"/><path d="M96.548,29.058a.305.305,0,0,1,.147.368l-.514,2.79c-.016.2-.131.253-.342.171a2.773,2.773,0,0,0-.857-.122,4.026,4.026,0,0,0-.54.05,2.393,2.393,0,0,0-1.492.648,2,2,0,0,0-.612,1.53v6.684a.289.289,0,0,1-.086.208.281.281,0,0,1-.209.085H89.178a.278.278,0,0,1-.207-.085.281.281,0,0,1-.086-.208v-12a.292.292,0,0,1,.293-.294h2.865a.292.292,0,0,1,.295.294v.93a.1.1,0,0,0,.048.1.049.049,0,0,0,.074-.025,3.109,3.109,0,0,1,2.693-1.469A2.488,2.488,0,0,1,96.548,29.058Z" style="fill:#fff"/><path d="M98.347,41.385a.281.281,0,0,1-.086-.208V24.627a.294.294,0,0,1,.293-.294h2.865a.294.294,0,0,1,.3.294v8.25c0,.049.016.078.048.086a.1.1,0,0,0,.1-.037l3.33-3.868a.521.521,0,0,1,.368-.171h3.256c.163,0,.245.058.245.171a.407.407,0,0,1-.074.2L105.876,33.2a.222.222,0,0,0-.026.172l3.648,7.761a.393.393,0,0,1,.05.146c0,.132-.09.2-.269.2h-3.013a.346.346,0,0,1-.342-.22L103.5,35.521a.117.117,0,0,0-.086-.06.07.07,0,0,0-.085.035l-1.568,1.96a.375.375,0,0,0-.048.146v3.575a.289.289,0,0,1-.086.208.282.282,0,0,1-.209.085H98.554A.278.278,0,0,1,98.347,41.385Z" style="fill:#fff"/><path d="M8.162,80.391a10.183,10.183,0,0,1-4.561-3.6A9.419,9.419,0,0,1,2,71.345V70.262a.573.573,0,0,1,.172-.421.581.581,0,0,1,.42-.173H8.21a.591.591,0,0,1,.592.594V71a4.031,4.031,0,0,0,1.825,3.33,8.082,8.082,0,0,0,4.928,1.352,5.847,5.847,0,0,0,3.9-1.107,3.487,3.487,0,0,0,1.281-2.736,2.761,2.761,0,0,0-.79-2A7,7,0,0,0,17.8,68.413q-1.354-.613-4.313-1.7A42.223,42.223,0,0,1,7.891,64.4a11.249,11.249,0,0,1-3.845-3.229,8.121,8.121,0,0,1-1.555-5.055A8.9,8.9,0,0,1,4.02,50.938a9.746,9.746,0,0,1,4.24-3.4,15.5,15.5,0,0,1,6.26-1.183,16.007,16.007,0,0,1,6.68,1.332,10.862,10.862,0,0,1,4.585,3.723,9.522,9.522,0,0,1,1.651,5.544v.738a.578.578,0,0,1-.173.421.568.568,0,0,1-.419.172H21.176a.587.587,0,0,1-.592-.593V57.3a4.488,4.488,0,0,0-1.7-3.527,6.951,6.951,0,0,0-4.658-1.452,5.89,5.89,0,0,0-3.624.987A3.211,3.211,0,0,0,9.3,56.017a2.971,2.971,0,0,0,.764,2.07,6.688,6.688,0,0,0,2.267,1.5q1.5.669,4.659,1.8a57.906,57.906,0,0,1,5.5,2.267,10.976,10.976,0,0,1,3.6,2.932,7.71,7.71,0,0,1,1.6,5.055,8.83,8.83,0,0,1-3.4,7.321q-3.4,2.685-9.219,2.684A17.511,17.511,0,0,1,8.162,80.391Z" style="fill:#fff"/><path d="M51.688,57.938A8.86,8.86,0,0,1,54.1,64.493V80.664a.591.591,0,0,1-.592.59H47.745a.589.589,0,0,1-.592-.59V65.922a4.615,4.615,0,0,0-1.109-3.2,4.111,4.111,0,0,0-5.867,0,4.6,4.6,0,0,0-1.11,3.2V80.664a.57.57,0,0,1-.172.417.562.562,0,0,1-.419.173H32.709a.591.591,0,0,1-.592-.59V47.34a.568.568,0,0,1,.173-.421.576.576,0,0,1,.419-.173h5.767a.589.589,0,0,1,.591.594V58.235a.2.2,0,0,0,.1.2.1.1,0,0,0,.148-.052,6.884,6.884,0,0,1,6.014-2.857A8.594,8.594,0,0,1,51.688,57.938Z" style="fill:#fff"/><path d="M74.905,56.631a9.428,9.428,0,0,1,3.92,3.032,7.1,7.1,0,0,1,1.4,4.289V80.664a.591.591,0,0,1-.592.59H73.87a.591.591,0,0,1-.592-.59V79.036a.2.2,0,0,0-.1-.2q-.1-.048-.2.1-2.07,2.715-6.654,2.712a9.7,9.7,0,0,1-6.212-1.873,6.62,6.62,0,0,1-2.366-5.52,7.061,7.061,0,0,1,2.663-5.889q2.66-2.094,7.59-2.1h5.029a.217.217,0,0,0,.246-.245V64.939a3.286,3.286,0,0,0-.986-2.54,4.217,4.217,0,0,0-2.957-.91,5.336,5.336,0,0,0-2.539.541,2.525,2.525,0,0,0-1.306,1.529.561.561,0,0,1-.642.489l-5.963-.786c-.395-.064-.576-.213-.544-.445a6.573,6.573,0,0,1,1.653-3.747,9.648,9.648,0,0,1,3.845-2.612,14.6,14.6,0,0,1,5.348-.935A14.059,14.059,0,0,1,74.905,56.631ZM71.8,75.337a3.508,3.508,0,0,0,1.478-2.909V70.655a.216.216,0,0,0-.246-.244H69.481a6.184,6.184,0,0,0-3.474.838,2.681,2.681,0,0,0-1.257,2.363,2.564,2.564,0,0,0,.936,2.1,3.862,3.862,0,0,0,2.516.762A5.73,5.73,0,0,0,71.8,75.337Z" style="fill:#fff"/><path d="M100.539,56.262a.611.611,0,0,1,.3.738L99.8,62.62c-.034.393-.264.509-.69.345a5.481,5.481,0,0,0-1.727-.245,8.216,8.216,0,0,0-1.083.1,4.864,4.864,0,0,0-3.007,1.307,4.024,4.024,0,0,0-1.233,3.081V80.664a.567.567,0,0,1-.173.417.561.561,0,0,1-.419.173H85.7a.589.589,0,0,1-.591-.59V56.506a.587.587,0,0,1,.591-.589h5.767a.564.564,0,0,1,.419.172.575.575,0,0,1,.173.417V58.38a.2.2,0,0,0,.1.2.1.1,0,0,0,.149-.052,6.264,6.264,0,0,1,5.421-2.956A4.989,4.989,0,0,1,100.539,56.262Z" style="fill:#fff"/><path d="M125.975,70.162a.574.574,0,0,1-.64.594H110.1c-.2,0-.263.08-.2.244a8.8,8.8,0,0,0,.541,1.974q1.283,2.755,5.225,2.76a5.948,5.948,0,0,0,4.979-2.563.444.444,0,0,1,.788-.1l3.55,3.5a.682.682,0,0,1,.247.442,1.021,1.021,0,0,1-.2.4,10.717,10.717,0,0,1-4.19,3.129,14.022,14.022,0,0,1-5.618,1.107,12.79,12.79,0,0,1-7.173-1.921,10.676,10.676,0,0,1-4.214-5.372,16.911,16.911,0,0,1-1.035-6.459,14.2,14.2,0,0,1,.738-4.782,10.843,10.843,0,0,1,3.97-5.572,11.094,11.094,0,0,1,6.727-2.07,10.962,10.962,0,0,1,7.913,2.861,12.509,12.509,0,0,1,3.623,7.642A21.253,21.253,0,0,1,125.975,70.162ZM110.2,64.4a11.477,11.477,0,0,0-.345,1.577.217.217,0,0,0,.247.244h8.529c.2,0,.261-.08.2-.244-.164-.955-.246-1.412-.246-1.38a4.275,4.275,0,0,0-1.553-2.295,4.512,4.512,0,0,0-2.736-.81A3.95,3.95,0,0,0,110.2,64.4Z" style="fill:#fff"/></g></svg>