<svg id="Layer_1" data-name="Layer 1" xmlns="http://www.w3.org/2000/svg" viewBox="0 0 128 128"><path d="M126,63.978v.044a7.529,7.529,0,0,1-2.223,5.338L101.039,92.108a7.583,7.583,0,0,1-10.73-10.719l9.806-9.806H27.885l9.806,9.806A7.579,7.579,0,1,1,26.972,92.108L4.223,69.36A7.576,7.576,0,0,1,2,64.022v-.044A7.6,7.6,0,0,1,4.223,58.64L26.972,35.892A7.579,7.579,0,1,1,37.691,46.611l-9.806,9.817h72.23l-9.806-9.817a7.583,7.583,0,0,1,10.73-10.719L123.777,58.64A7.549,7.549,0,0,1,126,63.978Z" style="fill:#fff"/></svg>