<svg xmlns="http://www.w3.org/2000/svg" viewBox="0 0 128 128"><g id="Layer_2" data-name="Layer 2"><path d="M107.317,63.979v.042a7.226,7.226,0,0,1-7.219,7.2H71.209v30.125l9.336-9.337a7.225,7.225,0,0,1,10.217,10.217L69.1,123.873A7.292,7.292,0,0,1,64.01,126h-.041a7.284,7.284,0,0,1-5.082-2.127L37.238,102.225a7.217,7.217,0,0,1,10.2-10.217l9.336,9.337V71.22H27.9a7.207,7.207,0,0,1-7.219-7.2v-.042a7.761,7.761,0,0,1,.136-1.4,7.382,7.382,0,0,1,.43-1.341,1.476,1.476,0,0,1,.188-.4A7,7,0,0,1,22.8,58.9a7.173,7.173,0,0,1,5.1-2.117H56.77V26.645l-9.336,9.326a7.213,7.213,0,1,1-10.2-10.206L58.887,4.117A7.185,7.185,0,0,1,63.969,2h.041A7.193,7.193,0,0,1,69.1,4.117L90.762,25.765A7.221,7.221,0,1,1,80.545,35.971l-9.336-9.326V56.78H100.1a7.21,7.21,0,0,1,5.1,2.117,7.358,7.358,0,0,1,1.257,1.7c.105.209.2.419.293.639a4.383,4.383,0,0,1,.241.66c.063.22.126.45.179.681A7.855,7.855,0,0,1,107.317,63.979Z" style="fill:#fff"/></g></svg>