<svg id="Layer_1" data-name="Layer 1" xmlns="http://www.w3.org/2000/svg" viewBox="0 0 128 128"><path d="M34.509,87.728,32.416,80.89c-.094-.185-.21-.281-.349-.281H14.9c-.139,0-.255.1-.349.281l-2.022,6.838a.879.879,0,0,1-.909.7H2.754a.776.776,0,0,1-.627-.244.76.76,0,0,1-.071-.733L17.132,40.272a.874.874,0,0,1,.906-.7H28.994a.877.877,0,0,1,.909.7L44.977,87.45a.8.8,0,0,1,.071.349q0,.627-.767.628H35.415A.874.874,0,0,1,34.509,87.728ZM17.34,73H29.625c.278,0,.372-.139.278-.421L23.621,51.855c-.045-.184-.116-.266-.21-.244a.325.325,0,0,0-.207.244L17.061,72.583C17.013,72.865,17.107,73,17.34,73Z" style="fill:#fff"/><path d="M57.33,86.856a15.275,15.275,0,0,1-6.35-5.966,17.285,17.285,0,0,1-2.235-8.863V55.905a17.3,17.3,0,0,1,2.235-8.866,15.075,15.075,0,0,1,6.35-5.932,20.818,20.818,0,0,1,9.556-2.093A21.357,21.357,0,0,1,76.348,41a14.975,14.975,0,0,1,6.35,5.652,15.789,15.789,0,0,1,2.272,8.479c0,.421-.284.676-.84.77l-8.168.489h-.136c-.466,0-.7-.256-.7-.77a7.953,7.953,0,0,0-2.261-5.932,8.138,8.138,0,0,0-5.975-2.233,8.22,8.22,0,0,0-6.032,2.233,7.95,7.95,0,0,0-2.269,5.932v16.82a7.854,7.854,0,0,0,2.269,5.862,8.213,8.213,0,0,0,6.032,2.235,8.131,8.131,0,0,0,5.975-2.235,7.857,7.857,0,0,0,2.261-5.862c0-.511.284-.767.84-.767l8.168.35a.876.876,0,0,1,.59.207.616.616,0,0,1,.25.489A15.978,15.978,0,0,1,82.7,81.239a15.121,15.121,0,0,1-6.35,5.722,21.05,21.05,0,0,1-9.462,2.025A20.513,20.513,0,0,1,57.33,86.856Z" style="fill:#fff"/><path d="M92.4,88.183a.8.8,0,0,1-.244-.594V40.411a.833.833,0,0,1,.835-.838h8.167a.813.813,0,0,1,.591.244.8.8,0,0,1,.244.594V79.632a.309.309,0,0,0,.352.349h22.821a.833.833,0,0,1,.835.838v6.77a.833.833,0,0,1-.835.838H92.99A.791.791,0,0,1,92.4,88.183Z" style="fill:#fff"/></svg>