<svg xmlns="http://www.w3.org/2000/svg" viewBox="0 0 128 128"><g id="Layer_2" data-name="Layer 2"><path d="M7.008,77.322A8.294,8.294,0,0,1,3.3,74.4,7.656,7.656,0,0,1,2,69.969v-.88a.478.478,0,0,1,.481-.481H7.047a.478.478,0,0,1,.481.481v.6a3.268,3.268,0,0,0,1.484,2.7,6.554,6.554,0,0,0,4,1.1,4.743,4.743,0,0,0,3.166-.9,2.834,2.834,0,0,0,1.042-2.224,2.243,2.243,0,0,0-.642-1.622,5.644,5.644,0,0,0-1.743-1.162q-1.1-.5-3.5-1.383A34.2,34.2,0,0,1,6.788,64.32,9.122,9.122,0,0,1,3.663,61.7,6.6,6.6,0,0,1,2.4,57.589a7.222,7.222,0,0,1,1.243-4.206,7.9,7.9,0,0,1,3.446-2.765,12.618,12.618,0,0,1,5.088-.962,12.993,12.993,0,0,1,5.429,1.083,8.844,8.844,0,0,1,3.726,3.024,7.744,7.744,0,0,1,1.342,4.507v.6a.478.478,0,0,1-.481.481H17.585a.478.478,0,0,1-.481-.481v-.321a3.638,3.638,0,0,0-1.382-2.864,5.636,5.636,0,0,0-3.786-1.182,4.8,4.8,0,0,0-2.945.8,2.612,2.612,0,0,0-1.062,2.2,2.4,2.4,0,0,0,.621,1.683,5.432,5.432,0,0,0,1.843,1.222q1.223.541,3.787,1.463a47.2,47.2,0,0,1,4.466,1.842A8.893,8.893,0,0,1,21.571,66.1a6.255,6.255,0,0,1,1.3,4.106,7.171,7.171,0,0,1-2.765,5.949,11.769,11.769,0,0,1-7.493,2.185A14.25,14.25,0,0,1,7.008,77.322Z" style="fill:#fff"/><path d="M38.638,57.569a.467.467,0,0,1,.341-.14h4.687a.478.478,0,0,1,.481.481V77.542a.48.48,0,0,1-.481.481H38.979a.48.48,0,0,1-.481-.481V76.18c0-.081-.028-.127-.08-.141s-.107.021-.161.1A5.775,5.775,0,0,1,33.289,78.3a7.032,7.032,0,0,1-5.008-1.842,6.747,6.747,0,0,1-1.963-5.17V57.91a.48.48,0,0,1,.481-.481h4.647a.478.478,0,0,1,.48.481V69.889a3.845,3.845,0,0,0,.863,2.605,2.977,2.977,0,0,0,2.383,1,3.159,3.159,0,0,0,2.244-.821A3.571,3.571,0,0,0,38.5,70.53V57.91A.466.466,0,0,1,38.638,57.569Z" style="fill:#fff"/><path d="M67.305,67.646a15.6,15.6,0,0,1-.682,4.848,8.823,8.823,0,0,1-2.944,4.286,7.6,7.6,0,0,1-4.788,1.564,5.48,5.48,0,0,1-4.607-2.2.17.17,0,0,0-.162-.061c-.053.015-.08.061-.08.141v1.322a.48.48,0,0,1-.48.481H48.875a.458.458,0,0,1-.341-.141.464.464,0,0,1-.14-.34V50.458a.48.48,0,0,1,.481-.481h4.687a.465.465,0,0,1,.34.141.457.457,0,0,1,.14.34v8.574a.162.162,0,0,0,.08.16c.054.027.108,0,.162-.08a5.309,5.309,0,0,1,4.447-2,7.9,7.9,0,0,1,4.907,1.5,8.613,8.613,0,0,1,2.905,4.066A14.512,14.512,0,0,1,67.305,67.646Zm-5.85.121a7.821,7.821,0,0,0-.962-4.249,3.132,3.132,0,0,0-2.844-1.562,2.941,2.941,0,0,0-2.684,1.562,8.429,8.429,0,0,0-.882,4.208,8.126,8.126,0,0,0,.8,4.046A3.046,3.046,0,0,0,57.689,73.5a3.139,3.139,0,0,0,2.925-1.723A8.255,8.255,0,0,0,61.455,67.767Z" style="fill:#fff"/><path d="M86.9,59.073A7.2,7.2,0,0,1,88.86,64.4V77.542a.465.465,0,0,1-.141.34.459.459,0,0,1-.34.141H83.692a.455.455,0,0,1-.341-.141.46.46,0,0,1-.14-.34V65.563a3.757,3.757,0,0,0-.9-2.606,3.339,3.339,0,0,0-4.768,0,3.748,3.748,0,0,0-.9,2.606V77.542a.464.464,0,0,1-.14.34.458.458,0,0,1-.341.141H71.471a.48.48,0,0,1-.48-.481V57.91a.462.462,0,0,1,.14-.341.468.468,0,0,1,.34-.14h4.687a.478.478,0,0,1,.481.481v1.4a.16.16,0,0,0,.08.16.078.078,0,0,0,.121-.039,5.6,5.6,0,0,1,4.887-2.325A6.986,6.986,0,0,1,86.9,59.073Z" style="fill:#fff"/><path d="M111.176,69.007a.466.466,0,0,1-.52.481H98.276c-.16,0-.214.067-.16.2a7.181,7.181,0,0,0,.44,1.6q1.043,2.245,4.247,2.244a4.835,4.835,0,0,0,4.046-2.082.361.361,0,0,1,.641-.082l2.886,2.845a.556.556,0,0,1,.2.36.818.818,0,0,1-.161.321,8.729,8.729,0,0,1-3.406,2.545,11.393,11.393,0,0,1-4.566.9,10.4,10.4,0,0,1-5.83-1.564,8.671,8.671,0,0,1-3.425-4.367,13.733,13.733,0,0,1-.841-5.248,11.519,11.519,0,0,1,.6-3.886,8.8,8.8,0,0,1,3.226-4.528,9.022,9.022,0,0,1,5.468-1.682,8.908,8.908,0,0,1,6.431,2.323,10.167,10.167,0,0,1,2.944,6.21A17.21,17.21,0,0,1,111.176,69.007ZM98.356,64.32a9.3,9.3,0,0,0-.281,1.282.177.177,0,0,0,.2.2h6.932c.16,0,.212-.065.16-.2-.134-.775-.2-1.148-.2-1.122a3.473,3.473,0,0,0-1.262-1.862,3.657,3.657,0,0,0-2.223-.662A3.212,3.212,0,0,0,98.356,64.32Z" style="fill:#fff"/><path d="M125.86,61.816a.457.457,0,0,1-.339.14h-3.848a.177.177,0,0,0-.2.2v8.494a2.982,2.982,0,0,0,.542,1.962,2.146,2.146,0,0,0,1.741.641h1.324a.478.478,0,0,1,.479.481v3.807a.493.493,0,0,1-.479.521c-1.125.053-1.924.08-2.407.08a8.984,8.984,0,0,1-4.965-1.1q-1.644-1.1-1.686-4.147V62.157a.176.176,0,0,0-.2-.2H113.54a.478.478,0,0,1-.481-.48V57.91a.478.478,0,0,1,.481-.481h2.284a.176.176,0,0,0,.2-.2V52.462a.473.473,0,0,1,.14-.341.468.468,0,0,1,.342-.14h4.487a.478.478,0,0,1,.482.481v4.767a.176.176,0,0,0,.2.2h3.848a.478.478,0,0,1,.479.481v3.566A.46.46,0,0,1,125.86,61.816Z" style="fill:#fff"/></g></svg>