<svg xmlns="http://www.w3.org/2000/svg" viewBox="0 0 128 128"><g id="Layer_2" data-name="Layer 2"><path d="M110.34,67.177,64,123.934,17.66,67.177h8.954a1.119,1.119,0,0,0,.992-.6l2.627-5.013,7-13.333a1.119,1.119,0,0,1,1.982,0l6.991,13.332L65.882,99.076a1.12,1.12,0,0,0,1.983,0l16.409-31.3a1.118,1.118,0,0,1,.991-.6Z" style="fill:#fff"/><path d="M125.859,33.547a32.436,32.436,0,0,1-5.27,21.035c-.045.078-.1.157-.157.247l-.92,1.122H78.485a1.121,1.121,0,0,0-.992.6l-2.626,5.013-7,13.344a1.12,1.12,0,0,1-1.983,0l-7-13.344L39.217,24.052a1.12,1.12,0,0,0-1.983,0l-16.419,31.3a1.122,1.122,0,0,1-.992.6H8.488l-.92-1.122c-.056-.09-.112-.169-.157-.247A32.554,32.554,0,1,1,64,22.723a32.56,32.56,0,0,1,61.859,10.824Z" style="fill:#fff"/></g></svg>