<svg xmlns="http://www.w3.org/2000/svg" viewBox="0 0 128 128"><g id="Layer_2" data-name="Layer 2"><path d="M43.811,43.541V36.447a20.459,20.459,0,1,1,40.917,0v7.086a20.459,20.459,0,1,1-40.917.008Z" style="fill:#fff"/><path d="M97.777,87.965a43.848,43.848,0,0,1-67.548,0,1.927,1.927,0,0,1,.131-2.63,47.9,47.9,0,0,1,67.286,0A1.943,1.943,0,0,1,97.777,87.965Z" style="fill:#fff"/><path d="M8.643,3.906V124.094A1.906,1.906,0,0,0,10.549,126h106.9a1.906,1.906,0,0,0,1.906-1.906V3.906A1.906,1.906,0,0,0,117.451,2H10.549A1.906,1.906,0,0,0,8.643,3.906ZM110.129,96.218H99.452a1.886,1.886,0,0,0-1.152.4,56.115,56.115,0,0,1-68.6,0,1.882,1.882,0,0,0-1.15-.4H17.871a1.905,1.905,0,0,1-1.906-1.905V12.107A1.906,1.906,0,0,1,17.871,10.2h92.258a1.906,1.906,0,0,1,1.906,1.906V94.313A1.905,1.905,0,0,1,110.129,96.218Z" style="fill:#fff"/></g></svg>