<svg xmlns="http://www.w3.org/2000/svg" viewBox="0 0 128 128"><g id="Layer_2" data-name="Layer 2"><path d="M64,2a62,62,0,1,0,62,62A62,62,0,0,0,64,2ZM97.92,108.73a1.2,1.2,0,0,1-.11.12,56.171,56.171,0,0,1-67.62.01c-.04-.04-.07-.09-.11-.13a1.934,1.934,0,0,1,.13-2.64,48.1,48.1,0,0,1,67.58,0A1.934,1.934,0,0,1,97.92,108.73ZM43.45,64.12V56.99a20.55,20.55,0,0,1,41.1,0v7.12a20.55,20.55,0,0,1-41.1.01ZM99,77.02H87.19a26.353,26.353,0,0,0,3.36-12.91V56.99a26.55,26.55,0,0,0-53.1,0v7.13a26.314,26.314,0,0,0,3.36,12.9H26.67c-9.6,0-17.94-7.16-18.76-16.77a18.412,18.412,0,0,1,18.4-20.12,17.663,17.663,0,0,1,2.18.09,1.406,1.406,0,0,0,1.72-1.36v-.27a29.806,29.806,0,0,1,7.33-19.56A29.508,29.508,0,0,1,89.03,34.24a1.977,1.977,0,0,0,2.63,1.63,20.3,20.3,0,0,1,8.43-1.27,21.371,21.371,0,0,1,20.03,19.85A21.158,21.158,0,0,1,99,77.02Z" style="fill:#fff"/></g></svg>