<svg xmlns="http://www.w3.org/2000/svg" viewBox="0 0 128 128"><g id="Layer_2" data-name="Layer 2"><path d="M123.606,42.654A2.392,2.392,0,0,0,126,40.272V35.114a2.392,2.392,0,0,0-2.394-2.382H105.19V25.085a2.282,2.282,0,0,0-2.275-2.275H95.268V4.394A2.392,2.392,0,0,0,92.886,2H87.728a2.392,2.392,0,0,0-2.382,2.394V22.81H77.734V4.394A2.394,2.394,0,0,0,75.34,2H70.194a2.384,2.384,0,0,0-2.382,2.394V22.81H60.188V4.394A2.384,2.384,0,0,0,57.806,2H52.66a2.394,2.394,0,0,0-2.394,2.394V22.81H42.654V4.394A2.392,2.392,0,0,0,40.272,2H35.114a2.392,2.392,0,0,0-2.382,2.394V22.81H25.085a2.282,2.282,0,0,0-2.275,2.275v7.647H4.394A2.392,2.392,0,0,0,2,35.114v5.158a2.392,2.392,0,0,0,2.394,2.382H22.81v7.612H4.394A2.394,2.394,0,0,0,2,52.66v5.146a2.384,2.384,0,0,0,2.394,2.382H22.81v7.624H4.394A2.384,2.384,0,0,0,2,70.194V75.34a2.394,2.394,0,0,0,2.394,2.394H22.81v7.612H4.394A2.392,2.392,0,0,0,2,87.728v5.158a2.392,2.392,0,0,0,2.394,2.382H22.81v7.647a2.282,2.282,0,0,0,2.275,2.275h7.647v18.416A2.392,2.392,0,0,0,35.114,126h5.158a2.392,2.392,0,0,0,2.382-2.394V105.19h7.612v18.416A2.394,2.394,0,0,0,52.66,126h5.146a2.384,2.384,0,0,0,2.382-2.394V105.19h7.624v18.416A2.384,2.384,0,0,0,70.194,126H75.34a2.394,2.394,0,0,0,2.394-2.394V105.19h7.612v18.416A2.392,2.392,0,0,0,87.728,126h5.158a2.392,2.392,0,0,0,2.382-2.394V105.19h7.647a2.282,2.282,0,0,0,2.275-2.275V95.268h18.416A2.392,2.392,0,0,0,126,92.886V87.728a2.392,2.392,0,0,0-2.394-2.382H105.19V77.734h18.416A2.394,2.394,0,0,0,126,75.34V70.194a2.384,2.384,0,0,0-2.394-2.382H105.19V60.188h18.416A2.384,2.384,0,0,0,126,57.806V52.66a2.394,2.394,0,0,0-2.394-2.394H105.19V42.654ZM95.268,92.993a2.282,2.282,0,0,1-2.275,2.275H35.007a2.282,2.282,0,0,1-2.275-2.275V35.007a2.282,2.282,0,0,1,2.275-2.275H92.993a2.282,2.282,0,0,1,2.275,2.275Z" style="fill:#fff"/><rect x="42.654" y="42.654" width="42.691" height="42.691" rx="1.592" style="fill:#fff"/></g></svg>