<svg id="Layer_1" data-name="Layer 1" xmlns="http://www.w3.org/2000/svg" viewBox="0 0 128 128"><path d="M64,2a62,62,0,1,0,62,62A62,62,0,0,0,64,2ZM39.35,35.3a24.975,24.975,0,1,1,49.95,0v8.65a24.975,24.975,0,1,1-49.95.01V35.3Zm65.88,62.89a53.565,53.565,0,0,1-82.46,0,2.362,2.362,0,0,1,.16-3.21,58.476,58.476,0,0,1,82.14,0A2.362,2.362,0,0,1,105.23,98.19Z" style="fill:#fff"/><path d="M64,2a62,62,0,1,0,62,62A62,62,0,0,0,64,2ZM39.35,35.3a24.975,24.975,0,1,1,49.95,0v8.65a24.975,24.975,0,1,1-49.95.01V35.3Zm65.88,62.89a53.565,53.565,0,0,1-82.46,0,2.362,2.362,0,0,1,.16-3.21,58.476,58.476,0,0,1,82.14,0A2.362,2.362,0,0,1,105.23,98.19Z" style="fill:#fff"/></svg>