<svg xmlns="http://www.w3.org/2000/svg" viewBox="0 0 128 128"><g id="Layer_2" data-name="Layer 2"><path d="M121.615,92.394,65.777,124.963a3.525,3.525,0,0,1-3.554,0L6.385,92.394a.89.89,0,0,1,0-1.538l16.84-9.82,39,22.748a3.525,3.525,0,0,0,3.554,0l39-22.748,16.84,9.82A.89.89,0,0,1,121.615,92.394Z" style="fill:#fff"/><path d="M121.615,63.231a.89.89,0,0,1,0,1.538l-4.206,2.454L99.25,77.813,65.777,97.338a3.525,3.525,0,0,1-3.554,0L28.75,77.813,10.591,67.223,6.385,64.769a.89.89,0,0,1,0-1.538l16.84-9.821,5.525,3.223L46.9,67.223l15.323,8.936a3.525,3.525,0,0,0,3.554,0L81.1,67.223l18.15-10.59,5.525-3.223Z" style="fill:#fff"/><path d="M121.615,35.606a.89.89,0,0,1,0,1.538L117.409,39.6,99.25,50.187,93.725,53.41,75.575,64l-9.8,5.714a3.529,3.529,0,0,1-3.554,0L52.425,64,34.275,53.41,28.75,50.187,10.591,39.6,6.385,37.144a.89.89,0,0,1,0-1.538L62.223,3.037a3.525,3.525,0,0,1,3.554,0Z" style="fill:#fff"/></g></svg>