<svg xmlns="http://www.w3.org/2000/svg" viewBox="0 0 128 128"><g id="Layer_2" data-name="Layer 2"><path d="M21.714,44.357a9.157,9.157,0,0,1,3.727,3.679,11.051,11.051,0,0,1,1.323,5.456,10.251,10.251,0,0,1-1.372,5.338,9.311,9.311,0,0,1-3.846,3.582,12.286,12.286,0,0,1-5.7,1.274H9.02a.213.213,0,0,0-.241.241V76.188a.574.574,0,0,1-.575.577H2.577a.55.55,0,0,1-.409-.168A.558.558,0,0,1,2,76.188V43.636a.575.575,0,0,1,.577-.578H16.138A11.546,11.546,0,0,1,21.714,44.357ZM18.685,56.979a4.385,4.385,0,0,0,1.346-3.342,4.525,4.525,0,0,0-1.346-3.414,4.911,4.911,0,0,0-3.557-1.3H9.02a.214.214,0,0,0-.241.241v8.847a.213.213,0,0,0,.241.241h6.108A4.964,4.964,0,0,0,18.685,56.979Z" style="fill:#fff"/><path d="M33.111,75.034a10.567,10.567,0,0,1-3.943-5.77,17.06,17.06,0,0,1-.675-4.905,17.816,17.816,0,0,1,.675-5.1,10.319,10.319,0,0,1,3.99-5.576,11.756,11.756,0,0,1,6.924-2.021,11.272,11.272,0,0,1,6.732,2,10.635,10.635,0,0,1,3.943,5.554,16.487,16.487,0,0,1,.768,5.048,16.882,16.882,0,0,1-.673,4.856,10.741,10.741,0,0,1-3.918,5.891,11.191,11.191,0,0,1-6.9,2.141A11.386,11.386,0,0,1,33.111,75.034Zm9.616-4.665a5.333,5.333,0,0,0,1.587-2.643,13.885,13.885,0,0,0,.385-3.367,13.042,13.042,0,0,0-.385-3.414A5.349,5.349,0,0,0,42.678,58.4a4.461,4.461,0,0,0-5.408,0,5.114,5.114,0,0,0-1.563,2.548,11.471,11.471,0,0,0-.385,3.414,13.077,13.077,0,0,0,.336,3.367,5.247,5.247,0,0,0,1.612,2.643,4.115,4.115,0,0,0,2.765.963A3.961,3.961,0,0,0,42.727,70.369Z" style="fill:#fff"/><path d="M56.07,76.6a.551.551,0,0,1-.168-.409v-32.5a.55.55,0,0,1,.168-.408.559.559,0,0,1,.409-.169H62.1a.577.577,0,0,1,.578.577v32.5a.555.555,0,0,1-.169.409.547.547,0,0,1-.409.168H56.479A.55.55,0,0,1,56.07,76.6Z" style="fill:#fff"/><path d="M68.571,48.181a3.954,3.954,0,1,1,2.717,1.081A3.693,3.693,0,0,1,68.571,48.181ZM67.994,76.6a.555.555,0,0,1-.169-.409V52.579A.575.575,0,0,1,68.4,52h5.627a.575.575,0,0,1,.576.577V76.188a.575.575,0,0,1-.576.577H68.4A.546.546,0,0,1,67.994,76.6Z" style="fill:#fff"/><path d="M84.1,75.228a10.514,10.514,0,0,1-4.015-5.291,17.622,17.622,0,0,1-.818-5.674,17.034,17.034,0,0,1,.818-5.578,9.976,9.976,0,0,1,3.991-5.144,11.844,11.844,0,0,1,6.684-1.876,11.969,11.969,0,0,1,6.755,1.923,9.227,9.227,0,0,1,3.87,4.858,6.1,6.1,0,0,1,.386,1.73v.1a.512.512,0,0,1-.481.53l-5.53.818h-.095a.578.578,0,0,1-.578-.481l-.144-.769A3.653,3.653,0,0,0,93.454,58.3a4.609,4.609,0,0,0-2.739-.818,4.3,4.3,0,0,0-2.6.769,4.082,4.082,0,0,0-1.489,2.117,11.755,11.755,0,0,0-.53,3.942,12.874,12.874,0,0,0,.482,3.942,4.268,4.268,0,0,0,1.514,2.26,4.217,4.217,0,0,0,2.622.818,4.437,4.437,0,0,0,2.619-.794A4.055,4.055,0,0,0,94.9,68.35a.678.678,0,0,0,.047-.287.2.2,0,0,0,.049-.145c.031-.385.256-.544.673-.481l5.529.866a.511.511,0,0,1,.481.529,6.693,6.693,0,0,1-.29,1.442,8.963,8.963,0,0,1-3.918,5.049,12.337,12.337,0,0,1-6.707,1.828A11.52,11.52,0,0,1,84.1,75.228Z" style="fill:#fff"/><path d="M104.7,86.166a.8.8,0,0,1-.1-.408V81.334a.558.558,0,0,1,.168-.409.55.55,0,0,1,.409-.168,15.74,15.74,0,0,0,3.2-.337,3.482,3.482,0,0,0,1.876-1.105,5.814,5.814,0,0,0,1.082-2.405.435.435,0,0,0,0-.289l-7.886-23.946a.527.527,0,0,1-.047-.239c0-.29.176-.434.528-.434h6.01a.635.635,0,0,1,.673.481l4.041,15.58c.031.1.078.143.142.143s.114-.047.145-.143l4.038-15.58a.636.636,0,0,1,.673-.481h5.868a.469.469,0,0,1,.409.168.592.592,0,0,1,.023.5l-8.319,25a21.177,21.177,0,0,1-2.451,5.265,7.174,7.174,0,0,1-3.51,2.573,19.618,19.618,0,0,1-6.4.818h-.337A.281.281,0,0,1,104.7,86.166Z" style="fill:#fff"/></g></svg>