<svg id="Layer_1" data-name="Layer 1" xmlns="http://www.w3.org/2000/svg" viewBox="0 0 128 128"><path d="M75.02,91.546H88.275a2.24,2.24,0,0,0,2.24-2.241V85.384a2.241,2.241,0,0,1,2.241-2.241h13.266a2.241,2.241,0,0,1,2.241,2.241h0a2.242,2.242,0,0,0,2.241,2.241h13.255A2.241,2.241,0,0,0,126,85.384V55.412a2.241,2.241,0,0,0-2.241-2.241H53.092a2.207,2.207,0,0,1-2.034-1.3,25.573,25.573,0,1,0,.009,20.349A2.208,2.208,0,0,1,53.1,70.908H70.538a2.241,2.241,0,0,1,2.241,2.24V89.305A2.241,2.241,0,0,0,75.02,91.546Zm-55.272-29.5a7.843,7.843,0,1,1,7.843,7.843A7.837,7.837,0,0,1,19.748,62.045Z" style="fill:#fff"/></svg>