<svg id="Layer_1" data-name="Layer 1" xmlns="http://www.w3.org/2000/svg" viewBox="0 0 128 128"><path d="M46.041,11.476a.639.639,0,0,1,.47-.193h6.465a.659.659,0,0,1,.663.663V49.3a.661.661,0,0,1-.663.664H46.732a.788.788,0,0,1-.774-.443L31.646,25.871c-.074-.11-.148-.157-.222-.139s-.11.1-.11.249l.11,23.319a.662.662,0,0,1-.664.664H24.3a.632.632,0,0,1-.47-.194.641.641,0,0,1-.193-.47V11.946a.659.659,0,0,1,.663-.663H30.54a.79.79,0,0,1,.774.441L45.571,35.265c.072.111.146.158.221.138s.11-.1.11-.248l-.054-23.209A.635.635,0,0,1,46.041,11.476Z" style="fill:#fff"/><path d="M85.244,37.53a.641.641,0,0,1-.715.663H67.454c-.221,0-.3.092-.221.276a9.669,9.669,0,0,0,.607,2.211q1.437,3.1,5.856,3.094a6.666,6.666,0,0,0,5.58-2.872.5.5,0,0,1,.886-.112l3.98,3.924a.759.759,0,0,1,.274.5,1.108,1.108,0,0,1-.22.443,12.048,12.048,0,0,1-4.7,3.51,15.708,15.708,0,0,1-6.3,1.244A14.341,14.341,0,0,1,65.16,48.25a11.963,11.963,0,0,1-4.724-6.023,18.954,18.954,0,0,1-1.16-7.238,15.9,15.9,0,0,1,.827-5.361,12.145,12.145,0,0,1,4.45-6.244,12.438,12.438,0,0,1,7.542-2.32,12.284,12.284,0,0,1,8.868,3.2,14,14,0,0,1,4.06,8.564A23.614,23.614,0,0,1,85.244,37.53ZM67.562,31.065a13.027,13.027,0,0,0-.387,1.767.245.245,0,0,0,.279.277h9.56c.221,0,.293-.09.221-.277-.185-1.068-.279-1.582-.279-1.546a4.784,4.784,0,0,0-1.741-2.568,5.028,5.028,0,0,0-3.066-.913A4.429,4.429,0,0,0,67.562,31.065Z" style="fill:#fff"/><path d="M105.5,27.611a.639.639,0,0,1-.472.194h-5.3a.244.244,0,0,0-.279.276V39.8a4.117,4.117,0,0,0,.747,2.707,2.975,2.975,0,0,0,2.406.884h1.821a.65.65,0,0,1,.472.193.659.659,0,0,1,.193.47V49.3a.685.685,0,0,1-.665.72q-2.32.108-3.314.11-4.587,0-6.854-1.52t-2.32-5.72V28.081a.245.245,0,0,0-.275-.276H88.5a.624.624,0,0,1-.468-.194.632.632,0,0,1-.193-.469V22.224a.659.659,0,0,1,.661-.663h3.152a.245.245,0,0,0,.275-.277V14.71a.661.661,0,0,1,.661-.664h6.192a.661.661,0,0,1,.661.664v6.574a.244.244,0,0,0,.279.277h5.3a.661.661,0,0,1,.666.663v4.918A.649.649,0,0,1,105.5,27.611Z" style="fill:#fff"/><path d="M11.835,115.723,2.054,78.313,2,78.092c0-.332.2-.5.607-.5H9.461a.694.694,0,0,1,.717.553l5.25,22.49c.036.148.09.22.166.22s.129-.072.165-.22L20.842,78.2a.71.71,0,0,1,.72-.607h6.685a.726.726,0,0,1,.773.553l5.527,22.49c.036.112.092.175.166.193s.129-.045.167-.193L39.964,78.2a.706.706,0,0,1,.717-.607H47.2c.515,0,.718.243.608.72l-9.062,37.41a.727.727,0,0,1-.773.553H31.4a.691.691,0,0,1-.717-.553L25.043,91.8c-.036-.144-.093-.221-.167-.221s-.128.077-.164.221l-5.25,23.874a.663.663,0,0,1-.72.607H12.608A.729.729,0,0,1,11.835,115.723Z" style="fill:#fff"/><path d="M53.171,114.284a12.134,12.134,0,0,1-4.53-6.628,19.6,19.6,0,0,1-.776-5.64,20.416,20.416,0,0,1,.776-5.855,11.858,11.858,0,0,1,4.584-6.408,13.5,13.5,0,0,1,7.958-2.325,12.975,12.975,0,0,1,7.737,2.294,12.2,12.2,0,0,1,4.528,6.385,18.912,18.912,0,0,1,.886,5.8,19.421,19.421,0,0,1-.773,5.58,12.33,12.33,0,0,1-4.506,6.768,12.84,12.84,0,0,1-7.926,2.46A13.065,13.065,0,0,1,53.171,114.284Zm11.049-5.36a6.118,6.118,0,0,0,1.826-3.036,16.079,16.079,0,0,0,.441-3.872,15.068,15.068,0,0,0-.441-3.921,6.163,6.163,0,0,0-1.88-2.927,5.11,5.11,0,0,0-6.214,0,5.864,5.864,0,0,0-1.8,2.927,13.139,13.139,0,0,0-.443,3.921,15.024,15.024,0,0,0,.387,3.872,6.028,6.028,0,0,0,1.853,3.036,4.728,4.728,0,0,0,3.177,1.106A4.542,4.542,0,0,0,64.22,108.924Z" style="fill:#fff"/><path d="M96.657,88.26a.691.691,0,0,1,.333.828l-1.16,6.3c-.041.441-.3.571-.774.387a6.118,6.118,0,0,0-1.938-.279,9.524,9.524,0,0,0-1.214.112,5.414,5.414,0,0,0-3.368,1.466,4.51,4.51,0,0,0-1.385,3.454v15.083a.639.639,0,0,1-.194.472.625.625,0,0,1-.468.193H80.023a.625.625,0,0,1-.468-.193.642.642,0,0,1-.193-.472V88.534a.631.631,0,0,1,.193-.467.623.623,0,0,1,.468-.194h6.466a.662.662,0,0,1,.662.661v2.1a.215.215,0,0,0,.112.22.108.108,0,0,0,.166-.054,7.01,7.01,0,0,1,6.076-3.314A5.609,5.609,0,0,1,96.657,88.26Z" style="fill:#fff"/><path d="M100.718,116.083a.642.642,0,0,1-.193-.472V78.259a.641.641,0,0,1,.193-.472.659.659,0,0,1,.472-.194h6.462a.662.662,0,0,1,.666.666V96.881c0,.108.036.175.108.193a.234.234,0,0,0,.225-.085l7.514-8.729a1.16,1.16,0,0,1,.828-.387h7.348c.368,0,.553.131.553.387a.931.931,0,0,1-.167.441l-7.015,8.9a.481.481,0,0,0-.054.387l8.23,17.52a.818.818,0,0,1,.112.328q0,.445-.607.445h-6.8a.782.782,0,0,1-.773-.5l-5.468-12.929a.256.256,0,0,0-.194-.139.158.158,0,0,0-.193.081l-3.539,4.425a.842.842,0,0,0-.108.328v8.068a.659.659,0,0,1-.194.472.641.641,0,0,1-.472.193H101.19A.642.642,0,0,1,100.718,116.083Z" style="fill:#fff"/></svg>