<svg xmlns="http://www.w3.org/2000/svg" viewBox="0 0 128 128"><g id="Layer_2" data-name="Layer 2"><path d="M105.66,49.08a1.671,1.671,0,0,0,1.67-1.66V43.81a1.671,1.671,0,0,0-1.67-1.66H92.79V36.8a1.6,1.6,0,0,0-1.59-1.59H85.85V22.34a1.671,1.671,0,0,0-1.66-1.67H80.58a1.671,1.671,0,0,0-1.66,1.67V35.21H73.6V22.34a1.673,1.673,0,0,0-1.67-1.67h-3.6a1.673,1.673,0,0,0-1.67,1.67V35.21H61.34V22.34a1.673,1.673,0,0,0-1.67-1.67h-3.6a1.673,1.673,0,0,0-1.67,1.67V35.21H49.08V22.34a1.671,1.671,0,0,0-1.66-1.67H43.81a1.671,1.671,0,0,0-1.66,1.67V35.21H36.8a1.6,1.6,0,0,0-1.59,1.59v5.35H22.34a1.671,1.671,0,0,0-1.67,1.66v3.61a1.671,1.671,0,0,0,1.67,1.66H35.21V54.4H22.34a1.673,1.673,0,0,0-1.67,1.67v3.6a1.673,1.673,0,0,0,1.67,1.67H35.21v5.32H22.34a1.673,1.673,0,0,0-1.67,1.67v3.6a1.673,1.673,0,0,0,1.67,1.67H35.21v5.32H22.34a1.671,1.671,0,0,0-1.67,1.66v3.61a1.671,1.671,0,0,0,1.67,1.66H35.21V91.2a1.6,1.6,0,0,0,1.59,1.59h5.35v12.87a1.671,1.671,0,0,0,1.66,1.67h3.61a1.671,1.671,0,0,0,1.66-1.67V92.79H54.4v12.87a1.673,1.673,0,0,0,1.67,1.67h3.6a1.673,1.673,0,0,0,1.67-1.67v-.3a32.239,32.239,0,0,1-4.17-15.9,33.03,33.03,0,0,1,.2-3.61H43.74a1.588,1.588,0,0,1-1.59-1.59V43.74a1.588,1.588,0,0,1,1.59-1.59H84.26a1.588,1.588,0,0,1,1.59,1.59V57.37a33.03,33.03,0,0,1,3.61-.2,32.239,32.239,0,0,1,15.9,4.17h.3a1.673,1.673,0,0,0,1.67-1.67v-3.6a1.673,1.673,0,0,0-1.67-1.67H92.79V49.08Z" style="fill:#fff"/><path d="M78.92,50.19v8.74A32.355,32.355,0,0,0,58.93,78.92H50.19a1.114,1.114,0,0,1-1.11-1.11V50.19a1.114,1.114,0,0,1,1.11-1.11H77.81A1.114,1.114,0,0,1,78.92,50.19Z" style="fill:#fff"/><path d="M64,2a62,62,0,1,0,62,62A61.989,61.989,0,0,0,64,2Zm37.93,101.66a3.21,3.21,0,0,1-2.29.95H77.02a3.235,3.235,0,0,1-3.23-3.23,3.261,3.261,0,0,1,3.23-3.24H99.64a3.231,3.231,0,0,1,2.29,5.52Zm0-12.29a3.21,3.21,0,0,1-2.29.95H77.02a3.237,3.237,0,0,1-3.23-3.24,3.244,3.244,0,0,1,3.23-3.23H99.64a3.244,3.244,0,0,1,3.24,3.23A3.21,3.21,0,0,1,101.93,91.37Zm0-12.75a3.3,3.3,0,0,1-2.29.95H77.02a3.244,3.244,0,0,1-3.23-3.24,3.187,3.187,0,0,1,.95-2.28,3.237,3.237,0,0,1,2.28-.96H99.64a3.239,3.239,0,0,1,2.29,5.53ZM88.66,61.98a26.675,26.675,0,0,0-7.06,52.4A53.339,53.339,0,1,1,114.38,81.6,26.67,26.67,0,0,0,88.66,61.98Z" style="fill:#fff"/></g></svg>