<svg xmlns="http://www.w3.org/2000/svg" viewBox="0 0 128 128"><g id="Layer_2" data-name="Layer 2"><path d="M91.293,90.562h-56.4a14.543,14.543,0,0,1-14.63-13.075A14.358,14.358,0,0,1,34.611,61.8a13.569,13.569,0,0,1,1.7.071,1.1,1.1,0,0,0,1.342-1.06V60.6h0A23.051,23.051,0,0,1,83.518,57.2a1.541,1.541,0,0,0,2.05,1.272,15.854,15.854,0,0,1,6.573-.989A16.664,16.664,0,0,1,107.76,72.964,16.5,16.5,0,0,1,91.293,90.562Z" style="fill:#fff"/><path d="M52.481,5.8v5.647A2.785,2.785,0,0,1,49.7,14.233H17.017a2.783,2.783,0,0,0-2.784,2.784V49.7a2.785,2.785,0,0,1-2.785,2.784H5.8A2.785,2.785,0,0,1,3.016,49.7V5.8A2.785,2.785,0,0,1,5.8,3.016H49.7A2.785,2.785,0,0,1,52.481,5.8Z" style="fill:#fff"/><path d="M51.464,123.216v-5.648a2.783,2.783,0,0,0-2.784-2.784H16A2.785,2.785,0,0,1,13.216,112V79.32a2.783,2.783,0,0,0-2.784-2.784H4.784A2.784,2.784,0,0,0,2,79.32v43.9A2.785,2.785,0,0,0,4.784,126h43.9A2.784,2.784,0,0,0,51.464,123.216Z" style="fill:#fff"/><path d="M76.536,4.784v5.648a2.783,2.783,0,0,0,2.784,2.784H112A2.785,2.785,0,0,1,114.784,16V48.68a2.783,2.783,0,0,0,2.784,2.784h5.648A2.784,2.784,0,0,0,126,48.68V4.784A2.785,2.785,0,0,0,123.216,2H79.32A2.784,2.784,0,0,0,76.536,4.784Z" style="fill:#fff"/><path d="M76.536,123.216v-5.648a2.783,2.783,0,0,1,2.784-2.784H112A2.785,2.785,0,0,0,114.784,112V79.32a2.783,2.783,0,0,1,2.784-2.784h5.648A2.784,2.784,0,0,1,126,79.32v43.9A2.785,2.785,0,0,1,123.216,126H79.32A2.784,2.784,0,0,1,76.536,123.216Z" style="fill:#fff"/></g></svg>