<svg xmlns="http://www.w3.org/2000/svg" viewBox="0 0 128 128"><g id="Layer_2" data-name="Layer 2"><path d="M28.38,24.419a.283.283,0,0,1,.208-.086h2.864a.294.294,0,0,1,.294.294v16.55a.285.285,0,0,1-.086.208.278.278,0,0,1-.208.085H28.686a.348.348,0,0,1-.343-.2L22,30.8c-.033-.048-.066-.069-.1-.061s-.049.046-.049.11L21.9,41.177a.292.292,0,0,1-.294.293H18.746a.278.278,0,0,1-.208-.085.285.285,0,0,1-.086-.208V24.627a.294.294,0,0,1,.294-.294h2.766a.35.35,0,0,1,.343.2l6.317,10.429c.032.049.065.07.1.061s.049-.045.049-.109l-.024-10.283A.281.281,0,0,1,28.38,24.419Z" style="fill:#fff"/><path d="M45.749,35.962a.284.284,0,0,1-.318.293H37.867c-.1,0-.131.041-.1.123a4.345,4.345,0,0,0,.269.979,2.565,2.565,0,0,0,2.6,1.371,2.952,2.952,0,0,0,2.472-1.272.221.221,0,0,1,.392-.05l1.763,1.738a.34.34,0,0,1,.123.221.507.507,0,0,1-.1.2A5.343,5.343,0,0,1,43.2,41.116a6.974,6.974,0,0,1-2.79.551,6.356,6.356,0,0,1-3.563-.956,5.3,5.3,0,0,1-2.093-2.668,8.408,8.408,0,0,1-.514-3.207,7.041,7.041,0,0,1,.367-2.375A5.383,5.383,0,0,1,36.581,29.7a5.51,5.51,0,0,1,3.342-1.028,5.444,5.444,0,0,1,3.929,1.419,6.22,6.22,0,0,1,1.8,3.8A10.581,10.581,0,0,1,45.749,35.962ZM37.915,33.1a5.823,5.823,0,0,0-.171.783.108.108,0,0,0,.123.122H42.1c.1,0,.13-.04.1-.122-.082-.474-.123-.7-.123-.686a2.114,2.114,0,0,0-.771-1.137,2.232,2.232,0,0,0-1.358-.405A1.963,1.963,0,0,0,37.915,33.1Z" style="fill:#fff"/><path d="M54.722,31.568a.286.286,0,0,1-.209.085H52.164a.108.108,0,0,0-.123.123v5.19a1.824,1.824,0,0,0,.331,1.2,1.316,1.316,0,0,0,1.065.392h.808a.291.291,0,0,1,.208.085.287.287,0,0,1,.085.208v2.327a.3.3,0,0,1-.293.318c-.687.032-1.176.049-1.47.049a5.5,5.5,0,0,1-3.035-.673,2.889,2.889,0,0,1-1.029-2.535v-6.56a.108.108,0,0,0-.122-.123H47.194a.29.29,0,0,1-.294-.294V29.181a.29.29,0,0,1,.294-.294h1.395a.108.108,0,0,0,.122-.123V25.851a.29.29,0,0,1,.294-.293h2.742a.292.292,0,0,1,.294.293v2.913a.108.108,0,0,0,.123.123h2.349a.29.29,0,0,1,.294.294v2.178A.288.288,0,0,1,54.722,31.568Z" style="fill:#fff"/><path d="M59.68,41.225l-3.526-12.02-.025-.1c0-.162.09-.245.269-.245h2.963a.324.324,0,0,1,.343.245L61.467,36.5c.016.048.04.073.072.073s.058-.025.074-.073l1.836-7.394a.324.324,0,0,1,.343-.245h2.57a.324.324,0,0,1,.343.245l1.934,7.418c.016.049.042.073.074.073s.058-.024.074-.073l1.908-7.418a.325.325,0,0,1,.343-.245l2.939.05a.236.236,0,0,1,.207.085.3.3,0,0,1,.038.233l-3.575,12a.307.307,0,0,1-.318.245H67.366a.323.323,0,0,1-.343-.245l-1.884-6.56c-.016-.049-.041-.074-.074-.074s-.057.025-.073.074l-1.665,6.56a.322.322,0,0,1-.343.245H60.022A.32.32,0,0,1,59.68,41.225Z" style="fill:#fff"/><path d="M77.282,40.589a5.374,5.374,0,0,1-2.008-2.938,8.692,8.692,0,0,1-.343-2.5,9.07,9.07,0,0,1,.343-2.6,5.265,5.265,0,0,1,2.032-2.839,5.986,5.986,0,0,1,3.526-1.029,5.737,5.737,0,0,1,3.427,1.016,5.418,5.418,0,0,1,2.008,2.828,8.381,8.381,0,0,1,.391,2.57,8.6,8.6,0,0,1-.343,2.472,5.473,5.473,0,0,1-1.994,3,5.709,5.709,0,0,1-3.515,1.09A5.794,5.794,0,0,1,77.282,40.589Zm4.9-2.375a2.707,2.707,0,0,0,.809-1.346,7.14,7.14,0,0,0,.195-1.714,6.71,6.71,0,0,0-.195-1.739,2.709,2.709,0,0,0-.833-1.3,2.27,2.27,0,0,0-2.753,0,2.6,2.6,0,0,0-.8,1.3,5.867,5.867,0,0,0-.195,1.739,6.68,6.68,0,0,0,.171,1.714,2.667,2.667,0,0,0,.821,1.346,2.09,2.09,0,0,0,1.406.49A2.009,2.009,0,0,0,82.177,38.214Z" style="fill:#fff"/><path d="M96.548,29.058a.305.305,0,0,1,.147.368l-.514,2.79c-.016.2-.131.253-.342.171a2.773,2.773,0,0,0-.857-.122,4.026,4.026,0,0,0-.54.05,2.393,2.393,0,0,0-1.492.648,2,2,0,0,0-.612,1.53v6.684a.289.289,0,0,1-.086.208.281.281,0,0,1-.209.085H89.178a.278.278,0,0,1-.207-.085.281.281,0,0,1-.086-.208v-12a.292.292,0,0,1,.293-.294h2.865a.292.292,0,0,1,.295.294v.93a.1.1,0,0,0,.048.1.049.049,0,0,0,.074-.025,3.109,3.109,0,0,1,2.693-1.469A2.488,2.488,0,0,1,96.548,29.058Z" style="fill:#fff"/><path d="M98.347,41.385a.281.281,0,0,1-.086-.208V24.627a.294.294,0,0,1,.293-.294h2.865a.294.294,0,0,1,.3.294v8.25c0,.049.016.078.048.086a.1.1,0,0,0,.1-.037l3.33-3.868a.521.521,0,0,1,.368-.171h3.256c.163,0,.245.058.245.171a.407.407,0,0,1-.074.2L105.876,33.2a.222.222,0,0,0-.026.172l3.648,7.761a.393.393,0,0,1,.05.146c0,.132-.09.2-.269.2h-3.013a.346.346,0,0,1-.342-.22L103.5,35.521a.117.117,0,0,0-.086-.06.07.07,0,0,0-.085.035l-1.568,1.96a.375.375,0,0,0-.048.146v3.575a.289.289,0,0,1-.086.208.282.282,0,0,1-.209.085H98.554A.278.278,0,0,1,98.347,41.385Z" style="fill:#fff"/><path d="M20.815,77.571,19.6,73.613c-.054-.106-.122-.162-.2-.162H9.465c-.081,0-.148.056-.2.162l-1.17,3.958a.509.509,0,0,1-.526.405H2.436a.447.447,0,0,1-.363-.142.443.443,0,0,1-.041-.424l8.726-27.3a.506.506,0,0,1,.524-.4h6.341a.506.506,0,0,1,.526.4L26.874,77.41a.465.465,0,0,1,.041.2c0,.242-.148.364-.444.364H21.34A.507.507,0,0,1,20.815,77.571Zm-9.937-8.522h7.11c.161,0,.216-.08.161-.243l-3.635-12c-.027-.107-.068-.154-.122-.141a.189.189,0,0,0-.12.141l-3.555,12C10.689,68.969,10.743,69.049,10.878,69.049Z" style="fill:#fff"/><path d="M42.447,49.842a.465.465,0,0,1,.343-.141h4.726a.483.483,0,0,1,.485.484V77.491a.485.485,0,0,1-.485.485H42.79a.483.483,0,0,1-.484-.485V76.158c0-.081-.028-.127-.081-.142a.172.172,0,0,0-.163.061A5.525,5.525,0,0,1,37.417,78.3a7.724,7.724,0,0,1-4.866-1.576A8.645,8.645,0,0,1,29.622,72.4a17.69,17.69,0,0,1,.039-9.9,8.687,8.687,0,0,1,2.929-4.1,7.965,7.965,0,0,1,4.949-1.515,5.465,5.465,0,0,1,4.523,2.02c.055.08.109.108.163.08a.162.162,0,0,0,.081-.161V50.185A.464.464,0,0,1,42.447,49.842ZM42.265,67.6a8.485,8.485,0,0,0-.89-4.243,2.965,2.965,0,0,0-2.7-1.574A3.159,3.159,0,0,0,35.8,63.352a7.872,7.872,0,0,0-1.009,4.284,8.619,8.619,0,0,0,.848,4.038,3.248,3.248,0,0,0,2.988,1.737,3.126,3.126,0,0,0,2.828-1.737A8.637,8.637,0,0,0,42.265,67.6Z" style="fill:#fff"/><path d="M64.923,57.5a.505.505,0,0,1,.244.607l-.848,4.6q-.042.486-.566.283a4.53,4.53,0,0,0-1.415-.2,6.693,6.693,0,0,0-.888.082,3.965,3.965,0,0,0-2.463,1.07,3.3,3.3,0,0,0-1.011,2.525V77.491a.466.466,0,0,1-.142.343.458.458,0,0,1-.343.142H52.766a.483.483,0,0,1-.485-.485V57.7a.481.481,0,0,1,.485-.484h4.725a.465.465,0,0,1,.343.141.47.47,0,0,1,.142.343v1.536a.162.162,0,0,0,.08.161.08.08,0,0,0,.122-.041,5.129,5.129,0,0,1,4.443-2.423A4.109,4.109,0,0,1,64.923,57.5Z" style="fill:#fff"/><path d="M85.768,68.886a.471.471,0,0,1-.525.485H72.762c-.161,0-.216.068-.161.2a7.168,7.168,0,0,0,.443,1.616q1.052,2.263,4.282,2.262a4.879,4.879,0,0,0,4.08-2.1.363.363,0,0,1,.645-.082l2.91,2.868a.562.562,0,0,1,.2.363.821.821,0,0,1-.163.324,8.812,8.812,0,0,1-3.433,2.566,11.509,11.509,0,0,1-4.6.908,10.492,10.492,0,0,1-5.878-1.576,8.748,8.748,0,0,1-3.453-4.4,13.856,13.856,0,0,1-.848-5.291,11.6,11.6,0,0,1,.6-3.918,8.876,8.876,0,0,1,3.252-4.565,9.1,9.1,0,0,1,5.513-1.7,8.984,8.984,0,0,1,6.484,2.342,10.263,10.263,0,0,1,2.969,6.261A17.415,17.415,0,0,1,85.768,68.886ZM72.842,64.161a9.392,9.392,0,0,0-.282,1.292.178.178,0,0,0,.2.2H79.75c.161,0,.214-.066.161-.2-.134-.781-.2-1.157-.2-1.131a3.5,3.5,0,0,0-1.272-1.877,3.686,3.686,0,0,0-2.242-.667A3.238,3.238,0,0,0,72.842,64.161Z" style="fill:#fff"/><path d="M92.554,77.491a7.192,7.192,0,0,1-3.131-2.14,4.815,4.815,0,0,1-1.111-3.112v-.4a.471.471,0,0,1,.141-.342.465.465,0,0,1,.344-.141h4.484a.481.481,0,0,1,.484.483v.041a1.792,1.792,0,0,0,.99,1.516,4.563,4.563,0,0,0,2.483.626,4.061,4.061,0,0,0,2.223-.546,1.588,1.588,0,0,0,.848-1.354,1.165,1.165,0,0,0-.727-1.09,12.32,12.32,0,0,0-2.383-.767,24.231,24.231,0,0,1-2.99-.929,12.847,12.847,0,0,1-4.119-2.181,4.587,4.587,0,0,1-1.535-3.716,5.638,5.638,0,0,1,2.323-4.747,9.949,9.949,0,0,1,6.16-1.757,11.445,11.445,0,0,1,4.523.828,6.95,6.95,0,0,1,3.01,2.323,5.682,5.682,0,0,1,1.07,3.392.469.469,0,0,1-.142.344.463.463,0,0,1-.343.141h-4.321a.481.481,0,0,1-.485-.485,1.768,1.768,0,0,0-.909-1.494,4.268,4.268,0,0,0-2.4-.606,4.383,4.383,0,0,0-2.183.484,1.484,1.484,0,0,0-.848,1.333,1.292,1.292,0,0,0,.828,1.212,14.222,14.222,0,0,0,2.768.849c.3.081.631.168,1.009.262s.781.209,1.212.343a13.181,13.181,0,0,1,4.525,2.181A4.69,4.69,0,0,1,106,71.917a5.4,5.4,0,0,1-2.362,4.665,10.8,10.8,0,0,1-6.362,1.676A13.286,13.286,0,0,1,92.554,77.491Z" style="fill:#fff"/><path d="M112.55,77.491a7.2,7.2,0,0,1-3.131-2.14,4.815,4.815,0,0,1-1.111-3.112v-.4a.468.468,0,0,1,.142-.342.461.461,0,0,1,.343-.141h4.484a.483.483,0,0,1,.485.483v.041a1.791,1.791,0,0,0,.989,1.516,4.567,4.567,0,0,0,2.484.626,4.06,4.06,0,0,0,2.222-.546,1.588,1.588,0,0,0,.848-1.354,1.165,1.165,0,0,0-.727-1.09,12.3,12.3,0,0,0-2.383-.767,24.342,24.342,0,0,1-2.99-.929,12.83,12.83,0,0,1-4.118-2.181,4.587,4.587,0,0,1-1.536-3.716,5.638,5.638,0,0,1,2.323-4.747,9.949,9.949,0,0,1,6.16-1.757,11.442,11.442,0,0,1,4.523.828,6.95,6.95,0,0,1,3.01,2.323,5.682,5.682,0,0,1,1.07,3.392.469.469,0,0,1-.142.344.461.461,0,0,1-.343.141h-4.321a.481.481,0,0,1-.485-.485,1.768,1.768,0,0,0-.909-1.494,4.265,4.265,0,0,0-2.4-.606,4.383,4.383,0,0,0-2.183.484A1.484,1.484,0,0,0,114,63.191a1.292,1.292,0,0,0,.829,1.212,14.184,14.184,0,0,0,2.767.849q.444.122,1.01.262t1.211.343a13.172,13.172,0,0,1,4.525,2.181A4.69,4.69,0,0,1,126,71.917a5.4,5.4,0,0,1-2.362,4.665,10.8,10.8,0,0,1-6.362,1.676A13.286,13.286,0,0,1,112.55,77.491Z" style="fill:#fff"/></g></svg>