<svg id="Layer_1" data-name="Layer 1" xmlns="http://www.w3.org/2000/svg" viewBox="0 0 128 128"><path d="M81.412,71.655A8.707,8.707,0,0,1,75.256,56.8L86.513,45.541H20.468a8.707,8.707,0,0,1,0-17.413H86.513L75.256,16.861A8.706,8.706,0,1,1,87.568,4.55h0l26.118,26.123a8.678,8.678,0,0,1,2.552,6.131h0v.051h0a8.678,8.678,0,0,1-2.552,6.131L87.568,69.1A8.676,8.676,0,0,1,81.412,71.655Z" style="fill:#fff"/><path d="M40.432,123.448,14.314,97.33A8.677,8.677,0,0,1,11.762,91.2h0v-.05h0a8.677,8.677,0,0,1,2.552-6.131L40.432,58.9h0A8.706,8.706,0,1,1,52.744,71.206L41.487,82.473h66.045a8.707,8.707,0,0,1,0,17.413H41.487l11.257,11.256a8.7,8.7,0,1,1-12.312,12.306Z" style="fill:#fff"/></svg>