<svg xmlns="http://www.w3.org/2000/svg" viewBox="0 0 128 128"><g id="Layer_2" data-name="Layer 2"><path d="M24.544,48.935a.5.5,0,0,1,.15.365v4.212a.5.5,0,0,1-.15.365.493.493,0,0,1-.366.151H16.485a.19.19,0,0,0-.216.215V78.355a.512.512,0,0,1-.516.516H10.725a.493.493,0,0,1-.365-.15.5.5,0,0,1-.151-.366V54.243a.19.19,0,0,0-.215-.215H2.516a.493.493,0,0,1-.366-.151A.5.5,0,0,1,2,53.512V49.3a.514.514,0,0,1,.516-.516H24.178A.5.5,0,0,1,24.544,48.935Z" style="fill:#fff"/><path d="M39.2,56.929a.5.5,0,0,1,.366-.15H44.6a.514.514,0,0,1,.516.516v21.06a.514.514,0,0,1-.516.516H39.567a.512.512,0,0,1-.516-.516V76.9c0-.088-.03-.137-.086-.152s-.115.022-.173.108a6.193,6.193,0,0,1-5.329,2.321A7.541,7.541,0,0,1,28.09,77.2a7.239,7.239,0,0,1-2.105-5.546V57.3a.512.512,0,0,1,.516-.516h4.984a.5.5,0,0,1,.366.15A.505.505,0,0,1,32,57.3V70.146a4.129,4.129,0,0,0,.925,2.794,3.192,3.192,0,0,0,2.557,1.074,3.393,3.393,0,0,0,2.407-.881,3.832,3.832,0,0,0,1.161-2.3V57.3A.5.5,0,0,1,39.2,56.929Z" style="fill:#fff"/><path d="M66.645,58.542a7.723,7.723,0,0,1,2.106,5.715v14.1a.512.512,0,0,1-.516.516H63.207a.512.512,0,0,1-.516-.516V65.5a4.031,4.031,0,0,0-.967-2.8,3.583,3.583,0,0,0-5.116,0,4.022,4.022,0,0,0-.967,2.8V78.355a.5.5,0,0,1-.15.366.494.494,0,0,1-.366.15H50.1a.512.512,0,0,1-.516-.516V57.3a.512.512,0,0,1,.516-.516h5.028a.5.5,0,0,1,.366.15.505.505,0,0,1,.15.366v1.5a.171.171,0,0,0,.086.171.084.084,0,0,0,.129-.042A6.006,6.006,0,0,1,61.1,56.434,7.5,7.5,0,0,1,66.645,58.542Z" style="fill:#fff"/><path d="M90.156,58.542a7.723,7.723,0,0,1,2.106,5.715v14.1a.514.514,0,0,1-.516.516H86.718a.512.512,0,0,1-.516-.516V65.5a4.027,4.027,0,0,0-.968-2.8,3.582,3.582,0,0,0-5.115,0,4.022,4.022,0,0,0-.967,2.8V78.355a.5.5,0,0,1-.151.366.492.492,0,0,1-.365.15H73.608a.512.512,0,0,1-.516-.516V57.3a.512.512,0,0,1,.516-.516h5.028a.5.5,0,0,1,.365.15.5.5,0,0,1,.151.366v1.5a.172.172,0,0,0,.085.171.084.084,0,0,0,.13-.042,6.005,6.005,0,0,1,5.243-2.494A7.5,7.5,0,0,1,90.156,58.542Z" style="fill:#fff"/><path d="M116.2,69.2a.5.5,0,0,1-.558.515H102.362c-.172,0-.229.072-.172.216a7.691,7.691,0,0,0,.472,1.719q1.117,2.407,4.556,2.406a5.187,5.187,0,0,0,4.341-2.233.388.388,0,0,1,.688-.088l3.095,3.052a.593.593,0,0,1,.215.387.879.879,0,0,1-.173.344,9.354,9.354,0,0,1-3.653,2.73,12.221,12.221,0,0,1-4.9.968,11.156,11.156,0,0,1-6.254-1.678A9.306,9.306,0,0,1,96.9,72.853a14.747,14.747,0,0,1-.9-5.63,12.365,12.365,0,0,1,.643-4.169,9.444,9.444,0,0,1,3.462-4.857,9.673,9.673,0,0,1,5.865-1.8,9.561,9.561,0,0,1,6.9,2.492,10.913,10.913,0,0,1,3.158,6.662A18.443,18.443,0,0,1,116.2,69.2Zm-13.754-5.029a9.978,9.978,0,0,0-.3,1.375.189.189,0,0,0,.215.215H109.8c.171,0,.227-.07.171-.215-.143-.831-.215-1.231-.215-1.2a3.722,3.722,0,0,0-1.353-2,3.922,3.922,0,0,0-2.386-.711A3.446,3.446,0,0,0,102.447,64.171Z" style="fill:#fff"/><path d="M120.09,78.721a.494.494,0,0,1-.15-.366V49.3a.493.493,0,0,1,.15-.365.5.5,0,0,1,.366-.151h5.028A.514.514,0,0,1,126,49.3V78.355a.5.5,0,0,1-.15.366.5.5,0,0,1-.366.15h-5.028A.5.5,0,0,1,120.09,78.721Z" style="fill:#fff"/></g></svg>