<svg id="Layer_1" data-name="Layer 1" xmlns="http://www.w3.org/2000/svg" viewBox="0 0 128 128"><ellipse cx="64" cy="16.636" rx="56.293" ry="14.636" style="fill:#fff"/><path d="M120.3,25.021V48.315c0,8.087-25.2,14.637-56.3,14.637S7.7,56.4,7.7,48.315V25.021c0,8.088,25.2,14.638,56.3,14.638S120.3,33.109,120.3,25.021Z" style="fill:#fff"/><path d="M120.3,56.545V79.839c0,8.087-25.2,14.637-56.3,14.637S7.7,87.926,7.7,79.839V56.545c0,8.088,25.2,14.638,56.3,14.638S120.3,64.633,120.3,56.545Z" style="fill:#fff"/><path d="M120.3,88.069v23.293C120.3,119.45,95.092,126,64,126S7.7,119.45,7.7,111.362V88.069c0,8.087,25.2,14.638,56.3,14.638S120.3,96.156,120.3,88.069Z" style="fill:#fff"/></svg>