<svg id="Layer_1" data-name="Layer 1" xmlns="http://www.w3.org/2000/svg" viewBox="0 0 128 128"><path d="M34.661,28.037l-1.132-3.7c-.051-.1-.114-.152-.189-.152H24.057c-.075,0-.138.052-.189.152l-1.093,3.7a.476.476,0,0,1-.492.377H17.491a.419.419,0,0,1-.339-.132.414.414,0,0,1-.039-.4L25.265,2.378A.473.473,0,0,1,25.755,2h5.924a.474.474,0,0,1,.491.378l8.15,25.508a.427.427,0,0,1,.039.189c0,.226-.139.339-.415.339H35.15A.472.472,0,0,1,34.661,28.037Zm-9.284-7.962H32.02c.15,0,.2-.075.15-.227l-3.4-11.207c-.025-.1-.063-.145-.114-.132a.177.177,0,0,0-.112.132L25.227,19.848C25.2,20,25.251,20.075,25.377,20.075Z" style="fill:#fff"/><path d="M54.792,9.151a.432.432,0,0,1,.321-.132h4.414a.451.451,0,0,1,.453.453V27.961a.451.451,0,0,1-.453.453H55.113a.451.451,0,0,1-.453-.453V26.679c0-.076-.026-.119-.075-.133s-.1.02-.152.095a5.437,5.437,0,0,1-4.679,2.037,6.616,6.616,0,0,1-4.717-1.735,6.351,6.351,0,0,1-1.849-4.869V9.472a.452.452,0,0,1,.453-.453h4.376a.451.451,0,0,1,.453.453V20.754a3.628,3.628,0,0,0,.813,2.454,2.8,2.8,0,0,0,2.245.942,2.975,2.975,0,0,0,2.112-.773,3.358,3.358,0,0,0,1.02-2.02V9.472A.435.435,0,0,1,54.792,9.151Z" style="fill:#fff"/><path d="M74.905,13.15a.431.431,0,0,1-.321.132H70.962a.166.166,0,0,0-.189.189v8a2.813,2.813,0,0,0,.51,1.849,2.027,2.027,0,0,0,1.641.6h1.245a.451.451,0,0,1,.453.453v3.585a.467.467,0,0,1-.453.492q-1.587.073-2.264.075a8.467,8.467,0,0,1-4.679-1.038q-1.548-1.038-1.586-3.906V13.471a.166.166,0,0,0-.187-.189H63.3a.451.451,0,0,1-.453-.452V9.472a.451.451,0,0,1,.453-.453h2.152a.166.166,0,0,0,.187-.189V4.34a.451.451,0,0,1,.453-.453H70.32a.435.435,0,0,1,.321.132.441.441,0,0,1,.132.321V8.83a.166.166,0,0,0,.189.189h3.622a.451.451,0,0,1,.453.453V12.83A.439.439,0,0,1,74.905,13.15Z" style="fill:#fff"/><path d="M81.113,27.055a8.283,8.283,0,0,1-3.094-4.528,13.393,13.393,0,0,1-.53-3.849,13.987,13.987,0,0,1,.53-4,8.1,8.1,0,0,1,3.13-4.376,9.229,9.229,0,0,1,5.434-1.586,8.853,8.853,0,0,1,5.284,1.566,8.351,8.351,0,0,1,3.094,4.359,12.934,12.934,0,0,1,.6,3.962,13.257,13.257,0,0,1-.528,3.811,8.432,8.432,0,0,1-3.075,4.623,8.787,8.787,0,0,1-5.414,1.68A8.925,8.925,0,0,1,81.113,27.055Zm7.546-3.66a4.193,4.193,0,0,0,1.246-2.074,10.9,10.9,0,0,0,.3-2.643,10.233,10.233,0,0,0-.3-2.679,4.193,4.193,0,0,0-1.284-2,3.495,3.495,0,0,0-4.244,0,4,4,0,0,0-1.227,2,9,9,0,0,0-.3,2.679,10.251,10.251,0,0,0,.264,2.643A4.12,4.12,0,0,0,84.377,23.4a3.227,3.227,0,0,0,2.17.755A3.1,3.1,0,0,0,88.659,23.4Z" style="fill:#fff"/><path d="M98.264,19.415a.435.435,0,0,1-.132-.321v-3.66a.451.451,0,0,1,.453-.453h12.338a.451.451,0,0,1,.453.453v3.66a.451.451,0,0,1-.453.453H98.585A.432.432,0,0,1,98.264,19.415Z" style="fill:#fff"/><path d="M9.757,73.243a6.706,6.706,0,0,1-2.925-2,4.5,4.5,0,0,1-1.038-2.906V67.96a.438.438,0,0,1,.132-.319.429.429,0,0,1,.321-.132h4.189a.431.431,0,0,1,.321.132.438.438,0,0,1,.132.319V68a1.673,1.673,0,0,0,.924,1.416,4.262,4.262,0,0,0,2.32.585,3.784,3.784,0,0,0,2.076-.51A1.482,1.482,0,0,0,17,68.224a1.087,1.087,0,0,0-.678-1.018,11.549,11.549,0,0,0-2.227-.717,22.688,22.688,0,0,1-2.793-.868,11.988,11.988,0,0,1-3.848-2.037,4.286,4.286,0,0,1-1.434-3.472,5.267,5.267,0,0,1,2.17-4.434,9.294,9.294,0,0,1,5.755-1.642,10.68,10.68,0,0,1,4.225.774,6.49,6.49,0,0,1,2.812,2.17,5.309,5.309,0,0,1,1,3.169.437.437,0,0,1-.132.321.432.432,0,0,1-.321.132H17.493a.451.451,0,0,1-.453-.453,1.653,1.653,0,0,0-.849-1.4,3.992,3.992,0,0,0-2.245-.566,4.088,4.088,0,0,0-2.039.453,1.385,1.385,0,0,0-.793,1.245,1.207,1.207,0,0,0,.774,1.132,13.263,13.263,0,0,0,2.586.793c.276.076.59.157.943.245s.729.2,1.131.32a12.306,12.306,0,0,1,4.228,2.038,4.383,4.383,0,0,1,1.546,3.624,5.044,5.044,0,0,1-2.207,4.357,10.087,10.087,0,0,1-5.943,1.566A12.4,12.4,0,0,1,9.757,73.243Z" style="fill:#fff"/><path d="M28.68,72.49a8.258,8.258,0,0,1-3.151-4.152,13.849,13.849,0,0,1-.642-4.453,13.381,13.381,0,0,1,.642-4.378,7.827,7.827,0,0,1,3.133-4.036A9.284,9.284,0,0,1,33.907,54a9.4,9.4,0,0,1,5.3,1.509,7.247,7.247,0,0,1,3.037,3.813,4.8,4.8,0,0,1,.3,1.357v.076a.4.4,0,0,1-.378.416l-4.339.641h-.075a.452.452,0,0,1-.453-.377l-.114-.6a2.871,2.871,0,0,0-1.17-1.623,3.617,3.617,0,0,0-2.149-.641,3.377,3.377,0,0,0-2.039.6,3.206,3.206,0,0,0-1.169,1.661,9.226,9.226,0,0,0-.416,3.094,10.108,10.108,0,0,0,.378,3.094,3.354,3.354,0,0,0,1.188,1.774,3.315,3.315,0,0,0,2.058.641,3.484,3.484,0,0,0,2.056-.623,3.188,3.188,0,0,0,1.227-1.717.542.542,0,0,0,.036-.225.155.155,0,0,0,.039-.114c.024-.3.2-.427.528-.378l4.339.681a.4.4,0,0,1,.378.414,5.253,5.253,0,0,1-.227,1.132,7.035,7.035,0,0,1-3.076,3.963A9.682,9.682,0,0,1,33.907,74,9.046,9.046,0,0,1,28.68,72.49Z" style="fill:#fff"/><path d="M57.755,54.847a7.245,7.245,0,0,1,3,2.322,5.427,5.427,0,0,1,1.074,3.283V73.243a.451.451,0,0,1-.453.453H56.963a.451.451,0,0,1-.453-.453V72a.152.152,0,0,0-.075-.15c-.051-.025-.1,0-.152.075Q54.7,74,51.19,74a7.438,7.438,0,0,1-4.756-1.434,5.072,5.072,0,0,1-1.811-4.227,5.412,5.412,0,0,1,2.039-4.51,9.206,9.206,0,0,1,5.81-1.6h3.849a.167.167,0,0,0,.189-.189v-.831a2.515,2.515,0,0,0-.755-1.942,3.235,3.235,0,0,0-2.264-.7,4.091,4.091,0,0,0-1.944.414,1.943,1.943,0,0,0-1,1.17.433.433,0,0,1-.491.378l-4.565-.6c-.3-.05-.441-.164-.416-.339a5.017,5.017,0,0,1,1.265-2.868,7.374,7.374,0,0,1,2.943-2A11.155,11.155,0,0,1,53.378,54,10.758,10.758,0,0,1,57.755,54.847ZM55.378,69.168a2.687,2.687,0,0,0,1.132-2.226V65.583a.167.167,0,0,0-.189-.189H53.6a4.759,4.759,0,0,0-2.659.642,2.054,2.054,0,0,0-.963,1.812,1.96,1.96,0,0,0,.717,1.6,2.956,2.956,0,0,0,1.926.585A4.391,4.391,0,0,0,55.378,69.168Z" style="fill:#fff"/><path d="M65.7,73.564a.432.432,0,0,1-.132-.321V47.735a.433.433,0,0,1,.132-.321.441.441,0,0,1,.321-.132h4.415a.452.452,0,0,1,.453.453V73.243a.436.436,0,0,1-.133.321.431.431,0,0,1-.32.132H66.019A.433.433,0,0,1,65.7,73.564Z" style="fill:#fff"/><path d="M75.508,51.263a3.1,3.1,0,1,1,2.133.85A2.9,2.9,0,0,1,75.508,51.263Zm-.453,22.3a.439.439,0,0,1-.132-.321V54.715a.451.451,0,0,1,.453-.453h4.416a.438.438,0,0,1,.319.132.432.432,0,0,1,.133.321V73.243a.452.452,0,0,1-.452.453H75.376A.433.433,0,0,1,75.055,73.564Z" style="fill:#fff"/><path d="M99.377,55.848a6.785,6.785,0,0,1,1.848,5.018V73.243a.451.451,0,0,1-.452.453H96.358a.451.451,0,0,1-.453-.453V61.961a3.537,3.537,0,0,0-.849-2.454,3.147,3.147,0,0,0-4.491,0,3.528,3.528,0,0,0-.849,2.454V73.243a.439.439,0,0,1-.132.321.433.433,0,0,1-.321.132H84.848a.451.451,0,0,1-.453-.453V54.754a.451.451,0,0,1,.453-.453h4.415a.437.437,0,0,1,.321.132.442.442,0,0,1,.132.321v1.32a.149.149,0,0,0,.075.15.074.074,0,0,0,.114-.036,5.27,5.27,0,0,1,4.6-2.19A6.583,6.583,0,0,1,99.377,55.848Z" style="fill:#fff"/><path d="M117.018,54.433a.435.435,0,0,1,.321-.132h4.414a.451.451,0,0,1,.453.453V71.961q0,4.943-2.848,7.056a12.006,12.006,0,0,1-7.34,2.112,25.815,25.815,0,0,1-2.943-.187c-.252-.026-.378-.189-.378-.491l.15-3.886c0-.327.177-.467.529-.417a15.036,15.036,0,0,0,2.49.228,5.763,5.763,0,0,0,3.717-1.057,4.122,4.122,0,0,0,1.3-3.4c0-.075-.027-.12-.076-.132a.159.159,0,0,0-.152.057,5.427,5.427,0,0,1-4.188,1.546,8.834,8.834,0,0,1-4.508-1.189,6.566,6.566,0,0,1-2.926-3.829,14.814,14.814,0,0,1-.566-4.491,14.131,14.131,0,0,1,.68-4.792,7.526,7.526,0,0,1,2.679-3.7,7.167,7.167,0,0,1,4.377-1.4,5.65,5.65,0,0,1,4.452,1.737.158.158,0,0,0,.152.056c.049-.012.076-.056.076-.132v-.905A.435.435,0,0,1,117.018,54.433Zm-.132,9.415a16.875,16.875,0,0,0-.076-1.812,6.059,6.059,0,0,0-.264-1.207,3.4,3.4,0,0,0-1.133-1.641,3.072,3.072,0,0,0-1.962-.623,3.014,3.014,0,0,0-1.924.623,3.641,3.641,0,0,0-1.17,1.641,7.333,7.333,0,0,0-.528,3.056,7.244,7.244,0,0,0,.453,3.019,3.256,3.256,0,0,0,1.188,1.641,3.317,3.317,0,0,0,2.019.623,3.14,3.14,0,0,0,2-.623,3.175,3.175,0,0,0,1.093-1.6A12.533,12.533,0,0,0,116.886,63.848Z" style="fill:#fff"/><path d="M20.679,118.111a8.45,8.45,0,0,1-3.452-3.265A9.4,9.4,0,0,1,16,110v-8.452a9.518,9.518,0,0,1,1.227-4.867,8.308,8.308,0,0,1,3.452-3.264,11.014,11.014,0,0,1,5.133-1.152A10.96,10.96,0,0,1,30.886,93.4a8.572,8.572,0,0,1,3.435,3.074,7.937,7.937,0,0,1,1.226,4.321v.264a.434.434,0,0,1-.133.322.443.443,0,0,1-.319.133H30.679a.452.452,0,0,1-.453-.455v-.114a3.944,3.944,0,0,0-1.207-2.923,4.377,4.377,0,0,0-3.207-1.189A4.333,4.333,0,0,0,22.547,98.1a4.532,4.532,0,0,0-1.226,3.3v8.755a4.366,4.366,0,0,0,1.32,3.3A4.665,4.665,0,0,0,26,114.714a4.562,4.562,0,0,0,3.132-1.034,3.669,3.669,0,0,0,1.168-2.887v-1.7a.168.168,0,0,0-.188-.191H25.887a.451.451,0,0,1-.453-.451V104.98a.451.451,0,0,1,.453-.452H35.1a.452.452,0,0,1,.452.452v4.981a9.881,9.881,0,0,1-1.207,4.981,8,8,0,0,1-3.415,3.227,11.205,11.205,0,0,1-5.113,1.112A10.875,10.875,0,0,1,20.679,118.111Z" style="fill:#fff"/><path d="M51.093,99.848a.47.47,0,0,1,.227.565l-.792,4.3c-.026.3-.2.39-.528.264a4.187,4.187,0,0,0-1.322-.188,6.392,6.392,0,0,0-.829.074,3.727,3.727,0,0,0-2.3,1,3.077,3.077,0,0,0-.944,2.359v10.3a.44.44,0,0,1-.132.32.433.433,0,0,1-.321.132H39.735a.451.451,0,0,1-.453-.452V100.036a.451.451,0,0,1,.453-.452H44.15a.433.433,0,0,1,.321.132.445.445,0,0,1,.132.32v1.434a.155.155,0,0,0,.075.153.075.075,0,0,0,.114-.04,4.794,4.794,0,0,1,4.15-2.263A3.825,3.825,0,0,1,51.093,99.848Z" style="fill:#fff"/><path d="M56.378,117.623a8.3,8.3,0,0,1-3.094-4.53,13.4,13.4,0,0,1-.53-3.848,13.969,13.969,0,0,1,.53-4,8.1,8.1,0,0,1,3.131-4.376,9.231,9.231,0,0,1,5.434-1.585,8.837,8.837,0,0,1,5.283,1.566,8.347,8.347,0,0,1,3.094,4.358,12.912,12.912,0,0,1,.6,3.961,13.227,13.227,0,0,1-.529,3.811,8.417,8.417,0,0,1-3.075,4.622,8.773,8.773,0,0,1-5.414,1.68A8.945,8.945,0,0,1,56.378,117.623Zm7.547-3.661a4.2,4.2,0,0,0,1.245-2.076,10.888,10.888,0,0,0,.3-2.641,10.249,10.249,0,0,0-.3-2.681,4.208,4.208,0,0,0-1.284-2,3.506,3.506,0,0,0-4.244,0,4.021,4.021,0,0,0-1.226,2,8.977,8.977,0,0,0-.3,2.681,10.289,10.289,0,0,0,.264,2.641,4.133,4.133,0,0,0,1.265,2.076,3.226,3.226,0,0,0,2.17.752A3.1,3.1,0,0,0,63.925,113.962Z" style="fill:#fff"/><path d="M85.716,99.716a.428.428,0,0,1,.321-.132h4.414a.435.435,0,0,1,.321.132.441.441,0,0,1,.132.32v18.492a.451.451,0,0,1-.453.452H86.037a.451.451,0,0,1-.453-.452v-1.283c0-.077-.026-.12-.075-.132s-.1.018-.152.092a5.436,5.436,0,0,1-4.679,2.039,6.612,6.612,0,0,1-4.717-1.735,6.35,6.35,0,0,1-1.849-4.867V100.036a.434.434,0,0,1,.133-.32.428.428,0,0,1,.32-.132h4.376a.432.432,0,0,1,.321.132.441.441,0,0,1,.132.32v11.285a3.62,3.62,0,0,0,.813,2.451,2.8,2.8,0,0,0,2.245.942,2.969,2.969,0,0,0,2.112-.77,3.366,3.366,0,0,0,1.02-2.021V100.036A.437.437,0,0,1,85.716,99.716Z" style="fill:#fff"/><path d="M112.829,109.319a14.63,14.63,0,0,1-.717,4.717,8.124,8.124,0,0,1-2.736,3.832,7.44,7.44,0,0,1-4.624,1.413,5.1,5.1,0,0,1-4.225-1.886c-.051-.076-.1-.1-.151-.076a.155.155,0,0,0-.076.15v8.077a.438.438,0,0,1-.132.322.444.444,0,0,1-.32.132H95.432a.451.451,0,0,1-.453-.454v-25.51a.445.445,0,0,1,.132-.32.433.433,0,0,1,.321-.132h4.416a.432.432,0,0,1,.32.132.437.437,0,0,1,.132.32v1.246c0,.077.026.12.076.132a.158.158,0,0,0,.151-.055,5.2,5.2,0,0,1,4.377-2.076,7.214,7.214,0,0,1,4.51,1.453,7.961,7.961,0,0,1,2.735,4.056A13.61,13.61,0,0,1,112.829,109.319Zm-5.509-.074a7.645,7.645,0,0,0-.793-3.774,2.94,2.94,0,0,0-2.793-1.621,2.792,2.792,0,0,0-2.6,1.621,7.618,7.618,0,0,0-.792,3.811,7.7,7.7,0,0,0,.831,3.925,2.783,2.783,0,0,0,2.565,1.507,2.967,2.967,0,0,0,2.641-1.471A7.329,7.329,0,0,0,107.32,109.245Z" style="fill:#fff"/></svg>