<svg xmlns="http://www.w3.org/2000/svg" viewBox="0 0 128 128"><g id="Layer_2" data-name="Layer 2"><path d="M28.38,24.419a.283.283,0,0,1,.208-.086h2.864a.294.294,0,0,1,.294.294v16.55a.285.285,0,0,1-.086.208.278.278,0,0,1-.208.085H28.686a.348.348,0,0,1-.343-.2L22,30.8c-.033-.048-.066-.069-.1-.061s-.049.046-.049.11L21.9,41.177a.292.292,0,0,1-.294.293H18.746a.278.278,0,0,1-.208-.085.285.285,0,0,1-.086-.208V24.627a.294.294,0,0,1,.294-.294h2.766a.35.35,0,0,1,.343.2l6.317,10.429c.032.049.065.07.1.061s.049-.045.049-.109l-.024-10.283A.281.281,0,0,1,28.38,24.419Z" style="fill:#fff"/><path d="M45.749,35.962a.284.284,0,0,1-.318.293H37.867c-.1,0-.131.041-.1.123a4.345,4.345,0,0,0,.269.979,2.565,2.565,0,0,0,2.6,1.371,2.952,2.952,0,0,0,2.472-1.272.221.221,0,0,1,.392-.05l1.763,1.738a.34.34,0,0,1,.123.221.507.507,0,0,1-.1.2A5.343,5.343,0,0,1,43.2,41.116a6.974,6.974,0,0,1-2.79.551,6.356,6.356,0,0,1-3.563-.956,5.3,5.3,0,0,1-2.093-2.668,8.408,8.408,0,0,1-.514-3.207,7.041,7.041,0,0,1,.367-2.375A5.383,5.383,0,0,1,36.581,29.7a5.51,5.51,0,0,1,3.342-1.028,5.444,5.444,0,0,1,3.929,1.419,6.22,6.22,0,0,1,1.8,3.8A10.581,10.581,0,0,1,45.749,35.962ZM37.915,33.1a5.823,5.823,0,0,0-.171.783.108.108,0,0,0,.123.122H42.1c.1,0,.13-.04.1-.122-.082-.474-.123-.7-.123-.686a2.114,2.114,0,0,0-.771-1.137,2.232,2.232,0,0,0-1.358-.405A1.963,1.963,0,0,0,37.915,33.1Z" style="fill:#fff"/><path d="M54.722,31.568a.286.286,0,0,1-.209.085H52.164a.108.108,0,0,0-.123.123v5.19a1.824,1.824,0,0,0,.331,1.2,1.316,1.316,0,0,0,1.065.392h.808a.291.291,0,0,1,.208.085.287.287,0,0,1,.085.208v2.327a.3.3,0,0,1-.293.318c-.687.032-1.176.049-1.47.049a5.5,5.5,0,0,1-3.035-.673,2.889,2.889,0,0,1-1.029-2.535v-6.56a.108.108,0,0,0-.122-.123H47.194a.29.29,0,0,1-.294-.294V29.181a.29.29,0,0,1,.294-.294h1.395a.108.108,0,0,0,.122-.123V25.851a.29.29,0,0,1,.294-.293h2.742a.292.292,0,0,1,.294.293v2.913a.108.108,0,0,0,.123.123h2.349a.29.29,0,0,1,.294.294v2.178A.288.288,0,0,1,54.722,31.568Z" style="fill:#fff"/><path d="M59.68,41.225l-3.526-12.02-.025-.1c0-.162.09-.245.269-.245h2.963a.324.324,0,0,1,.343.245L61.467,36.5c.016.048.04.073.072.073s.058-.025.074-.073l1.836-7.394a.324.324,0,0,1,.343-.245h2.57a.324.324,0,0,1,.343.245l1.934,7.418c.016.049.042.073.074.073s.058-.024.074-.073l1.908-7.418a.325.325,0,0,1,.343-.245l2.939.05a.236.236,0,0,1,.207.085.3.3,0,0,1,.038.233l-3.575,12a.307.307,0,0,1-.318.245H67.366a.323.323,0,0,1-.343-.245l-1.884-6.56c-.016-.049-.041-.074-.074-.074s-.057.025-.073.074l-1.665,6.56a.322.322,0,0,1-.343.245H60.022A.32.32,0,0,1,59.68,41.225Z" style="fill:#fff"/><path d="M77.282,40.589a5.374,5.374,0,0,1-2.008-2.938,8.692,8.692,0,0,1-.343-2.5,9.07,9.07,0,0,1,.343-2.6,5.265,5.265,0,0,1,2.032-2.839,5.986,5.986,0,0,1,3.526-1.029,5.737,5.737,0,0,1,3.427,1.016,5.418,5.418,0,0,1,2.008,2.828,8.381,8.381,0,0,1,.391,2.57,8.6,8.6,0,0,1-.343,2.472,5.473,5.473,0,0,1-1.994,3,5.709,5.709,0,0,1-3.515,1.09A5.794,5.794,0,0,1,77.282,40.589Zm4.9-2.375a2.707,2.707,0,0,0,.809-1.346,7.14,7.14,0,0,0,.195-1.714,6.71,6.71,0,0,0-.195-1.739,2.709,2.709,0,0,0-.833-1.3,2.27,2.27,0,0,0-2.753,0,2.6,2.6,0,0,0-.8,1.3,5.867,5.867,0,0,0-.195,1.739,6.68,6.68,0,0,0,.171,1.714,2.667,2.667,0,0,0,.821,1.346,2.09,2.09,0,0,0,1.406.49A2.009,2.009,0,0,0,82.177,38.214Z" style="fill:#fff"/><path d="M96.548,29.058a.305.305,0,0,1,.147.368l-.514,2.79c-.016.2-.131.253-.342.171a2.773,2.773,0,0,0-.857-.122,4.026,4.026,0,0,0-.54.05,2.393,2.393,0,0,0-1.492.648,2,2,0,0,0-.612,1.53v6.684a.289.289,0,0,1-.086.208.281.281,0,0,1-.209.085H89.178a.278.278,0,0,1-.207-.085.281.281,0,0,1-.086-.208v-12a.292.292,0,0,1,.293-.294h2.865a.292.292,0,0,1,.295.294v.93a.1.1,0,0,0,.048.1.049.049,0,0,0,.074-.025,3.109,3.109,0,0,1,2.693-1.469A2.488,2.488,0,0,1,96.548,29.058Z" style="fill:#fff"/><path d="M98.347,41.385a.281.281,0,0,1-.086-.208V24.627a.294.294,0,0,1,.293-.294h2.865a.294.294,0,0,1,.3.294v8.25c0,.049.016.078.048.086a.1.1,0,0,0,.1-.037l3.33-3.868a.521.521,0,0,1,.368-.171h3.256c.163,0,.245.058.245.171a.407.407,0,0,1-.074.2L105.876,33.2a.222.222,0,0,0-.026.172l3.648,7.761a.393.393,0,0,1,.05.146c0,.132-.09.2-.269.2h-3.013a.346.346,0,0,1-.342-.22L103.5,35.521a.117.117,0,0,0-.086-.06.07.07,0,0,0-.085.035l-1.568,1.96a.375.375,0,0,0-.048.146v3.575a.289.289,0,0,1-.086.208.282.282,0,0,1-.209.085H98.554A.278.278,0,0,1,98.347,41.385Z" style="fill:#fff"/><path d="M2.108,74.6A.36.36,0,0,1,2,74.341V53.422a.369.369,0,0,1,.371-.372h3.62a.365.365,0,0,1,.263.108.359.359,0,0,1,.109.264V74.341a.372.372,0,0,1-.372.37H2.371A.356.356,0,0,1,2.108,74.6Z" style="fill:#fff"/><path d="M22.144,60.075A5.561,5.561,0,0,1,23.66,64.19V74.341a.372.372,0,0,1-.372.37h-3.62a.37.37,0,0,1-.371-.37V65.086a2.9,2.9,0,0,0-.7-2.009,2.359,2.359,0,0,0-1.842-.773,2.357,2.357,0,0,0-1.841.773,2.886,2.886,0,0,0-.7,2.009v9.255a.357.357,0,0,1-.109.261.352.352,0,0,1-.263.109H10.23a.356.356,0,0,1-.263-.109.352.352,0,0,1-.108-.261V59.176a.36.36,0,0,1,.108-.262.355.355,0,0,1,.263-.108h3.62a.352.352,0,0,1,.263.108.365.365,0,0,1,.109.262v1.086a.125.125,0,0,0,.061.123.062.062,0,0,0,.094-.033,4.32,4.32,0,0,1,3.774-1.793A5.394,5.394,0,0,1,22.144,60.075Z" style="fill:#fff"/><path d="M35.806,62.2a.371.371,0,0,1-.265.108H32.573a.137.137,0,0,0-.157.153v6.56a2.323,2.323,0,0,0,.418,1.516,1.674,1.674,0,0,0,1.348.5H35.2a.359.359,0,0,1,.265.108.366.366,0,0,1,.108.262v2.942a.38.38,0,0,1-.373.4q-1.3.065-1.855.063a6.97,6.97,0,0,1-3.838-.851,3.647,3.647,0,0,1-1.3-3.2V62.457a.135.135,0,0,0-.154-.153H26.29a.366.366,0,0,1-.262-.108.361.361,0,0,1-.108-.265V59.176a.36.36,0,0,1,.108-.262.354.354,0,0,1,.262-.108h1.765a.135.135,0,0,0,.154-.153V54.969a.352.352,0,0,1,.108-.262.359.359,0,0,1,.264-.109h3.465a.349.349,0,0,1,.262.109.352.352,0,0,1,.108.262v3.684a.137.137,0,0,0,.157.153h2.968a.369.369,0,0,1,.373.37v2.755A.361.361,0,0,1,35.806,62.2Z" style="fill:#fff"/><path d="M52.529,67.748a.361.361,0,0,1-.4.373H42.564c-.123,0-.163.05-.123.153a5.666,5.666,0,0,0,.34,1.239,3.246,3.246,0,0,0,3.281,1.733,3.732,3.732,0,0,0,3.125-1.609.347.347,0,0,1,.28-.187.352.352,0,0,1,.216.124l2.226,2.2a.431.431,0,0,1,.156.277.661.661,0,0,1-.123.249,6.75,6.75,0,0,1-2.631,1.964,8.794,8.794,0,0,1-3.528.695,8.032,8.032,0,0,1-4.5-1.206,6.706,6.706,0,0,1-2.644-3.372,10.616,10.616,0,0,1-.649-4.054,8.9,8.9,0,0,1,.463-3,6.8,6.8,0,0,1,2.49-3.5,6.97,6.97,0,0,1,4.226-1.3,6.878,6.878,0,0,1,4.965,1.8,7.86,7.86,0,0,1,2.274,4.8A13.377,13.377,0,0,1,52.529,67.748Zm-9.9-3.618a7.276,7.276,0,0,0-.216.989.135.135,0,0,0,.153.154h5.354c.123,0,.166-.051.123-.154-.1-.6-.153-.886-.153-.866a2.675,2.675,0,0,0-.975-1.44A2.825,2.825,0,0,0,45.2,62.3,2.48,2.48,0,0,0,42.627,64.13Z" style="fill:#fff"/><path d="M64.905,59.023a.383.383,0,0,1,.187.463l-.65,3.528c-.02.247-.166.32-.433.217a3.419,3.419,0,0,0-1.083-.154,5.278,5.278,0,0,0-.682.06,3.046,3.046,0,0,0-1.886.821,2.521,2.521,0,0,0-.774,1.934v8.449a.37.37,0,0,1-.372.37H55.591a.37.37,0,0,1-.37-.37V59.176a.36.36,0,0,1,.108-.262.352.352,0,0,1,.262-.108h3.621a.358.358,0,0,1,.264.108.368.368,0,0,1,.108.262v1.176a.13.13,0,0,0,.061.126.062.062,0,0,0,.093-.033,3.932,3.932,0,0,1,3.405-1.855A3.128,3.128,0,0,1,64.905,59.023Z" style="fill:#fff"/><path d="M76.587,58.884a.362.362,0,0,1,.108.262v2.939a.365.365,0,0,1-.108.264.359.359,0,0,1-.265.108h-3a.136.136,0,0,0-.154.154v11.73a.352.352,0,0,1-.108.261.358.358,0,0,1-.262.109H69.176a.372.372,0,0,1-.373-.37V62.611a.135.135,0,0,0-.153-.154H66.824a.358.358,0,0,1-.264-.108.362.362,0,0,1-.109-.264V59.146a.37.37,0,0,1,.373-.37H68.65a.137.137,0,0,0,.153-.156v-.68a6.248,6.248,0,0,1,.59-2.987,3.255,3.255,0,0,1,1.9-1.515,10.755,10.755,0,0,1,3.634-.388h1.176a.37.37,0,0,1,.373.372v2.506a.372.372,0,0,1-.373.373h-1.02a2.184,2.184,0,0,0-1.5.448,2.153,2.153,0,0,0-.418,1.531v.34a.137.137,0,0,0,.154.156h3A.359.359,0,0,1,76.587,58.884Z" style="fill:#fff"/><path d="M88.946,59.254a5.907,5.907,0,0,1,2.46,1.9,4.447,4.447,0,0,1,.884,2.692V74.341a.37.37,0,0,1-.373.37H88.3a.37.37,0,0,1-.37-.37V73.318a.12.12,0,0,0-.063-.123q-.06-.03-.123.06a4.92,4.92,0,0,1-4.178,1.7,6.083,6.083,0,0,1-3.9-1.176,4.151,4.151,0,0,1-1.486-3.464,4.431,4.431,0,0,1,1.672-3.7A7.554,7.554,0,0,1,84.615,65.3H87.77a.137.137,0,0,0,.156-.154v-.68a2.066,2.066,0,0,0-.619-1.594,2.651,2.651,0,0,0-1.856-.571,3.345,3.345,0,0,0-1.594.34,1.594,1.594,0,0,0-.821.959.351.351,0,0,1-.4.307l-3.744-.493c-.247-.04-.363-.134-.34-.28a4.124,4.124,0,0,1,1.035-2.352A6.062,6.062,0,0,1,82,59.146a9.168,9.168,0,0,1,3.356-.587A8.822,8.822,0,0,1,88.946,59.254ZM87,71a2.2,2.2,0,0,0,.929-1.825V68.058a.137.137,0,0,0-.156-.154H85.544a3.892,3.892,0,0,0-2.183.526,1.688,1.688,0,0,0-.789,1.484,1.605,1.605,0,0,0,.59,1.317,2.416,2.416,0,0,0,1.576.478A3.593,3.593,0,0,0,87,71Z" style="fill:#fff"/><path d="M98.059,73.721a6.768,6.768,0,0,1-2.584-3.4,11.384,11.384,0,0,1-.526-3.652,10.98,10.98,0,0,1,.526-3.588,6.425,6.425,0,0,1,2.569-3.311,7.606,7.606,0,0,1,4.3-1.207,7.719,7.719,0,0,1,4.349,1.237,5.95,5.95,0,0,1,2.49,3.125,3.961,3.961,0,0,1,.247,1.115V64.1a.328.328,0,0,1-.31.34l-3.558.526H105.5a.372.372,0,0,1-.37-.31l-.093-.493a2.355,2.355,0,0,0-.96-1.332,2.969,2.969,0,0,0-1.762-.524,2.772,2.772,0,0,0-1.672.493,2.631,2.631,0,0,0-.96,1.363,7.594,7.594,0,0,0-.34,2.535,8.3,8.3,0,0,0,.31,2.539,2.767,2.767,0,0,0,.974,1.455,2.724,2.724,0,0,0,1.688.524A2.852,2.852,0,0,0,104,70.7a2.609,2.609,0,0,0,1.007-1.407.436.436,0,0,0,.031-.187.125.125,0,0,0,.03-.093c.02-.247.166-.35.433-.31l3.561.557a.33.33,0,0,1,.307.34,4.351,4.351,0,0,1-.184.929,5.758,5.758,0,0,1-2.523,3.248,7.927,7.927,0,0,1-4.316,1.176A7.4,7.4,0,0,1,98.059,73.721Z" style="fill:#fff"/><path d="M125.985,67.748a.361.361,0,0,1-.4.373h-9.561c-.124,0-.164.05-.124.153a5.723,5.723,0,0,0,.34,1.239,3.247,3.247,0,0,0,3.281,1.733,3.732,3.732,0,0,0,3.125-1.609.348.348,0,0,1,.28-.187.352.352,0,0,1,.216.124l2.226,2.2a.428.428,0,0,1,.157.277.67.67,0,0,1-.124.249,6.75,6.75,0,0,1-2.631,1.964,8.794,8.794,0,0,1-3.528.695,8.032,8.032,0,0,1-4.5-1.206,6.706,6.706,0,0,1-2.644-3.372,10.616,10.616,0,0,1-.649-4.054,8.9,8.9,0,0,1,.463-3,6.8,6.8,0,0,1,2.491-3.5,6.967,6.967,0,0,1,4.225-1.3,6.88,6.88,0,0,1,4.966,1.8,7.871,7.871,0,0,1,2.274,4.8A13.46,13.46,0,0,1,125.985,67.748Zm-9.9-3.618a7.261,7.261,0,0,0-.217.989.135.135,0,0,0,.154.154h5.353c.124,0,.166-.051.124-.154-.1-.6-.154-.886-.154-.866a2.674,2.674,0,0,0-.974-1.44,2.83,2.83,0,0,0-1.718-.509A2.479,2.479,0,0,0,116.084,64.13Z" style="fill:#fff"/></g></svg>