<svg xmlns="http://www.w3.org/2000/svg" viewBox="0 0 128 128"><g id="Layer_2" data-name="Layer 2"><path d="M114.437,21.375a2.7,2.7,0,0,1,.7,1.953v7.344a2.68,2.68,0,0,1-.7,1.953,2.53,2.53,0,0,1-1.914.742,2.461,2.461,0,0,1-1.875-.742,2.635,2.635,0,0,1-.716-1.953V23.328a2.655,2.655,0,0,1,.716-1.953,2.461,2.461,0,0,1,1.875-.742A2.53,2.53,0,0,1,114.437,21.375Z" style="fill:#fff"/><path d="M92.718,21.375a2.51,2.51,0,0,0-1.914-.742,2.461,2.461,0,0,0-1.875.742,2.7,2.7,0,0,0-.7,1.953v7.344a2.68,2.68,0,0,0,.7,1.953,2.461,2.461,0,0,0,1.875.742,2.51,2.51,0,0,0,1.914-.742,2.68,2.68,0,0,0,.7-1.953V23.328A2.7,2.7,0,0,0,92.718,21.375Zm0,0a2.51,2.51,0,0,0-1.914-.742,2.461,2.461,0,0,0-1.875.742,2.7,2.7,0,0,0-.7,1.953v7.344a2.68,2.68,0,0,0,.7,1.953,2.461,2.461,0,0,0,1.875.742,2.51,2.51,0,0,0,1.914-.742,2.68,2.68,0,0,0,.7-1.953V23.328A2.7,2.7,0,0,0,92.718,21.375ZM71.65,28.615a2.142,2.142,0,0,0-1.94-1.068,2.054,2.054,0,0,0-2,1.094,3.606,3.606,0,0,0-.4,1.784,3.459,3.459,0,0,0,.351,1.627,2.084,2.084,0,0,0,2.032,1.172,2.107,2.107,0,0,0,2-1.172,3.8,3.8,0,0,0-.039-3.437Zm21.068-7.24a2.51,2.51,0,0,0-1.914-.742,2.461,2.461,0,0,0-1.875.742,2.7,2.7,0,0,0-.7,1.953v7.344a2.68,2.68,0,0,0,.7,1.953,2.461,2.461,0,0,0,1.875.742,2.51,2.51,0,0,0,1.914-.742,2.68,2.68,0,0,0,.7-1.953V23.328A2.7,2.7,0,0,0,92.718,21.375Zm0,0a2.51,2.51,0,0,0-1.914-.742,2.461,2.461,0,0,0-1.875.742,2.7,2.7,0,0,0-.7,1.953v7.344a2.68,2.68,0,0,0,.7,1.953,2.461,2.461,0,0,0,1.875.742,2.51,2.51,0,0,0,1.914-.742,2.68,2.68,0,0,0,.7-1.953V23.328A2.7,2.7,0,0,0,92.718,21.375ZM71.65,28.615a2.142,2.142,0,0,0-1.94-1.068,2.054,2.054,0,0,0-2,1.094,3.606,3.606,0,0,0-.4,1.784,3.459,3.459,0,0,0,.351,1.627,2.084,2.084,0,0,0,2.032,1.172,2.107,2.107,0,0,0,2-1.172,3.8,3.8,0,0,0-.039-3.437Zm0,0a2.142,2.142,0,0,0-1.94-1.068,2.054,2.054,0,0,0-2,1.094,3.606,3.606,0,0,0-.4,1.784,3.459,3.459,0,0,0,.351,1.627,2.084,2.084,0,0,0,2.032,1.172,2.107,2.107,0,0,0,2-1.172,3.8,3.8,0,0,0-.039-3.437Zm21.068-7.24a2.51,2.51,0,0,0-1.914-.742,2.461,2.461,0,0,0-1.875.742,2.7,2.7,0,0,0-.7,1.953v7.344a2.68,2.68,0,0,0,.7,1.953,2.461,2.461,0,0,0,1.875.742,2.51,2.51,0,0,0,1.914-.742,2.68,2.68,0,0,0,.7-1.953V23.328A2.7,2.7,0,0,0,92.718,21.375Zm0,0a2.51,2.51,0,0,0-1.914-.742,2.461,2.461,0,0,0-1.875.742,2.7,2.7,0,0,0-.7,1.953v7.344a2.68,2.68,0,0,0,.7,1.953,2.461,2.461,0,0,0,1.875.742,2.51,2.51,0,0,0,1.914-.742,2.68,2.68,0,0,0,.7-1.953V23.328A2.7,2.7,0,0,0,92.718,21.375ZM71.65,28.615a2.142,2.142,0,0,0-1.94-1.068,2.054,2.054,0,0,0-2,1.094,3.606,3.606,0,0,0-.4,1.784,3.459,3.459,0,0,0,.351,1.627,2.084,2.084,0,0,0,2.032,1.172,2.107,2.107,0,0,0,2-1.172,3.8,3.8,0,0,0-.039-3.437Zm0,0a2.142,2.142,0,0,0-1.94-1.068,2.054,2.054,0,0,0-2,1.094,3.606,3.606,0,0,0-.4,1.784,3.459,3.459,0,0,0,.351,1.627,2.084,2.084,0,0,0,2.032,1.172,2.107,2.107,0,0,0,2-1.172,3.8,3.8,0,0,0-.039-3.437Zm21.068-7.24a2.51,2.51,0,0,0-1.914-.742,2.461,2.461,0,0,0-1.875.742,2.7,2.7,0,0,0-.7,1.953v7.344a2.68,2.68,0,0,0,.7,1.953,2.461,2.461,0,0,0,1.875.742,2.51,2.51,0,0,0,1.914-.742,2.68,2.68,0,0,0,.7-1.953V23.328A2.7,2.7,0,0,0,92.718,21.375Zm0,0a2.51,2.51,0,0,0-1.914-.742,2.461,2.461,0,0,0-1.875.742,2.7,2.7,0,0,0-.7,1.953v7.344a2.68,2.68,0,0,0,.7,1.953,2.461,2.461,0,0,0,1.875.742,2.51,2.51,0,0,0,1.914-.742,2.68,2.68,0,0,0,.7-1.953V23.328A2.7,2.7,0,0,0,92.718,21.375ZM71.65,28.615a2.142,2.142,0,0,0-1.94-1.068,2.054,2.054,0,0,0-2,1.094,3.606,3.606,0,0,0-.4,1.784,3.459,3.459,0,0,0,.351,1.627,2.084,2.084,0,0,0,2.032,1.172,2.107,2.107,0,0,0,2-1.172,3.8,3.8,0,0,0-.039-3.437Zm52.592-15.938H3.758A1.759,1.759,0,0,0,2,14.435v25.13a1.75,1.75,0,0,0,1.758,1.758H124.242A1.75,1.75,0,0,0,126,39.565V14.435A1.759,1.759,0,0,0,124.242,12.677ZM16.089,35.972a.312.312,0,0,1-.326.325H12.651a.312.312,0,0,1-.325-.325V21.362a.118.118,0,0,0-.052-.1c-.039-.039-.065-.052-.1-.039l-2.643.729-.1.026c-.169,0-.247-.1-.247-.3L9.1,19.383a.39.39,0,0,1,.247-.378l2.8-1.3a.8.8,0,0,1,.391-.078h3.229a.316.316,0,0,1,.235.091.3.3,0,0,1,.091.221ZM30.438,20.633a1.285,1.285,0,0,1-.078.4L24.592,36.063a.339.339,0,0,1-.365.234H20.894c-.274,0-.365-.117-.274-.378L26.415,21.01c.026-.1,0-.156-.105-.156h-5a.117.117,0,0,0-.13.13v1.224a.316.316,0,0,1-.091.235.3.3,0,0,1-.221.091H18.433a.287.287,0,0,1-.222-.091.316.316,0,0,1-.091-.235l.026-4.271a.3.3,0,0,1,.091-.221.287.287,0,0,1,.222-.091H30.126a.311.311,0,0,1,.312.312ZM44.657,35.972a.313.313,0,0,1-.091.234.3.3,0,0,1-.221.091H32.339a.312.312,0,0,1-.325-.325V33.524a.56.56,0,0,1,.156-.4c.872-.846,1.758-1.784,2.669-2.787s1.485-1.627,1.706-1.875c.508-.586,1-1.146,1.523-1.679,1.615-1.8,2.435-3.138,2.435-4.011a1.963,1.963,0,0,0-.677-1.523,2.755,2.755,0,0,0-3.463,0A2,2,0,0,0,35.7,22.82V23.5a.367.367,0,0,1-.092.222.313.313,0,0,1-.234.091H32.222a.311.311,0,0,1-.312-.313V22.234a4.575,4.575,0,0,1,.9-2.539A5.265,5.265,0,0,1,35.022,18a7.752,7.752,0,0,1,3.073-.586,7.264,7.264,0,0,1,3.294.7,5.31,5.31,0,0,1,2.161,1.9,4.894,4.894,0,0,1,.756,2.669,5.218,5.218,0,0,1-.56,2.292,11.856,11.856,0,0,1-1.68,2.539c-.547.69-1.146,1.38-1.784,2.057s-1.588,1.654-2.852,2.93l-.4.4a.085.085,0,0,0-.026.1c.013.039.052.052.1.052h7.24a.369.369,0,0,1,.221.091.313.313,0,0,1,.091.234Zm6.068-.17a2.029,2.029,0,0,1-1.51.6,2,2,0,0,1-1.5-.6,2.028,2.028,0,0,1-.6-1.51,2.1,2.1,0,1,1,4.206,0A2.028,2.028,0,0,1,50.725,35.8Zm10.183.17a.375.375,0,0,1-.092.234.313.313,0,0,1-.234.091H57.457a.3.3,0,0,1-.221-.091.31.31,0,0,1-.092-.234V21.362a.118.118,0,0,0-.052-.1c-.039-.039-.078-.052-.1-.039l-2.643.729-.1.026c-.17,0-.248-.1-.248-.3l-.078-2.291a.4.4,0,0,1,.235-.378l2.812-1.3a.764.764,0,0,1,.391-.078h3.229a.313.313,0,0,1,.234.091.37.37,0,0,1,.092.221Zm14.427-2.878a5.422,5.422,0,0,1-2.162,2.487,6.5,6.5,0,0,1-3.463.9,6.584,6.584,0,0,1-3.555-.937,5.508,5.508,0,0,1-2.161-2.63,6.987,6.987,0,0,1-.469-2.618V22.26a4.355,4.355,0,0,1,.755-2.539A4.793,4.793,0,0,1,66.4,18.015a7.576,7.576,0,0,1,3.125-.6,7.343,7.343,0,0,1,3.06.6,4.751,4.751,0,0,1,2.071,1.68,4.363,4.363,0,0,1,.729,2.487v.755a.305.305,0,0,1-.091.222.286.286,0,0,1-.222.091H71.949a.268.268,0,0,1-.221-.091.321.321,0,0,1-.1-.222V22.69a2.02,2.02,0,0,0-.586-1.471,2.052,2.052,0,0,0-1.511-.586,2.217,2.217,0,0,0-1.614.612,1.974,1.974,0,0,0-.638,1.523v2.513a.094.094,0,0,0,.052.091.111.111,0,0,0,.117-.039,4.3,4.3,0,0,1,2.9-.937,5.555,5.555,0,0,1,2.864.742,5.073,5.073,0,0,1,1.993,2.122,6.437,6.437,0,0,1,.638,3.06A7.222,7.222,0,0,1,75.335,33.094ZM81.7,35.8a2.2,2.2,0,0,1-3.021,0,2.082,2.082,0,0,1-.6-1.51,2.11,2.11,0,1,1,4.219,0A2.028,2.028,0,0,1,81.7,35.8Zm15.482-5.325a5.908,5.908,0,0,1-1.718,4.479A6.465,6.465,0,0,1,90.8,36.6a6.4,6.4,0,0,1-4.636-1.641,5.948,5.948,0,0,1-1.705-4.479V23.445a5.808,5.808,0,0,1,1.705-4.4A6.394,6.394,0,0,1,90.8,17.416a6.459,6.459,0,0,1,4.662,1.628,5.769,5.769,0,0,1,1.718,4.4Zm6.224,5.325a2,2,0,0,1-1.5.6A2.047,2.047,0,0,1,99.8,34.292a2.007,2.007,0,0,1,2.109-2.1,2.009,2.009,0,0,1,2.109,2.1A2.038,2.038,0,0,1,103.408,35.8Zm15.5-5.325a5.9,5.9,0,0,1-1.718,4.479,6.487,6.487,0,0,1-4.662,1.641,6.4,6.4,0,0,1-4.635-1.641,5.9,5.9,0,0,1-1.706-4.479V23.445a5.758,5.758,0,0,1,1.706-4.4,6.39,6.39,0,0,1,4.635-1.628,6.48,6.48,0,0,1,4.662,1.628,5.765,5.765,0,0,1,1.718,4.4ZM90.8,20.633a2.461,2.461,0,0,0-1.875.742,2.7,2.7,0,0,0-.7,1.953v7.344a2.68,2.68,0,0,0,.7,1.953,2.461,2.461,0,0,0,1.875.742,2.51,2.51,0,0,0,1.914-.742,2.68,2.68,0,0,0,.7-1.953V23.328a2.7,2.7,0,0,0-.7-1.953A2.51,2.51,0,0,0,90.8,20.633ZM69.71,27.547a2.054,2.054,0,0,0-2,1.094,3.606,3.606,0,0,0-.4,1.784,3.459,3.459,0,0,0,.351,1.627,2.084,2.084,0,0,0,2.032,1.172,2.107,2.107,0,0,0,2-1.172,3.8,3.8,0,0,0-.039-3.437A2.142,2.142,0,0,0,69.71,27.547Zm1.94,1.068a2.142,2.142,0,0,0-1.94-1.068,2.054,2.054,0,0,0-2,1.094,3.606,3.606,0,0,0-.4,1.784,3.459,3.459,0,0,0,.351,1.627,2.084,2.084,0,0,0,2.032,1.172,2.107,2.107,0,0,0,2-1.172,3.8,3.8,0,0,0-.039-3.437Zm21.068-7.24a2.51,2.51,0,0,0-1.914-.742,2.461,2.461,0,0,0-1.875.742,2.7,2.7,0,0,0-.7,1.953v7.344a2.68,2.68,0,0,0,.7,1.953,2.461,2.461,0,0,0,1.875.742,2.51,2.51,0,0,0,1.914-.742,2.68,2.68,0,0,0,.7-1.953V23.328A2.7,2.7,0,0,0,92.718,21.375Zm0,0a2.51,2.51,0,0,0-1.914-.742,2.461,2.461,0,0,0-1.875.742,2.7,2.7,0,0,0-.7,1.953v7.344a2.68,2.68,0,0,0,.7,1.953,2.461,2.461,0,0,0,1.875.742,2.51,2.51,0,0,0,1.914-.742,2.68,2.68,0,0,0,.7-1.953V23.328A2.7,2.7,0,0,0,92.718,21.375ZM71.65,28.615a2.142,2.142,0,0,0-1.94-1.068,2.054,2.054,0,0,0-2,1.094,3.606,3.606,0,0,0-.4,1.784,3.459,3.459,0,0,0,.351,1.627,2.084,2.084,0,0,0,2.032,1.172,2.107,2.107,0,0,0,2-1.172,3.8,3.8,0,0,0-.039-3.437Zm0,0a2.142,2.142,0,0,0-1.94-1.068,2.054,2.054,0,0,0-2,1.094,3.606,3.606,0,0,0-.4,1.784,3.459,3.459,0,0,0,.351,1.627,2.084,2.084,0,0,0,2.032,1.172,2.107,2.107,0,0,0,2-1.172,3.8,3.8,0,0,0-.039-3.437Zm21.068-7.24a2.51,2.51,0,0,0-1.914-.742,2.461,2.461,0,0,0-1.875.742,2.7,2.7,0,0,0-.7,1.953v7.344a2.68,2.68,0,0,0,.7,1.953,2.461,2.461,0,0,0,1.875.742,2.51,2.51,0,0,0,1.914-.742,2.68,2.68,0,0,0,.7-1.953V23.328A2.7,2.7,0,0,0,92.718,21.375Zm0,0a2.51,2.51,0,0,0-1.914-.742,2.461,2.461,0,0,0-1.875.742,2.7,2.7,0,0,0-.7,1.953v7.344a2.68,2.68,0,0,0,.7,1.953,2.461,2.461,0,0,0,1.875.742,2.51,2.51,0,0,0,1.914-.742,2.68,2.68,0,0,0,.7-1.953V23.328A2.7,2.7,0,0,0,92.718,21.375ZM71.65,28.615a2.142,2.142,0,0,0-1.94-1.068,2.054,2.054,0,0,0-2,1.094,3.606,3.606,0,0,0-.4,1.784,3.459,3.459,0,0,0,.351,1.627,2.084,2.084,0,0,0,2.032,1.172,2.107,2.107,0,0,0,2-1.172,3.8,3.8,0,0,0-.039-3.437Zm21.068-7.24a2.51,2.51,0,0,0-1.914-.742,2.461,2.461,0,0,0-1.875.742,2.7,2.7,0,0,0-.7,1.953v7.344a2.68,2.68,0,0,0,.7,1.953,2.461,2.461,0,0,0,1.875.742,2.51,2.51,0,0,0,1.914-.742,2.68,2.68,0,0,0,.7-1.953V23.328A2.7,2.7,0,0,0,92.718,21.375Zm0,0a2.51,2.51,0,0,0-1.914-.742,2.461,2.461,0,0,0-1.875.742,2.7,2.7,0,0,0-.7,1.953v7.344a2.68,2.68,0,0,0,.7,1.953,2.461,2.461,0,0,0,1.875.742,2.51,2.51,0,0,0,1.914-.742,2.68,2.68,0,0,0,.7-1.953V23.328A2.7,2.7,0,0,0,92.718,21.375Z" style="fill:#fff"/><path d="M114.437,58.375a2.7,2.7,0,0,1,.7,1.953v7.344a2.68,2.68,0,0,1-.7,1.953,2.53,2.53,0,0,1-1.914.742,2.461,2.461,0,0,1-1.875-.742,2.635,2.635,0,0,1-.716-1.953V60.328a2.655,2.655,0,0,1,.716-1.953,2.461,2.461,0,0,1,1.875-.742A2.53,2.53,0,0,1,114.437,58.375Z" style="fill:#fff"/><path d="M92.718,58.375a2.51,2.51,0,0,0-1.914-.742,2.461,2.461,0,0,0-1.875.742,2.7,2.7,0,0,0-.7,1.953v7.344a2.68,2.68,0,0,0,.7,1.953,2.461,2.461,0,0,0,1.875.742,2.51,2.51,0,0,0,1.914-.742,2.68,2.68,0,0,0,.7-1.953V60.328A2.7,2.7,0,0,0,92.718,58.375Zm0,0a2.51,2.51,0,0,0-1.914-.742,2.461,2.461,0,0,0-1.875.742,2.7,2.7,0,0,0-.7,1.953v7.344a2.68,2.68,0,0,0,.7,1.953,2.461,2.461,0,0,0,1.875.742,2.51,2.51,0,0,0,1.914-.742,2.68,2.68,0,0,0,.7-1.953V60.328A2.7,2.7,0,0,0,92.718,58.375ZM71.65,65.615a2.142,2.142,0,0,0-1.94-1.068,2.054,2.054,0,0,0-2,1.094,3.606,3.606,0,0,0-.4,1.784,3.459,3.459,0,0,0,.351,1.627,2.084,2.084,0,0,0,2.032,1.172,2.107,2.107,0,0,0,2-1.172,3.8,3.8,0,0,0-.039-3.437Zm21.068-7.24a2.51,2.51,0,0,0-1.914-.742,2.461,2.461,0,0,0-1.875.742,2.7,2.7,0,0,0-.7,1.953v7.344a2.68,2.68,0,0,0,.7,1.953,2.461,2.461,0,0,0,1.875.742,2.51,2.51,0,0,0,1.914-.742,2.68,2.68,0,0,0,.7-1.953V60.328A2.7,2.7,0,0,0,92.718,58.375Zm0,0a2.51,2.51,0,0,0-1.914-.742,2.461,2.461,0,0,0-1.875.742,2.7,2.7,0,0,0-.7,1.953v7.344a2.68,2.68,0,0,0,.7,1.953,2.461,2.461,0,0,0,1.875.742,2.51,2.51,0,0,0,1.914-.742,2.68,2.68,0,0,0,.7-1.953V60.328A2.7,2.7,0,0,0,92.718,58.375ZM71.65,65.615a2.142,2.142,0,0,0-1.94-1.068,2.054,2.054,0,0,0-2,1.094,3.606,3.606,0,0,0-.4,1.784,3.459,3.459,0,0,0,.351,1.627,2.084,2.084,0,0,0,2.032,1.172,2.107,2.107,0,0,0,2-1.172,3.8,3.8,0,0,0-.039-3.437Zm0,0a2.142,2.142,0,0,0-1.94-1.068,2.054,2.054,0,0,0-2,1.094,3.606,3.606,0,0,0-.4,1.784,3.459,3.459,0,0,0,.351,1.627,2.084,2.084,0,0,0,2.032,1.172,2.107,2.107,0,0,0,2-1.172,3.8,3.8,0,0,0-.039-3.437Zm21.068-7.24a2.51,2.51,0,0,0-1.914-.742,2.461,2.461,0,0,0-1.875.742,2.7,2.7,0,0,0-.7,1.953v7.344a2.68,2.68,0,0,0,.7,1.953,2.461,2.461,0,0,0,1.875.742,2.51,2.51,0,0,0,1.914-.742,2.68,2.68,0,0,0,.7-1.953V60.328A2.7,2.7,0,0,0,92.718,58.375Zm0,0a2.51,2.51,0,0,0-1.914-.742,2.461,2.461,0,0,0-1.875.742,2.7,2.7,0,0,0-.7,1.953v7.344a2.68,2.68,0,0,0,.7,1.953,2.461,2.461,0,0,0,1.875.742,2.51,2.51,0,0,0,1.914-.742,2.68,2.68,0,0,0,.7-1.953V60.328A2.7,2.7,0,0,0,92.718,58.375ZM71.65,65.615a2.142,2.142,0,0,0-1.94-1.068,2.054,2.054,0,0,0-2,1.094,3.606,3.606,0,0,0-.4,1.784,3.459,3.459,0,0,0,.351,1.627,2.084,2.084,0,0,0,2.032,1.172,2.107,2.107,0,0,0,2-1.172,3.8,3.8,0,0,0-.039-3.437Zm0,0a2.142,2.142,0,0,0-1.94-1.068,2.054,2.054,0,0,0-2,1.094,3.606,3.606,0,0,0-.4,1.784,3.459,3.459,0,0,0,.351,1.627,2.084,2.084,0,0,0,2.032,1.172,2.107,2.107,0,0,0,2-1.172,3.8,3.8,0,0,0-.039-3.437Zm21.068-7.24a2.51,2.51,0,0,0-1.914-.742,2.461,2.461,0,0,0-1.875.742,2.7,2.7,0,0,0-.7,1.953v7.344a2.68,2.68,0,0,0,.7,1.953,2.461,2.461,0,0,0,1.875.742,2.51,2.51,0,0,0,1.914-.742,2.68,2.68,0,0,0,.7-1.953V60.328A2.7,2.7,0,0,0,92.718,58.375Zm0,0a2.51,2.51,0,0,0-1.914-.742,2.461,2.461,0,0,0-1.875.742,2.7,2.7,0,0,0-.7,1.953v7.344a2.68,2.68,0,0,0,.7,1.953,2.461,2.461,0,0,0,1.875.742,2.51,2.51,0,0,0,1.914-.742,2.68,2.68,0,0,0,.7-1.953V60.328A2.7,2.7,0,0,0,92.718,58.375ZM71.65,65.615a2.142,2.142,0,0,0-1.94-1.068,2.054,2.054,0,0,0-2,1.094,3.606,3.606,0,0,0-.4,1.784,3.459,3.459,0,0,0,.351,1.627,2.084,2.084,0,0,0,2.032,1.172,2.107,2.107,0,0,0,2-1.172,3.8,3.8,0,0,0-.039-3.437Zm52.592-15.938H3.758A1.759,1.759,0,0,0,2,51.435v25.13a1.75,1.75,0,0,0,1.758,1.758H124.242A1.75,1.75,0,0,0,126,76.565V51.435A1.759,1.759,0,0,0,124.242,49.677ZM16.089,72.972a.312.312,0,0,1-.326.325H12.651a.312.312,0,0,1-.325-.325V58.362a.118.118,0,0,0-.052-.1c-.039-.039-.065-.052-.1-.039l-2.643.729-.1.026c-.169,0-.247-.1-.247-.3L9.1,56.383a.39.39,0,0,1,.247-.378l2.8-1.3a.8.8,0,0,1,.391-.078h3.229a.316.316,0,0,1,.235.091.3.3,0,0,1,.091.221ZM30.438,57.633a1.285,1.285,0,0,1-.078.4L24.592,73.063a.339.339,0,0,1-.365.234H20.894c-.274,0-.365-.117-.274-.378L26.415,58.01c.026-.1,0-.156-.105-.156h-5a.117.117,0,0,0-.13.13v1.224a.316.316,0,0,1-.091.235.3.3,0,0,1-.221.091H18.433a.287.287,0,0,1-.222-.091.316.316,0,0,1-.091-.235l.026-4.271a.3.3,0,0,1,.091-.221.287.287,0,0,1,.222-.091H30.126a.311.311,0,0,1,.312.312ZM44.657,72.972a.313.313,0,0,1-.091.234.3.3,0,0,1-.221.091H32.339a.312.312,0,0,1-.325-.325V70.524a.56.56,0,0,1,.156-.4c.872-.846,1.758-1.784,2.669-2.787s1.485-1.627,1.706-1.875c.508-.586,1-1.146,1.523-1.679,1.615-1.8,2.435-3.138,2.435-4.011a1.963,1.963,0,0,0-.677-1.523,2.755,2.755,0,0,0-3.463,0A2,2,0,0,0,35.7,59.82V60.5a.367.367,0,0,1-.092.222.313.313,0,0,1-.234.091H32.222a.311.311,0,0,1-.312-.313V59.234a4.575,4.575,0,0,1,.9-2.539A5.265,5.265,0,0,1,35.022,55a7.752,7.752,0,0,1,3.073-.586,7.264,7.264,0,0,1,3.294.7,5.31,5.31,0,0,1,2.161,1.9,4.894,4.894,0,0,1,.756,2.669,5.218,5.218,0,0,1-.56,2.292,11.856,11.856,0,0,1-1.68,2.539c-.547.69-1.146,1.38-1.784,2.057s-1.588,1.654-2.852,2.93l-.4.4a.085.085,0,0,0-.026.1c.013.039.052.052.1.052h7.24a.369.369,0,0,1,.221.091.313.313,0,0,1,.091.234Zm6.068-.17a2.029,2.029,0,0,1-1.51.6,2,2,0,0,1-1.5-.6,2.028,2.028,0,0,1-.6-1.51,2.1,2.1,0,1,1,4.206,0A2.028,2.028,0,0,1,50.725,72.8Zm10.183.17a.375.375,0,0,1-.092.234.313.313,0,0,1-.234.091H57.457a.3.3,0,0,1-.221-.091.31.31,0,0,1-.092-.234V58.362a.118.118,0,0,0-.052-.1c-.039-.039-.078-.052-.1-.039l-2.643.729-.1.026c-.17,0-.248-.1-.248-.3l-.078-2.291a.4.4,0,0,1,.235-.378l2.812-1.3a.764.764,0,0,1,.391-.078h3.229a.313.313,0,0,1,.234.091.37.37,0,0,1,.092.221Zm14.427-2.878a5.422,5.422,0,0,1-2.162,2.487,6.5,6.5,0,0,1-3.463.9,6.584,6.584,0,0,1-3.555-.937,5.508,5.508,0,0,1-2.161-2.63,6.987,6.987,0,0,1-.469-2.618V59.26a4.355,4.355,0,0,1,.755-2.539A4.793,4.793,0,0,1,66.4,55.015a7.576,7.576,0,0,1,3.125-.6,7.343,7.343,0,0,1,3.06.6,4.751,4.751,0,0,1,2.071,1.68,4.363,4.363,0,0,1,.729,2.487v.755a.305.305,0,0,1-.091.222.286.286,0,0,1-.222.091H71.949a.268.268,0,0,1-.221-.091.321.321,0,0,1-.1-.222V59.69a2.02,2.02,0,0,0-.586-1.471,2.052,2.052,0,0,0-1.511-.586,2.217,2.217,0,0,0-1.614.612,1.974,1.974,0,0,0-.638,1.523v2.513a.094.094,0,0,0,.052.091.111.111,0,0,0,.117-.039,4.3,4.3,0,0,1,2.9-.937,5.555,5.555,0,0,1,2.864.742,5.073,5.073,0,0,1,1.993,2.122,6.437,6.437,0,0,1,.638,3.06A7.222,7.222,0,0,1,75.335,70.094ZM81.7,72.8a2.2,2.2,0,0,1-3.021,0,2.082,2.082,0,0,1-.6-1.51,2.11,2.11,0,1,1,4.219,0A2.028,2.028,0,0,1,81.7,72.8Zm15.482-5.325a5.908,5.908,0,0,1-1.718,4.479A6.465,6.465,0,0,1,90.8,73.6a6.4,6.4,0,0,1-4.636-1.641,5.948,5.948,0,0,1-1.705-4.479V60.445a5.808,5.808,0,0,1,1.705-4.4A6.394,6.394,0,0,1,90.8,54.416a6.459,6.459,0,0,1,4.662,1.628,5.769,5.769,0,0,1,1.718,4.4Zm6.224,5.325a2,2,0,0,1-1.5.6A2.047,2.047,0,0,1,99.8,71.292a2.007,2.007,0,0,1,2.109-2.1,2.009,2.009,0,0,1,2.109,2.1A2.038,2.038,0,0,1,103.408,72.8Zm15.5-5.325a5.9,5.9,0,0,1-1.718,4.479,6.487,6.487,0,0,1-4.662,1.641,6.4,6.4,0,0,1-4.635-1.641,5.9,5.9,0,0,1-1.706-4.479V60.445a5.758,5.758,0,0,1,1.706-4.4,6.39,6.39,0,0,1,4.635-1.628,6.48,6.48,0,0,1,4.662,1.628,5.765,5.765,0,0,1,1.718,4.4ZM90.8,57.633a2.461,2.461,0,0,0-1.875.742,2.7,2.7,0,0,0-.7,1.953v7.344a2.68,2.68,0,0,0,.7,1.953,2.461,2.461,0,0,0,1.875.742,2.51,2.51,0,0,0,1.914-.742,2.68,2.68,0,0,0,.7-1.953V60.328a2.7,2.7,0,0,0-.7-1.953A2.51,2.51,0,0,0,90.8,57.633ZM69.71,64.547a2.054,2.054,0,0,0-2,1.094,3.606,3.606,0,0,0-.4,1.784,3.459,3.459,0,0,0,.351,1.627,2.084,2.084,0,0,0,2.032,1.172,2.107,2.107,0,0,0,2-1.172,3.8,3.8,0,0,0-.039-3.437A2.142,2.142,0,0,0,69.71,64.547Zm1.94,1.068a2.142,2.142,0,0,0-1.94-1.068,2.054,2.054,0,0,0-2,1.094,3.606,3.606,0,0,0-.4,1.784,3.459,3.459,0,0,0,.351,1.627,2.084,2.084,0,0,0,2.032,1.172,2.107,2.107,0,0,0,2-1.172,3.8,3.8,0,0,0-.039-3.437Zm21.068-7.24a2.51,2.51,0,0,0-1.914-.742,2.461,2.461,0,0,0-1.875.742,2.7,2.7,0,0,0-.7,1.953v7.344a2.68,2.68,0,0,0,.7,1.953,2.461,2.461,0,0,0,1.875.742,2.51,2.51,0,0,0,1.914-.742,2.68,2.68,0,0,0,.7-1.953V60.328A2.7,2.7,0,0,0,92.718,58.375Zm0,0a2.51,2.51,0,0,0-1.914-.742,2.461,2.461,0,0,0-1.875.742,2.7,2.7,0,0,0-.7,1.953v7.344a2.68,2.68,0,0,0,.7,1.953,2.461,2.461,0,0,0,1.875.742,2.51,2.51,0,0,0,1.914-.742,2.68,2.68,0,0,0,.7-1.953V60.328A2.7,2.7,0,0,0,92.718,58.375ZM71.65,65.615a2.142,2.142,0,0,0-1.94-1.068,2.054,2.054,0,0,0-2,1.094,3.606,3.606,0,0,0-.4,1.784,3.459,3.459,0,0,0,.351,1.627,2.084,2.084,0,0,0,2.032,1.172,2.107,2.107,0,0,0,2-1.172,3.8,3.8,0,0,0-.039-3.437Zm0,0a2.142,2.142,0,0,0-1.94-1.068,2.054,2.054,0,0,0-2,1.094,3.606,3.606,0,0,0-.4,1.784,3.459,3.459,0,0,0,.351,1.627,2.084,2.084,0,0,0,2.032,1.172,2.107,2.107,0,0,0,2-1.172,3.8,3.8,0,0,0-.039-3.437Zm21.068-7.24a2.51,2.51,0,0,0-1.914-.742,2.461,2.461,0,0,0-1.875.742,2.7,2.7,0,0,0-.7,1.953v7.344a2.68,2.68,0,0,0,.7,1.953,2.461,2.461,0,0,0,1.875.742,2.51,2.51,0,0,0,1.914-.742,2.68,2.68,0,0,0,.7-1.953V60.328A2.7,2.7,0,0,0,92.718,58.375Zm0,0a2.51,2.51,0,0,0-1.914-.742,2.461,2.461,0,0,0-1.875.742,2.7,2.7,0,0,0-.7,1.953v7.344a2.68,2.68,0,0,0,.7,1.953,2.461,2.461,0,0,0,1.875.742,2.51,2.51,0,0,0,1.914-.742,2.68,2.68,0,0,0,.7-1.953V60.328A2.7,2.7,0,0,0,92.718,58.375ZM71.65,65.615a2.142,2.142,0,0,0-1.94-1.068,2.054,2.054,0,0,0-2,1.094,3.606,3.606,0,0,0-.4,1.784,3.459,3.459,0,0,0,.351,1.627,2.084,2.084,0,0,0,2.032,1.172,2.107,2.107,0,0,0,2-1.172,3.8,3.8,0,0,0-.039-3.437Zm21.068-7.24a2.51,2.51,0,0,0-1.914-.742,2.461,2.461,0,0,0-1.875.742,2.7,2.7,0,0,0-.7,1.953v7.344a2.68,2.68,0,0,0,.7,1.953,2.461,2.461,0,0,0,1.875.742,2.51,2.51,0,0,0,1.914-.742,2.68,2.68,0,0,0,.7-1.953V60.328A2.7,2.7,0,0,0,92.718,58.375Zm0,0a2.51,2.51,0,0,0-1.914-.742,2.461,2.461,0,0,0-1.875.742,2.7,2.7,0,0,0-.7,1.953v7.344a2.68,2.68,0,0,0,.7,1.953,2.461,2.461,0,0,0,1.875.742,2.51,2.51,0,0,0,1.914-.742,2.68,2.68,0,0,0,.7-1.953V60.328A2.7,2.7,0,0,0,92.718,58.375Z" style="fill:#fff"/><path d="M114.437,95.375a2.7,2.7,0,0,1,.7,1.953v7.344a2.68,2.68,0,0,1-.7,1.953,2.53,2.53,0,0,1-1.914.742,2.461,2.461,0,0,1-1.875-.742,2.635,2.635,0,0,1-.716-1.953V97.328a2.655,2.655,0,0,1,.716-1.953,2.461,2.461,0,0,1,1.875-.742A2.53,2.53,0,0,1,114.437,95.375Z" style="fill:#fff"/><path d="M92.718,95.375a2.51,2.51,0,0,0-1.914-.742,2.461,2.461,0,0,0-1.875.742,2.7,2.7,0,0,0-.7,1.953v7.344a2.68,2.68,0,0,0,.7,1.953,2.461,2.461,0,0,0,1.875.742,2.51,2.51,0,0,0,1.914-.742,2.68,2.68,0,0,0,.7-1.953V97.328A2.7,2.7,0,0,0,92.718,95.375Zm0,0a2.51,2.51,0,0,0-1.914-.742,2.461,2.461,0,0,0-1.875.742,2.7,2.7,0,0,0-.7,1.953v7.344a2.68,2.68,0,0,0,.7,1.953,2.461,2.461,0,0,0,1.875.742,2.51,2.51,0,0,0,1.914-.742,2.68,2.68,0,0,0,.7-1.953V97.328A2.7,2.7,0,0,0,92.718,95.375Zm-21.068,7.24a2.142,2.142,0,0,0-1.94-1.068,2.054,2.054,0,0,0-2,1.094,3.606,3.606,0,0,0-.4,1.784,3.459,3.459,0,0,0,.351,1.627,2.084,2.084,0,0,0,2.032,1.172,2.107,2.107,0,0,0,2-1.172,3.8,3.8,0,0,0-.039-3.437Zm21.068-7.24a2.51,2.51,0,0,0-1.914-.742,2.461,2.461,0,0,0-1.875.742,2.7,2.7,0,0,0-.7,1.953v7.344a2.68,2.68,0,0,0,.7,1.953,2.461,2.461,0,0,0,1.875.742,2.51,2.51,0,0,0,1.914-.742,2.68,2.68,0,0,0,.7-1.953V97.328A2.7,2.7,0,0,0,92.718,95.375Zm0,0a2.51,2.51,0,0,0-1.914-.742,2.461,2.461,0,0,0-1.875.742,2.7,2.7,0,0,0-.7,1.953v7.344a2.68,2.68,0,0,0,.7,1.953,2.461,2.461,0,0,0,1.875.742,2.51,2.51,0,0,0,1.914-.742,2.68,2.68,0,0,0,.7-1.953V97.328A2.7,2.7,0,0,0,92.718,95.375Zm-21.068,7.24a2.142,2.142,0,0,0-1.94-1.068,2.054,2.054,0,0,0-2,1.094,3.606,3.606,0,0,0-.4,1.784,3.459,3.459,0,0,0,.351,1.627,2.084,2.084,0,0,0,2.032,1.172,2.107,2.107,0,0,0,2-1.172,3.8,3.8,0,0,0-.039-3.437Zm0,0a2.142,2.142,0,0,0-1.94-1.068,2.054,2.054,0,0,0-2,1.094,3.606,3.606,0,0,0-.4,1.784,3.459,3.459,0,0,0,.351,1.627,2.084,2.084,0,0,0,2.032,1.172,2.107,2.107,0,0,0,2-1.172,3.8,3.8,0,0,0-.039-3.437Zm21.068-7.24a2.51,2.51,0,0,0-1.914-.742,2.461,2.461,0,0,0-1.875.742,2.7,2.7,0,0,0-.7,1.953v7.344a2.68,2.68,0,0,0,.7,1.953,2.461,2.461,0,0,0,1.875.742,2.51,2.51,0,0,0,1.914-.742,2.68,2.68,0,0,0,.7-1.953V97.328A2.7,2.7,0,0,0,92.718,95.375Zm0,0a2.51,2.51,0,0,0-1.914-.742,2.461,2.461,0,0,0-1.875.742,2.7,2.7,0,0,0-.7,1.953v7.344a2.68,2.68,0,0,0,.7,1.953,2.461,2.461,0,0,0,1.875.742,2.51,2.51,0,0,0,1.914-.742,2.68,2.68,0,0,0,.7-1.953V97.328A2.7,2.7,0,0,0,92.718,95.375Zm-21.068,7.24a2.142,2.142,0,0,0-1.94-1.068,2.054,2.054,0,0,0-2,1.094,3.606,3.606,0,0,0-.4,1.784,3.459,3.459,0,0,0,.351,1.627,2.084,2.084,0,0,0,2.032,1.172,2.107,2.107,0,0,0,2-1.172,3.8,3.8,0,0,0-.039-3.437Zm0,0a2.142,2.142,0,0,0-1.94-1.068,2.054,2.054,0,0,0-2,1.094,3.606,3.606,0,0,0-.4,1.784,3.459,3.459,0,0,0,.351,1.627,2.084,2.084,0,0,0,2.032,1.172,2.107,2.107,0,0,0,2-1.172,3.8,3.8,0,0,0-.039-3.437Zm21.068-7.24a2.51,2.51,0,0,0-1.914-.742,2.461,2.461,0,0,0-1.875.742,2.7,2.7,0,0,0-.7,1.953v7.344a2.68,2.68,0,0,0,.7,1.953,2.461,2.461,0,0,0,1.875.742,2.51,2.51,0,0,0,1.914-.742,2.68,2.68,0,0,0,.7-1.953V97.328A2.7,2.7,0,0,0,92.718,95.375Zm0,0a2.51,2.51,0,0,0-1.914-.742,2.461,2.461,0,0,0-1.875.742,2.7,2.7,0,0,0-.7,1.953v7.344a2.68,2.68,0,0,0,.7,1.953,2.461,2.461,0,0,0,1.875.742,2.51,2.51,0,0,0,1.914-.742,2.68,2.68,0,0,0,.7-1.953V97.328A2.7,2.7,0,0,0,92.718,95.375Zm-21.068,7.24a2.142,2.142,0,0,0-1.94-1.068,2.054,2.054,0,0,0-2,1.094,3.606,3.606,0,0,0-.4,1.784,3.459,3.459,0,0,0,.351,1.627,2.084,2.084,0,0,0,2.032,1.172,2.107,2.107,0,0,0,2-1.172,3.8,3.8,0,0,0-.039-3.437Zm52.592-15.938H3.758A1.759,1.759,0,0,0,2,88.435v25.13a1.75,1.75,0,0,0,1.758,1.758H124.242A1.75,1.75,0,0,0,126,113.565V88.435A1.759,1.759,0,0,0,124.242,86.677ZM16.089,109.972a.312.312,0,0,1-.326.325H12.651a.312.312,0,0,1-.325-.325V95.362a.118.118,0,0,0-.052-.1c-.039-.039-.065-.052-.1-.039l-2.643.729-.1.026c-.169,0-.247-.1-.247-.3L9.1,93.383a.39.39,0,0,1,.247-.378l2.8-1.3a.8.8,0,0,1,.391-.078h3.229a.316.316,0,0,1,.235.091.3.3,0,0,1,.091.221ZM30.438,94.633a1.285,1.285,0,0,1-.078.4l-5.768,15.027a.339.339,0,0,1-.365.234H20.894c-.274,0-.365-.117-.274-.378L26.415,95.01c.026-.1,0-.156-.105-.156h-5a.117.117,0,0,0-.13.13v1.224a.316.316,0,0,1-.091.235.3.3,0,0,1-.221.091H18.433a.287.287,0,0,1-.222-.091.316.316,0,0,1-.091-.235l.026-4.271a.3.3,0,0,1,.091-.221.287.287,0,0,1,.222-.091H30.126a.311.311,0,0,1,.312.312Zm14.219,15.339a.313.313,0,0,1-.091.234.3.3,0,0,1-.221.091H32.339a.312.312,0,0,1-.325-.325v-2.448a.56.56,0,0,1,.156-.4c.872-.846,1.758-1.784,2.669-2.787s1.485-1.627,1.706-1.875c.508-.586,1-1.146,1.523-1.679,1.615-1.8,2.435-3.138,2.435-4.011a1.963,1.963,0,0,0-.677-1.523,2.755,2.755,0,0,0-3.463,0A2,2,0,0,0,35.7,96.82V97.5a.367.367,0,0,1-.092.222.313.313,0,0,1-.234.091H32.222a.311.311,0,0,1-.312-.313V96.234a4.575,4.575,0,0,1,.9-2.539A5.265,5.265,0,0,1,35.022,92a7.752,7.752,0,0,1,3.073-.586,7.264,7.264,0,0,1,3.294.7,5.31,5.31,0,0,1,2.161,1.9,4.894,4.894,0,0,1,.756,2.669,5.218,5.218,0,0,1-.56,2.292,11.856,11.856,0,0,1-1.68,2.539c-.547.69-1.146,1.38-1.784,2.057s-1.588,1.654-2.852,2.93l-.4.4a.085.085,0,0,0-.026.1c.013.039.052.052.1.052h7.24a.369.369,0,0,1,.221.091.313.313,0,0,1,.091.234Zm6.068-.17a2.029,2.029,0,0,1-1.51.6,2,2,0,0,1-1.5-.6,2.028,2.028,0,0,1-.6-1.51,2.1,2.1,0,1,1,4.206,0A2.028,2.028,0,0,1,50.725,109.8Zm10.183.17a.375.375,0,0,1-.092.234.313.313,0,0,1-.234.091H57.457a.3.3,0,0,1-.221-.091.31.31,0,0,1-.092-.234V95.362a.118.118,0,0,0-.052-.1c-.039-.039-.078-.052-.1-.039l-2.643.729-.1.026c-.17,0-.248-.1-.248-.3l-.078-2.291a.4.4,0,0,1,.235-.378l2.812-1.3a.764.764,0,0,1,.391-.078h3.229a.313.313,0,0,1,.234.091.37.37,0,0,1,.092.221Zm14.427-2.878a5.422,5.422,0,0,1-2.162,2.487,6.5,6.5,0,0,1-3.463.9,6.584,6.584,0,0,1-3.555-.937,5.508,5.508,0,0,1-2.161-2.63,6.987,6.987,0,0,1-.469-2.618V96.26a4.355,4.355,0,0,1,.755-2.539A4.793,4.793,0,0,1,66.4,92.015a7.576,7.576,0,0,1,3.125-.6,7.343,7.343,0,0,1,3.06.6,4.751,4.751,0,0,1,2.071,1.68,4.363,4.363,0,0,1,.729,2.487v.755a.305.305,0,0,1-.091.222.286.286,0,0,1-.222.091H71.949a.268.268,0,0,1-.221-.091.321.321,0,0,1-.1-.222V96.69a2.02,2.02,0,0,0-.586-1.471,2.052,2.052,0,0,0-1.511-.586,2.217,2.217,0,0,0-1.614.612,1.974,1.974,0,0,0-.638,1.523v2.513a.094.094,0,0,0,.052.091.111.111,0,0,0,.117-.039,4.3,4.3,0,0,1,2.9-.937,5.555,5.555,0,0,1,2.864.742,5.073,5.073,0,0,1,1.993,2.122,6.437,6.437,0,0,1,.638,3.06A7.222,7.222,0,0,1,75.335,107.094ZM81.7,109.8a2.2,2.2,0,0,1-3.021,0,2.082,2.082,0,0,1-.6-1.51,2.11,2.11,0,1,1,4.219,0A2.028,2.028,0,0,1,81.7,109.8Zm15.482-5.325a5.908,5.908,0,0,1-1.718,4.479A6.465,6.465,0,0,1,90.8,110.6a6.4,6.4,0,0,1-4.636-1.641,5.948,5.948,0,0,1-1.705-4.479V97.445a5.808,5.808,0,0,1,1.705-4.4A6.394,6.394,0,0,1,90.8,91.416a6.459,6.459,0,0,1,4.662,1.628,5.769,5.769,0,0,1,1.718,4.4Zm6.224,5.325a2,2,0,0,1-1.5.6,2.047,2.047,0,0,1-2.109-2.109,2.007,2.007,0,0,1,2.109-2.1,2.009,2.009,0,0,1,2.109,2.1A2.038,2.038,0,0,1,103.408,109.8Zm15.5-5.325a5.9,5.9,0,0,1-1.718,4.479,6.487,6.487,0,0,1-4.662,1.641,6.4,6.4,0,0,1-4.635-1.641,5.9,5.9,0,0,1-1.706-4.479V97.445a5.758,5.758,0,0,1,1.706-4.4,6.39,6.39,0,0,1,4.635-1.628,6.48,6.48,0,0,1,4.662,1.628,5.765,5.765,0,0,1,1.718,4.4ZM90.8,94.633a2.461,2.461,0,0,0-1.875.742,2.7,2.7,0,0,0-.7,1.953v7.344a2.68,2.68,0,0,0,.7,1.953,2.461,2.461,0,0,0,1.875.742,2.51,2.51,0,0,0,1.914-.742,2.68,2.68,0,0,0,.7-1.953V97.328a2.7,2.7,0,0,0-.7-1.953A2.51,2.51,0,0,0,90.8,94.633ZM69.71,101.547a2.054,2.054,0,0,0-2,1.094,3.606,3.606,0,0,0-.4,1.784,3.459,3.459,0,0,0,.351,1.627,2.084,2.084,0,0,0,2.032,1.172,2.107,2.107,0,0,0,2-1.172,3.8,3.8,0,0,0-.039-3.437A2.142,2.142,0,0,0,69.71,101.547Zm1.94,1.068a2.142,2.142,0,0,0-1.94-1.068,2.054,2.054,0,0,0-2,1.094,3.606,3.606,0,0,0-.4,1.784,3.459,3.459,0,0,0,.351,1.627,2.084,2.084,0,0,0,2.032,1.172,2.107,2.107,0,0,0,2-1.172,3.8,3.8,0,0,0-.039-3.437Zm21.068-7.24a2.51,2.51,0,0,0-1.914-.742,2.461,2.461,0,0,0-1.875.742,2.7,2.7,0,0,0-.7,1.953v7.344a2.68,2.68,0,0,0,.7,1.953,2.461,2.461,0,0,0,1.875.742,2.51,2.51,0,0,0,1.914-.742,2.68,2.68,0,0,0,.7-1.953V97.328A2.7,2.7,0,0,0,92.718,95.375Zm0,0a2.51,2.51,0,0,0-1.914-.742,2.461,2.461,0,0,0-1.875.742,2.7,2.7,0,0,0-.7,1.953v7.344a2.68,2.68,0,0,0,.7,1.953,2.461,2.461,0,0,0,1.875.742,2.51,2.51,0,0,0,1.914-.742,2.68,2.68,0,0,0,.7-1.953V97.328A2.7,2.7,0,0,0,92.718,95.375Zm-21.068,7.24a2.142,2.142,0,0,0-1.94-1.068,2.054,2.054,0,0,0-2,1.094,3.606,3.606,0,0,0-.4,1.784,3.459,3.459,0,0,0,.351,1.627,2.084,2.084,0,0,0,2.032,1.172,2.107,2.107,0,0,0,2-1.172,3.8,3.8,0,0,0-.039-3.437Zm0,0a2.142,2.142,0,0,0-1.94-1.068,2.054,2.054,0,0,0-2,1.094,3.606,3.606,0,0,0-.4,1.784,3.459,3.459,0,0,0,.351,1.627,2.084,2.084,0,0,0,2.032,1.172,2.107,2.107,0,0,0,2-1.172,3.8,3.8,0,0,0-.039-3.437Zm21.068-7.24a2.51,2.51,0,0,0-1.914-.742,2.461,2.461,0,0,0-1.875.742,2.7,2.7,0,0,0-.7,1.953v7.344a2.68,2.68,0,0,0,.7,1.953,2.461,2.461,0,0,0,1.875.742,2.51,2.51,0,0,0,1.914-.742,2.68,2.68,0,0,0,.7-1.953V97.328A2.7,2.7,0,0,0,92.718,95.375Zm0,0a2.51,2.51,0,0,0-1.914-.742,2.461,2.461,0,0,0-1.875.742,2.7,2.7,0,0,0-.7,1.953v7.344a2.68,2.68,0,0,0,.7,1.953,2.461,2.461,0,0,0,1.875.742,2.51,2.51,0,0,0,1.914-.742,2.68,2.68,0,0,0,.7-1.953V97.328A2.7,2.7,0,0,0,92.718,95.375Zm-21.068,7.24a2.142,2.142,0,0,0-1.94-1.068,2.054,2.054,0,0,0-2,1.094,3.606,3.606,0,0,0-.4,1.784,3.459,3.459,0,0,0,.351,1.627,2.084,2.084,0,0,0,2.032,1.172,2.107,2.107,0,0,0,2-1.172,3.8,3.8,0,0,0-.039-3.437Zm21.068-7.24a2.51,2.51,0,0,0-1.914-.742,2.461,2.461,0,0,0-1.875.742,2.7,2.7,0,0,0-.7,1.953v7.344a2.68,2.68,0,0,0,.7,1.953,2.461,2.461,0,0,0,1.875.742,2.51,2.51,0,0,0,1.914-.742,2.68,2.68,0,0,0,.7-1.953V97.328A2.7,2.7,0,0,0,92.718,95.375Zm0,0a2.51,2.51,0,0,0-1.914-.742,2.461,2.461,0,0,0-1.875.742,2.7,2.7,0,0,0-.7,1.953v7.344a2.68,2.68,0,0,0,.7,1.953,2.461,2.461,0,0,0,1.875.742,2.51,2.51,0,0,0,1.914-.742,2.68,2.68,0,0,0,.7-1.953V97.328A2.7,2.7,0,0,0,92.718,95.375Z" style="fill:#fff"/></g></svg>