<svg xmlns="http://www.w3.org/2000/svg" viewBox="0 0 128 128"><g id="Layer_2" data-name="Layer 2"><path d="M103.835,64.421l-22.5,29.358a1.535,1.535,0,0,1-2.437,0L64.1,74.473a1.536,1.536,0,0,0-2.438,0l-19.914,26a1.535,1.535,0,0,1-2.437,0L26.531,83.8a1.534,1.534,0,0,0-2.437,0L11.135,100.725a1.536,1.536,0,0,1-2.152.286L2.6,96.129a1.536,1.536,0,0,1-.286-2.152L24.094,65.543a1.536,1.536,0,0,1,2.437,0L39.314,82.221a1.535,1.535,0,0,0,2.437,0l19.914-26a1.535,1.535,0,0,1,2.437,0L78.9,75.535a1.535,1.535,0,0,0,2.437,0L95.9,56.514A66.69,66.69,0,0,1,103.835,64.421Z" style="fill:#fff"/><path d="M125.683,35.913,113.765,51.457a85.1,85.1,0,0,0-8.1-7.685l11.2-14.619a1.534,1.534,0,0,1,2.152-.284L125.4,33.76A1.536,1.536,0,0,1,125.683,35.913Z" style="fill:#fff"/><path d="M114.317,75.464A71.322,71.322,0,0,0,20.631,44.789a1.531,1.531,0,0,1-2.038-.678l-3.631-7.167a1.542,1.542,0,0,1,.694-2.081A82.434,82.434,0,0,1,124.2,70.4a1.543,1.543,0,0,1-.672,2.089l-7.166,3.631A1.53,1.53,0,0,1,114.317,75.464Z" style="fill:#fff"/></g></svg>