<svg xmlns="http://www.w3.org/2000/svg" viewBox="0 0 128 128"><g id="Layer_1" data-name="Layer 1"><path d="M12.624,98.417A49.685,49.685,0,0,1,4.885,83.555,60.8,60.8,0,0,1,2,64.166,61.58,61.58,0,0,1,4.925,44.609a50.032,50.032,0,0,1,7.78-15.026,1.557,1.557,0,0,1,1.236-.577h9.3a.863.863,0,0,1,.784.329.824.824,0,0,1-.043.824A65.857,65.857,0,0,0,15.01,64.082a64.971,64.971,0,0,0,8.976,33.759,1.264,1.264,0,0,1,.164.5c0,.439-.3.657-.9.657H13.857A1.554,1.554,0,0,1,12.624,98.417Z" style="fill:#fff"/><path d="M115.372,29.583a49.789,49.789,0,0,1,7.747,14.9A61.41,61.41,0,0,1,126,63.918a61.354,61.354,0,0,1-2.922,19.516,50.277,50.277,0,0,1-7.786,14.983,1.547,1.547,0,0,1-1.233.577h-9.3a.856.856,0,0,1-.784-.329.814.814,0,0,1,.043-.824,65.3,65.3,0,0,0,8.973-33.923,65.57,65.57,0,0,0-8.973-33.759,1.249,1.249,0,0,1-.164-.5c0-.439.3-.657.905-.657h9.384A1.537,1.537,0,0,1,115.372,29.583Z" style="fill:#fff"/></g><g id="Layer_2" data-name="Layer 2"><path d="M37.118,68.652A6.468,6.468,0,0,1,41.771,57.5,6.21,6.21,0,0,1,48.275,64a6.58,6.58,0,0,1-11.157,4.65Z" style="fill:#fff"/><path d="M59.348,68.652A6.766,6.766,0,1,1,64,70.505,6.31,6.31,0,0,1,59.348,68.652Z" style="fill:#fff"/><path d="M81.578,68.652a6.766,6.766,0,1,1,4.654,1.853A6.31,6.31,0,0,1,81.578,68.652Z" style="fill:#fff"/></g></svg>