<svg xmlns="http://www.w3.org/2000/svg" viewBox="0 0 128 128"><g id="Layer_2" data-name="Layer 2"><path d="M37.624,16.833H90.376a0,0,0,0,1,0,0v60.8a1.854,1.854,0,0,1-1.854,1.854H39.478a1.854,1.854,0,0,1-1.854-1.854v-60.8A0,0,0,0,1,37.624,16.833Z" style="fill:#fff"/><path d="M90.376,11.613H37.624L51.042,2.444A2.544,2.544,0,0,1,52.477,2H75.523a2.544,2.544,0,0,1,1.435.444Z" style="fill:#fff"/><path d="M33.945,94.065a18.707,18.707,0,1,0,5.479,13.228A18.636,18.636,0,0,0,33.945,94.065ZM20.717,119.441a12.148,12.148,0,1,1,12.148-12.148A12.148,12.148,0,0,1,20.717,119.441Z" style="fill:#fff"/><path d="M62.1,88.466l-21.546,37.4,43.173-.04Zm.02,13.128,10.239,17.7-20.447.02Z" style="fill:#fff"/><path d="M88.626,88.586V125.95H125.99V88.586Zm30.8,30.805H95.185V95.145h24.246Z" style="fill:#fff"/></g></svg>