<svg id="Layer_1" data-name="Layer 1" xmlns="http://www.w3.org/2000/svg" viewBox="0 0 128 128"><g id="Layer_2" data-name="Layer 2"><path d="M99.518,28.381a1.5,1.5,0,0,0,1.5-1.494V23.653a1.5,1.5,0,0,0-1.5-1.494H87.97V17.364a1.432,1.432,0,0,0-1.427-1.427h-4.8V4.389a1.5,1.5,0,0,0-1.494-1.5H77.02a1.5,1.5,0,0,0-1.494,1.5V15.937H70.753V4.389a1.5,1.5,0,0,0-1.5-1.5H66.025a1.494,1.494,0,0,0-1.494,1.5V15.937H59.75V4.389a1.494,1.494,0,0,0-1.489-1.5H55.029a1.5,1.5,0,0,0-1.5,1.5h0V15.937H48.755V4.389a1.5,1.5,0,0,0-1.494-1.5H44.027a1.5,1.5,0,0,0-1.494,1.5V15.937h-4.8a1.432,1.432,0,0,0-1.427,1.427v4.795H24.763a1.5,1.5,0,0,0-1.5,1.494v3.234a1.5,1.5,0,0,0,1.5,1.494H36.311v4.773H24.763a1.5,1.5,0,0,0-1.5,1.5h0v3.227a1.494,1.494,0,0,0,1.5,1.494H36.311v4.781H24.763a1.494,1.494,0,0,0-1.5,1.488v3.232a1.5,1.5,0,0,0,1.5,1.5H36.311v4.773H24.763a1.5,1.5,0,0,0-1.5,1.493V59.88a1.5,1.5,0,0,0,1.5,1.494H36.311v4.795A1.431,1.431,0,0,0,37.738,67.6h4.8V79.144a1.5,1.5,0,0,0,1.494,1.5h3.234a1.5,1.5,0,0,0,1.494-1.5V67.6h4.773V79.144a1.5,1.5,0,0,0,1.5,1.5h3.227a1.5,1.5,0,0,0,1.494-1.5V67.6h4.781V79.144a1.5,1.5,0,0,0,1.489,1.5h3.231a1.5,1.5,0,0,0,1.5-1.5V67.6h4.773V79.144a1.5,1.5,0,0,0,1.494,1.5h3.234a1.5,1.5,0,0,0,1.494-1.5V67.6h4.8a1.431,1.431,0,0,0,1.427-1.426V61.374H99.518a1.5,1.5,0,0,0,1.5-1.494V56.645a1.5,1.5,0,0,0-1.5-1.493H87.97V50.379H99.518a1.5,1.5,0,0,0,1.5-1.5h0V45.65a1.494,1.494,0,0,0-1.5-1.493H87.97V39.376H99.518a1.5,1.5,0,0,0,1.5-1.489V34.655a1.5,1.5,0,0,0-1.5-1.5H87.97V28.381ZM81.748,59.947a1.432,1.432,0,0,1-1.427,1.427H43.96a1.432,1.432,0,0,1-1.427-1.427V23.585a1.431,1.431,0,0,1,1.427-1.426H80.321a1.431,1.431,0,0,1,1.427,1.426Z" style="fill:#fff"/><rect x="48.755" y="28.381" width="26.77" height="26.77" rx="0.998" style="fill:#fff"/></g><path d="M20.71,94.252A12.15,12.15,0,1,1,8.561,106.4,12.164,12.164,0,0,1,20.71,94.252m0-6.56A18.71,18.71,0,1,0,39.421,106.4,18.71,18.71,0,0,0,20.71,87.692Z" style="fill:#fff"/><path d="M62.116,100.7l10.242,17.7-20.449.021L62.116,100.7M62.1,87.574,40.552,124.987l43.177-.043L62.1,87.574Z" style="fill:#fff"/><path d="M119.439,94.251V118.5H95.187V94.251h24.252M126,87.69H88.627v37.373H126V87.69Z" style="fill:#fff"/></svg>