<svg id="Layer_1" data-name="Layer 1" xmlns="http://www.w3.org/2000/svg" viewBox="0 0 128 128"><path d="M2.244,69.384A.81.81,0,0,1,2,68.791V21.674a.833.833,0,0,1,.837-.837H20.262a21.388,21.388,0,0,1,9.167,1.846,14.282,14.282,0,0,1,6.1,5.193,13.94,13.94,0,0,1,2.161,7.737V54.851a13.945,13.945,0,0,1-2.161,7.737,14.282,14.282,0,0,1-6.1,5.193,21.387,21.387,0,0,1-9.167,1.847H2.837A.8.8,0,0,1,2.244,69.384Zm9.932-8.191h8.435A6.73,6.73,0,0,0,25.8,59.032a8.467,8.467,0,0,0,2.056-5.783V37.216a8.218,8.218,0,0,0-1.988-5.786,6.9,6.9,0,0,0-5.332-2.161H12.176a.31.31,0,0,0-.349.349V60.844A.308.308,0,0,0,12.176,61.193Z" style="fill:#fff"/><path d="M73.341,21.081a.8.8,0,0,1,.593-.244h8.154a.833.833,0,0,1,.836.837V68.791a.833.833,0,0,1-.836.837H74.212a.993.993,0,0,1-.976-.559L55.184,39.238c-.094-.139-.187-.2-.281-.176s-.139.131-.139.315L54.9,68.791a.833.833,0,0,1-.837.837H45.912a.8.8,0,0,1-.592-.244.81.81,0,0,1-.244-.593V21.674a.833.833,0,0,1,.836-.837h7.876a.994.994,0,0,1,.976.556L72.748,51.087c.091.139.185.2.278.174s.139-.128.139-.312L73.1,21.674A.8.8,0,0,1,73.341,21.081Z" style="fill:#fff"/><path d="M98.4,68.408a14.419,14.419,0,0,1-6.449-5.088,13.318,13.318,0,0,1-2.263-7.7V54.085a.833.833,0,0,1,.836-.836h7.945a.8.8,0,0,1,.592.244.806.806,0,0,1,.244.592v1.044a5.689,5.689,0,0,0,2.581,4.705,11.416,11.416,0,0,0,6.969,1.917q3.692,0,5.507-1.568a4.925,4.925,0,0,0,1.813-3.868,3.9,3.9,0,0,0-1.118-2.822,9.812,9.812,0,0,0-3.032-2.023q-1.914-.871-6.1-2.405a59.717,59.717,0,0,1-7.91-3.275,15.866,15.866,0,0,1-5.437-4.567,11.462,11.462,0,0,1-2.2-7.144,12.571,12.571,0,0,1,2.161-7.317,13.747,13.747,0,0,1,6-4.81,21.957,21.957,0,0,1,8.852-1.674,22.608,22.608,0,0,1,9.445,1.883,15.4,15.4,0,0,1,6.483,5.262,13.48,13.48,0,0,1,2.334,7.842v1.046a.833.833,0,0,1-.837.837H116.8a.81.81,0,0,1-.592-.244.8.8,0,0,1-.244-.593v-.559a6.334,6.334,0,0,0-2.4-4.983,9.81,9.81,0,0,0-6.586-2.056,8.346,8.346,0,0,0-5.125,1.393A4.542,4.542,0,0,0,100,33.94a4.178,4.178,0,0,0,1.08,2.927,9.461,9.461,0,0,0,3.2,2.127q2.127.941,6.589,2.544a82.683,82.683,0,0,1,7.771,3.205,15.482,15.482,0,0,1,5.088,4.149A10.882,10.882,0,0,1,126,56.037a12.476,12.476,0,0,1-4.81,10.349q-4.808,3.8-13.035,3.8A24.787,24.787,0,0,1,98.4,68.408Z" style="fill:#fff"/><path d="M15.7,85.189a.544.544,0,0,1,.263.655l-.918,4.989c-.031.349-.235.452-.613.306a4.856,4.856,0,0,0-1.533-.217,7.363,7.363,0,0,0-.961.085,4.312,4.312,0,0,0-2.669,1.161A3.569,3.569,0,0,0,8.169,94.9v11.946a.511.511,0,0,1-.153.371.5.5,0,0,1-.372.153H2.525A.522.522,0,0,1,2,106.849V85.406a.522.522,0,0,1,.525-.523H7.644a.5.5,0,0,1,.372.153.514.514,0,0,1,.153.37v1.663a.183.183,0,0,0,.087.178.087.087,0,0,0,.132-.046A5.562,5.562,0,0,1,13.2,84.576,4.432,4.432,0,0,1,15.7,85.189Z" style="fill:#fff"/><path d="M38.274,97.527a.509.509,0,0,1-.568.527H24.186c-.175,0-.234.071-.175.217a7.84,7.84,0,0,0,.481,1.752q1.137,2.447,4.638,2.45a5.276,5.276,0,0,0,4.419-2.275.486.486,0,0,1,.393-.264.491.491,0,0,1,.307.175l3.151,3.108a.607.607,0,0,1,.219.392.912.912,0,0,1-.176.353,9.524,9.524,0,0,1-3.72,2.777,12.45,12.45,0,0,1-4.987.983,11.341,11.341,0,0,1-6.366-1.706,9.466,9.466,0,0,1-3.741-4.768,15.017,15.017,0,0,1-.919-5.733,12.591,12.591,0,0,1,.656-4.244,9.618,9.618,0,0,1,3.523-4.946,9.849,9.849,0,0,1,5.971-1.838,9.733,9.733,0,0,1,7.024,2.539A11.114,11.114,0,0,1,38.1,93.81,18.829,18.829,0,0,1,38.274,97.527Zm-14-5.117a9.96,9.96,0,0,0-.306,1.4.192.192,0,0,0,.219.217h7.57c.174,0,.231-.071.174-.217-.146-.848-.219-1.254-.219-1.225a3.786,3.786,0,0,0-1.378-2.037,4,4,0,0,0-2.428-.719A3.506,3.506,0,0,0,24.273,92.41Z" style="fill:#fff"/><path d="M45.908,105.973a9.562,9.562,0,0,1-3.653-4.814A16.034,16.034,0,0,1,41.511,96a15.469,15.469,0,0,1,.744-5.074,9.069,9.069,0,0,1,3.632-4.683,10.766,10.766,0,0,1,6.084-1.7,10.913,10.913,0,0,1,6.146,1.748A8.4,8.4,0,0,1,61.642,90.7a5.748,5.748,0,0,1,.349,1.578v.085a.467.467,0,0,1-.442.481l-5.028.744h-.092a.522.522,0,0,1-.52-.438l-.135-.7a3.335,3.335,0,0,0-1.353-1.884,4.211,4.211,0,0,0-2.493-.74,3.911,3.911,0,0,0-2.366.7,3.713,3.713,0,0,0-1.355,1.926,10.712,10.712,0,0,0-.483,3.586,11.744,11.744,0,0,0,.438,3.589,3.906,3.906,0,0,0,1.378,2.058,3.849,3.849,0,0,0,2.388.741,4.054,4.054,0,0,0,2.382-.719,3.7,3.7,0,0,0,1.421-1.991.636.636,0,0,0,.043-.263.182.182,0,0,0,.042-.132c.029-.349.235-.5.613-.438l5.035.787a.463.463,0,0,1,.434.48,6.255,6.255,0,0,1-.256,1.314,8.154,8.154,0,0,1-3.568,4.594,11.222,11.222,0,0,1-6.1,1.663A10.471,10.471,0,0,1,45.908,105.973Z" style="fill:#fff"/><path d="M68.949,105.8a9.616,9.616,0,0,1-3.59-5.252,15.556,15.556,0,0,1-.612-4.462,16.22,16.22,0,0,1,.612-4.64,9.422,9.422,0,0,1,3.632-5.074,10.72,10.72,0,0,1,6.3-1.837,10.25,10.25,0,0,1,6.125,1.816A9.7,9.7,0,0,1,85.008,91.4a15.008,15.008,0,0,1,.7,4.593,15.359,15.359,0,0,1-.613,4.419,9.774,9.774,0,0,1-3.564,5.359,10.186,10.186,0,0,1-6.281,1.948A10.36,10.36,0,0,1,68.949,105.8Zm8.749-4.245a4.852,4.852,0,0,0,1.445-2.407,12.684,12.684,0,0,0,.349-3.062,11.936,11.936,0,0,0-.349-3.109,4.852,4.852,0,0,0-1.488-2.318,4.066,4.066,0,0,0-4.921,0,4.666,4.666,0,0,0-1.425,2.318,10.54,10.54,0,0,0-.348,3.109,11.982,11.982,0,0,0,.306,3.062,4.783,4.783,0,0,0,1.467,2.407,3.738,3.738,0,0,0,2.514.873A3.594,3.594,0,0,0,77.7,101.554Z" style="fill:#fff"/><path d="M103.382,85.189a.541.541,0,0,1,.263.655l-.918,4.989c-.029.349-.235.452-.613.306a4.86,4.86,0,0,0-1.531-.217,7.4,7.4,0,0,0-.965.085,4.3,4.3,0,0,0-2.667,1.161A3.568,3.568,0,0,0,95.858,94.9v11.946a.519.519,0,0,1-.153.371.51.51,0,0,1-.374.153H90.21a.522.522,0,0,1-.523-.524V85.406a.506.506,0,0,1,.153-.37.5.5,0,0,1,.37-.153h5.121a.51.51,0,0,1,.374.153.522.522,0,0,1,.153.37v1.663a.183.183,0,0,0,.085.178.087.087,0,0,0,.132-.046,5.559,5.559,0,0,1,4.814-2.625A4.426,4.426,0,0,1,103.382,85.189Z" style="fill:#fff"/><path d="M119.986,76.9a.5.5,0,0,1,.37-.153h5.121a.522.522,0,0,1,.523.527v29.579a.5.5,0,0,1-.153.371.5.5,0,0,1-.37.153h-5.121a.493.493,0,0,1-.37-.153.5.5,0,0,1-.153-.371V105.4c0-.089-.029-.139-.089-.153a.182.182,0,0,0-.175.064,5.982,5.982,0,0,1-5.031,2.407,8.359,8.359,0,0,1-5.274-1.706,9.416,9.416,0,0,1-3.173-4.682,17.115,17.115,0,0,1-.74-5.3,16.823,16.823,0,0,1,.787-5.423,9.407,9.407,0,0,1,3.172-4.444,8.62,8.62,0,0,1,5.359-1.638,5.927,5.927,0,0,1,4.9,2.186c.057.089.118.118.175.089a.177.177,0,0,0,.089-.178V77.27A.509.509,0,0,1,119.986,76.9Zm-.2,19.232a9.206,9.206,0,0,0-.965-4.594,3.207,3.207,0,0,0-2.931-1.705,3.419,3.419,0,0,0-3.108,1.705,8.542,8.542,0,0,0-1.093,4.636,9.351,9.351,0,0,0,.918,4.377,3.528,3.528,0,0,0,3.241,1.88,3.392,3.392,0,0,0,3.062-1.88A9.347,9.347,0,0,0,119.79,96.128Z" style="fill:#fff"/></svg>