<svg xmlns="http://www.w3.org/2000/svg" viewBox="0 0 128 128"><g id="Layer_2" data-name="Layer 2"><path d="M64,2A32.667,32.667,0,0,0,31.337,34.663c0,.283,0,.566.008.844C31.6,58.6,43.6,74.678,59.938,88.165a6.345,6.345,0,0,0,8.124,0C84.4,74.678,96.4,58.6,96.655,35.507c.008-.282.008-.565.008-.844A32.667,32.667,0,0,0,64,2Zm0,51.521A18.855,18.855,0,1,1,82.86,34.664,18.855,18.855,0,0,1,64,53.521Z" style="fill:#fff"/><g id="Layer_2-2" data-name="Layer 2"><path d="M121.48,91.488,90.4,73.359q-1.766,2.529-3.671,4.829L108.12,90.67a.678.678,0,0,1,0,1.177l-3.212,1.876L91,101.835l-4.23,2.464L72.86,112.411l-7.5,4.38a2.712,2.712,0,0,1-2.724,0l-7.493-4.38L41.231,104.3,37,101.835,23.092,93.723,19.88,91.847a.685.685,0,0,1-.25-.938.64.64,0,0,1,.25-.239l21.4-12.482c-1.267-1.537-2.5-3.143-3.681-4.829L6.52,91.488a.916.916,0,0,0-.329.319.9.9,0,0,0,.329,1.217l4.19,2.445,18.119,10.566,5.518,3.213,18.1,10.566,9.778,5.707a3.512,3.512,0,0,0,3.542,0l9.778-5.707,18.109-10.566,5.518-3.213L117.29,95.469l4.19-2.445a.878.878,0,0,0,0-1.536Z" style="fill:#fff"/></g></g></svg>