<svg id="Layer_1" data-name="Layer 1" xmlns="http://www.w3.org/2000/svg" viewBox="0 0 128 128"><path d="M2.244,88.151A.806.806,0,0,1,2,87.559V40.441a.833.833,0,0,1,.837-.836H20.262a21.388,21.388,0,0,1,9.167,1.846,14.282,14.282,0,0,1,6.1,5.193,13.938,13.938,0,0,1,2.161,7.737V73.619a13.945,13.945,0,0,1-2.161,7.737,14.282,14.282,0,0,1-6.1,5.193A21.388,21.388,0,0,1,20.262,88.4H2.837A.8.8,0,0,1,2.244,88.151Zm9.932-8.19h8.435A6.727,6.727,0,0,0,25.8,77.8a8.465,8.465,0,0,0,2.056-5.783V55.984A8.218,8.218,0,0,0,25.872,50.2a6.9,6.9,0,0,0-5.332-2.161H12.176a.31.31,0,0,0-.349.348V79.612A.308.308,0,0,0,12.176,79.961Z" style="fill:#fff"/><path d="M73.341,39.849a.8.8,0,0,1,.593-.244h8.154a.833.833,0,0,1,.836.836V87.559a.833.833,0,0,1-.836.836H74.212a.993.993,0,0,1-.976-.558L55.184,58.006c-.094-.139-.187-.2-.281-.176s-.139.13-.139.315L54.9,87.559a.833.833,0,0,1-.837.836H45.912a.8.8,0,0,1-.592-.244.806.806,0,0,1-.244-.592V40.441a.833.833,0,0,1,.836-.836h7.876a.994.994,0,0,1,.976.556L72.748,69.855c.091.139.185.2.278.173s.139-.127.139-.312L73.1,40.441A.8.8,0,0,1,73.341,39.849Z" style="fill:#fff"/><path d="M98.4,87.176a14.419,14.419,0,0,1-6.449-5.088,13.318,13.318,0,0,1-2.263-7.7V72.853a.833.833,0,0,1,.836-.837h7.945a.8.8,0,0,1,.592.244.81.81,0,0,1,.244.593V73.9a5.69,5.69,0,0,0,2.581,4.7,11.416,11.416,0,0,0,6.969,1.917q3.692,0,5.507-1.568a4.927,4.927,0,0,0,1.813-3.869,3.9,3.9,0,0,0-1.118-2.822,9.829,9.829,0,0,0-3.032-2.022q-1.914-.871-6.1-2.405a59.575,59.575,0,0,1-7.91-3.276,15.852,15.852,0,0,1-5.437-4.566,11.464,11.464,0,0,1-2.2-7.144,12.576,12.576,0,0,1,2.161-7.318,13.754,13.754,0,0,1,6-4.81,21.974,21.974,0,0,1,8.852-1.673,22.608,22.608,0,0,1,9.445,1.883,15.4,15.4,0,0,1,6.483,5.261,13.484,13.484,0,0,1,2.334,7.842v1.047a.833.833,0,0,1-.837.837H116.8a.833.833,0,0,1-.836-.837V54.52a6.334,6.334,0,0,0-2.4-4.983,9.81,9.81,0,0,0-6.586-2.056,8.352,8.352,0,0,0-5.125,1.392A4.545,4.545,0,0,0,100,52.708a4.179,4.179,0,0,0,1.08,2.927,9.461,9.461,0,0,0,3.2,2.127q2.127.941,6.589,2.544a82.413,82.413,0,0,1,7.771,3.205,15.482,15.482,0,0,1,5.088,4.149A10.881,10.881,0,0,1,126,74.8a12.477,12.477,0,0,1-4.81,10.35q-4.808,3.8-13.035,3.8A24.787,24.787,0,0,1,98.4,87.176Z" style="fill:#fff"/></svg>