<svg xmlns="http://www.w3.org/2000/svg" viewBox="0 0 2000 1000"><g id="Layer_5" data-name="Layer 5"><rect width="2000" height="1000" style="fill:blue"/></g><g id="Layer_3" data-name="Layer 3"><polygon points="948 260 960 256 992 260 1020 268 1000 276 1004 284 996 292 988 296 968 300 960 292 968 268 952 268 948 260" style="fill:lime;stroke:#ff0;stroke-miterlimit:1.27990698814392;stroke-width:2px"/><polygon points="952 296 960 292 968 268 952 268 948 284 952 288 952 296" style="fill:lime;stroke:#ff0;stroke-miterlimit:1.27990698814392;stroke-width:2px"/><polygon points="976 236 988 236 996 248 992 260 1020 268 1020 260 1036 260 1044 256 1040 252 1040 244 1036 240 1044 236 1048 228 1024 224 1016 216 1012 216 1008 224 992 224 992 228 980 228 976 232 976 236" style="fill:lime;stroke:#ff0;stroke-miterlimit:1.27990698814392;stroke-width:2px"/><polygon points="944 212 952 216 968 208 968 200 956 200 952 196 944 200 944 204 952 208 944 212" style="fill:lime;stroke:#ff0;stroke-miterlimit:1.27990698814392;stroke-width:2px"/><polygon points="956 192 960 192 956 200 952 196 956 192" style="fill:lime;stroke:#ff0;stroke-miterlimit:1.27990698814392;stroke-width:2px"/><polygon points="968 196 968 200 956 200 960 192 968 196" style="fill:lime;stroke:#ff0;stroke-miterlimit:1.27990698814392;stroke-width:2px"/><polygon points="968 188 972 176 984 176 980 180 992 180 988 188 1008 208 1008 216 972 224 976 216 976 208 984 204 984 200 984 196 976 196 968 188" style="fill:lime;stroke:#ff0;stroke-miterlimit:1.27990698814392;stroke-width:2px"/><polygon points="1032 156 1032 176 1044 180 1060 172 1068 172 1072 160 1068 152 1072 144 1080 144 1084 132 1104 120 1116 120 1124 116 1136 120 1140 120 1148 112 1160 112 1164 120 1172 112 1168 108 1136 108 1108 116 1100 116 1068 136 1068 140 1052 148 1048 148 1032 156" style="fill:lime;stroke:#ff0;stroke-miterlimit:1.27990698814392;stroke-width:2px"/><polygon points="1072 192 1080 192 1084 188 1088 188 1096 180 1096 176 1108 168 1096 160 1096 156 1120 144 1120 136 1136 136 1132 124 1116 120 1104 120 1084 132 1080 144 1072 144 1068 152 1072 160 1068 172 1064 172 1064 176 1068 176 1072 184 1072 192" style="fill:lime;stroke:#ff0;stroke-miterlimit:1.27990698814392;stroke-width:2px"/><polygon points="1140 136 1140 140 1124 148 1120 152 1120 164 1132 168 1160 164 1176 152 1176 148 1168 144 1164 128 1168 124 1164 120 1160 112 1148 112 1140 120 1136 120 1124 116 1116 120 1132 124 1136 136 1140 136" style="fill:lime;stroke:#ff0;stroke-miterlimit:1.27990698814392;stroke-width:2px"/><polygon points="1160 168 1156 172 1156 184 1160 188 1172 192 1184 204 1176 204 1176 212 1192 212 1192 216 1200 220 1224 224 1224 232 1212 240 1212 248 1208 248 1224 260 1236 260 1248 264 1256 264 1260 268 1264 268 1268 272 1272 268 1268 264 1268 256 1264 252 1268 244 1276 244 1276 240 1272 236 1264 236 1260 232 1260 224 1268 220 1272 224 1276 220 1296 212 1312 220 1316 216 1328 216 1332 220 1344 216 1336 212 1340 208 1348 204 1344 200 1380 196 1384 192 1396 192 1400 200 1408 200 1412 204 1416 204 1424 200 1428 200 1452 220 1472 220 1480 224 1484 224 1488 228 1492 228 1496 224 1512 220 1524 220 1540 224 1544 224 1548 220 1548 216 1552 212 1560 212 1572 220 1596 220 1612 228 1620 228 1636 224 1660 224 1664 220 1672 208 1676 204 1696 204 1708 216 1712 224 1728 228 1732 236 1748 232 1748 236 1740 252 1732 248 1728 256 1732 260 1736 260 1740 264 1744 264 1764 248 1780 228 1784 208 1780 200 1772 200 1768 204 1764 204 1756 200 1752 196 1780 180 1792 172 1812 172 1836 168 1844 168 1844 176 1860 172 1856 168 1868 164 1876 156 1888 156 1892 164 1912 152 1920 152 1916 156 1872 184 1864 196 1872 216 1884 208 1888 204 1888 200 1892 196 1900 196 1908 188 1908 180 1900 180 1900 176 1912 168 1916 168 1924 164 1940 164 1948 168 1984 152 1996 152 1996 148 1992 144 1980 144 1980 140 2004 140 2004 116 1996 116 1952 112 1948 112 1948 120 1928 112 1900 112 1896 116 1880 104 1848 108 1832 104 1832 100 1816 100 1808 104 1808 96 1776 96 1776 104 1736 104 1728 108 1704 100 1716 96 1716 92 1688 92 1684 96 1664 96 1656 92 1612 92 1588 96 1632 80 1632 76 1596 76 1596 72 1584 68 1576 68 1560 76 1556 76 1544 80 1512 80 1484 88 1480 92 1448 92 1452 96 1464 100 1464 112 1460 112 1460 104 1440 100 1428 100 1428 104 1436 108 1420 104 1424 96 1416 96 1408 112 1432 116 1436 128 1428 120 1416 116 1416 124 1404 132 1384 132 1400 128 1408 120 1404 116 1408 96 1384 96 1372 108 1372 112 1384 120 1344 112 1332 120 1328 116 1300 120 1296 116 1260 128 1252 124 1260 124 1256 120 1244 120 1244 128 1248 132 1236 132 1224 136 1224 140 1204 140 1212 144 1200 144 1192 136 1196 132 1224 132 1228 128 1228 124 1196 116 1188 116 1176 112 1172 112 1164 120 1168 124 1164 128 1168 144 1176 148 1176 152 1160 164 1168 168 1160 168" style="fill:lime;stroke:#ff0;stroke-miterlimit:1.27990698814392;stroke-width:2px"/><polygon points="1288 100 1288 104 1300 104 1304 108 1320 108 1308 100 1308 96 1340 84 1384 76 1384 72 1368 72 1312 84 1312 88 1304 88 1300 96 1292 96 1288 100" style="fill:lime;stroke:#ff0;stroke-miterlimit:1.27990698814392;stroke-width:2px"/><polygon points="1064 56 1064 60 1072 64 1092 64 1084 68 1084 72 1096 72 1116 64 1116 60 1100 56 1092 56 1084 60 1072 56 1064 56" style="fill:lime;stroke:#ff0;stroke-miterlimit:1.27990698814392;stroke-width:2px"/><polygon points="1108 52 1108 56 1124 60 1140 60 1152 56 1152 52 1128 52 1124 56 1108 52" style="fill:lime;stroke:#ff0;stroke-miterlimit:1.27990698814392;stroke-width:2px"/><polygon points="1132 172 1132 176 1136 180 1156 180 1156 172 1160 168 1136 172 1132 172" style="fill:lime;stroke:#ff0;stroke-miterlimit:1.27990698814392;stroke-width:2px"/><polygon points="1120 180 1120 184 1116 188 1140 188 1148 192 1160 188 1156 184 1156 180 1136 180 1132 184 1124 180 1120 180" style="fill:lime;stroke:#ff0;stroke-miterlimit:1.27990698814392;stroke-width:2px"/><polygon points="1120 192 1128 196 1132 200 1140 200 1148 196 1148 192 1140 188 1116 188 1120 192" style="fill:lime;stroke:#ff0;stroke-miterlimit:1.27990698814392;stroke-width:2px"/><polygon points="1112 196 1112 200 1120 200 1128 196 1120 192 1112 196" style="fill:lime;stroke:#ff0;stroke-miterlimit:1.27990698814392;stroke-width:2px"/><polygon points="1132 212 1152 212 1164 216 1172 216 1176 212 1176 204 1184 204 1172 192 1160 188 1148 192 1148 196 1140 200 1132 200 1128 208 1132 212" style="fill:lime;stroke:#ff0;stroke-miterlimit:1.27990698814392;stroke-width:2px"/><polygon points="1136 216 1136 220 1128 224 1128 228 1124 228 1120 224 1104 224 1100 220 1092 220 1084 216 1080 208 1084 200 1104 196 1108 200 1112 200 1120 200 1128 196 1132 200 1128 208 1132 212 1136 216" style="fill:lime;stroke:#ff0;stroke-miterlimit:1.27990698814392;stroke-width:2px"/><polygon points="1064 192 1068 196 1068 188 1064 192" style="fill:lime;stroke:#ff0;stroke-miterlimit:1.27990698814392;stroke-width:2px"/><polygon points="1072 220 1072 224 1080 232 1072 232 1072 236 1044 236 1048 228 1036 226 1036 212 1040 208 1040 204 1044 200 1048 200 1052 196 1056 196 1060 200 1068 200 1072 196 1084 200 1080 208 1084 216 1072 220" style="fill:lime;stroke:#ff0;stroke-miterlimit:1.27990698814392;stroke-width:2px"/><polygon points="1032 204 1040 204 1040 208 1036 212 1036 216 1024 216 1020 212 1028 208 1032 204" style="fill:lime;stroke:#ff0;stroke-miterlimit:1.27990698814392;stroke-width:2px"/><polygon points="1036 216 1036 226 1024 224 1016 216 1020 212 1024 216 1036 216" style="fill:lime;stroke:#ff0;stroke-miterlimit:1.27990698814392;stroke-width:2px"/><polygon points="1052 196 1048 192 1048 184 1060 180 1060 188 1056 192 1056 196 1052 196" style="fill:lime;stroke:#ff0;stroke-miterlimit:1.27990698814392;stroke-width:2px"/><polygon points="1040 244 1052 244 1060 240 1056 236 1044 236 1036 240 1040 244" style="fill:lime;stroke:#ff0;stroke-miterlimit:1.27990698814392;stroke-width:2px"/><polygon points="1068 240 1076 244 1092 240 1096 232 1092 228 1084 228 1080 232 1072 232 1072 236 1056 236 1060 240 1068 240" style="fill:lime;stroke:#ff0;stroke-miterlimit:1.27990698814392;stroke-width:2px"/><polygon points="1104 224 1100 228 1092 228 1084 228 1080 232 1072 224 1072 220 1084 216 1092 220 1100 220 1104 224" style="fill:lime;stroke:#ff0;stroke-miterlimit:1.27990698814392;stroke-width:2px"/><polygon points="1076 248 1076 244 1068 240 1060 240 1052 244 1040 244 1040 252 1044 256 1052 252 1068 268 1088 276 1092 284 1088 288 1092 288 1096 284 1096 276 1104 280 1104 276 1096 272 1092 268 1080 264 1072 252 1072 248 1076 248" style="fill:lime;stroke:#ff0;stroke-miterlimit:1.27990698814392;stroke-width:2px"/><polygon points="1048 264 1052 260 1056 268 1048 268 1048 264" style="fill:lime;stroke:#ff0;stroke-miterlimit:1.27990698814392;stroke-width:2px"/><polygon points="1048 272 1056 272 1056 280 1052 284 1048 280 1048 272" style="fill:lime;stroke:#ff0;stroke-miterlimit:1.27990698814392;stroke-width:2px"/><polygon points="1072 288 1084 288 1088 296 1084 296 1072 292 1072 288" style="fill:lime;stroke:#ff0;stroke-miterlimit:1.27990698814392;stroke-width:2px"/><polygon points="1128 228 1128 224 1136 220 1136 216 1132 212 1152 212 1164 216 1172 216 1176 212 1192 212 1192 216 1200 220 1224 224 1224 232 1212 240 1204 240 1192 244 1196 248 1204 248 1192 252 1188 252 1184 248 1184 244 1180 240 1176 240 1168 248 1160 248 1164 244 1168 244 1168 240 1160 232 1148 232 1140 236 1128 232 1124 232 1128 228" style="fill:lime;stroke:#ff0;stroke-miterlimit:1.27990698814392;stroke-width:2px"/><polygon points="1112 232 1104 236 1096 232 1092 228 1100 228 1104 224 1120 224 1124 228 1128 228 1124 232 1112 232" style="fill:lime;stroke:#ff0;stroke-miterlimit:1.27990698814392;stroke-width:2px"/><polygon points="1128 232 1116 244 1108 244 1096 244 1092 240 1096 232 1104 236 1112 232 1128 232" style="fill:lime;stroke:#ff0;stroke-miterlimit:1.27990698814392;stroke-width:2px"/><polygon points="1128 256 1160 256 1168 248 1160 248 1156 240 1148 232 1140 236 1128 232 1116 244 1124 252 1128 252 1128 256" style="fill:lime;stroke:#ff0;stroke-miterlimit:1.27990698814392;stroke-width:2px"/><polygon points="1160 232 1168 240 1168 244 1164 244 1160 248 1156 240 1148 232 1160 232" style="fill:lime;stroke:#ff0;stroke-miterlimit:1.27990698814392;stroke-width:2px"/><polygon points="1160 256 1156 268 1148 268 1128 272 1124 264 1128 256 1160 256" style="fill:lime;stroke:#ff0;stroke-miterlimit:1.27990698814392;stroke-width:2px"/><polygon points="1112 260 1116 268 1124 264 1128 256 1128 252 1124 252 1116 244 1108 244 1108 260 1112 260" style="fill:lime;stroke:#ff0;stroke-miterlimit:1.27990698814392;stroke-width:2px"/><polygon points="1104 264 1108 268 1112 260 1108 260 1104 264" style="fill:lime;stroke:#ff0;stroke-miterlimit:1.27990698814392;stroke-width:2px"/><polygon points="1116 268 1116 276 1112 280 1108 276 1108 268 1112 260 1116 268" style="fill:lime;stroke:#ff0;stroke-miterlimit:1.27990698814392;stroke-width:2px"/><polygon points="1128 272 1116 276 1116 268 1124 264 1128 272" style="fill:lime;stroke:#ff0;stroke-miterlimit:1.27990698814392;stroke-width:2px"/><polygon points="1104 264 1096 260 1096 256 1092 252 1092 248 1108 252 1108 260 1104 264" style="fill:lime;stroke:#ff0;stroke-miterlimit:1.27990698814392;stroke-width:2px"/><polygon points="1096 244 1108 244 1108 252 1092 248 1092 252 1096 256 1096 260 1088 256 1084 252 1080 252 1080 252 1076 248 1088 248 1088 244 1092 240 1096 244" style="fill:lime;stroke:#ff0;stroke-miterlimit:1.27990698814392;stroke-width:2px"/><polygon points="1076 244 1092 240 1088 244 1088 248 1076 248 1076 244" style="fill:lime;stroke:#ff0;stroke-miterlimit:1.27990698814392;stroke-width:2px"/><polygon points="1120 288 1120 292 1124 296 1128 296 1132 292 1128 288 1120 288" style="fill:lime;stroke:#ff0;stroke-miterlimit:1.27990698814392;stroke-width:2px"/><polygon points="1112 280 1120 288 1128 288 1136 292 1136 288 1128 284 1128 280 1124 276 1132 276 1136 272 1144 272 1148 268 1128 272 1116 276 1112 280" style="fill:lime;stroke:#ff0;stroke-miterlimit:1.27990698814392;stroke-width:2px"/><polygon points="1132 304 1140 308 1148 304 1132 300 1132 304" style="fill:lime;stroke:#ff0;stroke-miterlimit:1.27990698814392;stroke-width:2px"/><polygon points="1248 280 1248 292 1240 292 1228 296 1208 296 1200 300 1188 300 1172 296 1168 300 1164 300 1156 296 1144 280 1148 276 1156 276 1160 272 1156 272 1148 276 1144 272 1148 268 1156 268 1164 272 1176 272 1180 268 1196 268 1208 272 1244 272 1244 280 1248 280" style="fill:lime;stroke:#ff0;stroke-miterlimit:1.27990698814392;stroke-width:2px"/><polygon points="1276 244 1288 240 1296 240 1296 248 1288 248 1284 252 1284 256 1296 268 1304 264 1312 268 1316 248 1328 248 1348 260 1364 256 1372 272 1380 272 1400 264 1408 264 1412 260 1448 264 1448 252 1452 248 1460 248 1460 240 1464 236 1476 240 1480 232 1488 228 1484 224 1480 224 1472 220 1452 220 1428 200 1424 200 1416 204 1412 204 1408 200 1400 200 1396 192 1384 192 1380 196 1344 200 1348 204 1340 208 1336 212 1344 216 1332 220 1328 216 1316 216 1312 220 1296 212 1276 220 1272 224 1268 220 1260 224 1260 232 1264 236 1272 236 1276 240 1276 244" style="fill:lime;stroke:#ff0;stroke-miterlimit:1.27990698814392;stroke-width:2px"/><polygon points="1492 228 1496 232 1508 240 1508 248 1524 252 1544 264 1568 264 1580 268 1612 264 1624 256 1620 252 1624 248 1632 252 1656 240 1668 240 1668 236 1660 232 1644 236 1648 224 1636 224 1620 228 1612 228 1596 220 1572 220 1560 212 1552 212 1548 216 1548 220 1544 224 1540 224 1524 220 1512 220 1496 224 1492 228" style="fill:lime;stroke:#ff0;stroke-miterlimit:1.27990698814392;stroke-width:2px"/><polygon points="1788 204 1788 208 1792 224 1788 228 1788 244 1792 244 1796 240 1800 244 1800 240 1796 236 1792 232 1796 228 1804 228 1796 216 1796 208 1792 204 1788 204" style="fill:lime;stroke:#ff0;stroke-miterlimit:1.27990698814392;stroke-width:2px"/><polygon points="1776 264 1780 260 1784 260 1788 256 1788 248 1792 248 1804 256 1808 256 1808 260 1796 268 1792 264 1780 264 1784 268 1780 272 1776 264" style="fill:lime;stroke:#ff0;stroke-miterlimit:1.27990698814392;stroke-width:2px"/><polygon points="1788 268 1792 284 1784 288 1784 300 1780 304 1776 304 1772 308 1764 308 1756 316 1752 312 1752 308 1744 308 1732 312 1728 308 1740 304 1756 304 1760 296 1764 296 1776 288 1780 276 1788 268" style="fill:lime;stroke:#ff0;stroke-miterlimit:1.27990698814392;stroke-width:2px"/><polygon points="1748 312 1744 316 1740 316 1740 320 1736 316 1740 312 1748 312" style="fill:lime;stroke:#ff0;stroke-miterlimit:1.27990698814392;stroke-width:2px"/><polygon points="1728 312 1732 316 1732 324 1728 328 1724 328 1724 320 1720 316 1724 316 1728 312" style="fill:lime;stroke:#ff0;stroke-miterlimit:1.27990698814392;stroke-width:2px"/><polygon points="1708 288 1716 288 1720 304 1712 308 1708 308 1704 312 1700 296 1708 288" style="fill:lime;stroke:#ff0;stroke-miterlimit:1.27990698814392;stroke-width:2px"/><polygon points="1708 280 1720 276 1724 268 1724 264 1720 264 1712 268 1712 272 1704 268 1692 276 1692 280 1696 280 1692 288 1696 292 1704 292 1708 288 1716 288 1708 280" style="fill:lime;stroke:#ff0;stroke-miterlimit:1.27990698814392;stroke-width:2px"/><polygon points="1732 260 1728 264 1724 264 1728 256 1732 260" style="fill:lime;stroke:#ff0;stroke-miterlimit:1.27990698814392;stroke-width:2px"/><polygon points="1448 264 1448 252 1452 248 1460 248 1460 240 1464 236 1476 240 1480 232 1488 228 1492 228 1496 232 1508 240 1508 248 1524 252 1544 264 1568 264 1580 268 1612 264 1624 256 1620 252 1624 248 1632 252 1656 240 1668 240 1668 236 1660 232 1644 236 1648 224 1660 224 1664 220 1672 208 1676 204 1696 204 1708 216 1712 224 1728 228 1732 236 1748 232 1748 236 1740 252 1732 248 1728 256 1724 264 1720 264 1712 268 1712 272 1704 268 1692 276 1692 280 1684 280 1676 284 1676 280 1680 276 1676 272 1664 280 1656 284 1656 288 1660 288 1664 292 1680 292 1680 296 1672 300 1668 300 1664 308 1672 320 1676 324 1676 344 1664 352 1664 360 1656 368 1640 376 1632 376 1616 380 1612 388 1608 380 1600 380 1592 376 1592 372 1580 372 1568 376 1564 384 1552 376 1552 372 1548 368 1544 368 1544 360 1552 352 1544 344 1536 344 1536 340 1532 336 1520 340 1512 348 1504 344 1500 344 1496 348 1492 344 1484 344 1464 336 1456 332 1452 332 1440 324 1436 320 1440 320 1444 316 1432 304 1420 296 1416 292 1416 288 1412 280 1416 276 1424 276 1428 272 1436 272 1440 268 1444 268 1448 264" style="fill:lime;stroke:#ff0;stroke-miterlimit:1.27990698814392;stroke-width:2px"/><polygon points="1316 272 1320 268 1320 264 1332 264 1336 272 1344 272 1352 280 1368 288 1372 292 1380 292 1384 288 1376 280 1380 280 1388 272 1392 272 1396 276 1404 276 1408 272 1400 268 1396 268 1400 264 1380 272 1372 272 1364 256 1348 260 1328 248 1316 248 1312 268 1316 272" style="fill:lime;stroke:#ff0;stroke-miterlimit:1.27990698814392;stroke-width:2px"/><polygon points="1228 260 1232 264 1232 272 1260 272 1260 268 1256 264 1248 264 1236 260 1228 260" style="fill:lime;stroke:#ff0;stroke-miterlimit:1.27990698814392;stroke-width:2px"/><polygon points="1260 268 1264 268 1268 272 1272 268 1280 276 1272 288 1268 284 1268 280 1260 284 1260 280 1256 276 1256 272 1260 272 1260 268" style="fill:lime;stroke:#ff0;stroke-miterlimit:1.27990698814392;stroke-width:2px"/><polygon points="1244 272 1244 280 1256 280 1256 284 1260 284 1260 280 1256 276 1256 272 1244 272" style="fill:lime;stroke:#ff0;stroke-miterlimit:1.27990698814392;stroke-width:2px"/><polygon points="1256 284 1248 280 1256 280 1256 284" style="fill:lime;stroke:#ff0;stroke-miterlimit:1.27990698814392;stroke-width:2px"/><polygon points="1196 316 1200 308 1204 308 1204 312 1200 316 1196 316" style="fill:lime;stroke:#ff0;stroke-miterlimit:1.27990698814392;stroke-width:2px"/><polygon points="1200 300 1208 296 1228 296 1240 292 1232 300 1228 308 1212 320 1200 320 1200 316 1204 312 1204 308 1200 308 1200 300" style="fill:lime;stroke:#ff0;stroke-miterlimit:1.27990698814392;stroke-width:2px"/><polygon points="1224 324 1240 332 1244 332 1244 336 1248 340 1260 340 1268 332 1268 324 1256 312 1256 300 1248 292 1240 292 1232 300 1228 308 1212 320 1220 320 1224 324" style="fill:lime;stroke:#ff0;stroke-miterlimit:1.27990698814392;stroke-width:2px"/><polygon points="1200 320 1200 328 1196 336 1192 336 1192 324 1196 316 1200 316 1200 320" style="fill:lime;stroke:#ff0;stroke-miterlimit:1.27990698814392;stroke-width:2px"/><polygon points="1196 340 1204 336 1212 332 1212 324 1224 324 1220 320 1200 320 1200 328 1196 336 1196 340" style="fill:lime;stroke:#ff0;stroke-miterlimit:1.27990698814392;stroke-width:2px"/><polygon points="1272 288 1272 292 1280 296 1300 296 1304 292 1320 288 1340 296 1340 308 1336 316 1336 320 1344 328 1340 336 1348 344 1352 352 1344 360 1332 360 1320 356 1316 348 1312 348 1308 352 1296 352 1284 340 1280 332 1268 332 1268 324 1256 312 1256 300 1248 292 1248 280 1256 284 1260 284 1268 280 1268 284 1272 288" style="fill:lime;stroke:#ff0;stroke-miterlimit:1.27990698814392;stroke-width:2px"/><polygon points="1348 304 1364 292 1372 292 1368 288 1352 280 1344 272 1336 272 1332 264 1320 264 1320 268 1316 272 1312 268 1304 264 1296 268 1304 268 1304 276 1296 272 1296 280 1304 292 1320 288 1340 296 1340 304 1348 304" style="fill:lime;stroke:#ff0;stroke-miterlimit:1.27990698814392;stroke-width:2px"/><polygon points="1396 276 1388 276 1388 280 1412 280 1416 276 1424 276 1428 272 1436 272 1440 268 1444 268 1448 264 1412 260 1408 264 1400 264 1396 268 1400 268 1408 272 1404 276 1396 276" style="fill:lime;stroke:#ff0;stroke-miterlimit:1.27990698814392;stroke-width:2px"/><polygon points="1380 292 1380 296 1384 296 1396 288 1400 296 1408 292 1416 292 1416 288 1412 280 1388 280 1388 276 1396 276 1392 272 1388 272 1380 280 1376 280 1384 288 1380 292" style="fill:lime;stroke:#ff0;stroke-miterlimit:1.27990698814392;stroke-width:2px"/><polygon points="1452 332 1448 336 1448 340 1464 348 1472 348 1476 352 1488 352 1492 348 1492 344 1496 348 1496 352 1508 352 1512 348 1520 340 1532 336 1536 340 1536 344 1544 344 1540 348 1536 348 1532 352 1524 368 1520 368 1520 376 1516 376 1512 368 1508 368 1512 364 1512 360 1500 360 1500 356 1492 356 1492 364 1496 368 1496 380 1484 384 1484 388 1452 412 1448 412 1448 428 1444 444 1436 452 1432 456 1428 456 1408 400 1404 376 1400 376 1400 384 1392 384 1384 376 1388 376 1388 372 1384 372 1380 368 1384 364 1396 364 1396 360 1388 352 1388 348 1392 344 1400 344 1416 328 1416 324 1420 320 1412 312 1412 308 1428 308 1432 304 1444 316 1440 320 1436 320 1440 324 1452 332" style="fill:lime;stroke:#ff0;stroke-miterlimit:1.27990698814392;stroke-width:2px"/><polygon points="1456 332 1464 336 1484 344 1492 344 1492 348 1488 352 1476 352 1472 348 1464 348 1448 340 1448 336 1452 332 1456 332" style="fill:lime;stroke:#ff0;stroke-miterlimit:1.27990698814392;stroke-width:2px"/><polygon points="1500 344 1504 344 1512 348 1508 352 1496 352 1496 348 1500 344" style="fill:lime;stroke:#ff0;stroke-miterlimit:1.27990698814392;stroke-width:2px"/><polygon points="1496 380 1504 376 1508 376 1512 384 1516 380 1516 376 1512 368 1508 368 1512 364 1512 360 1500 360 1500 356 1492 356 1492 364 1496 368 1496 380" style="fill:lime;stroke:#ff0;stroke-miterlimit:1.27990698814392;stroke-width:2px"/><polygon points="1512 384 1524 392 1524 396 1528 400 1524 412 1532 412 1540 404 1548 436 1548 444 1552 432 1548 416 1548 404 1544 400 1544 392 1564 384 1552 376 1552 372 1548 368 1544 368 1544 360 1552 352 1544 344 1540 348 1536 348 1532 352 1524 368 1520 368 1520 376 1516 376 1516 380 1512 384" style="fill:lime;stroke:#ff0;stroke-miterlimit:1.27990698814392;stroke-width:2px"/><polygon points="1400 296 1400 304 1396 312 1392 312 1392 316 1388 316 1384 324 1380 324 1376 328 1372 328 1368 336 1340 336 1344 328 1336 320 1336 316 1340 308 1340 304 1348 304 1364 292 1380 292 1380 296 1384 296 1396 288 1400 296" style="fill:lime;stroke:#ff0;stroke-miterlimit:1.27990698814392;stroke-width:2px"/><polygon points="1348 344 1352 352 1344 360 1360 360 1372 356 1376 368 1380 368 1384 364 1396 364 1396 360 1388 352 1388 348 1392 344 1400 344 1416 328 1416 324 1420 320 1412 312 1412 308 1428 308 1432 304 1420 296 1416 292 1408 292 1400 296 1400 304 1396 312 1392 312 1392 316 1388 316 1384 324 1380 324 1376 328 1372 328 1368 336 1340 336 1348 344" style="fill:lime;stroke:#ff0;stroke-miterlimit:1.27990698814392;stroke-width:2px"/><polygon points="1196 340 1196 344 1208 360 1208 364 1216 368 1220 384 1228 392 1240 408 1244 404 1248 404 1256 416 1268 400 1312 384 1312 380 1308 376 1288 376 1284 364 1280 356 1280 352 1272 344 1268 344 1260 340 1248 340 1244 336 1244 332 1240 332 1224 324 1212 324 1212 332 1196 340" style="fill:lime;stroke:#ff0;stroke-miterlimit:1.27990698814392;stroke-width:2px"/><polygon points="1268 332 1268 340 1272 344 1268 344 1260 340 1268 332" style="fill:lime;stroke:#ff0;stroke-miterlimit:1.27990698814392;stroke-width:2px"/><rect x="1284" y="356" width="4" height="8" style="fill:lime;stroke:#ff0;stroke-miterlimit:1.27990698814392;stroke-width:2px"/><polygon points="1288 376 1308 376 1312 368 1312 364 1316 360 1312 356 1300 368 1288 368 1284 364 1288 376" style="fill:lime;stroke:#ff0;stroke-miterlimit:1.27990698814392;stroke-width:2px"/><polygon points="1332 372 1332 380 1324 388 1324 392 1316 400 1312 400 1308 404 1296 408 1288.31 392.62 1312 384 1312 380 1308 376 1312 368 1312 364 1316 360 1316 364 1332 372" style="fill:lime;stroke:#ff0;stroke-miterlimit:1.27990698814392;stroke-width:2px"/><polygon points="1296 408 1284 416 1252 428 1244 428 1240 416 1240 408 1244 404 1248 404 1256 416 1268 400 1288.31 392.62 1296 408" style="fill:lime;stroke:#ff0;stroke-miterlimit:1.27990698814392;stroke-width:2px"/><polygon points="1668 368 1676 360 1680 364 1672 380 1668 376 1668 368" style="fill:lime;stroke:#ff0;stroke-miterlimit:1.27990698814392;stroke-width:2px"/><polygon points="1616 388 1616 392 1608 400 1604 396 1604 392 1616 388" style="fill:lime;stroke:#ff0;stroke-miterlimit:1.27990698814392;stroke-width:2px"/><polygon points="1600 380 1600 384 1592 388 1588 392 1588 396 1604 412 1608 428 1608 432 1604 440 1584 452 1584 444 1588 440 1588 436 1596 432 1600 424 1596 412 1580 392 1584 388 1580 384 1576 384 1568 376 1580 372 1592 372 1592 376 1600 380" style="fill:lime;stroke:#ff0;stroke-miterlimit:1.27990698814392;stroke-width:2px"/><polygon points="1598.67 420 1592 420 1588 424 1584 420 1588 416 1580 400 1568 400 1564 404 1560 400 1564 392 1560 392 1557.33 386.67 1564 384 1568 376 1576 384 1580 384 1584 388 1580 392 1596 412 1598.67 420" style="fill:lime;stroke:#ff0;stroke-miterlimit:1.27990698814392;stroke-width:2px"/><polygon points="1600 424 1596 432 1588 436 1588 440 1584 444 1580 440 1576 440 1572 436 1572 424 1576 420 1584 420 1588 424 1592 420 1598.67 420 1600 424" style="fill:lime;stroke:#ff0;stroke-miterlimit:1.27990698814392;stroke-width:2px"/><polygon points="1588 416 1584 420 1576 420 1572 424 1572 432 1568 432 1560 424 1556 428 1556 436 1552 448 1556 448 1560 460 1568 464 1568 468 1564 468 1556 464 1552 456 1548 452 1548 444 1552 432 1548 416 1548 404 1544 400 1544 392 1557.33 386.67 1560 392 1564 392 1560 400 1564 404 1568 400 1580 400 1588 416" style="fill:lime;stroke:#ff0;stroke-miterlimit:1.27990698814392;stroke-width:2px"/><polygon points="1444 452 1448 448 1452 452 1456 460 1456 464 1452 468 1448 468 1444 464 1444 452" style="fill:lime;stroke:#ff0;stroke-miterlimit:1.27990698814392;stroke-width:2px"/><polygon points="1580 492 1568 488 1560 476 1556 464 1564 468 1568 468 1568 464 1576 472 1576 484 1580 492" style="fill:lime;stroke:#ff0;stroke-miterlimit:1.27990698814392;stroke-width:2px"/><polygon points="1532 468 1544 472 1556 484 1564 488 1572 496 1580 500 1576 504 1588 516 1588 532 1580 532 1564 516 1560 504 1552 496 1548 488 1544 488 1532 476 1532 468" style="fill:lime;stroke:#ff0;stroke-miterlimit:1.27990698814392;stroke-width:2px"/><polygon points="1588 508 1588 512 1592 516 1592 512 1588 508" style="fill:lime;stroke:#ff0;stroke-miterlimit:1.27990698814392;stroke-width:2px"/><polygon points="1588 536 1588 540 1592 540 1628 548 1636 548 1636 544 1628 544 1624 540 1616 536 1608 540 1604 536 1596 532 1588 536" style="fill:lime;stroke:#ff0;stroke-miterlimit:1.27990698814392;stroke-width:2px"/><polygon points="1640 544 1644 548 1640 548 1640 544" style="fill:lime;stroke:#ff0;stroke-miterlimit:1.27990698814392;stroke-width:2px"/><polygon points="1648 548 1652 552 1664 548 1656 544 1648 548" style="fill:lime;stroke:#ff0;stroke-miterlimit:1.27990698814392;stroke-width:2px"/><polygon points="1664 552 1664 556 1672 556 1664 552" style="fill:lime;stroke:#ff0;stroke-miterlimit:1.27990698814392;stroke-width:2px"/><polygon points="1668 548 1672 552 1684 548 1668 548" style="fill:lime;stroke:#ff0;stroke-miterlimit:1.27990698814392;stroke-width:2px"/><polygon points="1688 556 1696 548 1708 548 1696 552 1688 556" style="fill:lime;stroke:#ff0;stroke-miterlimit:1.27990698814392;stroke-width:2px"/><polygon points="1704 516 1704 520 1708 520 1704 516" style="fill:lime;stroke:#ff0;stroke-miterlimit:1.27990698814392;stroke-width:2px"/><polygon points="1672 396 1668 412 1668 420 1676 424 1684 424 1688 428 1688 420 1676 420 1676 412 1680 408 1680 396 1672 396" style="fill:lime;stroke:#ff0;stroke-miterlimit:1.27990698814392;stroke-width:2px"/><polygon points="1672 424 1672 428 1676 432 1676 428 1672 424" style="fill:lime;stroke:#ff0;stroke-miterlimit:1.27990698814392;stroke-width:2px"/><polygon points="1680 436 1680 440 1684 436 1680 436" style="fill:lime;stroke:#ff0;stroke-miterlimit:1.27990698814392;stroke-width:2px"/><polygon points="1692 432 1700 440 1696 432 1692 432" style="fill:lime;stroke:#ff0;stroke-miterlimit:1.27990698814392;stroke-width:2px"/><polygon points="1684 440 1680 448 1684 448 1684 440" style="fill:lime;stroke:#ff0;stroke-miterlimit:1.27990698814392;stroke-width:2px"/><polygon points="1664 440 1660 444 1664 444 1664 440" style="fill:lime;stroke:#ff0;stroke-miterlimit:1.27990698814392;stroke-width:2px"/><polygon points="1660 448 1652 456 1652 452 1660 448" style="fill:lime;stroke:#ff0;stroke-miterlimit:1.27990698814392;stroke-width:2px"/><polygon points="1680 456 1680 460 1684 456 1688 456 1692 460 1692 468 1700 468 1704 460 1704 452 1700 448 1680 456" style="fill:lime;stroke:#ff0;stroke-miterlimit:1.27990698814392;stroke-width:2px"/><polygon points="1636 472 1640 472 1636 476 1636 472" style="fill:lime;stroke:#ff0;stroke-miterlimit:1.27990698814392;stroke-width:2px"/><polygon points="1648 464 1640 472 1636 476 1624 484 1620 484 1616 492 1612 492 1616 496 1620 496 1628 492 1636 492 1648 476 1656 476 1664 472 1656 468 1652 464 1648 464" style="fill:lime;stroke:#ff0;stroke-miterlimit:1.27990698814392;stroke-width:2px"/><polygon points="1652 480 1656 492 1660 496 1656 496 1644 520 1636 524 1636 520 1628 516 1620 520 1620 516 1612 516 1612 508 1608 504 1608 492 1612 492 1616 496 1620 496 1628 492 1636 492 1648 476 1656 476 1652 480" style="fill:lime;stroke:#ff0;stroke-miterlimit:1.27990698814392;stroke-width:2px"/><polygon points="1668 496 1664 508 1664 512 1660 516 1660 520 1664 520 1664 532 1668 528 1668 516 1672 516 1672 520 1676 528 1684 524 1680 520 1680 516 1676 512 1688 504 1684 504 1672 508 1668 504 1668 500 1676 496 1692 500 1696 492 1692 496 1672 492 1668 496" style="fill:lime;stroke:#ff0;stroke-miterlimit:1.27990698814392;stroke-width:2px"/><polygon points="1712 516 1716 520 1728 520 1724 516 1712 516" style="fill:lime;stroke:#ff0;stroke-miterlimit:1.27990698814392;stroke-width:2px"/><polygon points="1708 500 1712 504 1712 500 1716 496 1712 492 1708 500" style="fill:lime;stroke:#ff0;stroke-miterlimit:1.27990698814392;stroke-width:2px"/><polygon points="1732 504 1744 504 1748 508 1748 516 1752 520 1768 508 1772 508 1784 516 1784 552 1776 544 1772 536 1764 528 1752 524 1744 520 1740 524 1740 520 1736 516 1744 516 1744 512 1736 512 1732 508 1732 504" style="fill:lime;stroke:#ff0;stroke-miterlimit:1.27990698814392;stroke-width:2px"/><polygon points="1768 548 1772 544 1772 540 1768 544 1768 548" style="fill:lime;stroke:#ff0;stroke-miterlimit:1.27990698814392;stroke-width:2px"/><polygon points="1784 552 1792 552 1800 544 1808 544 1816 552 1836 560 1840 556 1836 556 1820 544 1820 536 1812 532 1808 524 1796 516 1784 516 1784 552" style="fill:lime;stroke:#ff0;stroke-miterlimit:1.27990698814392;stroke-width:2px"/><polygon points="1828 532 1832 536 1836 536 1844 532 1848 524 1844 524 1840 532 1828 532" style="fill:lime;stroke:#ff0;stroke-miterlimit:1.27990698814392;stroke-width:2px"/><polygon points="1752 584 1780 600 1788 592 1788 572 1792 560 1796 560 1800 580 1808 580 1812 588 1816 608 1828 612 1836 624 1852 644 1852 672 1832 712 1812 716 1804 712 1800 716 1796 716 1780 712 1776 700 1772 700 1772 692 1768 692 1764 696 1764 692 1768 684 1764 684 1756 696 1752 696 1748 684 1732 676 1704 680 1692 684 1688 688 1672 688 1656 696 1648 696 1640 692 1640 688 1644 680 1644 676 1632 648 1636 644 1632 636 1636 620 1648 616 1656 616 1664 612 1672 612 1684 592 1688 596 1688 592 1700 580 1708 576 1712 584 1720 584 1724 580 1724 572 1732 568 1736 568 1736 564 1752 568 1760 568 1760 572 1756 576 1756 580 1752 584" style="fill:lime;stroke:#ff0;stroke-miterlimit:1.27990698814392;stroke-width:2px"/><polygon points="1804 728 1824 728 1824 736 1816 744 1808 736 1808 732 1804 728" style="fill:lime;stroke:#ff0;stroke-miterlimit:1.27990698814392;stroke-width:2px"/><polygon points="1928 752 1928 756 1932 756 1940 760 1948 756 1952 748 1968 736 1968 728 1964 728 1960 724 1952 736 1928 752" style="fill:lime;stroke:#ff0;stroke-miterlimit:1.27990698814392;stroke-width:2px"/><polygon points="1960 692 1972 708 1972 716 1968 720 1976 724 1972 728 1976 732 1984 724 1984 720 1992 716 1996 708 1984 712 1980 704 1972 704 1968 696 1964 692 1960 692" style="fill:lime;stroke:#ff0;stroke-miterlimit:1.27990698814392;stroke-width:2px"/><polygon points="908 384 908 376 916 368 916 364 924 352 928 348 952 348 952 356 936 356 936 368 928 376 928 384 908 384" style="fill:lime;stroke:#ff0;stroke-miterlimit:1.27990698814392;stroke-width:2px"/><polygon points="928 348 932 344 936 344 948 336 948 324 952 316 964 312 968 304 988 304 992 308 992 316 996 320 996 324 980 324 980 328 952 344 952 348 928 348" style="fill:lime;stroke:#ff0;stroke-miterlimit:1.27990698814392;stroke-width:2px"/><polygon points="1048 296 1048 308 1044 312 1044 316 1052 324 1052 332 1064 320 1064 316 1056 312 1056 308 1064 304 1060 300 1060 296 1056 292 1052 292 1048 296" style="fill:lime;stroke:#ff0;stroke-miterlimit:1.27990698814392;stroke-width:2px"/><polygon points="1052 356 1060 364 1064 364 1068 368 1080 372 1092 368 1136 392 1136 388 1140 388 1140 324 1128 320 1124 316 1120 316 1112 324 1112 328 1108 332 1104 332 1100 328 1092 328 1084 320 1072 320 1064 316 1064 320 1052 332 1052 356" style="fill:lime;stroke:#ff0;stroke-miterlimit:1.27990698814392;stroke-width:2px"/><polygon points="1204 376 1200 372 1200 368 1192 356 1180 336 1184 332 1184 336 1192 344 1196 336 1192 336 1192 324 1188 328 1180 328 1176 324 1172 324 1164 328 1156 328 1140 324 1140 376 1204 376" style="fill:lime;stroke:#ff0;stroke-miterlimit:1.27990698814392;stroke-width:2px"/><polygon points="1136 392 1136 412 1128 412 1124 428 1128 440 1124 440 1116 448 1108 448 1104 456 1096 456 1088 460 1080 448 1080 444 1088 444 1084 428 1080 428 1076 424 1076 420 1088 404 1088 384 1080 372 1092 368 1136 392" style="fill:lime;stroke:#ff0;stroke-miterlimit:1.27990698814392;stroke-width:2px"/><polygon points="1204 376 1208 380 1208 396 1216 400 1208 408 1204 420 1200 432 1196 436 1196 440 1192 440 1192 452 1184 456 1184 460 1192 460 1200 472 1200 476 1192 476 1188 480 1172 480 1164 476 1156 476 1152 472 1152 468 1148 464 1132 452 1132 444 1128 440 1124 428 1128 412 1136 412 1136 388 1140 388 1140 376 1204 376" style="fill:lime;stroke:#ff0;stroke-miterlimit:1.27990698814392;stroke-width:2px"/><polygon points="952 352 1008 384 1012 388 1020 392 1020 396 1036 392 1048 380 1068 368 1064 364 1060 364 1052 356 1052 324 1044 316 1044 312 1048 308 1048 296 1044 296 1040 292 1036 292 1032 296 1016 296 1004 300 1000 304 996 300 992 308 992 316 996 320 996 324 980 324 980 328 952 344 952 352" style="fill:lime;stroke:#ff0;stroke-miterlimit:1.27990698814392;stroke-width:2px"/><polygon points="968 404 972 412 940 412 936 420 924 408 912 408 912 388 908 384 928 384 928 376 936 368 936 356 952 356 952 352 973 364 964 364 968 404" style="fill:lime;stroke:#ff0;stroke-miterlimit:1.27990698814392;stroke-width:2px"/><polygon points="912 424 920 424 924 428 908 428 912 424" style="fill:lime;stroke:#ff0;stroke-miterlimit:1.27990698814392;stroke-width:2px"/><polygon points="908 416 912 424 920 424 924 428 908 428 912 432 940 432 940 428 936 420 924 408 912 408 908 416" style="fill:lime;stroke:#ff0;stroke-miterlimit:1.27990698814392;stroke-width:2px"/><polygon points="1024 395 1024 412 1020 416 1000 416 992 420 988 420 984 428 976 428 968 444 964 440 964 444 956 444 952 432 940 432 940 428 936 420 940 412 972 412 968 404 964 364 973 364 1008 384 1012 388 1020 392 1020 396 1024 395" style="fill:lime;stroke:#ff0;stroke-miterlimit:1.27990698814392;stroke-width:2px"/><polygon points="1088 384 1088 404 1076 420 1076 424 1068 428 1064 424 1060 424 1056 428 1040 428 1036 424 1028 424 1024 428 1024 436 1016 432 1012 432 1008 428 1008 424 1004 420 1004 416 1020 416 1024 412 1024 395 1036 392 1048 380 1068 368 1080 372 1088 384" style="fill:lime;stroke:#ff0;stroke-miterlimit:1.27990698814392;stroke-width:2px"/><polygon points="1240 428 1236 432 1224 420 1204 420 1208 408 1216 400 1224 416 1228 416 1240 428" style="fill:lime;stroke:#ff0;stroke-miterlimit:1.27990698814392;stroke-width:2px"/><polygon points="1232 436 1232 440 1240 440 1240 428 1232 436" style="fill:lime;stroke:#ff0;stroke-miterlimit:1.27990698814392;stroke-width:2px"/><polygon points="1204 420 1224 420 1236 432 1232 436 1232 440 1240 440 1240 444 1248 452 1268 456 1252 472 1244 472 1240 476 1232 480 1224 476 1220 480 1212 480 1200 476 1200 472 1192 460 1184 460 1184 456 1192 452 1192 440 1196 440 1196 436 1200 432 1204 420" style="fill:lime;stroke:#ff0;stroke-miterlimit:1.27990698814392;stroke-width:2px"/><polygon points="1232 512 1228 508 1228 484 1232 480 1240 476 1244 472 1252 472 1268 456 1248 452 1240 444 1240 436 1244 436 1248 444 1252 444 1256 440 1260 440 1264 436 1280 436 1284 432 1288 436 1284 440 1284 448 1276 456 1276 460 1272 464 1272 468 1256 488 1244 496 1232 512" style="fill:lime;stroke:#ff0;stroke-miterlimit:1.27990698814392;stroke-width:2px"/><polygon points="1188 480 1192 484 1196 492 1188 500 1184 508 1192 508 1212 520 1212 524 1220 528 1224 516 1232 512 1228 508 1228 484 1232 480 1224 476 1220 480 1212 480 1200 476 1192 476 1188 480" style="fill:lime;stroke:#ff0;stroke-miterlimit:1.27990698814392;stroke-width:2px"/><polygon points="1172 480 1188 480 1192 484 1196 492 1188 500 1184 508 1164 508 1168 496 1172 488 1172 480" style="fill:lime;stroke:#ff0;stroke-miterlimit:1.27990698814392;stroke-width:2px"/><polygon points="1212 524 1220 528 1220 548 1224 556 1228 560 1216 564 1192 564 1192 556 1188 552 1184 552 1172 548 1168 540 1164 536 1164 528 1172 520 1172 508 1192 508 1212 520 1212 524" style="fill:lime;stroke:#ff0;stroke-miterlimit:1.27990698814392;stroke-width:2px"/><polygon points="1164 508 1160 516 1172 516 1172 508 1164 508" style="fill:lime;stroke:#ff0;stroke-miterlimit:1.27990698814392;stroke-width:2px"/><polygon points="1164 528 1172 520 1172 516 1160 516 1164 528" style="fill:lime;stroke:#ff0;stroke-miterlimit:1.27990698814392;stroke-width:2px"/><polygon points="1152 472 1156 476 1164 476 1172 480 1172 488 1168 496 1164 508 1160 516 1164 528 1164 536 1168 540 1172 548 1164 548 1160 552 1160 560 1156 564 1164 568 1168 568 1168 576 1164 576 1152 564 1148 568 1144 568 1136 560 1124 560 1120 552 1120 544 1116 540 1112 540 1108 544 1100 544 1092 532 1080 532 1072 536 1068 532 1072 532 1072 528 1076 528 1080 524 1084 528 1092 520 1092 512 1100 504 1100 488 1104 480 1104 476 1108 472 1112 472 1116 476 1128 476 1140 472 1152 472" style="fill:lime;stroke:#ff0;stroke-miterlimit:1.27990698814392;stroke-width:2px"/><polygon points="1080 428 1084 428 1088 444 1080 444 1080 448 1088 460 1084 464 1084 476 1092 488 1092 492 1080 488 1056 488 1056 480 1048 472 1048 468 1056 460 1060 460 1064 464 1072 452 1072 448 1076 444 1080 436 1080 428" style="fill:lime;stroke:#ff0;stroke-miterlimit:1.27990698814392;stroke-width:2px"/><polygon points="1024 428 1028 424 1036 424 1040 428 1056 428 1060 424 1064 424 1068 428 1076 424 1080 428 1080 436 1076 444 1072 448 1072 452 1064 464 1060 460 1056 460 1048 468 1048 472 1044 476 1036 476 1032 472 1032 468 1028 464 1016 464 1016 452 1020 448 1020 444 1024 440 1024 428" style="fill:lime;stroke:#ff0;stroke-miterlimit:1.27990698814392;stroke-width:2px"/><polygon points="1104 456 1108 448 1116 448 1124 440 1128 440 1132 444 1132 452 1148 464 1152 468 1152 472 1140 472 1128 476 1116 476 1112 472 1108 472 1104 476 1104 480 1096 480 1092 488 1084 476 1084 464 1088 460 1096 456 1104 456" style="fill:lime;stroke:#ff0;stroke-miterlimit:1.27990698814392;stroke-width:2px"/><polygon points="1056 488 1064 488 1064 496 1056 496 1052 492 1056 488" style="fill:lime;stroke:#ff0;stroke-miterlimit:1.27990698814392;stroke-width:2px"/><polygon points="1076 488 1076 492 1080 492 1080 496 1076 500 1080 504 1080 512 1072 512 1068 516 1068 520 1064 524 1056 512 1052 504 1056 500 1056 496 1064 496 1064 488 1076 488" style="fill:lime;stroke:#ff0;stroke-miterlimit:1.27990698814392;stroke-width:2px"/><polygon points="1072 528 1072 524 1068 528 1068 532 1072 532 1072 528" style="fill:lime;stroke:#ff0;stroke-miterlimit:1.27990698814392;stroke-width:2px"/><polygon points="1064 524 1068 520 1068 516 1072 512 1080 512 1080 504 1076 500 1080 496 1080 492 1076 492 1076 488 1080 488 1092 492 1092 488 1096 480 1104 480 1100 488 1100 504 1092 512 1092 520 1084 528 1080 524 1076 528 1072 528 1072 524 1068 528 1064 524" style="fill:lime;stroke:#ff0;stroke-miterlimit:1.27990698814392;stroke-width:2px"/><polygon points="1016 464 1012 464 1012 460 1008 444 1004 440 1008 436 1012 436 1012 432 1016 432 1024 436 1024 440 1020 444 1020 448 1016 452 1016 464" style="fill:lime;stroke:#ff0;stroke-miterlimit:1.27990698814392;stroke-width:2px"/><polygon points="1004 416 1004 420 1008 424 1008 428 1012 432 1012 436 1008 436 1004 440 988 440 984 444 968 444 976 428 984 428 988 420 992 420 1000 416 1004 416" style="fill:lime;stroke:#ff0;stroke-miterlimit:1.27990698814392;stroke-width:2px"/><polygon points="924 432 952 432 956 444 956 460 952 460 948 452 944 452 940 444 932 444 928 452 920 440 924 436 924 432" style="fill:lime;stroke:#ff0;stroke-miterlimit:1.27990698814392;stroke-width:2px"/><polygon points="912 432 924 432 924 436 920 440 912 432" style="fill:lime;stroke:#ff0;stroke-miterlimit:1.27990698814392;stroke-width:2px"/><polygon points="928 452 932 444 940 444 944 452 944 456 940 464 928 452" style="fill:lime;stroke:#ff0;stroke-miterlimit:1.27990698814392;stroke-width:2px"/><polygon points="952 460 956 460 956 464 960 468 960 476 940 464 944 456 944 452 948 452 952 460" style="fill:lime;stroke:#ff0;stroke-miterlimit:1.27990698814392;stroke-width:2px"/><polygon points="956 444 964 444 964 440 968 444 984 444 988 448 988 456 984 464 984 472 972 472 960 476 960 468 956 464 956 444" style="fill:lime;stroke:#ff0;stroke-miterlimit:1.27990698814392;stroke-width:2px"/><polygon points="1012 464 1008 468 1004 464 1004 452 1000 440 1004 440 1008 444 1012 460 1012 464" style="fill:lime;stroke:#ff0;stroke-miterlimit:1.27990698814392;stroke-width:2px"/><polygon points="988 440 1000 440 1004 452 1004 464 1008 468 992 472 984 472 984 464 988 456 988 448 984 444 988 440" style="fill:lime;stroke:#ff0;stroke-miterlimit:1.27990698814392;stroke-width:2px"/><polygon points="1248 592 1244 600 1248 608 1248 612 1240 624 1244 628 1244 636 1252 644 1256 640 1260 640 1264 636 1276 600 1276 588 1280 588 1284 584 1280 580 1276 568 1272 572 1264 584 1248 592" style="fill:lime;stroke:#ff0;stroke-miterlimit:1.27990698814392;stroke-width:2px"/><polygon points="1192 572 1200 580 1200 588 1196 592 1196 596 1192 592 1192 580 1188 580 1184 576 1184 568 1188 564 1188 560 1184 552 1188 552 1192 556 1192 572" style="fill:lime;stroke:#ff0;stroke-miterlimit:1.27990698814392;stroke-width:2px"/><polygon points="1184 568 1184 576 1185.14 577.14 1168 584 1168 588 1164 588 1160 592 1156 592 1152 600 1140 600 1136 596 1128 596 1124 592 1124 572 1132 572 1136 568 1136 560 1144 568 1148 568 1152 564 1164 576 1168 576 1168 568 1164 568 1156 564 1160 560 1160 552 1164 548 1172 548 1184 552 1188 560 1188 564 1184 568" style="fill:lime;stroke:#ff0;stroke-miterlimit:1.27990698814392;stroke-width:2px"/><polygon points="1224 572 1228 580 1228 584 1216 596 1212 596 1196 608 1196 616 1200 624 1200 632 1196 636 1184 640 1184 652 1180 648 1176 624 1180 620 1184 604 1184 592 1168 588 1168 584 1185.14 577.14 1188 580 1192 580 1192 592 1196 596 1196 592 1200 588 1200 580 1192 572 1192 564 1216 564 1228 560 1224 572" style="fill:lime;stroke:#ff0;stroke-miterlimit:1.27990698814392;stroke-width:2px"/><polygon points="1128 596 1120 600 1108 600 1104 596 1076 596 1072 592 1068 596 1068 588 1072 572 1080 564 1080 560 1076 552 1080 548 1072 536 1080 532 1092 532 1100 544 1108 544 1112 540 1116 540 1120 544 1120 552 1124 560 1136 560 1136 568 1132 572 1124 572 1124 592 1128 596" style="fill:lime;stroke:#ff0;stroke-miterlimit:1.27990698814392;stroke-width:2px"/><polygon points="1112 656 1112 624 1116 624 1116 604 1120 604 1128 600 1132 604 1140 600 1136 596 1128 596 1120 600 1108 600 1104 596 1076 596 1072 592 1068 596 1068 604 1084 628 1088 628 1084 632 1084 640 1088 656 1092 660 1096 656 1100 660 1108 660 1112 656" style="fill:lime;stroke:#ff0;stroke-miterlimit:1.27990698814392;stroke-width:2px"/><polygon points="1144 600 1144 604 1156 616 1156 620 1164 624 1140 644 1136 644 1128 640 1128 644 1124 648 1116 648 1116 644 1112 640 1112 624 1116 624 1116 604 1120 604 1128 600 1132 604 1140 600 1144 600" style="fill:lime;stroke:#ff0;stroke-miterlimit:1.27990698814392;stroke-width:2px"/><polygon points="1084 628 1084 632 1088 628 1084 628" style="fill:lime;stroke:#ff0;stroke-miterlimit:1.27990698814392;stroke-width:2px"/><polygon points="1184 592 1184 604 1180 620 1176 624 1164 624 1156 620 1156 616 1144 604 1144 600 1152 600 1156 592 1160 592 1164 588 1168 588 1184 592" style="fill:lime;stroke:#ff0;stroke-miterlimit:1.27990698814392;stroke-width:2px"/><path d="M1180,648l-4-24h-12l-24,20h-4l-8-4v4l-4,4h-8v-4l-4-4v16l-4,4h-8l-4-4-4,4,12,20-4,4,8,12,4-4h8l4-4h8l4,4,8-4h4l8-4,24-24v-4l4-4Zm-24,24-4-4v-4l4-4h4l4,4Z" style="fill:lime;stroke:#ff0;stroke-miterlimit:1.27990698814392;stroke-width:2px"/><polygon points="1180 648 1180 652 1176 652 1172 648 1176 644 1179.33 644 1180 648" style="fill:lime;stroke:#ff0;stroke-miterlimit:1.27990698814392;stroke-width:2px"/><polygon points="1152 664 1156 660 1160 660 1164 664 1156 672 1152 668 1152 664" style="fill:lime;stroke:#ff0;stroke-miterlimit:1.27990698814392;stroke-width:2px"/><polygon points="868 136 876 132 880 132 884 136 888 136 892 132 916 132 924 136 924 140 920 144 916 144 900 148 892 148 876 144 880 140 872 140 868 136" style="fill:lime;stroke:#ff0;stroke-miterlimit:1.27990698814392;stroke-width:2px"/><polygon points="672 232 672 236 688 236 692 232 696 236 692 240 700 236 704 240 708 240 708 236 700 228 704 224 692 224 688 220 692 216 688 216 680 224 680 228 672 232" style="fill:lime;stroke:#ff0;stroke-miterlimit:1.27990698814392;stroke-width:2px"/><polygon points="664 240 668 240 664 244 668 244 664 248 660 244 664 240" style="fill:lime;stroke:#ff0;stroke-miterlimit:1.27990698814392;stroke-width:2px"/><polygon points="120 380 124 380 124 384 120 380" style="fill:lime;stroke:#ff0;stroke-miterlimit:1.27990698814392;stroke-width:2px"/><polygon points="132 384 132 380 136 384 132 384" style="fill:lime;stroke:#ff0;stroke-miterlimit:1.27990698814392;stroke-width:2px"/><polygon points="136 388 136 396 140 392 140 388 136 388" style="fill:lime;stroke:#ff0;stroke-miterlimit:1.27990698814392;stroke-width:2px"/><polygon points="532 376 532 380 536 376 548 376 564 380 568 384 572 384 572 388 588 388 584 384 580 384 568 376 564 376 556 372 540 372 532 376" style="fill:lime;stroke:#ff0;stroke-miterlimit:1.27990698814392;stroke-width:2px"/><polygon points="568 396 568 400 576 400 572 396 568 396" style="fill:lime;stroke:#ff0;stroke-miterlimit:1.27990698814392;stroke-width:2px"/><polygon points="588 396 592 400 604 400 604 392 596 388 592 392 596 392 600 396 588 396" style="fill:lime;stroke:#ff0;stroke-miterlimit:1.27990698814392;stroke-width:2px"/><polygon points="612 392 624 396 620 400 616 396 608 396 604 400 604 392 608 388 612 392" style="fill:lime;stroke:#ff0;stroke-miterlimit:1.27990698814392;stroke-width:2px"/><polygon points="628 396 628 400 632 400 636 396 628 396" style="fill:lime;stroke:#ff0;stroke-miterlimit:1.27990698814392;stroke-width:2px"/><polygon points="352 320 364 320 384 324 412 324 420 332 420 336 428 340 432 336 440 336 448 348 452 356 460 356 460 360 456 376 468 396 472 396 476 400 492 396 496 392 500 384 508 380 516 380 520 384 516 388 516 392 508 400 496 400 496 408 500 412 492 412 488 416 488 420 476 408 472 408 464 412 424 396 416 388 416 376 396 356 396 352 392 352 384 344 368 324 364 324 364 332 376 344 380 352 384 352 388 364 392 364 396 372 392 372 376 360 376 356 372 352 360 344 368 344 368 340 356 332 356 328 352 324 352 320" style="fill:lime;stroke:#ff0;stroke-miterlimit:1.27990698814392;stroke-width:2px"/><polygon points="500 424 504 420 508 420 508 416 512 412 508 412 508 400 496 400 496 408 500 412 492 412 488 416 488 420 492 420 496 424 500 424" style="fill:lime;stroke:#ff0;stroke-miterlimit:1.27990698814392;stroke-width:2px"/><polygon points="504 428 508 428 512 424 508 420 504 420 500 424 504 428" style="fill:lime;stroke:#ff0;stroke-miterlimit:1.27990698814392;stroke-width:2px"/><polygon points="508 408 512 404 512 396 508 400 508 408" style="fill:lime;stroke:#ff0;stroke-miterlimit:1.27990698814392;stroke-width:2px"/><polygon points="512 412 532 412 540 416 532 420 528 420 524 424 520 424 520 428 516 428 516 424 512 424 508 420 508 416 512 412" style="fill:lime;stroke:#ff0;stroke-miterlimit:1.27990698814392;stroke-width:2px"/><polygon points="516 428 512 424 516 424 516 428" style="fill:lime;stroke:#ff0;stroke-miterlimit:1.27990698814392;stroke-width:2px"/><polygon points="540 416 536 424 536 440 532 440 528 436 524 436 516 428 520 428 520 424 524 424 528 420 532 420 540 416" style="fill:lime;stroke:#ff0;stroke-miterlimit:1.27990698814392;stroke-width:2px"/><polygon points="544 448 536 440 532 440 528 436 524 436 528 440 528 444 536 448 536 452 540 456 540 452 544 448" style="fill:lime;stroke:#ff0;stroke-miterlimit:1.27990698814392;stroke-width:2px"/><polygon points="572 452 572 456 568 460 568 456 564 452 560 452 556 456 556 460 552 460 548 456 540 456 540 452 544 448 548 452 552 452 560 448 568 448 572 452" style="fill:lime;stroke:#ff0;stroke-miterlimit:1.27990698814392;stroke-width:2px"/><polygon points="564 488 564 492 572 496 576 500 584 500 596 512 608 512 612 516 608 520 612 524 616 508 616 504 612 500 612 496 620 496 612 492 624 492 628 488 624 484 628 480 624 472 624 464 616 468 608 460 600 460 600 456 596 448 596 444 600 436 604 432 600 432 596 436 588 436 580 444 580 448 576 452 576 456 572 456 568 460 572 464 572 480 564 488" style="fill:lime;stroke:#ff0;stroke-miterlimit:1.27990698814392;stroke-width:2px"/><polygon points="660 464 660 468 664 472 668 472 668 488 672 492 680 492 688 488 684 480 680 480 680 472 684 472 684 468 680 464 676 464 676 460 668 452 664 460 664 464 660 464" style="fill:lime;stroke:#ff0;stroke-miterlimit:1.27990698814392;stroke-width:2px"/><polygon points="628 488 632 496 640 496 648 488 644 484 644 480 652 480 656 476 660 476 664 472 660 468 660 464 664 464 664 460 668 452 660 452 664 448 656 444 652 440 644 440 640 444 632 440 624 440 620 436 612 436 604 440 608 448 604 452 600 444 608 432 604 432 600 436 596 444 596 448 600 456 600 460 608 460 616 468 624 464 624 472 628 480 624 484 628 488" style="fill:lime;stroke:#ff0;stroke-miterlimit:1.27990698814392;stroke-width:2px"/><polygon points="688 488 700 488 700 476 704 468 684 468 684 472 680 472 680 480 684 480 688 488" style="fill:lime;stroke:#ff0;stroke-miterlimit:1.27990698814392;stroke-width:2px"/><polygon points="716 476 708 488 700 488 700 476 704 468 716 476" style="fill:lime;stroke:#ff0;stroke-miterlimit:1.27990698814392;stroke-width:2px"/><polygon points="584 500 584 504 580 512 564 520 564 528 560 528 556 524 556 520 560 516 560 512 556 516 552 512 552 504 556 500 556 496 564 492 572 496 576 500 584 500" style="fill:lime;stroke:#ff0;stroke-miterlimit:1.27990698814392;stroke-width:2px"/><polygon points="612 524 608 524 596 528 596 536 592 540 592 544 596 552 600 552 600 556 608 556 612 552 612 560 624 560 632 556 640 556 640 564 644 568 648 568 652 572 656 572 660 576 668 576 668 592 676 592 676 596 680 600 680 608 676 612 680 616 680 624 692 624 696 628 696 632 700 632 700 644 704 648 704 652 696 656 684 668 688 668 692 672 696 672 704 680 704 688 712 680 712 676 716 672 716 668 720 668 716 676 724 668 724 664 732 656 732 640 744 632 748 632 752 628 768 628 768 624 772 624 780 608 780 600 784 596 784 576 788 572 796 560 804 552 808 544 804 528 796 528 780 516 768 516 760 512 756 516 752 508 748 508 740 504 736 504 728 512 720 512 716 508 712 508 716 500 724 496 724 492 720 488 716 476 708 488 688 488 680 492 672 492 668 488 668 472 664 472 660 476 656 476 652 480 644 480 644 484 648 488 640 496 632 496 628 488 624 492 612 492 620 496 612 496 612 500 616 504 616 508 612 524" style="fill:lime;stroke:#ff0;stroke-miterlimit:1.27990698814392;stroke-width:2px"/><polygon points="720 500 720 508 728 508 732 504 728 500 720 500" style="fill:lime;stroke:#ff0;stroke-miterlimit:1.27990698814392;stroke-width:2px"/><polygon points="616 560 620 568 616 584 620 592 612 604 604 596 580 584 576 580 576 572 560 544 556 536 552 532 552 528 548 524 552 520 556 520 556 524 560 528 564 528 564 520 580 512 584 504 584 500 596 512 608 512 612 516 608 520 612 524 608 524 596 528 596 536 592 540 592 544 596 552 600 552 600 556 608 556 612 552 612 560 616 560" style="fill:lime;stroke:#ff0;stroke-miterlimit:1.27990698814392;stroke-width:2px"/><polygon points="680 600 680 608 676 612 672 608 660 608 656 612 656 620 652 624 648 624 644 628 644 624 632 624 628 628 624 628 620 612 620 608 616.44 597.33 620 592 616 584 620 568 616 560 624 560 632 556 640 556 640 564 644 568 648 568 652 572 656 572 660 576 668 576 668 592 676 592 676 596 680 600" style="fill:lime;stroke:#ff0;stroke-miterlimit:1.27990698814392;stroke-width:2px"/><polygon points="680 624 692 624 696 628 696 632 700 632 700 644 692 652 676 652 680 648 680 640 660 632 652 624 656 620 656 612 660 608 672 608 680 616 680 624" style="fill:lime;stroke:#ff0;stroke-miterlimit:1.27990698814392;stroke-width:2px"/><polygon points="684 668 680 672 680 680 676 688 680 692 684 692 688 696 696 692 700 692 704 688 704 680 696 672 692 672 688 668 684 668" style="fill:lime;stroke:#ff0;stroke-miterlimit:1.27990698814392;stroke-width:2px"/><polygon points="620 636 620 648 624 652 620 652 612 664 612 672 608 676 616 688 612 696 612 700 608 704 608 716 604 720 604 736 600 740 608 748 604 752 604 760 600 764 600 772 592 776 596 784 600 780 600 788 616 788 620 792 608 792 608 800 604 796 604 792 600 792 592 784 588 776 588 768 592 764 588 764 584 760 584 756 588 756 592 760 596 752 596 744 600 732 596 728 596 732 592 732 592 724 596 720 592 708 596 704 604 688 604 672 608 652 608 640 612 624 612 604 616.44 597.33 620 608 620 612 624 628 628 628 628 632 620 636" style="fill:lime;stroke:#ff0;stroke-miterlimit:1.27990698814392;stroke-width:2px"/><polygon points="588 736 592 736 592 740 588 744 588 736" style="fill:lime;stroke:#ff0;stroke-miterlimit:1.27990698814392;stroke-width:2px"/><polygon points="592 792 596 792 596 796 592 792" style="fill:lime;stroke:#ff0;stroke-miterlimit:1.27990698814392;stroke-width:2px"/><polygon points="632 804 640 804 636 808 620 804 620 792 632 804" style="fill:lime;stroke:#ff0;stroke-miterlimit:1.27990698814392;stroke-width:2px"/><polygon points="608 804 620 804 620 792 616 792 612 796 616 800 608 804" style="fill:lime;stroke:#ff0;stroke-miterlimit:1.27990698814392;stroke-width:2px"/><polygon points="616 788 600 788 600 780 596 784 592 776 600 772 600 764 604 760 604 752 608 748 600 740 604 736 604 720 608 716 608 704 612 700 612 696 616 688 608 676 612 672 612 664 620 652 624 652 620 648 620 636 628 632 628 628 632 624 644 624 644 628 648 624 652 624 660 632 680 640 680 648 676 652 692 652 700 644 704 648 704 652 696 656 684 668 680 672 680 680 676 688 676 692 684 696 684 700 688 704 680 712 668 716 656 716 656 724 652 728 640 728 640 732 644 736 648 732 648 740 644 740 640 748 628 752 624 756 636 764 636 768 624 772 624 776 620 780 620 784 616 788" style="fill:lime;stroke:#ff0;stroke-miterlimit:1.27990698814392;stroke-width:2px"/><polygon points="352 320 348 312 332 308 312 280 312 268 308 260 312 256 312 240 308 232 320 232 320 228 476 228 492 232 512 232 544 248 548 260 540 264 540 268 544 268 556 264 560 264 564 260 564 256 576 256 584 252 604 252 612 248 616 236 624 236 628 248 628 252 624 252 612 256 608 264 612 268 604 268 600 272 592 272 592 276 584 284 584 288 580 292 580 284 576 280 576 292 580 296 580 304 568 312 564 312 556 320 552 320 548 332 556 352 556 360 552 360 540 348 540 336 536 332 528 336 524 332 508 332 508 340 496 340 492 336 476 336 460 348 460 356 452 356 440 336 432 336 428 340 420 336 420 332 412 324 384 324 364 320 352 320" style="fill:lime;stroke:#ff0;stroke-miterlimit:1.27990698814392;stroke-width:2px"/><polygon points="636 252 636 256 640 256 644 252 660 248 656 244 644 244 640 240 640 236 632 232 640 232 644 228 632 228 620 232 608 240 620 228 628 224 632 220 668 220 676 216 692 212 692 204 680 200 668 204 668 200 680 196 656 188 656 184 660 184 644 168 640 168 636 176 632 172 624 176 616 176 616 164 604 160 592 152 584 156 572 152 568 156 572 160 572 168 568 172 568 176 576 184 576 188 560 196 564 208 564 216 560 212 556 216 544 204 544 196 536 192 528 192 512 188 508 184 488 184 488 180 484 176 480 176 476 172 476 164 484 156 492 152 496 152 500 148 492 148 480 144 492 144 504 148 504 144 512 144 516 140 516 136 524 132 536 132 548 128 548 124 544 120 548 116 528 112 528 120 516 128 512 124 512 120 508 116 504 116 500 120 496 112 488 112 488 108 480 100 472 100 464 108 468 112 484 112 484 116 472 124 468 124 468 116 460 112 456 112 452 116 464 120 460 124 428 124 412 120 404 124 404 128 400 128 388 124 360 124 368 120 360 116 340 116 320 112 308 116 304 116 292 108 288 112 268 116 264 120 260 116 280 112 276 108 244 116 248 120 216 112 216 164 228 164 240 172 252 168 268 184 280 188 280 196 276 200 280 204 284 204 292 208 292 216 300 216 320 228 476 228 492 232 512 232 544 248 548 260 540 264 540 268 544 268 560 264 564 260 564 256 576 256 584 252 604 252 612 248 616 236 624 236 628 248 636 248 644 248 636 252" style="fill:lime;stroke:#ff0;stroke-miterlimit:1.27990698814392;stroke-width:2px"/><polygon points="288 220 300 220 312 228 304 228 288 220" style="fill:lime;stroke:#ff0;stroke-miterlimit:1.27990698814392;stroke-width:2px"/><rect x="264" y="200" width="4" height="4" style="fill:lime;stroke:#ff0;stroke-miterlimit:1.27990698814392;stroke-width:2px"/><polygon points="260 192 268 196 268 192 260 188 260 192" style="fill:lime;stroke:#ff0;stroke-miterlimit:1.27990698814392;stroke-width:2px"/><polygon points="280 188 280 192 276 196 276 192 268 188 260 180 252 176 240 176 224 168 216 168 196 164 188 164 180 160 176 164 176 168 156 172 164 164 172 160 164 160 152 164 152 168 144 172 148 172 144 176 132 180 132 184 120 188 112 188 120 184 128 176 128 172 108 172 100 176 104 168 100 164 92 168 84 164 88 160 80 160 80 156 92 148 96 152 108 148 108 140 100 140 96 144 76 140 76 136 68 136 84 132 112 132 108 128 96 128 76 120 80 116 92 116 104 108 116 108 128 104 136 104 156 108 172 108 196 112 216 112 216 164 228 164 240 172 252 168 268 184 280 188" style="fill:lime;stroke:#ff0;stroke-miterlimit:1.27990698814392;stroke-width:2px"/><polygon points="-4 116 -4 140 0 140 4 132 8 136 20 136 28 140 32 140 36 144 44 136 52 136 56 132 48 128 36 128 36 132 28 128 28 124 4 116 -4 116" style="fill:lime;stroke:#ff0;stroke-miterlimit:1.27990698814392;stroke-width:2px"/><polygon points="48 148 52 144 60 148 56 152 48 148" style="fill:lime;stroke:#ff0;stroke-miterlimit:1.27990698814392;stroke-width:2px"/><polygon points="64 204 68 200 68 204 64 204" style="fill:lime;stroke:#ff0;stroke-miterlimit:1.27990698814392;stroke-width:2px"/><polygon points="72 200 76 204 76 200 72 200" style="fill:lime;stroke:#ff0;stroke-miterlimit:1.27990698814392;stroke-width:2px"/><polygon points="84 196 88 200 88 196 96 196 92 192 84 196" style="fill:lime;stroke:#ff0;stroke-miterlimit:1.27990698814392;stroke-width:2px"/><polygon points="96 192 100 196 104 192 112 192 104 188 96 192" style="fill:lime;stroke:#ff0;stroke-miterlimit:1.27990698814392;stroke-width:2px"/><polygon points="144 180 144 184 156 180 144 180" style="fill:lime;stroke:#ff0;stroke-miterlimit:1.27990698814392;stroke-width:2px"/><polygon points="244 180 252 180 252 188 244 180" style="fill:lime;stroke:#ff0;stroke-miterlimit:1.27990698814392;stroke-width:2px"/><polygon points="304 100 312 92 308 88 320 88 328 84 336 88 352 88 360 92 348 92 332 100 328 104 316 104 312 100 304 100" style="fill:lime;stroke:#ff0;stroke-miterlimit:1.27990698814392;stroke-width:2px"/><polygon points="320 76 328 76 336 80 344 72 348 76 356 72 352 68 344 68 320 76" style="fill:lime;stroke:#ff0;stroke-miterlimit:1.27990698814392;stroke-width:2px"/><polygon points="372 68 376 72 392 68 372 68" style="fill:lime;stroke:#ff0;stroke-miterlimit:1.27990698814392;stroke-width:2px"/><polygon points="356 76 372 76 384 80 396 80 388 76 392 72 416 80 408 84 388 84 376 88 352 80 356 76" style="fill:lime;stroke:#ff0;stroke-miterlimit:1.27990698814392;stroke-width:2px"/><polygon points="416 60 420 64 440 64 448 68 452 64 428 60 416 60" style="fill:lime;stroke:#ff0;stroke-miterlimit:1.27990698814392;stroke-width:2px"/><polygon points="456 64 464 68 472 68 476 64 456 64" style="fill:lime;stroke:#ff0;stroke-miterlimit:1.27990698814392;stroke-width:2px"/><polygon points="464 72 468 76 480 76 476 72 464 72" style="fill:lime;stroke:#ff0;stroke-miterlimit:1.27990698814392;stroke-width:2px"/><polygon points="436 76 456 76 460 80 456 84 448 84 440 80 432 80 436 76" style="fill:lime;stroke:#ff0;stroke-miterlimit:1.27990698814392;stroke-width:2px"/><polygon points="432 96 436 92 440 96 444 92 440 88 448 88 464 92 456 96 464 96 460 104 452 104 444 100 432 96" style="fill:lime;stroke:#ff0;stroke-miterlimit:1.27990698814392;stroke-width:2px"/><polygon points="340 100 352 96 368 92 368 96 392 96 404 100 404 96 408 92 420 100 420 104 440 112 432 116 416 116 408 112 396 120 376 120 368 116 352 112 380 108 340 100" style="fill:lime;stroke:#ff0;stroke-miterlimit:1.27990698814392;stroke-width:2px"/><polygon points="472 92 472 96 480 96 500 88 476 88 472 92" style="fill:lime;stroke:#ff0;stroke-miterlimit:1.27990698814392;stroke-width:2px"/><polygon points="524 136 528 136 544 140 556 148 548 148 536 144 532 148 516 148 524 144 524 136" style="fill:lime;stroke:#ff0;stroke-miterlimit:1.27990698814392;stroke-width:2px"/><polygon points="572 124 576 128 584 124 580 120 572 124" style="fill:lime;stroke:#ff0;stroke-miterlimit:1.27990698814392;stroke-width:2px"/><polygon points="568 140 572 144 580 144 588 140 592 140 608 148 608 152 636 156 632 152 620 148 620 144 624 144 640 152 644 148 636 140 632 140 628 136 624 136 620 132 628 128 640 136 648 140 648 136 656 132 660 128 644 128 644 124 620 120 624 116 632 116 624 112 600 104 592 104 588 100 572 96 568 96 564 100 552 100 552 96 548 92 536 92 528 96 532 104 524 104 520 96 524 92 512 92 504 96 504 104 512 108 552 112 560 108 596 120 600 128 592 132 592 136 580 140 572 136 568 140" style="fill:lime;stroke:#ff0;stroke-miterlimit:1.27990698814392;stroke-width:2px"/><polygon points="484 76 492 84 508 84 516 88 528 84 548 88 560 80 504 80 500 76 484 76" style="fill:lime;stroke:#ff0;stroke-miterlimit:1.27990698814392;stroke-width:2px"/><path d="M464,56h8l4-4V48h12l8,4h8l4,4,4-4,4,4v4s8.12.15,8,0-12,4-12,4h-4l-8,4-16-4-4-4Z" style="fill:lime;stroke:#ff0;stroke-miterlimit:1.27990698814392;stroke-width:2px"/><polygon points="496 44 500 48 504 48 508 52 516 48 528 48 532 52 544 52 556 48 564 48 572 52 552 52 548 56 552 60 536 56 524 56 536 60 540 60 548 64 540 64 524 64 532 68 540 68 536 72 528 72 520 68 516 68 512 72 504 72 508 76 512 76 516 72 524 72 532 76 544 72 552 76 572 72 552 72 568 68 572 64 576 64 584 60 576 60 584 56 604 56 612 52 620 52 636 48 628 44 648 44 652 40 596 40 580 44 572 40 548 40 544 44 496 44" style="fill:lime;stroke:#ff0;stroke-miterlimit:1.27990698814392;stroke-width:2px"/><path d="M664,44h36l4,4,8-4,12,4V44l4-4,24,4,4-4h28l4-4h64l12,4h12l-8,4H824l-4,4h40l20-4-12,8h4l20-4h12l4-4h20l4,4H920l-12,4H892l-4,4h16l-20,8-4,4h16l-4,4h8l-20,4h12l4,4h-8l-4,4h12l-4,4H880l4,4H872l-4-4-20,4,4,4h12l12,8h4l4,4H868l-12-4-12,4,4,4h28l-8,4h-8l-12,4H836l-4,4-12-4,4,4h-8l-8,8h-4l-4,4h-8v-4h-4l-4,4h-4l-8,12-8,4,4,4-4,4v4h-4l4,4h-4l-12-4-4-4-8,4-16-16,4-8-12,4v-8l-8-4v-8h16l-12-4,12-4v-4l-20-4h16l-4-4-8-4-4,4h-8V96l4-4L676,80s-27.625-3.887-28-4-16,0-16,0l-4,4-12-4-12-4h28l4-4H612l-12-4,24-4h12l8-4H628l-4-4,24-4h12Z" style="fill:lime;stroke:#ff0;stroke-miterlimit:1.27990698814392;stroke-width:2px"/><polygon points="696 112 704 112 712 116 704 116 696 112" style="fill:lime;stroke:#ff0;stroke-miterlimit:1.27990698814392;stroke-width:2px"/><polygon points="0 967.833 12 968 84 972 112 976 164 972 172 976 180 972 228 972 164 968 152 964 152 960 156 956 128 952 132 948 176 952 192 948 172 940 144 940 136 936 124 932 124 928 140 928 168 932 180 928 188 928 184 924 172 924 180 920 200 920 252 916 288 916 300 912 320 916 344 912 364 916 364 912 372 912 376 916 380 916 384 912 388 912 388 916 392 920 416 916 448 920 448 916 444 912 428 912 432 908 428 904 464 908 496 908 504 904 508 904 512 908 524 908 548 912 552 908 560 908 568 912 628 904 632 900 620 888 628 880 628 876 624 872 652 860 680 852 684 856 676 856 656 864 652 868 644 868 636 876 640 880 648 880 660 896 664 904 660 912 640 920 608 924 580 924 564 920 564 924 576 928 596 932 548 932 552 936 572 936 560 940 576 940 580 948 668 956 672 960 696 956 764 956 772 952 840 948 844 944 840 940 800 940 800 936 832 928 860 924 900 920 908 916 924 912 912 908 920 904 936 900 936 896 952 896 956 900 964 892 968 892 972 896 996 896 1000 900 1008 896 1048 888 1052 888 1060 892 1068 892 1076 888 1104 888 1128 892 1140 892 1184 884 1188 880 1192 880 1204 888 1208 888 1220 884 1240 880 1256 876 1260 872 1264 876 1280 868 1308 868 1316 872 1356 876 1388 876 1392 880 1384 888 1380 888 1376 892 1384 892 1376 900 1380 904 1388 904 1404 888 1428 884 1436 880 1456 872 1484 872 1492 868 1496 872 1536 868 1552 872 1560 868 1584 868 1604 872 1616 872 1620 868 1632 864 1636 868 1644 868 1656 872 1696 872 1700 868 1704 868 1708 872 1720 872 1724 868 1744 868 1748 860 1752 868 1788 872 1804 872 1808 876 1824 876 1828 880 1836 880 1840 884 1856 884 1860 880 1864 884 1876 884 1896 892 1912 892 1944 896 1948 900 1944 904 1936 908 1916 912 1908 916 1904 928 1924 936 1888 940 1880 948 1888 948 1892 952 1928 960 1936 964 1956 964 1976 968 2000 968 2004 968 2004 1004 -4 1004 -4 968 0 967.833" style="fill:lime;stroke:#ff0;stroke-miterlimit:1.27990698814392;stroke-width:2px"/></g></svg>