<?xml version="1.0" encoding="UTF-8" standalone="no"?>
<svg
   fill="currentColor"
   viewBox="0 0 300.67 179.8"
   version="1.1"
   id="svg8"
   sodipodi:docname="aws.svg"
   inkscape:version="1.1.2 (0a00cf5339, 2022-02-04)"
   xmlns:inkscape="http://www.inkscape.org/namespaces/inkscape"
   xmlns:sodipodi="http://sodipodi.sourceforge.net/DTD/sodipodi-0.dtd"
   xmlns="http://www.w3.org/2000/svg"
   xmlns:svg="http://www.w3.org/2000/svg"
   xmlns:rdf="http://www.w3.org/1999/02/22-rdf-syntax-ns#"
   xmlns:cc="http://creativecommons.org/ns#"
   xmlns:dc="http://purl.org/dc/elements/1.1/">
  <defs
     id="defs12" />
  <sodipodi:namedview
     id="namedview10"
     pagecolor="#ffffff"
     bordercolor="#666666"
     borderopacity="1.0"
     inkscape:pageshadow="2"
     inkscape:pageopacity="0.0"
     inkscape:pagecheckerboard="0"
     showgrid="false"
     inkscape:zoom="0.56457243"
     inkscape:cx="409.1592"
     inkscape:cy="132.84389"
     inkscape:window-width="1920"
     inkscape:window-height="1007"
     inkscape:window-x="1366"
     inkscape:window-y="0"
     inkscape:window-maximized="1"
     inkscape:current-layer="svg8" />
  <title
     id="title2">Amazon Web Services</title>
  <path
     d="m 84.732,64.604917 c 0,3.660615 0.4,6.628682 1.1,8.805264 0.8,2.176582 1.8,4.551036 3.2,7.12336 0.5,0.791484 0.7,1.582969 0.7,2.275518 0,0.989355 -0.6,1.978711 -1.9,2.968066 l -6.3,4.155294 c -0.9,0.593613 -1.8,0.89042 -2.6,0.89042 -1,0 -2,-0.494678 -3,-1.385098 -1.4,-1.484033 -2.6,-3.067002 -3.6,-4.649971 -1,-1.681905 -2,-3.56168 -3.1,-5.837198 -7.8,9.102071 -17.6,13.653107 -29.4,13.653107 -8.4,0 -15.1,-2.374454 -20,-7.12336 -4.9,-4.748907 -7.4,-11.080782 -7.4,-18.995627 0,-8.409522 3,-15.236075 9.1,-20.380724 6.1,-5.144649 14.2,-7.716973 24.5,-7.716973 3.4,0 6.9,0.296807 10.6,0.791484 3.7,0.494678 7.5,1.286163 11.5,2.176583 v -7.222296 c 0,-7.519102 -1.6,-12.762686 -4.7,-15.829689 -3.2,-3.067002 -8.6,-4.551035 -16.3,-4.551035 -3.5,0 -7.1,0.395742 -10.8,1.286162 -3.7,0.89042 -7.3,1.978711 -10.8,3.363809 -1.6,0.692549 -2.8,1.088291 -3.5,1.286162 -0.7,0.197871 -1.2,0.296807 -1.6,0.296807 -1.4,0 -2.1,-0.989356 -2.1,-3.067002 v -4.847842 c 0,-1.582969 0.2,-2.7701959 0.7,-3.4627448 0.5,-0.6925489 1.4,-1.3850978 2.8,-2.0776466 3.5,-1.78084 7.7,-3.2648733 12.6,-4.4521 4.9,-1.28616217 10.1,-1.87977549 15.6,-1.87977549 11.9,0 20.6,2.67125999 26.2,8.01377989 5.5,5.34252 8.3,13.455235 8.3,24.338146 v 32.05512 z m -40.6,15.038204 c 3.3,0 6.7,-0.593613 10.3,-1.78084 3.6,-1.187227 6.8,-3.363809 9.5,-6.331875 1.6,-1.879776 2.8,-3.957423 3.4,-6.331876 0.6,-2.374453 1,-5.243584 1,-8.607393 v -4.155293 c -2.9,-0.692549 -6,-1.286163 -9.2,-1.681905 -3.2,-0.395742 -6.3,-0.593613 -9.4,-0.593613 -6.7,0 -11.6,1.286162 -14.9,3.957422 -3.3,2.67126 -4.9,6.430811 -4.9,11.377589 0,4.649971 1.2,8.112715 3.7,10.487168 2.4,2.473389 5.9,3.660616 10.5,3.660616 z m 80.3,10.68504 c -1.8,0 -3,-0.296807 -3.8,-0.989356 -0.8,-0.593613 -1.5,-1.978711 -2.1,-3.858486 L 95.032,9.0031354 c -0.6,-1.9787111 -0.9,-3.2648733 -0.9,-3.9574221 0,-1.5829689 0.8,-2.4733889 2.4,-2.4733889 h 9.8 c 1.9,0 3.2,0.2968067 3.9,0.9893555 0.8,0.5936134 1.4,1.9787111 2,3.8584866 l 16.8,65.4953365 15.6,-65.4953365 c 0.5,-1.978711 1.1,-3.2648732 1.9,-3.8584866 0.8,-0.5936133 2.2,-0.9893555 4,-0.9893555 h 8 c 1.9,0 3.2,0.2968067 4,0.9893555 0.8,0.5936134 1.5,1.9787111 1.9,3.8584866 l 15.8,66.2868215 17.3,-66.2868215 c 0.6,-1.978711 1.3,-3.2648732 2,-3.8584866 0.8,-0.5936133 2.1,-0.9893555 3.9,-0.9893555 h 9.3 c 1.6,0 2.5,0.7914844 2.5,2.4733889 0,0.4946777 -0.1,0.9893555 -0.2,1.5829688 -0.1,0.5936133 -0.3,1.3850978 -0.7,2.4733889 l -24.1,76.477183 c -0.6,1.978711 -1.3,3.264873 -2.1,3.858487 -0.8,0.593613 -2.1,0.989355 -3.8,0.989355 h -8.6 c -1.9,0 -3.2,-0.296806 -4,-0.989355 -0.8,-0.692549 -1.5,-1.978711 -1.9,-3.957422 l -15.5,-63.813433 -15.4,63.714497 c -0.5,1.978711 -1.1,3.264873 -1.9,3.957422 -0.8,0.692549 -2.2,0.989356 -4,0.989356 z m 128.5,2.67126 c -5.2,0 -10.4,-0.593614 -15.4,-1.78084 -5,-1.187227 -8.9,-2.473389 -11.5,-3.957422 -1.6,-0.89042 -2.7,-1.879776 -3.1,-2.770196 -0.4,-0.89042 -0.6,-1.879775 -0.6,-2.770195 v -5.045714 c 0,-2.077646 0.8,-3.067002 2.3,-3.067002 0.6,0 1.2,0.09894 1.8,0.296807 0.6,0.197871 1.5,0.593613 2.5,0.989355 3.4,1.484034 7.1,2.67126 11,3.462745 4,0.791484 7.9,1.187226 11.9,1.187226 6.3,0 11.2,-1.088291 14.6,-3.264873 3.4,-2.176582 5.2,-5.34252 5.2,-9.398877 0,-2.770196 -0.9,-5.045714 -2.7,-6.925489 -1.8,-1.879776 -5.2,-3.56168 -10.1,-5.144649 l -14.5,-4.4521 c -7.3,-2.275518 -12.7,-5.639327 -16,-10.091427 -3.3,-4.353164 -5,-9.201006 -5,-14.345655 0,-4.155293 0.9,-7.815909 2.7,-10.981846 1.8,-3.165938 4.2,-5.9361336 7.2,-8.1127158 3,-2.2755177 6.4,-3.9574221 10.4,-5.1446488 C 247.632,0.49467777 251.832,0 256.232,0 c 2.2,0 4.5,0.09893555 6.7,0.39574222 2.3,0.29680666 4.4,0.69254888 6.5,1.08829108 2,0.4946778 3.9,0.9893556 5.7,1.5829689 1.8,0.5936133 3.2,1.1872266 4.2,1.7808399 1.4,0.7914845 2.4,1.5829689 3,2.4733889 0.6,0.7914844 0.9,1.8797755 0.9,3.264873 v 4.649971 c 0,2.077647 -0.8,3.165938 -2.3,3.165938 -0.8,0 -2.1,-0.395742 -3.8,-1.187227 -5.7,-2.572324 -12.1,-3.858486 -19.2,-3.858486 -5.7,0 -10.2,0.89042 -13.3,2.770195 -3.1,1.879776 -4.7,4.748907 -4.7,8.805265 0,2.770195 1,5.144648 3,7.024424 2,1.879775 5.7,3.759551 11,5.441455 l 14.2,4.4521 c 7.2,2.275518 12.4,5.441456 15.5,9.497814 3.1,4.056357 4.6,8.706328 4.6,13.850977 0,4.254229 -0.9,8.112716 -2.6,11.476524 -1.8,3.363809 -4.2,6.331876 -7.3,8.706329 -3.1,2.473389 -6.8,4.254229 -11.1,5.540391 -4.5,1.385098 -9.2,2.077647 -14.3,2.077647 z M 271.83,141.0821 c -32.9,24.04134 -80.7,36.80403 -121.8,36.80403 -57.6,0 -109.5,-21.07328 -148.7,-56.09646 -3.1,-2.7702 -0.3,-6.52975 3.4,-4.35317 42.4,24.33815 94.7,39.07955 148.8,39.07955 36.5,0 76.6,-7.51911 113.5,-22.95305 5.5,-2.47339 10.2,3.56168 4.8,7.5191 z"
     id="path4"
     style="fill:#ffffff;fill-opacity:1;stroke-width:1" />
  <path
     d="M285.53 127c-4.2-5.4-27.8-2.6-38.5-1.3-3.2.4-3.7-2.4-.8-4.5 18.8-13.2 49.7-9.4 53.3-5 3.6 4.5-1 35.4-18.6 50.2-2.7 2.3-5.3 1.1-4.1-1.9 4-9.9 12.9-32.2 8.7-37.5z"
     id="path6"
     style="fill:#ffffff;fill-opacity:1" />
  <metadata
     id="metadata829">
    <rdf:RDF>
      <cc:Work
         rdf:about="">
        <dc:title>Amazon Web Services</dc:title>
      </cc:Work>
    </rdf:RDF>
  </metadata>
</svg>
