<svg id="Layer_1" data-name="Layer 1" xmlns="http://www.w3.org/2000/svg" viewBox="0 0 508.917 510.084"><path id="EarR" d="M373.408,254.367c69.82,40.75,105.86,106.47,105.86,147.58s-29,46.48-52.16,33.93c-23.61-12.8-34-56.53-34-56.53Z" style="fill:#fec08d"/><path id="EarR-2" d="M380.918,289.7c54.36,31.71,78.18,69.78,78.18,101.8,0,23.53-22.44,31.64-40.46,21.87-18.37-10-22.34-37.76-22.34-37.76Z" style="fill:#fb9b7a"/><path id="EarL" d="M142.738,249.257c-69.84,40.75-111,111.55-111,152.69s29,46.48,52.15,33.93c23.61-12.8,28.85-56.53,28.85-56.53Z" style="fill:#fec08d"/><path id="EarR-3" d="M130.088,289.7c-54.36,31.71-78.18,69.78-78.18,101.8,0,23.53,22.44,31.64,40.46,21.87,18.37-10,22.34-37.76,22.34-37.76Z" style="fill:#fb9b7a"/><path id="ShadowEarR" d="M481.308,401.717c0,41.15-31.56,46.49-54.71,33.94-7.91-4.29-14.33-12.62-19.37-21.81a126.7,126.7,0,0,1-6.6-14.15c6.22-16.79,9.62-29.84,9.62-48.79a155.554,155.554,0,0,0-5.14-39.76h1.3a162.1,162.1,0,0,1,7,84.18c4.87,8.41,10.93,15.89,18.28,19.87,17.68,9.58,36.64,5.75,47-14.91C478.748,400.767,481.308,401.247,481.308,401.717Z" style="fill:#dd9a63"/><path id="ShadowHair" d="M385.8,271.837a161.926,161.926,0,0,0-11.06-13.58l-1.36-9q5.07,3,9.93,6.12Z" style="fill:#dd9a63"/><circle id="Head" cx="258.698" cy="351.137" r="152.28" style="fill:#fec08d"/><path d="M403.408,275.027c-5.92,7.2-19,13.23-29.91,13.23a58.84,58.84,0,0,1-34.25-10.92,4.219,4.219,0,0,0-5.62.61c-6.63,7.5-16,14.06-26.41,14.06-11,0-20.84-6.68-27.52-15.1a4,4,0,0,0-6.74.94c-8.28,20.48-30.43,38-53.94,38-22.64,0-42.31-16.76-52.24-35.81a3.079,3.079,0,0,0-4-1.36c-7.72,3.51-16.36,4.76-25.49,4.76a35.654,35.654,0,0,1-23.57-9.3c-.34-2.27,14.88-20.23,53-34.32,35.65-5.65,71.06-7.87,106.18-5.91,0,0,75.37,4.64,103.84,37.92l19.67-4.21C401.138,269.267,404.568,272.627,403.408,275.027Z" style="fill:#dd9a63"/><path d="M405.648,351.127c0,85.75-64.4,150.14-150.14,150.14s-150.1-64.43-150.1-150.14a155.566,155.566,0,0,1,5.14-39.75h4.24a135.124,135.124,0,0,0-1.6,20.83c0,76.65,63.74,138.78,142.36,138.78s142.32-62.15,142.32-138.78a134.875,134.875,0,0,0-1.6-20.83h4.23A155.079,155.079,0,0,1,405.648,351.127Z" style="fill:#dd9a63"/><path d="M392.6,301.837h0a6.942,6.942,0,0,0-6.69,8.82,150.906,150.906,0,0,1,5.38,40.49c0,81.61-60.79,147.77-135.78,147.77s-135.78-66.18-135.78-147.79a150.906,150.906,0,0,1,5.38-40.49,7,7,0,0,0-6.7-8.8h0a6.931,6.931,0,0,0-6.64,4.9,150.888,150.888,0,0,0-6.36,44.39c0,85.75,64.4,150.14,150.14,150.14s150.1-64.43,150.1-150.14a150.846,150.846,0,0,0-6.41-44.41A7,7,0,0,0,392.6,301.837Z" style="fill:#fee4ce"/><path d="M478.748,401.717c0,37.14-22.67,44.15-45.11,36.94,16.67-3.92,31.24-14.6,31.24-42.06,0-42.79-33.43-89.51-88.81-126.49l-3.2-16C442.708,294.887,478.748,360.587,478.748,401.717Z" style="fill:#fee4ce"/><path id="ShadowEarR-2" d="M29.708,401.717c0,41.12,31.57,46.49,54.7,33.94,7.91-4.29,14.33-12.62,19.38-21.81a126.571,126.571,0,0,0,6.62-14.15c-6.22-16.79-9.62-29.84-9.62-48.79a155.643,155.643,0,0,1,5.14-39.76h-1.27a162.121,162.121,0,0,0-7,84.18c-4.87,8.41-10.93,15.89-18.28,19.87-17.68,9.58-36.63,5.75-47-14.91C32.268,400.767,29.708,401.247,29.708,401.717Z" style="fill:#dd9a63"/><path d="M32.268,401.717c0,37.12,22.68,44.12,45.14,36.94-16.67-3.92-31.24-14.6-31.24-42.06,0-42.79,33.44-89.51,88.81-126.49l3.2-16C68.308,294.887,32.268,360.587,32.268,401.717Z" style="fill:#fee4ce"/><circle id="EyeRWhite" cx="351.348" cy="313.917" r="21.91" style="fill:#fff"/><path id="EyeR" d="M373.278,313.907a21.92,21.92,0,0,1-42.06,8.67l8.67-8.67-8.67-8.67a21.92,21.92,0,0,1,42.06,8.67Z"/><circle id="EyeLWhite" cx="159.648" cy="313.917" r="21.91" style="fill:#fff"/><path id="EyeL" d="M181.568,313.907a21.92,21.92,0,0,1-42,8.67l8.67-8.67-8.67-8.67a21.92,21.92,0,0,1,42,8.67Z"/><circle id="Cheeks" cx="344.218" cy="373.267" r="14.79" style="fill:#fb9b7a"/><circle id="Cheeks-2" cx="166.788" cy="372.797" r="14.79" transform="translate(-216.894 512.738) rotate(-85.935)" style="fill:#fb9b7a"/><path id="NoseRed" d="M283.978,373.9a36.505,36.505,0,0,1-13.39,10.42,35.7,35.7,0,0,1-8.52,2.67,36.431,36.431,0,0,1-35-13.09,36.45,36.45,0,0,1,56.93,0Z" style="fill:#fb9b7a"/><circle id="NoseHighlight" cx="248.108" cy="373.267" r="7.39" style="fill:#fff"/><path id="Mouth" d="M310.538,424.957a36.451,36.451,0,0,1-55,13.88,36.462,36.462,0,0,1-55-13.88c7.72,7.14,18.74,11.66,31,11.79h1.14a21.859,21.859,0,0,0,14.73-6.31,22.44,22.44,0,0,0,2.66-3.17,21.911,21.911,0,0,0-5.61-30.474q-.458-.315-.93-.606c-.2-.13-.41-.26-.63-.38a29.223,29.223,0,0,1-5.63-4.15A37.238,37.238,0,0,1,227,373.837h0a36.491,36.491,0,0,0,35.05,13.13,35.7,35.7,0,0,0,8.52-2.67,36.607,36.607,0,0,0,13.44-10.46h0a37.182,37.182,0,0,1-10.31,17.78,29.236,29.236,0,0,1-5.64,4.16l-.63.38a21.92,21.92,0,0,0,11,40.56h1.14C291.808,436.617,302.828,432.107,310.538,424.957Z"/><path d="M461.788,236.487c10.37,10.65,21.87,25.19,21.87,41.23,0,20.9-16,39.27-32.32,49.79a256.374,256.374,0,0,0-53-57.59c-8.78,5.16-13.89,5.56-24.8,5.56-14.19,0-27.2-7.55-37.39-15.88-6.66,8.66-17.12,17.3-28.89,17.3-13.73,0-25.68-10.66-31.9-21.87-7.65,23.79-30,43.56-56.3,43.56-23.7,0-42.1-13.43-51.53-33.56-8.37,4.54-20,7.12-30.21,7.12-9.71,0-14.53-1.38-21.84-4.44q-5.22,4-10.15,8.3c-2.1,1.81-4.15,3.64-6.17,5.5a258.277,258.277,0,0,0-29.93,32.65h-5.42c-20.13,0-31.34-16.31-31.34-36.45a36.46,36.46,0,0,1,26.41-35,95.7,95.7,0,0,1-12.13-46.87c0-53.07,37.91-91,91-91,7.46,0,19.84.85,26.81,2.45v-7.56c0-53.08,37.91-91,91-91a96.128,96.128,0,0,1,88.85,59.49,58.839,58.839,0,0,1,29.17-7.69c32.66,0,54,21.37,54,54,0,3.09-.24,11.24-.7,14.2,4.53-1.11,14.38-1.7,19.25-1.7,32.67,0,54,21.37,54,54A59.169,59.169,0,0,1,461.788,236.487Z" style="fill:#762dd7"/><path d="M397.108,159.837h-2.1a1,1,0,0,1-.66-1.82,44.158,44.158,0,0,0,17-34.64c0-24.77-20.8-44.84-46.47-44.84a47.418,47.418,0,0,0-24.1,6.5,6.271,6.271,0,0,1-9.26-3.76c-9.14-35-37.4-60.56-70.85-60.56-40.86,0-74,38.06-74,85a98.317,98.317,0,0,0,.7,11.72,7.61,7.61,0,0,1-10.5,7.91A76.42,76.42,0,0,0,79.2,230.2a1.19,1.19,0,0,0,2.25-.64c-.13-1.58-.2-3.17-.2-4.78a54.5,54.5,0,0,1,5-22.95,2.49,2.49,0,0,1,4.75,1v.01a52.772,52.772,0,0,0,67.88,48.65,2,2,0,0,0,1.45-2.2,61.131,61.131,0,0,1-.44-7.32c0-1.53.06-3.06.17-4.57a1.12,1.12,0,0,1,2.17-.27c7.28,21.17,29,36.15,54.71,36.65,32.49.64,55.42-23.9,57.21-48.55a1.01,1.01,0,1,1,2-.28,33.827,33.827,0,0,1,2,13.93,2.443,2.443,0,0,0,.19,1.16,31.621,31.621,0,0,0,28.87,18.71c16.88,0,29.42-9.2,33.64-21.92a1.24,1.24,0,0,1,2.41.23,36.824,36.824,0,0,1,.4,5.41,35.965,35.965,0,0,1-.94,8.23,2.142,2.142,0,0,0,.94,2.28,46.37,46.37,0,0,0,64-63.87,1.57,1.57,0,0,1,2.22-2.13,49.7,49.7,0,0,1,11.9,11.07,2.59,2.59,0,0,0,4.6-1.05,32,32,0,0,0,.56-6.61C426.648,174.527,412.988,160.537,397.108,159.837Zm-263.7,0c15-2.18,22.41,2.75,22.14,2.6h-1.06a34.34,34.34,0,0,0-15.85,64.8,1.52,1.52,0,0,1-.72,2.85h0a36.17,36.17,0,0,1-36.141-36.2c0-.081,0-.161,0-.241,0-3.27,2.13-13.76,7.1-20.18C114.158,166.987,125.648,160.907,133.408,159.837Zm232-7.7a1.025,1.025,0,1,1-2,.45h0a36.939,36.939,0,0,0-43.33-18.36,2.129,2.129,0,0,0-1.452,2.639l.012.041a44.869,44.869,0,0,1,2.32,16.35,1.13,1.13,0,0,1-2.22.24,54.55,54.55,0,0,0-105.17.45,1.47,1.47,0,0,1-2.88-.33v-3.55c.76-31.57,26.59-55.64,58.17-56.15a59.056,59.056,0,0,1,48.4,23.92,1,1,0,0,0,1.11.36,36.421,36.421,0,0,1,11.31-1.54c19.91.4,36,15.48,35.69,35.39Z" style="fill:#af62f1"/><path d="M459.1,391.5c0,10-4.08,17.26-10.15,21.49,4-4.07,6.54-10,6.54-17.56,0-24.46-15-52.67-48.48-78.38a156.372,156.372,0,0,1-3.43,80.88q-1.119,3.6-2.44,7.11a155.29,155.29,0,0,1-297.12-88c-33.48,25.71-48.5,53.93-48.5,78.39,0,7.6,2.53,13.49,6.54,17.56-6.07-4.23-10.15-11.46-10.15-21.49,0-27.15,17.12-58.63,55.45-86.91h0c1.66-1.23,3.37-2.45,5.11-3.66a3.13,3.13,0,0,1,4.73,3.64c-.48,1.34-1,2.69-1.39,4a136.48,136.48,0,0,0-6.75,42.52c0,78,65.57,141.29,146.45,141.29,66.66,0,122.91-43,140.63-101.75.86-2.82,1.62-5.66,2.29-8.55a137.463,137.463,0,0,0-3.22-73.5c-.44-1.36-.91-2.71-1.39-4.06a3.13,3.13,0,0,1,4.73-3.64c1.74,1.22,3.45,2.44,5.11,3.67C441.988,332.837,459.1,364.357,459.1,391.5Z"/><path d="M459.1,391.5c0,10-4.08,17.26-10.15,21.49,4-4.07,6.54-10,6.54-17.56,0-24.46-15-52.67-48.48-78.38a156.372,156.372,0,0,1-3.43,80.88q-1.119,3.6-2.44,7.11a155.29,155.29,0,0,1-297.12-88c-33.48,25.71-48.5,53.93-48.5,78.39,0,7.6,2.53,13.49,6.54,17.56-6.07-4.23-10.15-11.46-10.15-21.49,0-27.15,17.12-58.63,55.45-86.91h0c1.66-1.23,3.37-2.45,5.11-3.66a3.13,3.13,0,0,1,4.73,3.64c-.48,1.34-1,2.69-1.39,4a136.48,136.48,0,0,0-6.75,42.52c0,78,65.57,141.29,146.45,141.29,66.66,0,122.91-43,140.63-101.75.86-2.82,1.62-5.66,2.29-8.55a137.463,137.463,0,0,0-3.22-73.5c-.44-1.36-.91-2.71-1.39-4.06a3.13,3.13,0,0,1,4.73-3.64c1.74,1.22,3.45,2.44,5.11,3.67C441.988,332.837,459.1,364.357,459.1,391.5Z"/><path d="M469.488,235.447a2,2,0,0,0-.954,2.662,1.979,1.979,0,0,0,.264.418,59.143,59.143,0,0,1-12.35,89q-3.66-5.511-7.78-11c20.55-11.72,37.29-55.66,3.39-83.35a3,3,0,0,1,.83-5.09c71.85-26.73,36.77-117.86-27.64-93.27a3,3,0,0,1-3.92-3.5c10.43-41.65-24.8-80.57-78.71-55.19a3,3,0,0,1-4.12-1.93c-21.36-82.11-158.32-93.26-165.73,36.46a3,3,0,0,1-3.191,2.8,3.046,3.046,0,0,1-.649-.115c-68.96-21.79-145.52,42.76-99.25,128.8a3,3,0,0,1-2.37,4.35c-41,2.93-39.08,60.77,5,57.54-2.87,3.35-5.6,6.74-8.21,10.13h0a36.45,36.45,0,0,1-12.54-70.79,2,2,0,0,0,1.165-2.578,1.753,1.753,0,0,0-.075-.172,96.19,96.19,0,0,1,104.42-138.9,2,2,0,0,0,2.313-1.629,2.116,2.116,0,0,0,.027-.251h0a96.12,96.12,0,0,1,184.13-38.68,1.941,1.941,0,0,0,2.557.994c.039-.017.076-.035.113-.054a59.16,59.16,0,0,1,86.47,52.47,58.013,58.013,0,0,1-.34,6.36,1.941,1.941,0,0,0,1.692,2.16,1.967,1.967,0,0,0,.6-.02,59.16,59.16,0,0,1,34.86,112.38Z"/><path d="M430.158,229.837a.75.75,0,0,1,1.43.4,59.13,59.13,0,0,1-93.36,36.08l-.34-.25a2.289,2.289,0,0,0-3.13.34,36.443,36.443,0,0,1-56.79-2.21,2.48,2.48,0,0,0-4.29.53,59.161,59.161,0,0,1-107.44,3.9,1.64,1.64,0,0,0-2.207-.712l-.023.012a57.163,57.163,0,0,1-26.69,6.27,59.161,59.161,0,0,1-54.38-35.87.75.75,0,0,1,1.3-.72,64,64,0,0,0,53.08,28.23c16.15,0,24.79-4.31,29.23-6.91a2.69,2.69,0,0,1,3.68.965l.02.035c.62,1.12,1.33,2.35,1.77,3.06,26,42.16,79,41.91,99.59-14.73a2.52,2.52,0,0,1,4.62-.29c14.3,28.18,39.21,32.91,55,12.27.62-.81,1.22-1.66,1.81-2.55a3,3,0,0,1,4.163-.821c.029.019.058.04.087.061l.22.15a60.859,60.859,0,0,0,92.65-27.24Z"/><path d="M484.408,401.947c0,41.14-34.12,51.59-57.27,39-11.9-6.44-20.43-22-26-35.95-2.08-5.22-3.74-10.21-5-14.37.86-2.82,1.62-5.66,2.29-8.55a151.5,151.5,0,0,0,5.15,15.81c4.59,11.74,11.78,25.2,21.89,30.68,19.23,10.43,47.58,1.74,47.58-32.43,0-30-31.39-85.95-78.24-122.09-2.64-2.05-5.32-4-8-5.92l-1-.67a60.328,60.328,0,0,0,10.43-3.17q3.7,2.75,7.25,5.59C454.878,311.027,484.408,367.117,484.408,401.947Z"/><path d="M128.628,265.217c-1.47,1-2.93,1.95-4.37,2.95s-3.11,2.2-4.64,3.33c-48.73,36-81.65,94-81.65,124.68,0,34.17,28.34,42.86,47.57,32.43,10.11-5.48,17.3-18.94,21.89-30.68a151.56,151.56,0,0,0,5.16-15.81c.67,2.89,1.42,5.73,2.28,8.55-1.26,4.16-2.92,9.15-5,14.37-5.54,13.9-14.07,29.51-26,35.95-23.14,12.55-57.27,2.1-57.27-39,0-35.46,30.57-92.95,83.73-134.24q3.36-2.61,6.84-5.13A62.739,62.739,0,0,0,128.628,265.217Z"/><path d="M365.318,153.447a.91.91,0,0,1-1.81.12c-3.14-15.95-17.89-30.17-36.34-29.81a43.1,43.1,0,0,0-5,.33,36.841,36.841,0,0,0-6.24,1.4,5.083,5.083,0,0,1-5.44-1.63c-.69-.83-1.4-1.64-2.13-2.44a59.2,59.2,0,0,0-88.15,1.27.91.91,0,0,1-1.48-1.06,59.15,59.15,0,0,1,96.95-7.38,5.15,5.15,0,0,0,5.15,1.73,36.479,36.479,0,0,1,44.5,34.06A22.82,22.82,0,0,1,365.318,153.447Z"/><path d="M435.628,207.557a40.69,40.69,0,0,0,.74-9.55,39.725,39.725,0,0,0-47.5-37.23,1.07,1.07,0,0,1-.74-2,36.46,36.46,0,0,1,49.48,49.5,1.07,1.07,0,0,1-1.98-.72Z"/><path d="M107.958,210.347a39.72,39.72,0,0,1,46.75-46.77,1.07,1.07,0,0,0,.75-2,36.45,36.45,0,0,0-49.48,49.49,1.07,1.07,0,0,0,1.98-.72Z"/></svg>