<svg id="Layer_1" data-name="Layer 1" xmlns="http://www.w3.org/2000/svg" viewBox="0 0 497.721 498.579"><g id="Layer_2" data-name="Layer 2"><path d="M473.8,395.025c0,40.807-30.641,47.973-53.6,35.526-11.8-6.4-20.265-24.012-25.758-37.793-21.725,58.687-78.2,95.183-144.44,95.183s-122.72-36.5-144.45-95.188c-5.489,13.781-13.949,31.4-25.753,37.8C56.841,443,26.2,435.834,26.2,395.027S67.02,284,136.293,243.587c0,0,66.858-31.6,113.716-31.6s114.773,31.6,114.773,31.6C434.054,284,473.8,354.223,473.8,395.025Z" style="fill:#fec08d"/><path d="M451.933,384.662c0,23.338-22.252,31.378-40.122,21.689-6.686-3.621-11.449-9.627-14.8-15.775a154.834,154.834,0,0,0-.071-92.119C434.961,326.508,451.933,357.743,451.933,384.662Z" style="fill:#fb9b7a"/><path d="M96.022,344.626A153.772,153.772,0,0,0,103,390.571c-3.353,6.148-8.116,12.154-14.8,15.78C70.321,416.04,48.069,408,48.069,384.662c0-26.924,16.977-58.154,55-86.21A153.757,153.757,0,0,0,96.022,344.626Z" style="fill:#fb9b7a"/><path id="EyeR" d="M366.814,307.707a21.744,21.744,0,0,1-41.715,8.6l8.6-8.6-8.6-8.6a21.745,21.745,0,0,1,41.715,8.6Z"/><path id="EyeL" d="M176.675,307.707a21.744,21.744,0,0,1-41.715,8.6l8.6-8.6-8.6-8.6a21.745,21.745,0,0,1,41.715,8.6Z"/><path id="EyeRWhite" d="M325.1,299.123l8.607,8.575L325.1,316.3A21.723,21.723,0,0,1,325.1,299.123Z" style="fill:#fff"/><path id="EyeLWhite" d="M134.985,299.154l8.575,8.544-8.575,8.575a21.113,21.113,0,0,1-1.771-8.544A21.367,21.367,0,0,1,134.985,299.154Z" style="fill:#fff"/><circle id="Cheeks" cx="337.996" cy="366.585" r="14.665" style="fill:#fb9b7a"/><circle id="Cheeks-2" cx="162.015" cy="366.113" r="14.665" transform="translate(-214.662 501.767) rotate(-85.935)" style="fill:#fb9b7a"/><path id="NoseRed" d="M278.241,367.208a36.336,36.336,0,0,1-13.275,10.338,35.865,35.865,0,0,1-8.45,2.647,36.456,36.456,0,0,1-13.026,0,35.7,35.7,0,0,1-8.44-2.648,36.123,36.123,0,0,1-13.275-10.337,36.153,36.153,0,0,1,56.466,0Z" style="fill:#fb9b7a"/><circle id="NoseHighlight" cx="242.67" cy="366.585" r="7.333" style="fill:#fff"/><path id="Mouth" d="M304.591,417.85A36.16,36.16,0,0,1,250,431.617a36.159,36.159,0,0,1-54.589-13.772c7.654,7.086,18.59,11.57,30.759,11.7.188,0,.375,0,.568,0s.375,0,.563,0a21.692,21.692,0,0,0,14.7-6.259,22.167,22.167,0,0,0,2.643-3.15,21.739,21.739,0,0,0-5.577-30.234q-.445-.306-.906-.591c-.208-.126-.416-.253-.629-.375a29.075,29.075,0,0,1-5.585-4.114,36.959,36.959,0,0,1-10.227-17.649.02.02,0,0,1,.015,0,36.109,36.109,0,0,0,13.305,10.372,35.7,35.7,0,0,0,8.44,2.648,36.456,36.456,0,0,0,13.026,0,35.865,35.865,0,0,0,8.45-2.647,36.313,36.313,0,0,0,13.3-10.373h.01a36.9,36.9,0,0,1-10.226,17.641,28.821,28.821,0,0,1-5.589,4.124c-.213.122-.421.249-.629.375a21.754,21.754,0,0,0-7.052,29.946c.184.3.376.591.574.879a22.1,22.1,0,0,0,2.643,3.15,21.684,21.684,0,0,0,14.7,6.259c.187,0,.375,0,.563,0s.38,0,.568,0C286.006,429.415,296.937,424.936,304.591,417.85Z"/><path d="M455.405,228.779a58.455,58.455,0,0,1,16.617,40.9c0,20.731-11.821,37.883-28.052,48.317-13.229-19.883-30.942-38.771-52.565-56.057-8.7,5.118-13.508,8.05-24.337,8.05a58.378,58.378,0,0,1-37.079-13.21,36.151,36.151,0,0,1-60.29-4.53,58.678,58.678,0,0,1-108.985,6.874,58.4,58.4,0,0,1-27.928,7.06c-9.632,0-13.386-2.323-21.406-6.431q-5.173,4.017-10.063,8.232-3.12,2.694-6.117,5.453c-11.2,10.3-28.825,29.19-28.926,29.19-19.965,0-38.285-12.979-38.285-32.949,0-16.51,11.513-27.739,26.639-32.066-7.669-13.731-12.482-32.256-12.482-49.1,0-52.646,42.586-90.047,91.056-89.988,7.4.009,17.8.842,24.713,2.434-.02-.811-.03-3.757-.03-4.569,0-52.646,39.477-93.185,92.123-93.185,39.762,0,72.771,24.347,87.065,58.946,8.532-4.849,22.713-8.5,33.2-7.619,30.348,2.551,48.49,21.049,51.192,54.393a81.511,81.511,0,0,1-.389,13.135c4.5-1.106,9.162-2.334,14-2.334,32.4,0,58.385,21.726,58.385,54.123A58.675,58.675,0,0,1,455.405,228.779Z" style="fill:#af62f1"/><path d="M451.933,384.662c0,9.947-4.043,17.119-10.069,21.319,3.982-4.043,6.488-9.881,6.488-17.418,0-24.261-14.887-52.245-48.086-77.744a155.04,155.04,0,0,1-3.4,80.219q-1.119,3.568-2.42,7.056a154.026,154.026,0,0,1-294.7-87.28c-33.2,25.5-48.1,53.488-48.1,77.749,0,7.537,2.5,13.375,6.487,17.418-6.026-4.2-10.068-11.372-10.068-21.319,0-26.924,16.977-58.154,54.994-86.2h0q2.476-1.825,5.073-3.634a3.1,3.1,0,0,1,4.69,3.614q-.722,2-1.383,4.017a135.405,135.405,0,0,0-6.7,42.177c0,77.394,65.033,137.022,145.257,137.022,66.113,0,121.909-39.5,139.484-97.813q1.272-4.185,2.263-8.476a136.291,136.291,0,0,0-3.191-72.9q-.659-2.023-1.381-4.019a3.1,3.1,0,0,1,4.691-3.613q2.6,1.809,5.075,3.64C434.961,326.513,451.933,357.743,451.933,384.662Z"/><path d="M462.237,229.879a1.94,1.94,0,0,0-.683,3.058,58.665,58.665,0,0,1-12.248,88.257q-3.63-5.463-7.715-10.911c20.378-11.622,33.872-52.1.25-79.563a2.959,2.959,0,0,1,.825-5.049c66.826-27.353,31.613-114.866-24.31-95.617a3,3,0,0,1-3.889-3.473C420.091,84.874,380.991,49.7,336.4,71.848a2.946,2.946,0,0,1-3.91-1.442,2.831,2.831,0,0,1-.171-.472C312.2,3.1,176.68-9.33,167.946,106.119a2.992,2.992,0,0,1-3.81,2.655C100.4,92.166,29.979,156.374,68.8,239.624a2.965,2.965,0,0,1-2.346,4.32C25.78,246.844,27.691,298,71.428,294.8c-2.84,3.322-8.661,9.787-11.253,13.155h-.008a36.159,36.159,0,0,1-12.439-70.211,1.934,1.934,0,0,0,1.2-2.458,1.965,1.965,0,0,0-.113-.263A95.4,95.4,0,0,1,152.37,97.246a1.929,1.929,0,0,0,2.273-1.509,1.906,1.906,0,0,0,.038-.391v-.024a95.338,95.338,0,0,1,182.638-38.3,1.922,1.922,0,0,0,2.534.981c.039-.018.077-.036.115-.056a58.681,58.681,0,0,1,85.76,52.042,59.275,59.275,0,0,1-.335,6.318,1.927,1.927,0,0,0,2.269,2.12,58.673,58.673,0,0,1,34.575,111.452Z"/><path d="M423.233,224.322a.74.74,0,0,1,1.419.4,58.651,58.651,0,0,1-92.6,35.783c-.084-.061-.2-.149-.339-.253a2.28,2.28,0,0,0-3.1.341,36.148,36.148,0,0,1-56.329-2.2,2.465,2.465,0,0,0-4.26.528,58.679,58.679,0,0,1-106.562,3.871,1.613,1.613,0,0,0-2.168-.713l-.041.021a56.688,56.688,0,0,1-26.468,6.213,58.666,58.666,0,0,1-53.937-35.571.741.741,0,0,1,1.293-.71,63.467,63.467,0,0,0,52.645,27.962c16.016,0,24.587-4.266,28.987-6.849a2.659,2.659,0,0,1,3.64.945l.027.048c.622,1.108,1.32,2.329,1.757,3.031,25.823,41.821,78.312,41.573,98.782-14.608a2.5,2.5,0,0,1,4.581-.289c14.178,27.95,38.886,32.648,54.534,12.168q.925-1.2,1.8-2.525a2.95,2.95,0,0,1,4.084-.846c.044.029.087.06.13.091l.212.155a60.372,60.372,0,0,0,91.91-26.993Z"/><path d="M477.006,395.025c0,40.807-33.843,51.175-56.8,38.727-11.8-6.4-20.265-21.877-25.758-35.658-2.064-5.184-3.708-10.13-4.956-14.259q1.272-4.185,2.263-8.476a150.76,150.76,0,0,0,5.113,15.679c4.55,11.646,11.681,24.991,21.714,30.429,19.072,10.343,44.076,1.73,44.076-32.164,0-29.719-28.027-85.246-74.489-121.092q-3.927-3.043-7.989-5.869c-.325-.228-.65-.451-.979-.669a59.784,59.784,0,0,0,10.347-3.14q3.668,2.716,7.188,5.539C447.748,304.849,477.006,360.479,477.006,395.025Z"/><path d="M124.163,259.411q-2.192,1.437-4.337,2.931-2.32,1.614-4.595,3.3C66.9,301.357,37.347,358.862,37.347,389.3c0,33.894,25,42.507,44.076,32.164,10.033-5.438,17.165-18.783,21.715-30.429a150.76,150.76,0,0,0,5.113-15.679q1,4.291,2.262,8.476c-1.248,4.129-2.891,9.075-4.955,14.259C100.064,411.873,91.6,427.354,79.8,433.75,56.843,446.2,23,435.83,23,395.023c0-35.167,30.317-92.19,83.045-133.144q3.332-2.588,6.781-5.088A62.693,62.693,0,0,0,124.163,259.411Z"/><path d="M358.922,148.559a.906.906,0,0,1-1.794.113c-3.119-15.813-17.743-29.916-36.051-29.568a42.957,42.957,0,0,0-4.941.33,36.486,36.486,0,0,0-6.193,1.4,5.034,5.034,0,0,1-5.395-1.62q-1.024-1.238-2.117-2.418a58.7,58.7,0,0,0-87.421,1.255A.909.909,0,0,1,213.539,117a58.667,58.667,0,0,1,96.153-7.32A5.1,5.1,0,0,0,314.8,111.4a36.183,36.183,0,0,1,44.142,33.784Q359.011,146.885,358.922,148.559Z"/><path d="M428.654,202.22a39.4,39.4,0,0,0-46.374-46.392,1.062,1.062,0,0,1-.739-1.965,36.161,36.161,0,0,1,49.078,49.1,1.062,1.062,0,0,1-1.965-.743Z"/><path d="M103.246,204.693A39.406,39.406,0,0,1,149.621,158.3a1.061,1.061,0,0,0,.739-1.964,36.161,36.161,0,0,0-49.079,49.1,1.062,1.062,0,0,0,1.965-.743Z"/></g></svg>