<svg id="Layer_4" data-name="Layer 4" xmlns="http://www.w3.org/2000/svg" viewBox="0 0 107.444 107.444"><path d="M24.69,50.108a6.348,6.348,0,0,1,8.862-9.082l13.1,12.981.135-45.695a6.364,6.364,0,0,1,12.711.1l-.135,45.34L72.579,40.689h.034a6.356,6.356,0,1,1,8.912,9.064L57.387,73.588a6.358,6.358,0,0,1-8.913,0Z" style="fill:#ffffff;fill-rule:evenodd"/><path d="M104.111,73.656c0,.219,0,.439-.017.658V99.06a6.314,6.314,0,0,1-1.941,4.288A6.386,6.386,0,0,1,97.8,105.12H9.329a6.34,6.34,0,0,1-6.3-6.06H2.948V74.2a6.364,6.364,0,0,1,12.711.118v18.1H91.383V74.2a6.37,6.37,0,0,1,12.728-.54Z" style="fill:#ffffff;fill-rule:evenodd"/></svg>