<svg id="Layer_4" data-name="Layer 4" xmlns="http://www.w3.org/2000/svg" viewBox="0 0 107.444 107.444"><path d="M53.546,3.667A50.056,50.056,0,1,1,3.49,53.722h0A50.055,50.055,0,0,1,53.546,3.667ZM64.839,41.579a3.762,3.762,0,0,1,5.274,5.367h0l-14.3,14.122a3.772,3.772,0,0,1-5.284,0L36.44,47.153a3.761,3.761,0,0,1,5.253-5.377l7.76,7.688.083-27.073a3.771,3.771,0,0,1,7.532.062l-.082,26.866,7.832-7.74ZM23.561,76.154V61.42a3.772,3.772,0,0,1,7.533.073V72.216H75.956V61.42a3.772,3.772,0,0,1,7.537-.316,3.88,3.88,0,0,1,0,.389V76.154h0a3.772,3.772,0,0,1-3.73,3.595H27.343a3.761,3.761,0,0,1-3.73-3.595Z" style="fill:#ffffff;fill-rule:evenodd"/></svg>