<svg id="Layer_6" data-name="Layer 6" xmlns="http://www.w3.org/2000/svg" viewBox="0 0 107.444 107.444"><path d="M82.587,5.836A5.415,5.415,0,0,0,78.535,4.23a5.264,5.264,0,0,0-3.971,1.775L65.613,15.3,90.691,39.534l9.031-9.46a5.529,5.529,0,0,0,1.518-4.052,5.371,5.371,0,0,0-1.687-3.971L82.587,5.836ZM39.663,92.668C36.37,93.765,33,94.782,29.7,95.88s-6.586,2.2-9.968,3.293c-7.853,2.535-12.164,3.971-13.092,4.221S6.3,100.021,8.241,92.417l6.248-23.9.516-.533L39.671,92.651l-.008.017ZM24.134,58.5l34.7-36.175L83.911,46.475,48.792,83.16,24.134,58.5Z" style="fill:#ffffff;fill-rule:evenodd"/></svg>