<svg id="Layer_1" data-name="Layer 1" xmlns="http://www.w3.org/2000/svg" viewBox="0 0 128 128"><path d="M15.805,2,3.558,9.654V21.9l12.247,7.655L28.052,21.9V9.654ZM26.521,21.327l-10.716,6.7V17.309l10.716-6.7Z" style="fill:#fff"/><rect x="37.237" y="10.611" width="87.205" height="10.333" rx="3.847" style="fill:#fff"/><path d="M15.805,98.444,3.558,106.1v12.247L15.805,126l12.247-7.654V106.1Zm10.716,19.328-10.716,6.7V113.753l10.716-6.7Z" style="fill:#fff"/><rect x="37.237" y="107.056" width="87.205" height="10.333" rx="3.847" style="fill:#fff"/><path d="M15.805,66.3,3.558,73.951V86.2l12.247,7.654L28.052,86.2V73.951ZM26.521,85.623l-10.716,6.7V81.605l10.716-6.7Z" style="fill:#fff"/><rect x="37.237" y="74.907" width="87.205" height="10.333" rx="3.847" style="fill:#fff"/><path d="M15.805,34.148,3.558,41.8V54.049L15.805,61.7l12.247-7.655V41.8ZM26.521,53.475l-10.716,6.7V49.457l10.716-6.7Z" style="fill:#fff"/><rect x="37.237" y="42.759" width="87.205" height="10.333" rx="3.847" style="fill:#fff"/></svg>