<svg id="Layer_1" data-name="Layer 1" xmlns="http://www.w3.org/2000/svg" viewBox="0 0 128 128"><path d="M6.988,58.51H121.012A4.988,4.988,0,0,1,126,63.5h0a4.988,4.988,0,0,1-4.988,4.988H6.988A4.988,4.988,0,0,1,2,63.5H2A4.988,4.988,0,0,1,6.988,58.51Z" style="fill:#fff"/><path d="M6.988,2H121.012A4.988,4.988,0,0,1,126,6.988h0a4.988,4.988,0,0,1-4.988,4.987H6.988A4.988,4.988,0,0,1,2,6.988H2A4.988,4.988,0,0,1,6.988,2Z" style="fill:#fff"/><rect x="2" y="116.025" width="124" height="9.975" rx="4.988" style="fill:#fff"/></svg>