<svg id="Layer_1" data-name="Layer 1" xmlns="http://www.w3.org/2000/svg" viewBox="0 0 128 41.083"><path d="M21.363,14.439V24.728h3.43V14.439Zm0,13.718V31.6h3.43V28.157Zm0,0V31.6h3.43V28.157Zm0-13.718V24.728h3.43V14.439Zm0,0V24.728h3.43V14.439Zm0,13.718V31.6h3.43V28.157Zm0,3.439h3.43V28.157h-3.43Zm0-17.157V24.728h3.43V14.439ZM123.312,1.272H4.688A3.578,3.578,0,0,0,1.111,4.849V36.234a3.578,3.578,0,0,0,3.577,3.577H123.312a3.578,3.578,0,0,0,3.577-3.577V4.849A3.578,3.578,0,0,0,123.312,1.272ZM40.171,35.193a.95.95,0,0,1-.491.137H6.476a.948.948,0,0,1-.953-.953.88.88,0,0,1,.138-.491l16.6-27.671a.947.947,0,0,1,1.306-.325.964.964,0,0,1,.335.325l16.6,27.671A.946.946,0,0,1,40.171,35.193Zm21.756-2.074a2.208,2.208,0,0,1-2.211,2.211H47.1a2.2,2.2,0,0,1-2.2-2.211V7.964a2.2,2.2,0,0,1,2.2-2.211H59.716a2.209,2.209,0,0,1,2.211,2.211Zm20.34,0a2.2,2.2,0,0,1-2.211,2.211H67.449a2.208,2.208,0,0,1-2.211-2.211V7.964a2.209,2.209,0,0,1,2.211-2.211H80.056a2.2,2.2,0,0,1,2.211,2.211Zm20.351,0a2.208,2.208,0,0,1-2.211,2.211H87.79a2.207,2.207,0,0,1-2.211-2.211V7.964A2.208,2.208,0,0,1,87.79,5.753h12.617a2.209,2.209,0,0,1,2.211,2.211Zm20.34,0a2.207,2.207,0,0,1-2.211,2.211H108.13a2.2,2.2,0,0,1-2.2-2.211V7.964a2.2,2.2,0,0,1,2.2-2.211h12.617a2.208,2.208,0,0,1,2.211,2.211ZM21.363,31.6h3.43V28.157h-3.43Zm0-6.868h3.43V14.439h-3.43Zm0-10.289V24.728h3.43V14.439Zm0,13.718V31.6h3.43V28.157Zm0,0V31.6h3.43V28.157Zm0-13.718V24.728h3.43V14.439Z" style="fill:#fff"/><rect x="46.745" y="7.767" width="13.325" height="25.549" rx="1.474" style="fill:#fff"/></svg>