<svg id="Layer_1" data-name="Layer 1" xmlns="http://www.w3.org/2000/svg" viewBox="0 0 128 128"><path d="M112.75,55.94v53.81a3,3,0,0,1-3,3H18.25a3,3,0,0,1-3-3V92.41L2,79.16v35.95A10.9,10.9,0,0,0,12.89,126H115.11A10.9,10.9,0,0,0,126,115.11V42.69ZM15.25,45.77V18.25a3,3,0,0,1,3-3h86.28l1.95-1.95A17.3,17.3,0,0,1,125.5,9.63,10.886,10.886,0,0,0,115.11,2H12.89A10.9,10.9,0,0,0,2,12.89V46.32a17.3,17.3,0,0,1,13.25-.55Z" style="fill:#fff"/><path d="M45.765,105.765a7.272,7.272,0,0,1-5.157-2.137L4.137,67.157A7.293,7.293,0,0,1,14.451,56.843L45.765,88.156l67.784-67.784a7.293,7.293,0,1,1,10.314,10.315h0L50.922,103.628A7.272,7.272,0,0,1,45.765,105.765Z" style="fill:#fff"/></svg>