<svg id="Layer_1" data-name="Layer 1" xmlns="http://www.w3.org/2000/svg" viewBox="0 0 128 128"><path d="M88.057,43.868C86.994,40.209,81.848,29.59,69.1,29.59c-11.947,0-17.233,9.649-18.4,12.667a18.608,18.608,0,0,0-6.146-1.032,19.017,19.017,0,0,0,.015,38.032h9.946a3.206,3.206,0,1,0,0-6.412H44.567a12.589,12.589,0,0,1,0-25.177,12.386,12.386,0,0,1,6.537,1.86c2.535,1.549,4.426.062,4.817-2.221a13.362,13.362,0,0,1,26.4,0A3.2,3.2,0,0,0,85.272,50a11.452,11.452,0,0,1-.688,22.878H74.8a3.206,3.206,0,0,0,0,6.412h9.789a17.9,17.9,0,0,0,3.472-35.42Z" style="fill:#fff"/><path d="M73.8,68.78a3.207,3.207,0,0,0,.3-4.5l-7.6-8.788A3.2,3.2,0,0,0,64.1,54.392a3.139,3.139,0,0,0-2.393,1.095l-7.6,8.788a3.223,3.223,0,0,0,.313,4.5,3.156,3.156,0,0,0,4.454-.293l.018-.02,2.033-2.349V95.2a3.175,3.175,0,1,0,6.349,0v-29.1l2.049,2.362a3.153,3.153,0,0,0,4.446.335Z" style="fill:#fff"/><path d="M123.917,125.917h-4v-4h2v-2h4v4A2,2,0,0,1,123.917,125.917Z" style="fill:#fff"/><path d="M112.461,125.917h-7.455v-4h7.455Zm-14.911,0H90.1v-4H97.55Zm-14.911,0H75.184v-4h7.455Zm-14.911,0H60.272v-4h7.456Zm-14.912,0H45.361v-4h7.455Zm-14.911,0H30.45v-4h7.455Zm-14.911,0H15.539v-4h7.455Z" style="fill:#fff"/><path d="M8.083,125.917h-4a2,2,0,0,1-2-2v-4h4v2h2Z" style="fill:#fff"/><path d="M6.083,112.461h-4v-7.455h4Zm0-14.911h-4V90.1h4Zm0-14.911h-4V75.184h4Zm0-14.911h-4V60.272h4Zm0-14.912h-4V45.361h4Zm0-14.911h-4V30.45h4Zm0-14.911h-4V15.539h4Z" style="fill:#fff"/><path d="M6.083,8.083h-4v-4a2,2,0,0,1,2-2h4v4h-2Z" style="fill:#fff"/><path d="M112.461,6.083h-7.455v-4h7.455Zm-14.911,0H90.1v-4H97.55Zm-14.911,0H75.184v-4h7.455Zm-14.911,0H60.272v-4h7.456Zm-14.911,0H45.361v-4h7.456Zm-14.911,0H30.45v-4h7.456ZM23,6.083H15.539v-4H23Z" style="fill:#fff"/><path d="M125.917,8.083h-4v-2h-2v-4h4a2,2,0,0,1,2,2Z" style="fill:#fff"/><path d="M125.917,112.461h-4v-7.455h4Zm0-14.911h-4V90.1h4Zm0-14.911h-4V75.184h4Zm0-14.911h-4V60.272h4Zm0-14.911h-4V45.361h4Zm0-14.911h-4V30.45h4Zm0-14.911h-4V15.539h4Z" style="fill:#fff"/></svg>