<svg id="Layer_2" data-name="Layer 2" xmlns="http://www.w3.org/2000/svg" viewBox="0 0 128 128"><path d="M123.63,74.17a2.854,2.854,0,0,0,2.4-2.507,63.6,63.6,0,0,0,0-14.437,2.854,2.854,0,0,0-2.4-2.507L108,52.344a2.8,2.8,0,0,1-2.245-1.856,43.767,43.767,0,0,0-2.234-5.392,2.8,2.8,0,0,1,.273-2.9l9.375-12.722A2.858,2.858,0,0,0,113.085,26,62.11,62.11,0,0,0,102.894,15.8a2.861,2.861,0,0,0-3.475-.084L86.687,25.1a2.8,2.8,0,0,1-2.9.273,44.147,44.147,0,0,0-5.394-2.234,2.8,2.8,0,0,1-1.855-2.245L74.169,5.259a2.851,2.851,0,0,0-2.5-2.4,62.3,62.3,0,0,0-14.444,0,2.851,2.851,0,0,0-2.5,2.4L52.353,20.891A2.8,2.8,0,0,1,50.5,23.136,44.147,44.147,0,0,0,45.1,25.37a2.8,2.8,0,0,1-2.9-.273L29.471,15.72A2.861,2.861,0,0,0,26,15.8,62.11,62.11,0,0,0,15.805,26a2.858,2.858,0,0,0-.084,3.475L25.1,42.193a2.8,2.8,0,0,1,.273,2.9,43.767,43.767,0,0,0-2.234,5.392,2.8,2.8,0,0,1-2.245,1.856L5.258,54.72a2.851,2.851,0,0,0-2.4,2.5,62.311,62.311,0,0,0,0,14.445,2.851,2.851,0,0,0,2.4,2.5l15.632,2.368a2.8,2.8,0,0,1,2.245,1.855,43.975,43.975,0,0,0,2.234,5.393,2.8,2.8,0,0,1-.274,2.9L15.721,99.409a2.858,2.858,0,0,0,.084,3.475,61.921,61.921,0,0,0,10.2,10.2,2.859,2.859,0,0,0,3.475.083L42.2,103.794a2.8,2.8,0,0,1,2.9-.274,43.975,43.975,0,0,0,5.393,2.234A2.8,2.8,0,0,1,52.353,108L54.72,123.63a2.854,2.854,0,0,0,2.507,2.4,63.587,63.587,0,0,0,14.436,0,2.854,2.854,0,0,0,2.507-2.4L76.537,108a2.8,2.8,0,0,1,1.855-2.245,43.975,43.975,0,0,0,5.393-2.234,2.8,2.8,0,0,1,2.9.274L99.41,113.17a2.859,2.859,0,0,0,3.475-.083,61.965,61.965,0,0,0,10.2-10.2,2.859,2.859,0,0,0,.083-3.475l-9.375-12.722a2.8,2.8,0,0,1-.274-2.9,43.975,43.975,0,0,0,2.234-5.393A2.8,2.8,0,0,1,108,76.537ZM66.6,97.491A33.117,33.117,0,1,1,97.491,66.6,33.123,33.123,0,0,1,66.6,97.491Z" style="fill:#fff"/></svg>