<svg id="Layer_1" data-name="Layer 1" xmlns="http://www.w3.org/2000/svg" viewBox="0 0 128 128"><path d="M63.988,125.549C35.161,125.549,3.469,106.3,2,64.049,1.618,31.374,28.829,3,61.423,2.058,62.279,2.022,63.148,2,64.015,2a62.039,62.039,0,0,1,38.66,13.534V9.084a7.086,7.086,0,1,1,14.171,0v24.4a7.12,7.12,0,0,1-7.083,7.086H85.355a7.086,7.086,0,0,1,0-14.171h8.282A46.309,46.309,0,0,0,64.454,16.181c-24.716,0-45.339,18.241-47.972,42.431A48.069,48.069,0,0,0,62.13,111.784q.963.037,1.9.037a47.669,47.669,0,0,0,47.756-45.966q.036-.93.036-1.859a5.2,5.2,0,0,1,5.1-5.274h3.79A5.276,5.276,0,0,1,126,63.951c-1.436,42.33-33.147,61.6-62,61.6Z" style="fill:#fff"/></svg>