<svg id="Layer_1" data-name="Layer 1" xmlns="http://www.w3.org/2000/svg" viewBox="0 0 128 128"><path d="M9.084,71.085A7.094,7.094,0,0,1,2,64,62,62,0,0,1,102.676,15.538V9.086a7.086,7.086,0,0,1,14.172,0V33.492a7.122,7.122,0,0,1-7.083,7.086H85.356a7.086,7.086,0,0,1,0-14.172H93.62A47.867,47.867,0,0,0,16.171,64a7.093,7.093,0,0,1-7.086,7.084Z" style="fill:#fff"/><path d="M64,126a62.044,62.044,0,0,1-38.676-13.542v6.452a7.086,7.086,0,1,1-14.172,0V94.508a7.122,7.122,0,0,1,7.083-7.086H42.644a7.086,7.086,0,0,1,0,14.172H34.381A47.865,47.865,0,0,0,111.828,64,7.086,7.086,0,1,1,126,64a62,62,0,0,1-62,62Z" style="fill:#fff"/></svg>