<svg id="Layer_2" data-name="Layer 2" xmlns="http://www.w3.org/2000/svg" viewBox="0 0 128 128"><path d="M87.444,126a6.305,6.305,0,0,1-4.3-1.682L60.89,106.188a6.3,6.3,0,1,1,7.959-9.767l12.287,10V78.674l-.01-2.033a6.318,6.318,0,0,1,12.636,0v43.041A6.325,6.325,0,0,1,87.444,126Zm-64.37-2.759a6.312,6.312,0,0,1-4.463-10.774l88.42-88.42a6.312,6.312,0,0,1,8.926,8.927l-88.42,88.418A6.267,6.267,0,0,1,23.074,123.241Zm-2.026-22.355a6.3,6.3,0,0,1-3.251-.907,15.811,15.811,0,0,1-5.559-5.715,15.619,15.619,0,0,1-2.04-7.7V46.021A15.7,15.7,0,0,1,25.866,30.353H56.644L82.976,3.858A6.308,6.308,0,0,1,93.41,6.264h.332l.01,2.033V28.469a6.318,6.318,0,1,1-12.635,0V23.593L63.988,40.835a6.291,6.291,0,0,1-4.742,2.153H25.866a3.066,3.066,0,0,0-3.043,3.042V86.575a2.949,2.949,0,0,0,.379,1.476,3.1,3.1,0,0,0,1.106,1.127,6.305,6.305,0,0,1,2.146,8.658A6.35,6.35,0,0,1,21.048,100.886Z" style="fill:#fff"/></svg>