<svg id="Layer_1" data-name="Layer 1" xmlns="http://www.w3.org/2000/svg" viewBox="0 0 128 128"><path d="M115.17,32H87.71A21.428,21.428,0,0,0,68.08,19.17H23.42A21.418,21.418,0,0,0,2,40.58V87.42a21.418,21.418,0,0,0,21.42,21.41H68.08A21.428,21.428,0,0,0,87.71,96h27.46A10.832,10.832,0,0,0,126,85.17V42.83A10.832,10.832,0,0,0,115.17,32ZM79.75,95.93l-1.81,1.82a6.3,6.3,0,0,1-8.88,0L46,74.71,22.95,97.75a6.317,6.317,0,0,1-4.45,1.83,6.235,6.235,0,0,1-4.44-1.83l-1.82-1.81a6.32,6.32,0,0,1,0-8.88L35.29,64,12.24,40.95a6.329,6.329,0,0,1-.01-8.88l1.82-1.82a6.313,6.313,0,0,1,8.89,0L46,53.3,69.05,30.25a6.3,6.3,0,0,1,8.88,0l1.81,1.81a6.31,6.31,0,0,1,.01,8.88L56.7,64,79.75,87.06A6.289,6.289,0,0,1,79.75,95.93ZM113,81.25A1.746,1.746,0,0,1,111.25,83H89.5V45H113Z" style="fill:#fff"/></svg>