<svg id="Capa_1" data-name="Capa 1" xmlns="http://www.w3.org/2000/svg" viewBox="0 0 128 128"><path d="M125.247,21.391a8.478,8.478,0,0,0-8.478-8.478H102.433V5.459A3.459,3.459,0,0,0,98.974,2H91.5a3.467,3.467,0,0,0-3.462,3.459v7.458h-47.6V5.459A3.459,3.459,0,0,0,36.978,2H30.006a3.459,3.459,0,0,0-3.459,3.459v7.458H11.215A8.478,8.478,0,0,0,2.737,21.4v30.21H7.2v65.678A8.713,8.713,0,0,0,15.921,126h95.656a8.71,8.71,0,0,0,8.717-8.717V51.6h4.969l-.016-30.21ZM106.4,102.9a8.711,8.711,0,0,1-8.717,8.717H30.3a8.714,8.714,0,0,1-8.717-8.717V51.6H106.4v51.3Z" style="fill:#fff"/><rect x="33.492" y="61.02" width="13.885" height="14.387" style="fill:#fff"/><rect x="57.298" y="61.02" width="13.885" height="14.387" style="fill:#fff"/><rect x="81.101" y="61.02" width="13.889" height="14.387" style="fill:#fff"/><rect x="33.492" y="86.316" width="13.885" height="14.383" style="fill:#fff"/><rect x="57.298" y="86.316" width="13.885" height="14.383" style="fill:#fff"/><rect x="81.101" y="86.316" width="13.889" height="14.383" style="fill:#fff"/></svg>