<svg id="Layer_7" data-name="Layer 7" xmlns="http://www.w3.org/2000/svg" viewBox="0 0 128 128"><path d="M22.172,39.537H106.5a8.462,8.462,0,0,1,2.021.162,6,6,0,0,1,2.91,1.576,5.478,5.478,0,0,1,1.656,3.375,7.856,7.856,0,0,1-.06,1.454l-7.18,74.4h0v.414h0a7.229,7.229,0,0,1-.2.909h0v.061h0A5.949,5.949,0,0,1,100.121,126H28.384a6.143,6.143,0,0,1-1.263-.192,6.228,6.228,0,0,1-1.171-.484h0a6.246,6.246,0,0,1-3.112-4.929l-7.071-74.24a7.841,7.841,0,0,1-.061-1.677,5.429,5.429,0,0,1,1.647-3.323,6.07,6.07,0,0,1,3.03-1.6,9.06,9.06,0,0,1,1.809-.131ZM16.6,10.89H48.387V8.061h0a2.468,2.468,0,0,1,0-.272,6.064,6.064,0,0,1,1.778-4.042h0A6.064,6.064,0,0,1,54.417,2h19.87a6.066,6.066,0,0,1,5.759,6.066h0V10.9h32.72a4.747,4.747,0,0,1,4.354,4.475V25.835a2.617,2.617,0,0,1-2.617,2.616H13.5a2.617,2.617,0,0,1-2.616-2.586v-10.2h0a1.489,1.489,0,0,1,0-.313h0a4.77,4.77,0,0,1,3.92-4.385A10.362,10.362,0,0,1,16.6,10.89Zm42.53,53.231a4.818,4.818,0,0,1,9.586,0V101.5a4.818,4.818,0,0,1-9.586,0Zm23.969-.2a4.626,4.626,0,0,1,5.051-4.1A4.514,4.514,0,0,1,92.7,64.3h0v.03l-2.017,37.377a4.615,4.615,0,0,1-5.051,4.1,4.517,4.517,0,0,1-4.556-4.476V101.3Zm-46.954.4a4.507,4.507,0,0,1,4.506-4.505h.041a4.626,4.626,0,0,1,5.051,4.1l2.02,37.378a4.515,4.515,0,0,1-4.525,4.5H43.2a4.617,4.617,0,0,1-5.051-4.1L36.132,64.328Z" style="fill:#fff;fill-rule:evenodd"/></svg>