<svg id="Layer_1" data-name="Layer 1" xmlns="http://www.w3.org/2000/svg" viewBox="0 0 128 128"><path d="M107.478,74.259a2.564,2.564,0,0,1-2.557,2.557H23.079a2.564,2.564,0,0,1-2.557-2.557V72.47a2.552,2.552,0,0,1,2.542-2.557h81.857a2.552,2.552,0,0,1,2.557,2.542Z" style="fill:#fff"/><path d="M107.478,93.023v1.789a2.552,2.552,0,0,1-2.542,2.557H23.079a2.552,2.552,0,0,1-2.557-2.542v-1.8a2.564,2.564,0,0,1,2.557-2.557h81.842A2.564,2.564,0,0,1,107.478,93.023Z" style="fill:#fff"/><path d="M99.808,3.879A26.185,26.185,0,1,0,126,30.071v-.014A26.187,26.187,0,0,0,99.808,3.879ZM116.4,22.884,96.143,43.139a4.167,4.167,0,0,1-5.894,0L80.136,33l-.029-.028a4.127,4.127,0,0,1,.029-5.838,4.228,4.228,0,0,1,5.866,0l7.2,7.187,17.315-17.329a4.163,4.163,0,0,1,5.88,5.9Z" style="fill:#fff"/><path d="M126,51.19v61.43a5.505,5.505,0,0,1-5.51,5.5H7.51A5.514,5.514,0,0,1,2,112.61V50.3a2.835,2.835,0,0,1,.82-1.98L36.69,14.46a2.794,2.794,0,0,1,1.97-.82h32a.632.632,0,0,1,.64.64.722.722,0,0,1-.08.32,32.135,32.135,0,0,0-2.4,5.68.654.654,0,0,1-.62.46H44.61v30a5.514,5.514,0,0,1-5.51,5.51H9.1v54.77H118.9V56.69a.649.649,0,0,1,.25-.51,31.415,31.415,0,0,0,5.71-5.4.648.648,0,0,1,.91-.08A.638.638,0,0,1,126,51.19Z" style="fill:#fff"/></svg>