<svg id="Layer_2" data-name="Layer 2" xmlns="http://www.w3.org/2000/svg" viewBox="0 0 128 128"><path d="M64,91.556A6.89,6.89,0,0,1,59.129,79.8l8.907-8.907H15.778a6.889,6.889,0,0,1,0-13.778H68.036L59.129,48.2a6.888,6.888,0,0,1,9.742-9.741L89.537,59.129a6.867,6.867,0,0,1,2.019,4.851h0v.04h0a6.867,6.867,0,0,1-2.019,4.851L68.871,89.537A6.866,6.866,0,0,1,64,91.556Z" style="fill:#fff"/><path d="M98.444,126H43.333a6.889,6.889,0,1,1,0-13.778H98.444a6.894,6.894,0,0,0,6.889-6.889V15.778h-62A6.889,6.889,0,1,1,43.333,2h68.889a6.887,6.887,0,0,1,6.889,6.889v96.444A20.689,20.689,0,0,1,98.444,126Z" style="fill:#fff"/></svg>