<svg id="Layer_1" data-name="Layer 1" xmlns="http://www.w3.org/2000/svg" viewBox="0 0 128 128"><path d="M105.333,126H22.667A20.689,20.689,0,0,1,2,105.333V8.889A6.89,6.89,0,0,1,8.889,2H57.111a6.889,6.889,0,1,1,0,13.778H15.778v89.555a6.9,6.9,0,0,0,6.889,6.889h82.666a6.894,6.894,0,0,0,6.889-6.889V70.889a6.889,6.889,0,1,1,13.778,0v34.444A20.689,20.689,0,0,1,105.333,126Z" style="fill:#fff"/><path d="M121.2,2A4.8,4.8,0,0,1,126,6.8V43.333a6.889,6.889,0,1,1-13.778,0V25.56l-64,64a6.987,6.987,0,0,1-9.783,0,6.946,6.946,0,0,1,0-9.783l64-64H84.667A6.889,6.889,0,1,1,84.667,2Z" style="fill:#fff"/></svg>