<svg xmlns="http://www.w3.org/2000/svg" viewBox="0 0 128 128"><g id="Layer_7" data-name="Layer 7"><path d="M97.6,47.16h7.22a2.113,2.113,0,0,0,2.11-2.12V37.83ZM76.97,30.68a4.909,4.909,0,0,0-4.66-4.9H56.25a4.872,4.872,0,0,0-4.87,4.68v2.5H49.72l14.2,14.2h.18L78.29,32.97H76.97ZM21.07,45.07a2.119,2.119,0,0,0,2.11,2.09H30.4l-9.33-9.34Zm82.6,15.18a4.43,4.43,0,0,0-1.33-2.73,4.79,4.79,0,0,0-2.36-1.27,6.341,6.341,0,0,0-1.63-.13h-9.7l-7.89,7.89,20.63,20.63,2.24-23.22A6.511,6.511,0,0,0,103.67,60.25Zm-18.1,46.12a3.746,3.746,0,0,1-4.09,3.31,3.651,3.651,0,0,1-3.68-3.62v-.02l.59-10.9L67.81,84.56V106.2a3.9,3.9,0,0,1-7.75,0V84.71l-9.81,9.8.63,11.52a3.657,3.657,0,0,1-3.66,3.64h-.03a3.737,3.737,0,0,1-4.08-3.32l-.24-4.46L30.08,114.67l.65,6.8a5.036,5.036,0,0,0,2.52,3.98,4.059,4.059,0,0,0,.94.39,5.151,5.151,0,0,0,1.02.16H93.19a4.8,4.8,0,0,0,4.47-3.32v-.05a6.084,6.084,0,0,0,.16-.74v-.33l.62-6.37L85.78,102.53ZM39.36,56.12H30.19l.02-.09a7.126,7.126,0,0,0-1.46.1,4.938,4.938,0,0,0-2.45,1.29,4.38,4.38,0,0,0-1.33,2.69,5.637,5.637,0,0,0,.05,1.36l2.15,22.61L47.25,64.01Z" style="fill:#fff;fill-rule:evenodd"/></g><g id="Layer_2" data-name="Layer 2"><path d="M124.433,113.337a5.393,5.393,0,0,1,0,7.6l-3.494,3.494a5.393,5.393,0,0,1-7.6,0L64.006,75.1,14.663,124.433a5.393,5.393,0,0,1-7.6,0l-3.494-3.494a5.39,5.39,0,0,1,0-7.6L52.911,64.006,3.568,14.663a5.392,5.392,0,0,1,0-7.6L7.062,3.568a5.392,5.392,0,0,1,7.6,0L64.006,52.911,113.337,3.568a5.39,5.39,0,0,1,7.6,0l3.494,3.494a5.393,5.393,0,0,1,0,7.6L75.1,64.006Z" style="fill:#fff;fill-rule:evenodd"/></g></svg>