<svg id="Layer_1" data-name="Layer 1" xmlns="http://www.w3.org/2000/svg" viewBox="0 0 128 128"><path d="M125.225,50.167a6.679,6.679,0,0,1-9.019,2.79L65.858,26.349a3.979,3.979,0,0,0-3.716,0L11.794,52.957a6.673,6.673,0,0,1-6.238-11.8l56.586-29.9a3.979,3.979,0,0,1,3.716,0l56.586,29.9A6.665,6.665,0,0,1,125.225,50.167Z" style="fill:#fff"/><path d="M110.606,61.68v52.207a3.317,3.317,0,0,1-3.318,3.317H82.576a3.317,3.317,0,0,1-3.318-3.317v-32.5a3.319,3.319,0,0,0-3.318-3.318H52.06a3.319,3.319,0,0,0-3.318,3.318v32.5a3.317,3.317,0,0,1-3.318,3.317H20.712a3.317,3.317,0,0,1-3.318-3.317V61.68a3.319,3.319,0,0,1,1.767-2.934L62.14,36.033a4.01,4.01,0,0,1,3.72,0l42.979,22.713A3.319,3.319,0,0,1,110.606,61.68Z" style="fill:#fff"/></svg>