<svg id="Layer_1" data-name="Layer 1" xmlns="http://www.w3.org/2000/svg" viewBox="0 0 128 128"><path d="M91.556,91.556A6.89,6.89,0,0,1,86.685,79.8l8.907-8.907H43.333a6.889,6.889,0,1,1,0-13.778H95.592L86.685,48.2a6.888,6.888,0,1,1,9.741-9.741l20.667,20.666a6.872,6.872,0,0,1,2.018,4.851h0v.04h0a6.872,6.872,0,0,1-2.018,4.851L96.426,89.537A6.864,6.864,0,0,1,91.556,91.556Z" style="fill:#fff"/><path d="M84.667,126H29.556A20.689,20.689,0,0,1,8.889,105.333V8.889A6.887,6.887,0,0,1,15.778,2H84.667a6.889,6.889,0,0,1,0,13.778h-62v89.555a6.9,6.9,0,0,0,6.889,6.889H84.667a6.889,6.889,0,0,1,0,13.778Z" style="fill:#fff"/></svg>