<svg id="Layer_6" data-name="Layer 6" xmlns="http://www.w3.org/2000/svg" viewBox="0 0 128 128"><path d="M100.082,4.013a6.768,6.768,0,0,0-5.066-2.008,6.581,6.581,0,0,0-4.965,2.219L78.86,15.845l31.354,30.3,11.291-11.828a6.91,6.91,0,0,0,1.9-5.066,6.716,6.716,0,0,0-2.109-4.965ZM46.416,112.575c-4.117,1.371-8.33,2.643-12.456,4.015s-8.234,2.751-12.463,4.118c-9.818,3.169-15.208,4.964-16.368,5.277s-.425-4.217,2-13.724L14.942,82.38l.645-.667,30.839,30.84ZM27,69.856,70.385,24.628l31.352,30.194L57.83,100.687Z" style="fill:#fff;fill-rule:evenodd"/></svg>