<?xml version="1.0" encoding="UTF-8"?>
<svg id="Layer_1" data-name="Layer 1" xmlns="http://www.w3.org/2000/svg" viewBox="0 0 128 128">
  <path d="M64,2c-25.528,0-46.217,20.701-46.217,46.217,0,.398,0,.796,.012,1.194,.361,32.669,17.342,55.424,40.457,74.508,3.347,2.774,8.149,2.774,11.495,0,23.115-19.084,40.096-41.838,40.457-74.508,.012-.398,.012-.796,.012-1.194,0-25.516-20.689-46.217-46.217-46.217Zm0,72.903c-14.73,0-26.685-11.943-26.685-26.685s11.956-26.673,26.685-26.673,26.685,11.943,26.685,26.673-11.956,26.685-26.685,26.685Z" style="fill: #fff;"/>
</svg>