<?xml version="1.0" encoding="UTF-8" standalone="no"?>
<!-- Created with Inkscape (http://www.inkscape.org/) -->

<svg
   width="128"
   height="128"
   viewBox="0 0 33.866666 33.866668"
   version="1.1"
   id="svg5"
   inkscape:version="1.1.2 (0a00cf5339, 2022-02-04)"
   sodipodi:docname="icon_128_config_set.svg"
   xmlns:inkscape="http://www.inkscape.org/namespaces/inkscape"
   xmlns:sodipodi="http://sodipodi.sourceforge.net/DTD/sodipodi-0.dtd"
   xmlns="http://www.w3.org/2000/svg"
   xmlns:svg="http://www.w3.org/2000/svg">
  <sodipodi:namedview
     id="namedview7"
     pagecolor="#ffffff"
     bordercolor="#666666"
     borderopacity="1.0"
     inkscape:pageshadow="2"
     inkscape:pageopacity="0.0"
     inkscape:pagecheckerboard="0"
     inkscape:document-units="mm"
     showgrid="false"
     units="px"
     inkscape:zoom="2.1266375"
     inkscape:cx="27.508214"
     inkscape:cy="52.900411"
     inkscape:window-width="1846"
     inkscape:window-height="1016"
     inkscape:window-x="74"
     inkscape:window-y="27"
     inkscape:window-maximized="1"
     inkscape:current-layer="layer1" />
  <defs
     id="defs2" />
  <g
     inkscape:label="Capa 1"
     inkscape:groupmode="layer"
     id="layer1">
    <path
       style="fill:#ffffff;stroke-width:0.999996"
       d="m 21.953555,27.312309 c -1.248867,-0.155996 -2.463329,-0.8604 -3.224101,-1.870021 -0.838732,-1.113082 -1.1608,-2.520738 -0.885652,-3.870913 0.199931,-0.981076 0.577311,-1.676943 1.309041,-2.413802 0.549821,-0.553673 0.959514,-0.832947 1.600105,-1.090735 0.673284,-0.270943 1.006327,-0.329641 1.845217,-0.325215 0.646175,0.0034 0.786332,0.01796 1.177034,0.122248 1.468243,0.391885 2.689401,1.469624 3.25718,2.874646 0.700448,1.733321 0.319209,3.730411 -0.97151,5.089203 -0.427556,0.450104 -0.812146,0.735439 -1.351055,1.002376 -0.89019,0.440933 -1.805174,0.601013 -2.756259,0.482213 z m 1.680277,-0.991219 c 0.672617,-0.198357 1.136659,-0.467712 1.64775,-0.956446 0.542776,-0.519033 0.90489,-1.126006 1.102278,-1.847642 0.139709,-0.510762 0.142389,-1.451246 0.0055,-1.956054 -0.606758,-2.238749 -2.863924,-3.481207 -5.048419,-2.778901 -1.302994,0.418907 -2.288668,1.485314 -2.617781,2.832189 -0.121135,0.495737 -0.130891,1.309328 -0.02113,1.762883 0.384633,1.589514 1.619827,2.760291 3.221713,3.053699 0.114164,0.02091 0.457634,0.03073 0.763267,0.02181 0.433396,-0.01265 0.641763,-0.04159 0.946756,-0.131536 z m -2.079458,-1.632808 c -0.146485,-0.03918 -1.893636,-1.749293 -2.008342,-1.96577 -0.172279,-0.325135 0.1361,-0.698374 0.495925,-0.600229 0.08735,0.02382 0.393921,0.297521 0.88843,0.79315 l 0.755059,0.75677 1.44706,-1.444615 c 1.390462,-1.388115 1.453652,-1.444615 1.615628,-1.444615 0.334274,0 0.528028,0.349101 0.365155,0.65793 -0.109822,0.208237 -3.191982,3.240595 -3.316144,3.26256 -0.06157,0.01088 -0.170823,0.0041 -0.242771,-0.01519 z m -7.425034,1.700747 c -0.209119,-0.09682 -0.396862,-0.285625 -0.466045,-0.468687 -0.02716,-0.07185 -0.117974,-0.611988 -0.201822,-1.200305 -0.208465,-1.462698 -0.178361,-1.339287 -0.343366,-1.407633 -0.07819,-0.03238 -0.367619,-0.194655 -0.643165,-0.36059 -0.275545,-0.165935 -0.517592,-0.3017 -0.537882,-0.3017 -0.02029,0 -0.533151,0.200052 -1.139691,0.444559 -0.9239882,0.372475 -1.1418052,0.444558 -1.3433657,0.444558 -0.2627936,0 -0.5084893,-0.101014 -0.6652952,-0.273523 C 8.6073609,23.0662 6.6864188,19.685152 6.642127,19.487513 6.592332,19.265318 6.632497,19.03275 6.7576743,18.818412 c 0.04866,-0.08332 0.4973613,-0.467965 1.0531825,-0.90284 L 8.7792605,17.157894 V 16.38469 15.611484 L 8.6313594,15.498803 C 7.9753024,14.998975 7.0304068,14.24912 6.8922365,14.118659 6.6693558,13.908212 6.5638521,13.570387 6.6340037,13.291791 6.6799652,13.10926 8.5240502,9.8587606 8.7613828,9.5419384 8.8229033,9.4598131 8.9555813,9.355225 9.056223,9.3095223 9.406225,9.1505798 9.5590405,9.1832591 10.812504,9.6850971 l 1.150519,0.4606249 0.305183,-0.1977493 c 0.167851,-0.1087615 0.459268,-0.2757758 0.647593,-0.3711419 0.302682,-0.1532755 0.345359,-0.190223 0.367818,-0.3184453 0.01397,-0.079779 0.09479,-0.6318187 0.179592,-1.226757 0.0848,-0.5949384 0.186961,-1.1507736 0.227019,-1.2351895 0.10402,-0.219206 0.35233,-0.4065034 0.614416,-0.4634465 0.150792,-0.032763 0.89803,-0.044155 2.269763,-0.034607 l 2.044967,0.014235 0.188325,0.1078682 c 0.372233,0.2132051 0.402742,0.2988016 0.607132,1.7033544 l 0.182569,1.2545951 0.390009,0.2110167 c 0.214505,0.1160597 0.504889,0.2890296 0.645296,0.3843788 l 0.255285,0.1733603 1.155165,-0.4607492 c 1.251122,-0.4990235 1.400639,-0.5316079 1.733088,-0.3776903 0.0978,0.045283 0.230673,0.1398666 0.295269,0.210189 0.0646,0.070323 0.574028,0.9180605 1.132071,1.8838625 1.404644,2.431007 1.412645,2.235866 -0.141568,3.452426 l -0.974582,0.762854 v 0.518596 0.518597 l -0.151392,0.135569 c -0.144102,0.12904 -0.164438,0.134178 -0.422329,0.106707 -0.983682,-0.104787 -1.664807,-0.0727 -2.368324,0.111568 -0.379171,0.09931 -0.506095,0.07965 -0.659004,-0.102065 -0.09889,-0.117526 -0.111007,-0.172264 -0.111007,-0.50148 0,-1.218258 -0.590668,-2.413891 -1.553543,-3.144695 -0.338327,-0.256786 -0.975135,-0.57594 -1.358311,-0.680755 -0.414881,-0.113491 -1.349403,-0.137583 -1.804076,-0.04651 -0.699451,0.140099 -1.360935,0.481154 -1.894143,0.9766 -1.154974,1.073175 -1.566878,2.658933 -1.075545,4.140665 0.392497,1.183667 1.343238,2.133365 2.511398,2.508642 0.458545,0.147308 1.053297,0.235173 1.350676,0.199541 0.252257,-0.03022 0.399546,0.04282 0.49691,0.246435 0.07101,0.1485 0.06945,0.175525 -0.03595,0.62203 -0.07254,0.30731 -0.118856,0.664231 -0.135572,1.044712 -0.05237,1.192065 0.199732,2.182269 0.819209,3.217656 0.319674,0.534304 0.332963,0.648825 0.09992,0.86116 l -0.13418,0.122253 -1.677503,-9.78e-4 c -1.537919,-8.13e-4 -1.692301,-0.0078 -1.855328,-0.0833 z m 2.538212,-0.949314 c -0.276035,-0.626631 -0.363655,-0.867872 -0.474197,-1.305567 -0.224656,-0.889543 -0.263987,-1.959776 -0.101819,-2.770616 l 0.0249,-0.124486 -0.370114,-0.05412 c -1.028167,-0.150334 -1.963081,-0.624603 -2.709784,-1.374638 -0.991628,-0.99605 -1.471126,-2.232064 -1.406196,-3.624791 0.09901,-2.123828 1.541712,-3.900924 3.620293,-4.459426 0.388763,-0.104459 0.514464,-0.116792 1.190408,-0.116792 0.67701,0 0.801312,0.01224 1.193069,0.117466 1.946937,0.522952 3.343767,2.115726 3.608405,4.114584 0.03141,0.237276 0.03154,0.237435 0.171188,0.211926 0.425916,-0.0778 1.07563,-0.120922 1.421785,-0.09436 l 0.392916,0.03015 -0.03123,-0.291603 c -0.01717,-0.160383 -0.01887,-0.34082 -0.0038,-0.400975 0.0189,-0.07531 0.342345,-0.354632 1.038667,-0.896974 0.556171,-0.433182 1.039215,-0.813231 1.073431,-0.844549 0.05244,-0.048 -0.08191,-0.310854 -0.855242,-1.673242 -0.504594,-0.888966 -0.942694,-1.649467 -0.973549,-1.690006 -0.05087,-0.06684 -0.174085,-0.02812 -1.323089,0.415832 -0.919107,0.355125 -1.300705,0.482964 -1.389783,0.465591 -0.06754,-0.01317 -0.227577,-0.10093 -0.355647,-0.195018 C 20.112748,10.661068 19.640642,10.38362 19.244605,10.1943 19.075025,10.113234 18.899957,9.9968957 18.855566,9.9357689 18.795549,9.8531274 18.727472,9.4924071 18.59007,8.5289781 L 18.40529,7.2333259 18.245591,7.2069079 c -0.149677,-0.024759 -3.735854,-0.040373 -3.740561,-0.016285 -0.0012,0.0061 -0.09918,0.616761 -0.217743,1.3569959 -0.118565,0.7402355 -0.241577,1.3772145 -0.273361,1.4155107 -0.03178,0.038298 -0.268882,0.1755855 -0.526889,0.3050885 -0.258007,0.129502 -0.66819,0.367745 -0.911521,0.529429 -0.243328,0.161683 -0.478233,0.293969 -0.522009,0.293969 -0.04377,0 -0.630042,-0.220055 -1.302816,-0.489013 -0.672773,-0.268957 -1.2409278,-0.489013 -1.2625655,-0.489013 -0.021636,0 -0.4800275,0.750618 -1.0186436,1.66804 l -0.979303,1.668039 0.9189638,0.741027 c 0.5054296,0.407563 0.9789791,0.789652 1.0523309,0.849086 0.2383947,0.193161 0.2557237,0.26558 0.1996874,0.834522 -0.037121,0.376896 -0.03729,0.639447 -6.551e-4,1.005881 0.03687,0.368818 0.03662,0.527122 -9.457e-4,0.61788 -0.032102,0.07749 -0.4302698,0.418227 -1.0912122,0.93379 -0.5723684,0.446474 -1.0406696,0.830842 -1.0406696,0.854155 0,0.0337 1.7105257,3.077769 1.8624952,3.314511 0.031817,0.04956 0.280483,-0.0312 1.2779524,-0.415084 0.681145,-0.262145 1.299266,-0.476889 1.373602,-0.477204 0.09424,-3.36e-4 0.269193,0.0905 0.577925,0.300297 0.243522,0.165481 0.649193,0.399739 0.901489,0.520573 0.373067,0.178675 0.470475,0.245762 0.521672,0.359292 0.03462,0.07678 0.134129,0.649727 0.221123,1.273218 0.08699,0.623493 0.169548,1.198639 0.183453,1.278104 l 0.02528,0.14448 h 1.129271 1.129271 z"
       id="path854" />
  </g>
</svg>
