<svg id="Layer_4" data-name="Layer 4" xmlns="http://www.w3.org/2000/svg" viewBox="0 0 128 128"><path d="M29.212,59.641A7.657,7.657,0,0,1,39.9,48.686L55.7,64.345l.163-55.12a7.677,7.677,0,0,1,15.333.12l-.163,54.692L86.979,48.28h.041A7.666,7.666,0,1,1,97.875,59.109c-.034.035-.07.07-.105.1L68.653,87.964a7.668,7.668,0,0,1-10.751,0Z" style="fill:#fff;fill-rule:evenodd"/><path d="M125.014,88.046c0,.264,0,.53-.02.794v29.85a7.619,7.619,0,0,1-2.342,5.173A7.7,7.7,0,0,1,117.4,126H10.683a7.648,7.648,0,0,1-7.6-7.31h-.1V88.7a7.676,7.676,0,0,1,15.332.143v21.833h91.343V88.7a7.684,7.684,0,0,1,15.353-.651Z" style="fill:#fff;fill-rule:evenodd"/></svg>