<svg id="Layer_2" data-name="Layer 2" xmlns="http://www.w3.org/2000/svg" viewBox="0 0 128 128"><path d="M87.62,15.887a6.918,6.918,0,0,1,0-13.836h31.31a6.918,6.918,0,0,1,6.916,6.918V40.861a6.918,6.918,0,1,1-13.835,0V25.629l-27.3,27.419a6.917,6.917,0,0,1-9.765-9.708l27.395-27.453ZM15.894,40.54a6.918,6.918,0,1,1-13.835,0V9.225A6.917,6.917,0,0,1,8.977,2.308H40.869a6.918,6.918,0,0,1,0,13.835H25.637L53.044,43.465a6.919,6.919,0,1,1-9.7,9.766L15.894,25.817Zm24.432,71.676a6.918,6.918,0,1,1,0,13.835H8.977a6.917,6.917,0,0,1-6.918-6.917V87.207a6.918,6.918,0,0,1,13.835,0h0v15.232L43.217,75.032a6.918,6.918,0,0,1,9.766,9.7L25.569,112.216ZM112.105,87.7a6.919,6.919,0,0,1,13.837,0v31.315a6.919,6.919,0,0,1-6.919,6.919H87.062a6.919,6.919,0,0,1,0-13.836h15.232L74.877,84.79a6.919,6.919,0,0,1,9.709-9.766l27.488,27.4V87.7Z" style="fill:#fff"/></svg>