<svg id="Layer_1" data-name="Layer 1" xmlns="http://www.w3.org/2000/svg" viewBox="0 0 128 128"><path d="M125.32,62.77a89.585,89.585,0,0,0-20.21-25.19L99.92,48.04A74.289,74.289,0,0,1,111.99,64,68.8,68.8,0,0,1,91.01,87.31a50.857,50.857,0,0,1-13.84,6.61l-5.91,11.9A62.482,62.482,0,0,0,98.6,95.35c10.62-7.15,19.78-17.53,26.72-30.13L126,64Z" style="fill:#fff"/><path d="M104.91,16.5l-8.69-4.31a2.822,2.822,0,0,0-3.8,1.28L86.18,26.05A59.356,59.356,0,0,0,64,21.73,61.537,61.537,0,0,0,29.4,32.64C18.77,39.79,9.62,50.17,2.68,62.77L2,64l.68,1.22C9.62,77.82,18.77,88.2,29.41,95.36a64.4,64.4,0,0,0,18.15,8.57L44.1,110.9a2.828,2.828,0,0,0,1.28,3.8l8.69,4.31a2.836,2.836,0,0,0,3.8-1.28L106.19,20.3A2.83,2.83,0,0,0,104.91,16.5ZM68.61,61.47a14.013,14.013,0,0,1-1.15-16.98l-4.12-.39a21.5,21.5,0,0,0-6.87,41.87l-4.16,8.37A50.418,50.418,0,0,1,37,87.31,68.824,68.824,0,0,1,16.01,64,69.057,69.057,0,0,1,37,40.68a48.051,48.051,0,0,1,27-8.56,46.072,46.072,0,0,1,17.46,3.46Z" style="fill:#fff"/></svg>