<svg id="Layer_1" data-name="Layer 1" xmlns="http://www.w3.org/2000/svg" viewBox="0 0 128 128"><path d="M105.333,126H22.667A20.689,20.689,0,0,1,2,105.334V8.89A6.89,6.89,0,0,1,8.889,2H119.111A6.887,6.887,0,0,1,126,8.89v96.444A20.689,20.689,0,0,1,105.333,126ZM15.778,15.779v89.555a6.9,6.9,0,0,0,6.889,6.889h82.666a6.894,6.894,0,0,0,6.889-6.889V15.779Z" style="fill:#fff"/><path d="M64.067,101.95A10.367,10.367,0,0,1,64,81.216h.067a10.367,10.367,0,0,1,0,20.734Z" style="fill:#fff"/><path d="M64,70.883a6.889,6.889,0,0,1-6.889-6.889V36.439a6.889,6.889,0,1,1,13.778,0V63.994A6.889,6.889,0,0,1,64,70.883Z" style="fill:#fff"/></svg>