<svg id="Layer_1" data-name="Layer 1" xmlns="http://www.w3.org/2000/svg" viewBox="0 0 128 128"><path d="M102.905,31.444c-1.72-5.919-10.043-23.095-30.659-23.095-19.326,0-27.876,15.608-29.773,20.49a30.044,30.044,0,0,0-9.941-1.67,30.761,30.761,0,0,0,.025,61.52H48.645a5.186,5.186,0,0,0,0-10.372H32.557a20.363,20.363,0,0,1,0-40.726A20.037,20.037,0,0,1,43.131,40.6c4.1,2.505,7.159.1,7.791-3.592a21.615,21.615,0,0,1,42.7,0A5.17,5.17,0,0,0,98.4,41.36a18.525,18.525,0,0,1-1.113,37.008H81.454a5.186,5.186,0,0,0,0,10.371H97.289a28.947,28.947,0,0,0,5.616-57.295Z" style="fill:#fff"/><path d="M79.835,96.379a5.1,5.1,0,0,0-7.234.506L69.287,100.7V53.629a5.135,5.135,0,1,0-10.27,0v47.05l-3.289-3.794a5.1,5.1,0,0,0-7.234-.506,5.211,5.211,0,0,0-.506,7.285L60.282,117.88a5.08,5.08,0,0,0,3.87,1.771,5.169,5.169,0,0,0,3.87-1.771l12.294-14.216a5.186,5.186,0,0,0-.481-7.285Z" style="fill:#fff"/></svg>