<svg id="Layer_1" data-name="Layer 1" xmlns="http://www.w3.org/2000/svg" viewBox="0 0 128 128"><path d="M12.457,2H115.543A10.48,10.48,0,0,1,126,12.457h0a10.48,10.48,0,0,1-10.457,10.456H12.457A10.48,10.48,0,0,1,2,12.457H2A10.48,10.48,0,0,1,12.457,2Zm0,103.087H115.543A10.48,10.48,0,0,1,126,115.543h0A10.48,10.48,0,0,1,115.543,126H12.457A10.48,10.48,0,0,1,2,115.543H2A10.549,10.549,0,0,1,12.457,105.087Zm0-50.8H115.543A10.48,10.48,0,0,1,126,64.739h0A10.48,10.48,0,0,1,115.543,75.2H12.457A10.48,10.48,0,0,1,2,64.739H2A10.549,10.549,0,0,1,12.457,54.283Z" style="fill:#fff;fill-rule:evenodd"/></svg>