<svg id="Layer_1" data-name="Layer 1" xmlns="http://www.w3.org/2000/svg" viewBox="0 0 128 128"><path d="M52.53,87.988V79.236q0-7.889,4.026-12.956A63.466,63.466,0,0,1,68.294,55.42a68.306,68.306,0,0,0,10.853-9.806A16.845,16.845,0,0,0,82.824,34.4c0-5.26-1.717-9.421-5.166-12.528q-5.163-4.619-13.569-4.633-8.583,0-13.839,4.818A16.406,16.406,0,0,0,45,34.753V39.3a1.549,1.549,0,0,1-1.753,1.753l-13.312-.7A1.547,1.547,0,0,1,28.186,38.6V34.753A31.969,31.969,0,0,1,32.74,17.678,30.483,30.483,0,0,1,45.61,6.119,42.207,42.207,0,0,1,64.616,2q15.929,0,25.57,8.751t9.628,23.118a30.6,30.6,0,0,1-8.93,22.506,86.784,86.784,0,0,1-9.456,7.8,58.167,58.167,0,0,0-9.022,7.882,11.875,11.875,0,0,0-2.887,8.053v7.882a1.552,1.552,0,0,1-1.753,1.753H54.283A1.55,1.55,0,0,1,52.53,87.988Zm0,34.862a11.213,11.213,0,0,1,8.053-19.27,11.213,11.213,0,1,1,0,22.42A10.924,10.924,0,0,1,52.53,122.85Z" style="fill:#fff"/></svg>