<svg id="Layer_1" data-name="Layer 1" xmlns="http://www.w3.org/2000/svg" viewBox="0 0 128 128"><path d="M98.6,32.637c10.626,7.154,19.778,17.528,26.721,30.132L126,64l-.676,1.221C118.381,77.825,109.218,88.2,98.6,95.353A61.535,61.535,0,0,1,64,106.272,61.541,61.541,0,0,1,29.408,95.363C18.771,88.2,9.619,77.825,2.676,65.221L2,64l.676-1.231c6.943-12.6,16.1-22.978,26.721-30.132A61.6,61.6,0,0,1,64,21.728,61.627,61.627,0,0,1,98.6,32.637ZM63.344,44.1l4.117.394a13.942,13.942,0,0,0-2.331,7.74A13.443,13.443,0,0,0,78.35,65.9,12.766,12.766,0,0,0,84.8,64.161c.03.475.05.949.05,1.433A21.5,21.5,0,1,1,63.344,44.1ZM111.993,64A69.01,69.01,0,0,0,91.014,40.679,48.088,48.088,0,0,0,64,32.122a48.081,48.081,0,0,0-27,8.557A69.149,69.149,0,0,0,16.007,64,68.915,68.915,0,0,0,37,87.311a48.081,48.081,0,0,0,27,8.557,48.112,48.112,0,0,0,27.014-8.557A68.88,68.88,0,0,0,111.993,64Z" style="fill:#fff"/></svg>