<svg id="Layer_1" data-name="Layer 1" xmlns="http://www.w3.org/2000/svg" viewBox="0 0 128 128"><path d="M86.677,126a9.488,9.488,0,0,1-9.465-9.463V81.7A4.5,4.5,0,0,1,81.7,77.212H95.118a4.488,4.488,0,0,1,0,8.976h-8.93v30.347a.493.493,0,0,0,.492.488h29.855a.489.489,0,0,0,.488-.489V108.1a4.489,4.489,0,1,1,8.977,0v8.441A9.487,9.487,0,0,1,116.537,126Z" style="fill:#fff"/><path d="M94.141,113.561a4.49,4.49,0,0,1-3.187-7.665l19.708-19.708h-1.591a4.488,4.488,0,0,1-.085-8.976h13.281A3.738,3.738,0,0,1,126,80.946v13.2a4.489,4.489,0,0,1-8.977,0V92.55l-19.7,19.7A4.5,4.5,0,0,1,94.141,113.561Z" style="fill:#fff"/><path d="M36.344,87.988V79.236q0-7.889,4.026-12.956A63.466,63.466,0,0,1,52.108,55.42a68.351,68.351,0,0,0,10.853-9.806A16.845,16.845,0,0,0,66.638,34.4c0-5.26-1.717-9.421-5.166-12.528Q56.309,17.251,47.9,17.236q-8.584,0-13.84,4.818a16.408,16.408,0,0,0-5.252,12.7V39.3a1.549,1.549,0,0,1-1.753,1.753l-13.312-.7A1.547,1.547,0,0,1,12,38.6V34.753a31.969,31.969,0,0,1,4.554-17.075A30.483,30.483,0,0,1,29.424,6.119,42.207,42.207,0,0,1,48.43,2Q64.358,2,74,10.751t9.628,23.118A30.6,30.6,0,0,1,74.7,56.375a86.784,86.784,0,0,1-9.456,7.8,58.167,58.167,0,0,0-9.022,7.882,11.875,11.875,0,0,0-2.887,8.053v7.882a1.552,1.552,0,0,1-1.753,1.753H38.1A1.55,1.55,0,0,1,36.344,87.988Zm0,34.862A11.213,11.213,0,0,1,44.4,103.58a11.213,11.213,0,1,1,0,22.42A10.924,10.924,0,0,1,36.344,122.85Z" style="fill:#fff"/></svg>