<svg id="Layer_1" data-name="Layer 1" xmlns="http://www.w3.org/2000/svg" viewBox="0 0 128 128"><path d="M104.15,18.94H59.49A21.428,21.428,0,0,0,39.86,31.77H12.4A10.832,10.832,0,0,0,1.57,42.6V84.94A10.832,10.832,0,0,0,12.4,95.77H39.86A21.412,21.412,0,0,0,59.49,108.6h44.66a21.411,21.411,0,0,0,21.42-21.41V40.35A21.418,21.418,0,0,0,104.15,18.94ZM38.07,82.77H16.32a1.746,1.746,0,0,1-1.75-1.75V46.52a1.746,1.746,0,0,1,1.75-1.75H38.07Zm77.4-32.17L78.22,87.86a7.779,7.779,0,0,1-5.46,2.26h-.01a7.781,7.781,0,0,1-5.46-2.27L48.67,69.23A7.722,7.722,0,0,1,59.59,58.31L72.76,71.47l31.79-31.79A7.722,7.722,0,0,1,115.47,50.6Z" style="fill:#fff"/></svg>