<svg id="Layer_1" data-name="Layer 1" xmlns="http://www.w3.org/2000/svg" viewBox="0 0 128 128"><path d="M110.7,25.94H40.37A14.63,14.63,0,0,0,25.74,40.57v70.32a14.63,14.63,0,0,0,14.63,14.63H110.7a14.63,14.63,0,0,0,14.63-14.63V40.57A14.63,14.63,0,0,0,110.7,25.94Zm5.52,81.78a8.7,8.7,0,0,1-8.7,8.7H43.55a8.7,8.7,0,0,1-8.7-8.7V43.74a8.7,8.7,0,0,1,8.7-8.7h63.97a8.7,8.7,0,0,1,8.7,8.7Z" style="fill:#fff"/><path d="M100.922,16.156v1.233H91.7a7.2,7.2,0,0,0-7.176-6.676h-66.8a7.21,7.21,0,0,0-7.213,7.2V84.721A7.218,7.218,0,0,0,17.2,91.909v9.2H15.967A14.637,14.637,0,0,1,1.334,86.478V16.156A14.635,14.635,0,0,1,15.967,1.523H86.289A14.635,14.635,0,0,1,100.922,16.156Z" style="fill:#fff"/></svg>