<?xml version="1.0" encoding="UTF-8"?>
<svg id="Layer_1" data-name="Layer 1" xmlns="http://www.w3.org/2000/svg" viewBox="0 0 128 128">
  <path d="M64,2C29.76,2,2,29.76,2,64s27.76,62,62,62,62-27.76,62-62S98.24,2,64,2Zm-24.65,33.3c0-13.79,11.18-24.97,24.97-24.97,6.9,0,13.14,2.79,17.66,7.31,4.52,4.52,7.32,10.76,7.32,17.66v8.65c0,13.8-11.18,24.98-24.98,24.98s-24.97-11.18-24.97-24.98v-8.65Zm65.88,62.89c-9.83,11.84-24.65,19.37-41.23,19.37s-31.4-7.53-41.23-19.37c-.79-.96-.73-2.34,.16-3.21,10.56-10.41,25.06-16.85,41.07-16.85s30.51,6.44,41.07,16.85c.89,.87,.95,2.25,.16,3.21Z" style="fill: #3e61ab;"/>
  <path d="M64,2C29.76,2,2,29.76,2,64s27.76,62,62,62,62-27.76,62-62S98.24,2,64,2Zm-24.65,33.3c0-13.79,11.18-24.97,24.97-24.97,6.9,0,13.14,2.79,17.66,7.31,4.52,4.52,7.32,10.76,7.32,17.66v8.65c0,13.8-11.18,24.98-24.98,24.98s-24.97-11.18-24.97-24.98v-8.65Zm65.88,62.89c-9.83,11.84-24.65,19.37-41.23,19.37s-31.4-7.53-41.23-19.37c-.79-.96-.73-2.34,.16-3.21,10.56-10.41,25.06-16.85,41.07-16.85s30.51,6.44,41.07,16.85c.89,.87,.95,2.25,.16,3.21Z" style="fill: #fff;"/>
</svg>