<svg id="Layer_1" data-name="Layer 1" xmlns="http://www.w3.org/2000/svg" viewBox="0 0 128 128"><path d="M52.51,53.17a19.111,19.111,0,0,0-2.94-1.16c-.85-.16-1.55-.31-2.32-.47l.15,13.47,13.39.38A15.813,15.813,0,0,0,52.51,53.17Zm0,0a19.111,19.111,0,0,0-2.94-1.16c-.85-.16-1.55-.31-2.32-.47l.15,13.47,13.39.38A15.813,15.813,0,0,0,52.51,53.17ZM22.02,41.79V91.62H105.9V41.79ZM87.33,58.35a.417.417,0,0,1,.39-.39h4.33a.373.373,0,0,1,.39.39v8.51a.367.367,0,0,1-.39.39H87.72a.362.362,0,0,1-.39-.39Zm-8.36-8.12a.367.367,0,0,1,.39-.39h4.33a.362.362,0,0,1,.39.39V66.94a.367.367,0,0,1-.39.39H79.36a.373.373,0,0,1-.39-.39ZM71,52.78h4.34a.36.36,0,0,1,.38.39V66.94a.365.365,0,0,1-.38.39H71a.365.365,0,0,1-.38-.39V53.17C70.54,52.93,70.77,52.78,71,52.78ZM44.23,82.42a15.022,15.022,0,0,1-.62-30.03l.62,15.01,7.51,13A15.158,15.158,0,0,1,44.23,82.42Zm9.59-2.32L46.86,68.18l13.15.23A14.1,14.1,0,0,1,53.82,80.1Zm7.97-12.77-15.24-.47H45.7l-.16-.93-.15-15.32v-1l1.01.07a19,19,0,0,1,3.63.62A17.431,17.431,0,0,1,62.72,66.32l.08,1.01Zm30.8,15.63H70.54v-3.1H92.59Zm8.2-7.89H70.54v-3.1h30.25ZM52.51,53.17a19.111,19.111,0,0,0-2.94-1.16c-.85-.16-1.55-.31-2.32-.47l.15,13.47,13.39.38A15.813,15.813,0,0,0,52.51,53.17Z" style="fill:#fff"/><path d="M64,2a62,62,0,1,0,62,62A62,62,0,0,0,64,2Zm41.75,95.12H22.25a5.843,5.843,0,0,1-5.8-5.8V36.68a5.843,5.843,0,0,1,5.8-5.8h83.5a5.843,5.843,0,0,1,5.8,5.8V91.32A5.843,5.843,0,0,1,105.75,97.12Z" style="fill:#fff"/></svg>