<svg id="Layer_5" data-name="Layer 5" xmlns="http://www.w3.org/2000/svg" viewBox="0 0 128 128"><path d="M30.922,4.334h30.5L46.867,19.543H30.922a13.651,13.651,0,0,0-9.678,4.036h0a13.651,13.651,0,0,0-4.036,9.678v76.837H94.045a13.62,13.62,0,0,0,9.677-4.037h0a13.62,13.62,0,0,0,4.037-9.677V80.687L122.967,64.8V96.38a28.86,28.86,0,0,1-8.484,20.4v.051A28.843,28.843,0,0,1,94.1,125.3H13.605a11.579,11.579,0,0,1-8.174-3.4h0A11.623,11.623,0,0,1,2,113.687V33.257a28.83,28.83,0,0,1,8.485-20.394l.05-.091A28.839,28.839,0,0,1,30.922,4.294ZM69.03,90.022l-33.6,6.853,4.854-35.761ZM50.9,50.285,95.644,3.719a3.13,3.13,0,0,1,3.868-.607l25.676,24.854a2.731,2.731,0,0,1,.025,3.861h0a2.826,2.826,0,0,1-.246.217L79.631,79.205Z" style="fill:#fff"/></svg>