<svg id="Layer_1" data-name="Layer 1" xmlns="http://www.w3.org/2000/svg" viewBox="0 0 128 128"><polygon points="64 75.6 74.2 69.23 74.2 79.43 64 85.81 64 75.6" style="fill:#fff"/><path d="M82.32,73.97A18.688,18.688,0,0,0,64.69,56.35v-.02l-1.98-.01v.03A18.673,18.673,0,0,0,45.09,73.98h-.02l-.01,1.98h.03A18.68,18.68,0,0,0,62.72,93.58v.02H64.7v-.02A18.688,18.688,0,0,0,82.32,75.95h.02V73.97Zm-6.66,6.01L64,87.26,52.34,79.98V68.32L64,61.03l11.66,7.29Z" style="fill:#fff"/><path d="M102.62,52.4V66.2l13.79-8.63V43.78ZM64.04,28.55v13.8l13.8-8.62V19.93ZM102.62,52.4V66.2l13.79-8.63V43.78ZM64.04,28.55v13.8l13.8-8.62V19.93ZM102.62,66.2l13.79-8.63V43.78L102.62,52.4ZM64,2a62,62,0,1,0,62,62A62,62,0,0,0,64,2ZM48.28,18.7,64.04,8.85,79.81,18.7V34.47L64.04,44.32,48.28,34.47ZM9.36,58.31V42.55L25.13,32.7l15.76,9.85V58.31L25.13,68.17Zm89.69,50-.09.11-.07.07a3.333,3.333,0,0,1-2.44,1.04,3.388,3.388,0,0,1-2.17-.79l-.11-.09L78.44,94.51l-.66.46c-.43.3-.86.59-1.31.86-.62.38-1.25.73-1.86,1.04a24.552,24.552,0,0,1-10.87,2.55H63.7A24.486,24.486,0,0,1,39.24,74.98v-.02A24.5,24.5,0,0,1,63.69,50.5h.02A24.5,24.5,0,0,1,88.17,74.95v.03a24.484,24.484,0,0,1-1.27,7.78c-.14.41-.28.8-.43,1.18l-.07.17a23.682,23.682,0,0,1-2.65,4.87l-.51.73,15.55,13.98A3.4,3.4,0,0,1,99.05,108.31Zm3.57-40.14L86.85,58.31V42.55l15.77-9.85,15.76,9.85V58.31ZM77.84,19.93l-13.8,8.62v13.8l13.8-8.62ZM25.13,66.2l13.79-8.63V43.78L25.13,52.4Zm77.49-13.8V66.2l13.79-8.63V43.78Zm0,0V66.2l13.79-8.63V43.78Z" style="fill:#fff"/></svg>