<?xml version="1.0" encoding="UTF-8"?>
<svg id="Layer_1" data-name="Layer 1" xmlns="http://www.w3.org/2000/svg" viewBox="0 0 128 128">
  <path d="M125.95,73.66c-.73-11.73-10.32-21.25-22.07-21.89-3.29-.18-6.46,.32-9.35,1.38-1.32,.49-2.71-.38-2.92-1.78-2.46-17.15-18.24-29.99-36.54-27.72-16.32,2.04-28.45,16.21-28.44,32.47v.01c.01,.12,.01,.22,0,.32-.04,1.08-.66,1.6-1.86,1.53-.78-.09-1.58-.13-2.4-.13-11.86,0-21.36,10.14-20.29,22.23,.94,10.58,10.14,18.53,20.76,18.53H102.57c13.44,0,24.24-11.32,23.38-24.95Zm-32.44,18.01H34.49c-1.63,0-2.64-1.76-1.83-3.17l29.51-51.11c.81-1.41,2.85-1.41,3.66,0l29.51,51.11c.81,1.41-.2,3.17-1.83,3.17Z" style="fill: #fff;"/>
  <circle cx="64" cy="82.415" r="4.5" style="fill: #fff;"/>
  <path d="M64,73.117c-2.485,0-4.5-2.015-4.5-4.5v-13.277c0-2.485,2.015-4.5,4.5-4.5s4.5,2.015,4.5,4.5v13.277c0,2.485-2.015,4.5-4.5,4.5Z" style="fill: #fff;"/>
</svg>