<svg id="Layer_1" data-name="Layer 1" xmlns="http://www.w3.org/2000/svg" viewBox="0 0 128 128"><path d="M8.889,50.222A6.889,6.889,0,0,1,2,43.333V22.667A20.689,20.689,0,0,1,22.667,2H43.333a6.889,6.889,0,1,1,0,13.778H22.667a6.9,6.9,0,0,0-6.889,6.889V43.333A6.889,6.889,0,0,1,8.889,50.222Z" style="fill:#fff"/><path d="M105.333,126H84.667a6.889,6.889,0,1,1,0-13.778h20.666a6.894,6.894,0,0,0,6.889-6.889V84.667a6.889,6.889,0,1,1,13.778,0v20.666A20.689,20.689,0,0,1,105.333,126Z" style="fill:#fff"/><path d="M119.111,50.222a6.887,6.887,0,0,1-6.889-6.889V22.667a6.9,6.9,0,0,0-6.889-6.889H84.667A6.889,6.889,0,1,1,84.667,2h20.666A20.689,20.689,0,0,1,126,22.667V43.333A6.887,6.887,0,0,1,119.111,50.222Z" style="fill:#fff"/><path d="M43.333,126H22.667A20.689,20.689,0,0,1,2,105.333V84.667a6.889,6.889,0,0,1,13.778,0v20.666a6.9,6.9,0,0,0,6.889,6.889H43.333a6.889,6.889,0,1,1,0,13.778Z" style="fill:#fff"/></svg>