<svg id="Layer_1" data-name="Layer 1" xmlns="http://www.w3.org/2000/svg" viewBox="0 0 128 128"><path d="M64,2a62,62,0,1,0,62,62A62,62,0,0,0,64,2ZM94.31,94.23H62.05L66.27,85A16.126,16.126,0,0,0,81.06,59.09L73.94,71.42a1.656,1.656,0,0,1-2.25.6l-7.62-4.4a1.655,1.655,0,0,1-.61-2.25l7.12-12.33A16.128,16.128,0,0,0,55.17,78.31L44.39,94.23H27.2c-2.81,0-11.91-.13-16.11-8.12-4-7.61-2.61-17.55,3.78-24.72,6.15-6.9,13.22-6.11,17.02-4.7l.49-2.52A29.364,29.364,0,0,1,43.11,36.02a30.16,30.16,0,0,1,15.62-6.1,31.7,31.7,0,0,1,16.7,2.9c8.08,3.89,13.66,10.16,15.04,19.17a31.622,31.622,0,0,1,5-1.4,22.158,22.158,0,0,1,9.67.09c6.84,1.75,11.48,7.57,13.21,14.19.62,2.41,2.79,15.55-4.21,22.63C108.41,93.3,103.98,94.23,94.31,94.23Z" style="fill:#fff"/></svg>