<svg id="Layer_1" data-name="Layer 1" xmlns="http://www.w3.org/2000/svg" viewBox="0 0 128 128"><path d="M64,2a62,62,0,1,0,62,62A62,62,0,0,0,64,2Zm43.65,94.89a3.9,3.9,0,0,1-3.88,3.89H24.23a3.9,3.9,0,0,1-3.88-3.89V31.11a3.9,3.9,0,0,1,3.88-3.89h79.54a3.9,3.9,0,0,1,3.88,3.89Zm-5.31-65.82H25.67a1.485,1.485,0,0,0-1.49,1.48V45.57h79.65V32.55A1.485,1.485,0,0,0,102.34,31.07ZM33.81,42.42a4.105,4.105,0,1,1,4.11-4.11A4.108,4.108,0,0,1,33.81,42.42Zm13.67,0a4.105,4.105,0,1,1,4.11-4.11A4.108,4.108,0,0,1,47.48,42.42ZM59.21,83.65h28V78.79h-28ZM42.97,54.61,39.4,58.2,50.52,69.26,39.26,80.73l3.6,3.56L55.63,70.75l1.5-1.53L55.61,67.7Z" style="fill:#fff"/></svg>