<svg id="Layer_1" data-name="Layer 1" xmlns="http://www.w3.org/2000/svg" viewBox="0 0 128 128"><path d="M97.818,92.182H80.909a5.637,5.637,0,0,1,0-11.273H97.818a16.909,16.909,0,1,0,0-33.818H80.909a5.637,5.637,0,0,1,0-11.273H97.818a28.182,28.182,0,0,1,0,56.364Z" style="fill:#fff"/><path d="M86.545,69.636H41.455a5.636,5.636,0,1,1,0-11.272h45.09a5.636,5.636,0,1,1,0,11.272Z" style="fill:#fff"/><path d="M47.091,92.182H30.182a28.182,28.182,0,0,1,0-56.364H47.091a5.637,5.637,0,0,1,0,11.273H30.182a16.909,16.909,0,1,0,0,33.818H47.091a5.637,5.637,0,0,1,0,11.273Z" style="fill:#fff"/></svg>