<svg id="Layer_2" data-name="Layer 2" xmlns="http://www.w3.org/2000/svg" viewBox="0 0 128 128"><path d="M82.674,126a6.325,6.325,0,0,1-4.387-1.811L52.3,102.2H21.164A15.664,15.664,0,0,1,5.518,86.559V45.991A15.664,15.664,0,0,1,21.164,30.345h1.982v.013h28.83L78.349,3.815a6.224,6.224,0,0,1,10.63,4.448V119.735A6.294,6.294,0,0,1,82.7,126ZM21.169,42.893A3.131,3.131,0,0,0,18.054,46V86.584a3.127,3.127,0,0,0,3.115,3.1h33.74l.314.109a15.386,15.386,0,0,1,3.2,1.256l.092.061,18,15.174V23.431L59.284,40.758a6.272,6.272,0,0,1-4.717,2.135Zm86.164,69.577a6,6,0,0,1-5.311-8.783c5.677-10.972,8.607-24.3,8.467-38.523a98.068,98.068,0,0,0-9.214-40.944h0a5.982,5.982,0,0,1,10.775-5.2,110.37,110.37,0,0,1,10.433,46.114c.119,16.18-3.279,31.434-9.823,44.109A5.991,5.991,0,0,1,107.333,112.47Z" style="fill:#fff"/></svg>