<svg id="Layer_2" data-name="Layer 2" xmlns="http://www.w3.org/2000/svg" viewBox="0 0 128 128"><path d="M107.585,46.927c1.756,1.788,2.2,3.691,1.58,5.2-2.433,7.465-5.3,14.264-13.962,25.575-1.58,2.068-3.348,4.283-5.344,6.674a2.34,2.34,0,0,1-2.651.686A45.554,45.554,0,0,1,60.656,57.094a49.915,49.915,0,0,1-2.463-13.567,2.356,2.356,0,0,1,2.952-2.37C72.466,44.1,83.33,44.6,92.978,38.444a6.74,6.74,0,0,1,.79-.52.793.793,0,0,0,.094-.052,4.252,4.252,0,0,1,4.771.343c1.841,1.83,2.724,2.765,4.575,4.554l.073.072C104.985,44.484,105.88,45.274,107.585,46.927Z" style="fill:#fff;fill-rule:evenodd"/><path d="M124.988,13.171c-1.279,8.441-5.032,17.476-11.7,26.167a2.377,2.377,0,0,1-3.264.488A39.046,39.046,0,0,1,106,36.562a2.349,2.349,0,0,1-.291-3.129c6.654-8.816,10.708-18.349,10.157-24.889,1.029-1.715,6.976-.374,8.879,3.171A2.441,2.441,0,0,1,124.988,13.171Z" style="fill:#fff;fill-rule:evenodd"/><path d="M107.585,46.927c-1.7-1.653-2.6-2.443-4.3-4.086l-.073-.072c-1.851-1.789-2.734-2.724-4.575-4.554a4.252,4.252,0,0,0-4.771-.343.793.793,0,0,1-.094.052,6.74,6.74,0,0,0-.79.52C83.33,44.6,72.466,44.1,61.145,41.157a2.356,2.356,0,0,0-2.952,2.37,49.915,49.915,0,0,0,2.463,13.567A45.554,45.554,0,0,0,87.208,85.06a2.34,2.34,0,0,0,2.651-.686c2-2.391,3.764-4.606,5.344-6.674,8.66-11.311,11.529-18.11,13.962-25.575C109.789,50.618,109.341,48.715,107.585,46.927Zm17.164-35.212c-1.9-3.545-7.85-4.886-8.879-3.171.551,6.54-3.5,16.073-10.157,24.889A2.349,2.349,0,0,0,106,36.562a39.046,39.046,0,0,0,4.024,3.264,2.377,2.377,0,0,0,3.264-.488c6.664-8.691,10.417-17.726,11.7-26.167A2.441,2.441,0,0,0,124.749,11.715Z" style="fill:#fff;fill-rule:evenodd"/><polygon points="88.502 2 92.012 12.353 102.365 15.863 92.012 19.373 88.502 29.726 84.992 19.373 74.639 15.863 84.992 12.353 88.502 2" style="fill:#fff;fill-rule:evenodd"/><polygon points="31.687 2 38.953 23.431 60.384 30.697 38.953 37.964 31.687 59.394 24.42 37.964 2.99 30.697 24.42 23.431 31.687 2" style="fill:#fff;fill-rule:evenodd"/><path d="M102.854,77.866c-2.266,3.16-4.959,6.612-8.2,10.5a8.569,8.569,0,0,1-6.6,3.1,8.432,8.432,0,0,1-3.16-.613A51.286,51.286,0,0,1,54.273,57.593c-15.282,2.485-29.109,14.16-29.348,32.644a1.806,1.806,0,0,1-2.079,1.768C12.813,90.3,2.812,98.4,2.989,108.909A17.093,17.093,0,0,0,20.091,126H97.947C129.822,124.846,127.982,82.263,102.854,77.866ZM58.847,106.809l-3.5,10.354L51.83,106.809,41.476,103.3l10.354-3.5,3.514-10.354,3.5,10.354L69.2,103.3Z" style="fill:#fff;fill-rule:evenodd"/></svg>