<svg id="Layer_1" data-name="Layer 1" xmlns="http://www.w3.org/2000/svg" viewBox="0 0 128 128"><path d="M52.444,3.555h.017v.007a50.428,50.428,0,0,1,50.419,50.4h.006v.073h-.006a50.4,50.4,0,0,1-2.617,16.037q-.426,1.266-.885,2.431v.007a50.437,50.437,0,0,1-5.6,10.4l29.347,26.379.019.016.158.148.012.011a8.716,8.716,0,0,1,.675,11.859l-.011.015-.177.21-.035.034-.147.162-.016.021a8.719,8.719,0,0,1-11.859.674l-.014-.011-.21-.176-.029-.025L81.479,95.247q-1.332.944-2.711,1.78c-1.245.762-2.533,1.48-3.848,2.134a50.205,50.205,0,0,1-22.476,5.271v.007h-.016v-.007a50.426,50.426,0,0,1-50.42-50.4H2v-.051h.008a50.425,50.425,0,0,1,50.4-50.419V3.555Zm.015,15.5v.007h-.044v-.007A34.949,34.949,0,0,0,17.5,53.984h.005v.045H17.5A34.949,34.949,0,0,0,52.43,88.939v-.006h.044v.006a34.948,34.948,0,0,0,34.91-34.926h-.006v-.044h.006A34.95,34.95,0,0,0,52.459,19.055Z" style="fill:#fff"/></svg>