<svg xmlns="http://www.w3.org/2000/svg" viewBox="0 0 128 128"><g id="Layer_7" data-name="Layer 7"><path d="M34.547,61.587H97.37a6.282,6.282,0,0,1,1.5.121,4.462,4.462,0,0,1,2.168,1.174,4.082,4.082,0,0,1,1.234,2.514,5.767,5.767,0,0,1-.045,1.083l-5.349,55.427h0v.308h0a5.376,5.376,0,0,1-.149.677h0v.046h0A4.432,4.432,0,0,1,92.617,126H39.175a3.931,3.931,0,0,1-1.813-.5h0a4.651,4.651,0,0,1-2.319-3.672L29.775,66.517a5.864,5.864,0,0,1-.045-1.249,4.047,4.047,0,0,1,1.227-2.476A4.525,4.525,0,0,1,33.214,61.6a6.767,6.767,0,0,1,1.348-.1ZM62.08,79.9a3.589,3.589,0,0,1,7.141,0v27.847a3.589,3.589,0,0,1-7.141,0Zm17.856-.149A3.446,3.446,0,0,1,83.7,76.7a3.363,3.363,0,0,1,3.39,3.336h0v.022l-1.5,27.845a3.438,3.438,0,0,1-3.763,3.055,3.366,3.366,0,0,1-3.394-3.335V107.6Zm-34.979.3a3.357,3.357,0,0,1,3.357-3.356h.03a3.448,3.448,0,0,1,3.763,3.055L53.612,107.6a3.363,3.363,0,0,1-3.371,3.352h-.029a3.439,3.439,0,0,1-3.762-3.054l-1.5-27.837Z" style="fill:#fff;fill-rule:evenodd"/></g><g id="Layer_2" data-name="Layer 2"><path d="M119.534,6.034l-.068,24.552,2.185.006h0c.07,0,.14,0,.21,0a4.681,4.681,0,0,1,3.118,1.382h0a4.686,4.686,0,0,1,1.341,3.288l-.043,15.348a4.686,4.686,0,0,1-4.7,4.435h0l-2.189-.006-.071,25.273a3.666,3.666,0,0,1-3.466,3.353l-8.079-.023a2.021,2.021,0,0,1-2.015-2.027L105.977,3.6a2.021,2.021,0,0,1,2-2.015l7.879.022h0a1.213,1.213,0,0,1,.241,0h0a3.685,3.685,0,0,1,3.379,3.038A7.939,7.939,0,0,1,119.534,6.034Z" style="fill:#fff;fill-rule:evenodd"/></g><g id="Layer_3" data-name="Layer 3"><path d="M87.678,28.347,80.3,52.481a7.369,7.369,0,0,1-9.139,4.868L47.027,49.971a7.329,7.329,0,0,1,4.281-14.018l8.172,2.5A49.5,49.5,0,0,0,10.7,17.9c-.424.065-.837.141-1.261.228a6.043,6.043,0,0,1-.63.033A7.389,7.389,0,0,1,6.5,3.756c.652-.13,1.315-.25,1.967-.358A64.146,64.146,0,0,1,71.715,30.444l1.956-6.379a7.323,7.323,0,0,1,14.007,4.282Z" style="fill:#fff"/></g></svg>