<svg id="Layer_1" data-name="Layer 1" xmlns="http://www.w3.org/2000/svg" viewBox="0 0 128 128"><g id="unlock"><g id="Group_4" data-name="Group 4"><path d="M103.531,51.694H98.3V36.31a34.32,34.32,0,0,0-68.64.02,6.917,6.917,0,0,0,13.833,0,20.545,20.545,0,1,1,41.089-.02V51.694H24.591a7.093,7.093,0,0,0-7.08,6.916v53.55a13.936,13.936,0,0,0,14,13.84h65.1a13.936,13.936,0,0,0,13.878-13.84V58.587A6.986,6.986,0,0,0,103.531,51.694Zm-6.76,60.386a.239.239,0,0,1-.213.2H31.633a.358.358,0,0,1-.023-.122V65.412H96.771Z" style="fill:#fff"/><path d="M63.944,104.982a6.866,6.866,0,0,1-6.8-6.921V81.46a6.859,6.859,0,1,1,13.718,0V98.079a6.88,6.88,0,0,1-6.856,6.9Z" style="fill:#fff"/></g></g></svg>