<svg id="Layer_2" data-name="Layer 2" xmlns="http://www.w3.org/2000/svg" viewBox="0 0 128 128"><path d="M14.314,123.241a6.312,6.312,0,0,1-4.463-10.774L114.271,8.047a6.312,6.312,0,0,1,8.926,8.927L18.777,121.392A6.267,6.267,0,0,1,14.314,123.241Z" style="fill:#fff"/><path d="M76.51,106.28,63.288,95.1a6.142,6.142,0,0,0-8.2.379h0a6.142,6.142,0,0,0,.345,9.063L78.29,124.19A6.3,6.3,0,0,0,82.67,126h.03a6.3,6.3,0,0,0,6.28-6.26v-43.5a6.2,6.2,0,0,0-9.913-4.957l-.731.548a4.566,4.566,0,0,0-1.826,3.652ZM87.15,3.8a6.223,6.223,0,0,0-8.8.02L51.98,30.36H23.15v-.02H21.16A15.665,15.665,0,0,0,5.52,45.99V87.374a6.2,6.2,0,0,0,6.182,6.2h.139a6.2,6.2,0,0,0,6.209-6.2V46a3.148,3.148,0,0,1,3.12-3.11h33.4a6.255,6.255,0,0,0,4.71-2.13L76.51,23.43v.327a6.235,6.235,0,0,0,10.644,4.409h0a6.235,6.235,0,0,0,1.826-4.409V8.26A6.278,6.278,0,0,0,87.15,3.8Z" style="fill:#fff"/></svg>