<svg id="Layer_2" data-name="Layer 2" xmlns="http://www.w3.org/2000/svg" viewBox="0 0 128 128"><path d="M81.473,111.577a17.7,17.7,0,0,1-2.043,5.576,17.946,17.946,0,0,1-3.96,4.689,17.512,17.512,0,0,1-5.335,3.116,18.54,18.54,0,0,1-12.256,0,17.265,17.265,0,0,1-5.325-3.116,17.915,17.915,0,0,1-3.96-4.689,17.479,17.479,0,0,1-2.073-5.763,1.888,1.888,0,0,1,1.521-2.189c.031,0,.334-.031.334-.031H79.659a1.9,1.9,0,0,1,1.9,1.9,2.842,2.842,0,0,1-.083.51ZM78.44,10.39a41.947,41.947,0,0,1,6.128,3.032c.072.052.156.094.229.146a41.5,41.5,0,0,1,5.231,3.8A39.746,39.746,0,0,1,98.573,27.7a42.929,42.929,0,0,1,2.9,6.107h0a38.2,38.2,0,0,1,1.855,6.68,40.188,40.188,0,0,1,.615,7.044v7.639c.011,2.438.021,4.825.042,7.148v.021h0a54.041,54.041,0,0,0,.406,6.336,50.376,50.376,0,0,0,1.126,6.065h0a31.724,31.724,0,0,0,1.98,5.544,35.811,35.811,0,0,0,3.116,5.357h.01a32.34,32.34,0,0,0,4.533,5.075,53.04,53.04,0,0,0,6.524,5.064,3.1,3.1,0,0,1-1.73,5.669v.011H8.057A3.1,3.1,0,0,1,6.452,95.7a54.576,54.576,0,0,0,6.471-5.054,30.941,30.941,0,0,0,4.5-5.107.822.822,0,0,1,.115-.146,36.789,36.789,0,0,0,2.991-5.22A32.629,32.629,0,0,0,22.552,74.6c.011-.042.021-.084.032-.115a45.45,45.45,0,0,0,1.094-5.867,53.187,53.187,0,0,0,.385-6.4V47.53a39.244,39.244,0,0,1,.636-7.055,37.293,37.293,0,0,1,1.865-6.711,42.108,42.108,0,0,1,2.929-6.148,39.41,39.41,0,0,1,8.618-10.359,40.5,40.5,0,0,1,5.5-3.949A38.437,38.437,0,0,1,54.368,8.889a9.308,9.308,0,0,1,2.751-4.533A10.08,10.08,0,0,1,64.195,2a10.209,10.209,0,0,1,7.013,2.418c6.263,5.575-1.532,2.511,7.232,5.971Z" style="fill:#fff"/></svg>