<svg xmlns="http://www.w3.org/2000/svg" id="Layer_1" data-name="Layer 1" viewBox="0 0 102.333 85.278"><path d="M7.667,81.389A2.5,2.5,0,0,1,5.523,77.6l43.5-72.5a2.5,2.5,0,0,1,4.287,0l43.5,72.5a2.5,2.5,0,0,1-2.143,3.786Zm45.5-12.3V65.1h-3.99v3.989Zm0-17.971V29.153h-3.99v21.96Z" style="fill:#fff"/><path d="M51.167,6.389l43.5,72.5h-87l43.5-72.5m-4.5,47.225h8.99V26.653h-8.99V53.614m0,17.971h8.99V62.594h-8.99v8.991m4.5-70.2a5,5,0,0,0-4.288,2.427l-43.5,72.5a5,5,0,0,0,4.288,7.573h87a5,5,0,0,0,4.287-7.573l-43.5-72.5a5,5,0,0,0-4.287-2.427Z" style="fill:#222"/></svg>