<svg id="Layer_2" data-name="Layer 2" xmlns="http://www.w3.org/2000/svg" viewBox="0 0 128 128"><path d="M87.62,15.887a6.918,6.918,0,0,1,0-13.836h31.31a6.918,6.918,0,0,1,6.916,6.918V40.861a6.918,6.918,0,1,1-13.835.166c0-.055,0-.111,0-.166V25.629l-27.3,27.419a6.917,6.917,0,0,1-9.765-9.708l27.395-27.453ZM40.326,112.216a6.918,6.918,0,1,1,.166,13.835c-.055,0-.111,0-.166,0H8.977a6.917,6.917,0,0,1-6.918-6.916h0V87.207a6.918,6.918,0,0,1,13.835,0h0v15.232L43.217,75.032a6.918,6.918,0,0,1,9.766,9.7L25.569,112.216Z" style="fill:#fff"/></svg>