<svg id="Layer_2" data-name="Layer 2" xmlns="http://www.w3.org/2000/svg" viewBox="0 0 128 128"><path d="M61.136,2.078C33.807,3.572,12.693,26.766,12.693,54.136v67.457a1.847,1.847,0,0,0,3.154,1.306l20.64-20.64a1.847,1.847,0,0,1,2.612,0l23.2,23.2a1.847,1.847,0,0,0,2.612,0l22.873-22.881a1.847,1.847,0,0,1,2.612,0L101.823,114l5.489,5.49,4.842,4.835a1.847,1.847,0,0,0,3.153-1.307V53.307A51.366,51.366,0,0,0,61.136,2.078ZM87.784,83.684,64.911,106.556a1.847,1.847,0,0,1-2.612,0L39.1,83.365a1.847,1.847,0,0,0-2.612,0l-7.156,7.156a1.848,1.848,0,0,1-3.154-1.306V53.986c0-20.053,15.343-37.145,35.354-38.423a37.862,37.862,0,0,1,40.292,37.744V90.651a1.848,1.848,0,0,1-3.154,1.306L90.4,83.684A1.846,1.846,0,0,0,87.784,83.684Z" style="fill:#fff"/><path d="M51.119,48.44A11.244,11.244,0,1,1,39.875,59.684,11.244,11.244,0,0,1,51.119,48.44Z" style="fill:#fff"/><path d="M82.214,48.44A11.244,11.244,0,1,1,70.979,60.148,11.244,11.244,0,0,1,82.214,48.44Z" style="fill:#fff"/></svg>