<svg id="Layer_1" data-name="Layer 1" xmlns="http://www.w3.org/2000/svg" viewBox="0 0 128 128"><polygon points="45.35 52.22 27.42 52.22 45.35 34.29 45.35 52.22" style="fill:#fff"/><path d="M64,2a62,62,0,1,0,62,62A62,62,0,0,0,64,2Zm43.65,94.91a3.875,3.875,0,0,1-3.88,3.87H24.23a3.884,3.884,0,0,1-3.88-3.88V53.03a1.969,1.969,0,0,1,.58-1.39L44.77,27.8a1.969,1.969,0,0,1,1.39-.58H68.69a.452.452,0,0,1,.39.68,22.743,22.743,0,0,0-1.69,4,.45.45,0,0,1-.43.32H50.35V53.34a3.884,3.884,0,0,1-3.88,3.88H25.35V95.78h77.3V57.53a.44.44,0,0,1,.18-.36,22.259,22.259,0,0,0,4.02-3.8.452.452,0,0,1,.8.29ZM92.81,71.7H35.19a1.8,1.8,0,0,1-1.8-1.8V68.64a1.793,1.793,0,0,1,1.8-1.8H92.81a1.793,1.793,0,0,1,1.8,1.8V69.9A1.8,1.8,0,0,1,92.81,71.7Zm1.8,11.41v1.26a1.793,1.793,0,0,1-1.8,1.8H35.19a1.793,1.793,0,0,1-1.8-1.8V83.11a1.8,1.8,0,0,1,1.8-1.8H92.81A1.8,1.8,0,0,1,94.61,83.11ZM89.22,57.22a18.435,18.435,0,1,1,18.43-18.43A18.437,18.437,0,0,1,89.22,57.22Zm9.6-28.5a2.921,2.921,0,0,0-2.07.86L84.56,41.78l-5.07-5.06a2.977,2.977,0,0,0-4.13,0,2.909,2.909,0,0,0,0,4.13l7.12,7.14a2.944,2.944,0,0,0,2.08.86,2.88,2.88,0,0,0,2.07-.86l14.26-14.26a2.935,2.935,0,0,0-2.07-5.01Z" style="fill:#fff"/></svg>