<svg id="Layer_1" data-name="Layer 1" xmlns="http://www.w3.org/2000/svg" viewBox="0 0 128 128"><g id="unlock"><g id="Group_4" data-name="Group 4"><path d="M110.45,57.886a7.141,7.141,0,0,0-.28-1.31c-.01-.01-.01-.02-.01-.04a6.989,6.989,0,0,0-6.63-4.84H98.3v-9.39A34.4,34.4,0,0,0,73.35,9.3c-.26-.08-.53-.16-.81-.22a35.111,35.111,0,0,0-5.93-.98c-.1-.01-.2-.02-.3-.02-.4-.03-.81-.05-1.22-.06-.35-.01-.7-.02-1.06-.02-.38,0-.75.01-1.12.02-.41.01-.82.03-1.22.06-.1.01-.2.01-.3.02-.51.04-1.01.09-1.51.15-1.01.12-1.99.29-2.97.49-.49.1-.97.22-1.45.34-.27.07-.54.15-.81.22a35.424,35.424,0,0,0-3.94,1.38c-.85.36-1.68.76-2.5,1.18H48.2A34.394,34.394,0,0,0,29.7,42.31V51.7H24.59a7.2,7.2,0,0,0-6.75,4.84c0,.02-.01.03-.01.04a7.141,7.141,0,0,0-.28,1.31c-.02.23-.04.46-.04.7v53.57c0,.24.01.48.02.71a13.53,13.53,0,0,0,2.38,7.02c.25.37.52.72.8,1.07a10.557,10.557,0,0,0,.91.98c.32.31.63.6.97.89.18.15.37.29.55.42a14.036,14.036,0,0,0,7.65,2.73c.2.02.4.02.6.02h65.1c.24,0,.48-.01.72-.02a13.722,13.722,0,0,0,7.65-2.73c.19-.14.37-.28.55-.42.33-.28.66-.57.97-.89s.62-.64.91-.98a11.909,11.909,0,0,0,.8-1.07,13.93,13.93,0,0,0,2.38-7.02c.01-.23.02-.47.02-.71V58.606A5.586,5.586,0,0,0,110.45,57.886ZM43.42,42.306c0-.27.01-.55.02-.82a5.054,5.054,0,0,1,.03-.55c.01-.16.02-.32.03-.47l.03-.27c.02-.22.05-.44.08-.66.06-.42.13-.84.21-1.25a14.711,14.711,0,0,1,.35-1.45c.07-.28.16-.56.25-.84.06-.22.14-.43.22-.64a19.681,19.681,0,0,1,1.74-3.64,5.925,5.925,0,0,1,.33-.53,1.027,1.027,0,0,1,.09-.15c.13-.19.25-.37.38-.55a18.857,18.857,0,0,1,2.02-2.43c.15-.17.31-.32.47-.47a6.591,6.591,0,0,1,.55-.52,12.244,12.244,0,0,1,1.19-.99,6.491,6.491,0,0,1,.61-.46,6.42,6.42,0,0,1,.63-.43,6.344,6.344,0,0,1,.65-.41A20.08,20.08,0,0,1,60.91,22c.03,0,.06-.01.09-.01.29-.04.58-.08.87-.11a1.8,1.8,0,0,1,.22-.02c.3-.03.61-.05.91-.06.32-.02.65-.03.97-.03.34,0,.69.01,1.03.03.3.01.61.03.91.06a1.8,1.8,0,0,0,.22.02A20.57,20.57,0,0,1,84.58,42.31V51.7H43.42Zm53.35,69.77a.244.244,0,0,1-.21.21H31.63a.441.441,0,0,1-.02-.13V65.416H96.77Z" style="fill:#fff"/><path d="M63.944,104.982a6.865,6.865,0,0,1-6.8-6.921V81.46a6.859,6.859,0,1,1,13.718-.007V98.079a6.88,6.88,0,0,1-6.856,6.9Z" style="fill:#fff"/></g></g></svg>