<svg id="Layer_2" data-name="Layer 2" xmlns="http://www.w3.org/2000/svg" viewBox="0 0 128 128"><path d="M116.506,17.665h-52.7A1.905,1.905,0,0,0,61.9,19.573v9.746a1.905,1.905,0,0,0,1.908,1.908h46.723a1.907,1.907,0,0,1,1.909,1.909V94.864a1.907,1.907,0,0,1-1.909,1.909H63.806A1.905,1.905,0,0,0,61.9,98.681v9.746a1.905,1.905,0,0,0,1.908,1.908h52.7A9.5,9.5,0,0,0,126,100.842V27.158A9.5,9.5,0,0,0,116.506,17.665Z" style="fill:#fff"/><path d="M42.765,2H37.437A4.12,4.12,0,0,0,33.32,6.117V17.665H11.494A9.5,9.5,0,0,0,2,27.158v73.684a9.5,9.5,0,0,0,9.494,9.493H33.32v11.548A4.12,4.12,0,0,0,37.437,126h5.328a4.113,4.113,0,0,0,4.117-4.117V6.117A4.113,4.113,0,0,0,42.765,2ZM17.471,96.773a1.907,1.907,0,0,1-1.909-1.909V33.136a1.907,1.907,0,0,1,1.909-1.909H33.32V96.773Z" style="fill:#fff"/></svg>