<?xml version="1.0" encoding="UTF-8"?>
<svg id="Layer_1" data-name="Layer 1" xmlns="http://www.w3.org/2000/svg" viewBox="0 0 128 128">
  <path d="M102.57,98.61H22.84c-10.62,0-19.82-7.95-20.76-18.53-1.07-12.09,8.43-22.23,20.29-22.23,.82,0,1.62,.04,2.4,.13,1.2,.07,1.82-.45,1.86-1.53,.01-.1,.01-.2,0-.32v-.01c-.01-16.26,12.12-30.43,28.44-32.47,18.3-2.27,34.08,10.57,36.54,27.72,.21,1.4,1.6,2.27,2.92,1.78,2.89-1.06,6.06-1.56,9.35-1.38,11.75,.64,21.34,10.16,22.07,21.89,.86,13.63-9.94,24.95-23.38,24.95Z" style="fill: #fff;"/>
</svg>