<?xml version="1.0" encoding="UTF-8" standalone="no"?>
<!-- Created with Inkscape (http://www.inkscape.org/) -->

<svg
   width="491.09656"
   height="483.92053"
   viewBox="0 0 129.93597 128.0373"
   version="1.1"
   id="svg5"
   inkscape:version="1.1.2 (0a00cf5339, 2022-02-04)"
   sodipodi:docname="icon_file.svg"
   xmlns:inkscape="http://www.inkscape.org/namespaces/inkscape"
   xmlns:sodipodi="http://sodipodi.sourceforge.net/DTD/sodipodi-0.dtd"
   xmlns="http://www.w3.org/2000/svg"
   xmlns:svg="http://www.w3.org/2000/svg">
  <sodipodi:namedview
     id="namedview7"
     pagecolor="#ffffff"
     bordercolor="#666666"
     borderopacity="1.0"
     inkscape:pageshadow="2"
     inkscape:pageopacity="0.0"
     inkscape:pagecheckerboard="0"
     inkscape:document-units="mm"
     showgrid="false"
     fit-margin-top="20"
     fit-margin-left="20"
     fit-margin-right="20"
     fit-margin-bottom="20"
     units="px"
     lock-margins="true"
     inkscape:zoom="0.5"
     inkscape:cx="399"
     inkscape:cy="572"
     inkscape:window-width="1920"
     inkscape:window-height="1007"
     inkscape:window-x="1366"
     inkscape:window-y="0"
     inkscape:window-maximized="1"
     inkscape:current-layer="layer1" />
  <defs
     id="defs2" />
  <g
     inkscape:label="Capa 1"
     inkscape:groupmode="layer"
     id="layer1"
     transform="translate(0.51839304,2.5720636)">
    <path
       style="fill:#ffffff;stroke-width:0.264583"
       d="m 45.284402,119.62186 c -3.025109,-1.04024 -5.611196,-3.28513 -7.063219,-6.13133 -1.240943,-2.43245 -1.274733,-3.14356 -1.279618,-26.929177 -0.0031,-14.94727 0.0906,-22.89601 0.28216,-23.94479 0.704144,-3.85512 3.182705,-7.07009 6.771859,-8.78387 l 2.069513,-0.98817 16.232113,-0.0758 16.232113,-0.0758 1.09809,0.64588 c 1.6375,0.96316 11.54009,11.34534 11.97019,12.54991 0.45643,1.27833 0.53659,41.931487 0.0875,44.360987 -0.82185,4.4458 -3.84877,7.9426 -8.12122,9.38188 -1.58714,0.53467 -2.10288,0.54921 -19.168009,0.54059 -16.967442,-0.009 -17.58813,-0.0265 -19.111442,-0.55026 z m 36.725621,-5.89007 c 1.3927,-0.58191 2.74403,-1.94327 3.26238,-3.28658 0.44645,-1.15699 0.48019,-2.47156 0.48019,-18.706937 v -17.4625 l -5.82083,-0.13229 c -6.2233,-0.14144 -6.45638,-0.18997 -7.63421,-1.58975 -1.06013,-1.25989 -1.22627,-2.37946 -1.22786,-8.27382 l -0.001,-5.49795 -11.840106,0.074 c -11.416328,0.0713 -11.877984,0.0938 -12.898437,0.62646 -1.448125,0.75594 -2.674191,2.43489 -3.030114,4.14937 -0.202755,0.97667 -0.269388,8.18454 -0.218345,23.61959 0.0725,21.923297 0.08072,22.229677 0.628502,23.413347 0.589455,1.27373 1.842344,2.4925 3.149124,3.06338 1.195366,0.5222 33.901986,0.52563 35.151176,0.004 z M 29.401679,90.517303 C 16.229165,88.599073 6.3434143,78.327173 4.9166963,65.075883 c -0.674132,-6.26129 1.052034,-13.14014 4.675886,-18.63362 2.4752747,-3.75233 7.3199517,-7.90479 11.5103297,-9.8657 l 1.734767,-0.8118 0.150646,-3.23408 C 23.628084,18.796283 33.281386,7.1435926 46.97162,3.5799826 c 3.140938,-0.81759 8.870386,-1.11082 12.1979,-0.62427 6.793434,0.99333 13.178083,4.19364 18.018433,9.0317604 l 2.28328,2.28222 2.8761,0.14235 c 11.93292,0.59059 21.719407,9.01132 24.291687,20.90166 0.11753,0.5433 0.50453,0.90062 1.5415,1.42327 3.82159,1.92617 7.72215,5.16688 10.31124,8.56693 1.69444,2.22517 3.99863,6.96548 4.69425,9.65729 2.08273,8.0594 0.67284,16.41239 -3.91874,23.21681 -4.81449,7.13477 -11.98813,11.37953 -21.145407,12.51209 l -1.38906,0.1718 v -4.34302 -4.34301 l 1.94196,-0.30191 c 12.423417,-1.93143 20.059997,-15.19003 15.483887,-26.88309 -2.07503,-5.3022 -7.33121,-10.09417 -12.82328,-11.69076 -2.010597,-0.58449 -2.629957,-1.41966 -2.862717,-3.86016 -0.44749,-4.69217 -2.06281,-8.23378 -5.17183,-11.33936 -3.92043,-3.9161 -8.8175,-5.57318 -14.64377,-4.95522 -2.93661,0.31148 -3.50371,0.0944 -4.84625,-1.85502 -3.05176,-4.43128 -8.058399,-7.91009 -13.458207,-9.3513 -2.964407,-0.79121 -8.383865,-0.80009 -11.297303,-0.0185 -8.518628,2.28523 -15.04171,8.95401 -17.040735,17.42135 -0.491503,2.08188 -0.605366,6.07621 -0.267925,9.39876 l 0.233619,2.30027 -0.762785,0.76084 c -0.53145,0.53009 -1.324483,0.89902 -2.614869,1.21648 -5.951358,1.46414 -11.359965,6.07611 -13.711883,11.69226 -2.91347,6.95708 -1.378567,15.29896 3.843975,20.89121 3.1399,3.36217 6.589979,5.28208 11.046769,6.14734 l 2.391241,0.46424 7.93e-4,4.29948 c 0.0011,4.91675 0.320697,4.45491 -2.771907,4.00455 z"
       id="path854" />
  </g>
</svg>
