<svg id="Layer_1" data-name="Layer 1" xmlns="http://www.w3.org/2000/svg" viewBox="0 0 128 128"><path d="M106.971,24.577a102.262,102.262,0,0,0-25.24-7.828.382.382,0,0,0-.405.192A71.251,71.251,0,0,0,78.183,23.4a94.4,94.4,0,0,0-28.349,0,65.189,65.189,0,0,0-3.191-6.455.4.4,0,0,0-.406-.192A102.009,102.009,0,0,0,21,24.577a.366.366,0,0,0-.166.143C4.756,48.737.352,72.163,2.513,95.3a.42.42,0,0,0,.161.289A102.8,102.8,0,0,0,33.637,111.24a.4.4,0,0,0,.435-.142,73.489,73.489,0,0,0,6.334-10.3.392.392,0,0,0-.172-.527l-.043-.019a67.79,67.79,0,0,1-9.673-4.61.4.4,0,0,1-.141-.544.4.4,0,0,1,.1-.116c.65-.487,1.3-.993,1.921-1.5a.385.385,0,0,1,.4-.055,73.325,73.325,0,0,0,62.317,0,.382.382,0,0,1,.406.05c.621.511,1.271,1.023,1.926,1.51a.4.4,0,0,1,.079.557.411.411,0,0,1-.113.1,63.558,63.558,0,0,1-9.677,4.6.4.4,0,0,0-.229.511l.018.04a82.485,82.485,0,0,0,6.33,10.3.393.393,0,0,0,.435.147A102.485,102.485,0,0,0,125.3,95.588a.393.393,0,0,0,.162-.285c2.586-26.748-4.331-49.981-18.334-70.578a.31.31,0,0,0-.161-.148ZM43.437,81.211c-6.11,0-11.144-5.609-11.144-12.5s4.936-12.5,11.144-12.5c6.256,0,11.241,5.659,11.144,12.5C54.581,75.6,49.644,81.211,43.437,81.211Zm41.2,0c-6.11,0-11.144-5.609-11.144-12.5s4.936-12.5,11.144-12.5c6.255,0,11.241,5.659,11.143,12.5C95.783,75.6,90.9,81.211,84.64,81.211Z" style="fill:#fff"/></svg>