<svg id="Layer_4" data-name="Layer 4" xmlns="http://www.w3.org/2000/svg" viewBox="0 0 128 128"><path d="M64,2A62,62,0,1,1,2,64H2A62,62,0,0,1,64,2ZM77.988,48.958a4.66,4.66,0,1,1,6.532,6.648h0L66.808,73.1a4.673,4.673,0,0,1-6.545,0L42.812,55.862a4.659,4.659,0,0,1,6.507-6.66l9.611,9.523.1-33.533a4.671,4.671,0,0,1,9.329.077l-.1,33.276,9.7-9.587ZM26.86,91.783V73.534a4.672,4.672,0,0,1,9.331.09V86.906H91.757V73.534a4.672,4.672,0,0,1,9.336-.392c.008.161.008.322,0,.482V91.783h0a4.672,4.672,0,0,1-4.62,4.453H31.545a4.658,4.658,0,0,1-4.62-4.453Z" style="fill:#fff;fill-rule:evenodd"/></svg>