<svg id="Layer_1" data-name="Layer 1" xmlns="http://www.w3.org/2000/svg" viewBox="0 0 128 128"><path d="M26.956,27.51a5.831,5.831,0,1,1-5.823-5.823A5.837,5.837,0,0,1,26.956,27.51Z" style="fill:#fff"/><path d="M46.373,27.51a5.831,5.831,0,1,1-5.824-5.823A5.838,5.838,0,0,1,46.373,27.51Z" style="fill:#fff"/><path d="M120.489,11.758H7.511A5.547,5.547,0,0,0,2,17.283v93.434a5.547,5.547,0,0,0,5.511,5.525H120.489A5.547,5.547,0,0,0,126,110.717V17.283A5.547,5.547,0,0,0,120.489,11.758ZM52.111,73.588,33.973,92.82,28.86,87.763,44.853,71.471l-15.8-15.709,5.071-5.1L52.083,69.255l2.159,2.159ZM96.967,91.911H57.2v-6.9H96.967Zm23.607-54.089H7.44V19.329a2.109,2.109,0,0,1,2.116-2.1h108.9a2.109,2.109,0,0,1,2.116,2.1Z" style="fill:#fff"/></svg>