<svg id="Layer_1" data-name="Layer 1" xmlns="http://www.w3.org/2000/svg" viewBox="0 0 128 128"><path d="M64,126a62,62,0,1,1,62-62A62,62,0,0,1,64,126ZM64,14.4A49.6,49.6,0,1,0,113.6,64,49.6,49.6,0,0,0,64,14.4Z" style="fill:#fff"/><path d="M64.061,98.161A9.331,9.331,0,0,1,64,79.5h.061a9.331,9.331,0,0,1,0,18.661Z" style="fill:#fff"/><path d="M61.369,72.2A5.371,5.371,0,0,1,56,66.525a14.035,14.035,0,0,1,.829-4.692A7.267,7.267,0,0,1,60.936,58l3.285-1.449c4.18-1.845,5.058-4.655,5.058-6.688a6.361,6.361,0,0,0-6.393-6.393,6.374,6.374,0,0,0-5.845,3.365,6.13,6.13,0,0,1-5.416,3.221h0A6.149,6.149,0,0,1,46.114,41.1,16.246,16.246,0,0,1,47.3,39.212a19.33,19.33,0,0,1,7-5.863,19.661,19.661,0,0,1,8.924-2.182A18.869,18.869,0,0,1,77,36.568a17.675,17.675,0,0,1,5.545,13.34c0,6.471-2.512,10.873-7.679,13.456-2.415,1.209-4.18,2.235-4.806,3.386a3.8,3.8,0,0,0-.345,1.137A5.3,5.3,0,0,1,64.452,72.2Z" style="fill:#fff"/></svg>