<?xml version="1.0" encoding="UTF-8"?>
<svg id="Layer_1" data-name="Layer 1" xmlns="http://www.w3.org/2000/svg" viewBox="0 0 128 128">
  <g>
    <path d="M15.394,126c-7.385,0-13.394-6.009-13.394-13.394V57.259c0-7.385,6.008-13.394,13.394-13.394h55.355c7.385,0,13.394,6.008,13.394,13.394v55.347c0,7.385-6.009,13.394-13.394,13.394H15.394Zm2.503-71.215c-2.74,0-4.969,2.229-4.969,4.969v50.358c0,2.739,2.229,4.969,4.969,4.969h50.35c2.739,0,4.969-2.229,4.969-4.969V59.754c0-2.74-2.229-4.969-4.969-4.969H17.897Z" style="fill: #fff;"/>
    <path d="M88.986,104.909v-10.866l1.741-.128c1.973-.144,3.521-1.807,3.524-3.786V37.548c-.003-2.087-1.705-3.788-3.795-3.788H37.875c-1.972,.001-3.631,1.544-3.775,3.513l-.127,1.742h-10.884v-2.849c0-7.386,6.01-13.395,13.396-13.396h55.349c7.386,0,13.396,6.01,13.396,13.396v55.35c-.003,7.384-6.012,13.393-13.396,13.395h-2.85Z" style="fill: #fff;"/>
    <path d="M109.754,84.139v-10.865l1.741-.128c1.973-.146,3.521-1.809,3.524-3.787V16.779c-.003-2.087-1.705-3.788-3.795-3.788H58.644c-1.972,.001-3.631,1.544-3.774,3.512l-.127,1.742h-10.885v-2.849c0-7.386,6.01-13.395,13.396-13.396h55.349c7.386,0,13.396,6.01,13.396,13.396v55.349c-.003,7.384-6.012,13.393-13.396,13.395h-2.85Z" style="fill: #fff;"/>
  </g>
  <rect x="20.763" y="79.473" width="44.617" height="10.92" style="fill: #fff;"/>
</svg>