<svg id="Layer_1" data-name="Layer 1" xmlns="http://www.w3.org/2000/svg" viewBox="0 0 128 128"><path d="M64,2a62,62,0,1,0,62,62A62,62,0,0,0,64,2ZM78.45,28.46l2.41-7.13,2.42,7.13,7.12,2.41-7.12,2.42-2.42,7.12-2.41-7.12-7.13-2.42ZM62.04,48.28c7.79,2.03,15.26,2.37,21.9-1.87a4.623,4.623,0,0,1,.55-.35.209.209,0,0,1,.06-.04,2.935,2.935,0,0,1,3.29.24c.63.62,1.09,1.09,1.56,1.57l.73.73c.26.25.53.52.85.83l.05.05c1.17,1.13,1.79,1.67,2.96,2.81,1.21,1.23,1.52,2.54,1.09,3.58-1.67,5.14-3.65,9.81-9.61,17.6q-1.62,2.13-3.67,4.59a2.035,2.035,0,0,1-.26.25,1.761,1.761,0,0,1-.23.14,1.578,1.578,0,0,1-1.34.08A31.333,31.333,0,0,1,61.7,59.25,34.127,34.127,0,0,1,60,49.91a.974.974,0,0,1,.02-.24.375.375,0,0,1,.01-.11l.03-.12a1.064,1.064,0,0,1,.09-.25,1.545,1.545,0,0,1,.73-.78h.01a.784.784,0,0,1,.21-.09.762.762,0,0,1,.2-.06h.01a.875.875,0,0,1,.16-.02A1.572,1.572,0,0,1,62.04,48.28ZM36.76,36.08l5-14.75,5,14.75,14.75,5-14.75,5-5,14.75-5-14.75-14.75-5Zm50.6,70.59H33.78a11.777,11.777,0,1,1,1.9-23.4,1.1,1.1,0,0,0,.18.02,1.253,1.253,0,0,0,1.25-1.23c.16-12.72,9.68-20.76,20.2-22.47A35.3,35.3,0,0,0,78.38,82.48a5.779,5.779,0,0,0,2.17.42,5.927,5.927,0,0,0,4.55-2.13c2.23-2.68,4.08-5.05,5.64-7.23C108.03,76.57,109.3,105.87,87.36,106.67Zm18.61-77.65a33.24,33.24,0,0,1-.99,4.42c-.08.28-.17.56-.26.84s-.18.56-.28.85l-.3.84c-.11.29-.22.57-.33.85s-.23.57-.36.86c-.11.28-.24.57-.37.85s-.27.57-.4.85c-.27.57-.57,1.14-.88,1.71-.16.28-.32.57-.48.85-.33.57-.67,1.14-1.03,1.71-.48.75-.99,1.51-1.53,2.26-.28.37-.55.75-.84,1.12a1.638,1.638,0,0,1-2.25.33,26.858,26.858,0,0,1-2.77-2.24,1.783,1.783,0,0,1-.22-.26,1.71,1.71,0,0,1-.13-.23c-.03-.07-.06-.14-.09-.22a1.554,1.554,0,0,1-.05-.23,1.612,1.612,0,0,1,.3-1.22c.27-.35.53-.71.78-1.07s.51-.71.75-1.08c.02-.02.03-.05.05-.07a40.553,40.553,0,0,0,2.52-4.26c.38-.71.72-1.42,1.01-2.12.15-.33.28-.66.41-.98a.142.142,0,0,0,.02-.06c.14-.35.27-.69.38-1.03s.23-.67.33-1,.19-.66.27-.98.15-.65.21-.96a13.309,13.309,0,0,0,.25-1.81c.01-.15.03-.3.03-.44v-.04c.01-.13.01-.26.01-.39v-.2c-.01-.11-.01-.22-.02-.33s0-.2-.01-.3a.47.47,0,0,1,.09-.12,1.07,1.07,0,0,1,.5-.29,2.46,2.46,0,0,1,.29-.07,3.186,3.186,0,0,1,.45-.03,4.286,4.286,0,0,1,.49.03,5.158,5.158,0,0,1,.52.09,2.459,2.459,0,0,1,.34.09,1.357,1.357,0,0,1,.25.07.412.412,0,0,1,.08.03,1.723,1.723,0,0,1,.21.07c.07.03.14.06.22.09a2.5,2.5,0,0,1,.41.19,5.449,5.449,0,0,1,.53.29c.01.01.02.01.03.02a4.665,4.665,0,0,1,.51.36,2.2,2.2,0,0,1,.18.14,3.606,3.606,0,0,1,.35.33c.08.09.16.18.24.28a3.155,3.155,0,0,1,.22.29c.07.11.13.21.19.32a1.657,1.657,0,0,1,.14.37A1.674,1.674,0,0,1,105.97,29.02ZM58.04,81.51l-2.42,7.13L48.5,91.05l7.12,2.41,2.43,7.13,2.4-7.13,7.13-2.41-7.13-2.41Z" style="fill:#fff"/></svg>