<svg id="Layer_1" data-name="Layer 1" xmlns="http://www.w3.org/2000/svg" viewBox="0 0 128 128"><path d="M42.457,2h73.086A10.48,10.48,0,0,1,126,12.457h0a10.48,10.48,0,0,1-10.457,10.456H42.457A10.48,10.48,0,0,1,32,12.457h0A10.48,10.48,0,0,1,42.457,2Zm0,103.087h73.086A10.48,10.48,0,0,1,126,115.543h0A10.48,10.48,0,0,1,115.543,126H42.457A10.48,10.48,0,0,1,32,115.543h0A10.549,10.549,0,0,1,42.457,105.087Zm0-50.8h73.086A10.48,10.48,0,0,1,126,64.739h0A10.479,10.479,0,0,1,115.543,75.2H42.457A10.479,10.479,0,0,1,32,64.739h0A10.549,10.549,0,0,1,42.457,54.283Z" style="fill:#fff;fill-rule:evenodd"/><circle cx="12.665" cy="12.457" r="10.457" style="fill:#fff"/><circle cx="12.665" cy="64.741" r="10.457" style="fill:#fff"/><circle cx="12.665" cy="115.543" r="10.457" style="fill:#fff"/></svg>