<svg id="Layer_1" data-name="Layer 1" xmlns="http://www.w3.org/2000/svg" viewBox="0 0 128 128"><g id="unlock"><g id="Group_4" data-name="Group 4"><path d="M110.45,57.886a7.094,7.094,0,0,0-.28-1.31c-.01-.01-.01-.02-.01-.04a6.988,6.988,0,0,0-6.63-4.84H98.3V36.306A34.4,34.4,0,0,0,73.35,3.3c-.26-.08-.53-.16-.81-.22a35.117,35.117,0,0,0-5.93-.98c-.1-.01-.2-.02-.3-.02-.4-.03-.81-.05-1.22-.06-.35-.01-.7-.02-1.06-.02-.38,0-.75.01-1.12.02-.41.01-.82.03-1.22.06-.1.01-.2.01-.3.02-.51.04-1.01.09-1.51.15-1.01.12-1.99.29-2.97.49-.49.1-.97.22-1.45.34-.27.07-.54.15-.81.22a35.3,35.3,0,0,0-3.94,1.38c-.85.36-1.68.76-2.5,1.18H48.2a34.394,34.394,0,0,0-18.5,30.45V51.7H24.59a7.2,7.2,0,0,0-6.75,4.84c0,.02-.01.03-.01.04a7.094,7.094,0,0,0-.28,1.31c-.02.23-.04.46-.04.7v53.57c0,.24.01.48.02.71a13.532,13.532,0,0,0,2.38,7.02c.25.37.52.72.8,1.07s.59.67.91.98.63.6.97.89c.18.15.37.29.55.42a14.034,14.034,0,0,0,7.65,2.73c.2.02.4.02.6.02h65.1c.24,0,.48-.01.72-.02a13.726,13.726,0,0,0,7.65-2.73c.19-.14.37-.28.55-.42.33-.28.66-.57.97-.89s.62-.64.91-.98.55-.7.8-1.07a13.932,13.932,0,0,0,2.38-7.02c.01-.23.02-.47.02-.71V58.606A5.687,5.687,0,0,0,110.45,57.886ZM43.42,36.306c0-.27.01-.55.02-.82a5.068,5.068,0,0,1,.03-.55c.01-.16.02-.32.03-.47l.03-.27c.02-.22.05-.44.08-.66.06-.42.13-.84.21-1.25a14.566,14.566,0,0,1,.35-1.45c.07-.28.16-.56.25-.84.06-.22.14-.43.22-.64a19.645,19.645,0,0,1,1.74-3.64,5.84,5.84,0,0,1,.33-.53.988.988,0,0,1,.09-.15c.13-.19.25-.37.38-.55a18.872,18.872,0,0,1,2.02-2.43c.15-.17.31-.32.47-.47a6.665,6.665,0,0,1,.55-.52,12.241,12.241,0,0,1,1.19-.99,6.5,6.5,0,0,1,.61-.46,6.381,6.381,0,0,1,.63-.43,6.416,6.416,0,0,1,.65-.41A20.086,20.086,0,0,1,60.91,16c.03,0,.06-.01.09-.01.29-.04.58-.08.87-.11a1.8,1.8,0,0,1,.22-.02c.3-.03.61-.05.91-.06.32-.02.65-.03.97-.03.34,0,.69.01,1.03.03.3.01.61.03.91.06a1.8,1.8,0,0,0,.22.02,20.571,20.571,0,0,1,18.45,20.43V51.7H43.42Zm53.35,75.77a.244.244,0,0,1-.21.21H31.63a.444.444,0,0,1-.02-.13V65.416H96.77Z" style="fill:#fff"/><path d="M63.944,104.982a6.866,6.866,0,0,1-6.8-6.921V81.46a6.859,6.859,0,1,1,13.718,0V98.079a6.88,6.88,0,0,1-6.856,6.9Z" style="fill:#fff"/></g></g></svg>