<svg id="Layer_1" data-name="Layer 1" xmlns="http://www.w3.org/2000/svg" viewBox="0 0 128 91.667"><path d="M18,53.83a22.207,22.207,0,0,1,21.25-22.152l.916,22.2L51.27,73.1a22.522,22.522,0,0,1-11.106,2.987A22.2,22.2,0,0,1,18,53.83Z" style="fill:#89d1f1"/><path d="M44.054,55.028l19.445.34a20.834,20.834,0,0,1-9.153,17.286Z" style="fill:#89d1f1"/><path d="M73.067,31.14c-.128-.384.24-.624.607-.624h6.94a.575.575,0,0,1,.608.544v22.1a.589.589,0,0,1-.544.624h-7a.587.587,0,0,1-.607-.56Z" style="fill:#89d1f1"/><path d="M86.419,53.206V26.439a.589.589,0,0,1,.543-.624h7a.575.575,0,0,1,.624.528V53.158a.589.589,0,0,1-.544.624h-7A.594.594,0,0,1,86.419,53.206Z" style="fill:#89d1f1"/><path d="M99.787,53.126v-13.7a.658.658,0,0,1,.623-.624h6.924a.594.594,0,0,1,.623.576V53.03a.588.588,0,0,1-.543.624h-7A.574.574,0,0,1,99.787,53.126Z" style="fill:#89d1f1"/><rect x="72.939" y="71.384" width="35.258" height="7.39" style="fill:#89d1f1"/><rect x="72.939" y="58.768" width="35.258" height="7.39" style="fill:#89d1f1"/><path d="M115.476,1.783H13.894A7.109,7.109,0,0,0,6.838,8.839V82.611a7.108,7.108,0,0,0,7.056,7.056H115.476a7.11,7.11,0,0,0,7.056-7.056V8.839A7.11,7.11,0,0,0,115.476,1.783Zm.182,81.193H13.614V22.355H115.658Z" style="fill:#89d1f1"/><path d="M67.625,53.771H66.131l-22.536-.7H42.338L42.1,51.7,41.88,29.046V27.567l1.493.1a28.7,28.7,0,0,1,5.368.916,25.773,25.773,0,0,1,18.766,23.69Z" style="fill:#89d1f1"/></svg>