<svg xmlns="http://www.w3.org/2000/svg" viewBox="0 0 128 128"><g id="Layer_7" data-name="Layer 7"><path d="M11.705,59.371H76.689a6.509,6.509,0,0,1,1.557.125,4.619,4.619,0,0,1,2.243,1.214,4.22,4.22,0,0,1,1.276,2.6,6.077,6.077,0,0,1-.046,1.12l-5.533,57.334h0v.319h0a5.788,5.788,0,0,1-.154.7h0v.047h0A4.587,4.587,0,0,1,71.773,126H16.492a4.7,4.7,0,0,1-.973-.148,4.772,4.772,0,0,1-.9-.373h0a4.816,4.816,0,0,1-2.4-3.8L6.769,64.471a6.077,6.077,0,0,1-.047-1.293,4.188,4.188,0,0,1,1.269-2.56,4.677,4.677,0,0,1,2.335-1.233,6.936,6.936,0,0,1,1.394-.1Zm28.48,18.944a3.713,3.713,0,0,1,7.387,0V107.12a3.713,3.713,0,0,1-7.387,0Zm18.471-.154A3.565,3.565,0,0,1,62.548,75a3.479,3.479,0,0,1,3.507,3.45h0v.024L64.5,107.28a3.556,3.556,0,0,1-3.892,3.159A3.48,3.48,0,0,1,57.1,106.99v-.024Zm-36.183.309A3.473,3.473,0,0,1,25.945,75h.032a3.565,3.565,0,0,1,3.892,3.159l1.557,28.8a3.48,3.48,0,0,1-3.487,3.468h-.03a3.558,3.558,0,0,1-3.892-3.159L22.463,78.475Z" style="fill:#fff;fill-rule:evenodd"/><path d="M109.727,82.794A11.8,11.8,0,0,1,97.929,71V13.805a11.8,11.8,0,0,1,23.6-.014V71A11.8,11.8,0,0,1,109.727,82.794Z" style="fill:#fff"/><path d="M109.75,126a11.9,11.9,0,0,1-.078-23.8h.078a11.9,11.9,0,0,1,0,23.8Z" style="fill:#fff"/></g><g id="Layer_2" data-name="Layer 2"><path d="M6.772,38.519l23.412-7.2-.641-2.083h0a1.793,1.793,0,0,1-.062-.2,4.676,4.676,0,0,1,.393-3.38h0A4.675,4.675,0,0,1,32.61,23.4l14.635-4.5a4.672,4.672,0,0,1,5.616,3.162h0l.643,2.087L77.6,16.73a3.659,3.659,0,0,1,4.221,2.31l2.371,7.7a2.016,2.016,0,0,1-1.335,2.519L8.469,52.156a2.017,2.017,0,0,1-2.513-1.312L3.644,43.331h0a1.155,1.155,0,0,1-.071-.23h0a3.676,3.676,0,0,1,1.894-4.118A7.911,7.911,0,0,1,6.772,38.519Z" style="fill:#fff;fill-rule:evenodd"/></g></svg>