<svg id="Layer_1" data-name="Layer 1" xmlns="http://www.w3.org/2000/svg" viewBox="0 0 128 128"><path d="M106.036,1.73h0a6.454,6.454,0,0,0-6.453,6.454V40.025a6.454,6.454,0,0,1-6.454,6.453H34.871a6.454,6.454,0,0,1-6.454-6.453V8.184A6.454,6.454,0,0,0,21.964,1.73H8.453A6.454,6.454,0,0,0,2,8.184V119.816a6.454,6.454,0,0,0,6.453,6.454H119.547A6.454,6.454,0,0,0,126,119.816V21.977a6.454,6.454,0,0,0-1.843-4.516L110.646,3.668A6.456,6.456,0,0,0,106.036,1.73Zm-4.28,107.287H25.705a6.453,6.453,0,0,1-6.453-6.453V70.723a6.453,6.453,0,0,1,6.453-6.453h76.051a6.453,6.453,0,0,1,6.453,6.453v31.841A6.453,6.453,0,0,1,101.756,109.017Z" style="fill:#fff"/><rect x="72.626" y="1.73" width="17.791" height="35.583" rx="5.047" style="fill:#fff"/></svg>