<svg id="Layer_1" data-name="Layer 1" xmlns="http://www.w3.org/2000/svg" viewBox="0 0 128 128"><path d="M34.768,69.747,2.557,37.537a1.9,1.9,0,0,1,0-2.691L34.768,2.636a1.9,1.9,0,0,1,2.69,0l3.94,3.94a1.9,1.9,0,0,1,0,2.69l-25.58,25.58a1.9,1.9,0,0,0,0,2.691L41.4,63.117a1.9,1.9,0,0,1,0,2.69l-3.94,3.94A1.9,1.9,0,0,1,34.768,69.747Z" style="fill:#fff"/><path d="M93.232,69.747l32.211-32.21a1.9,1.9,0,0,0,0-2.691L93.232,2.636a1.9,1.9,0,0,0-2.69,0L86.6,6.576a1.9,1.9,0,0,0,0,2.69l25.58,25.58a1.9,1.9,0,0,1,0,2.691L86.6,63.117a1.9,1.9,0,0,0,0,2.69l3.94,3.94A1.9,1.9,0,0,0,93.232,69.747Z" style="fill:#fff"/><path d="M29.325,77.639a4.769,4.769,0,0,1-4.83,4.83,4.676,4.676,0,0,1-3.479-1.423,4.736,4.736,0,0,1-1.333-3.407,4.882,4.882,0,0,1,8.236-3.478A4.757,4.757,0,0,1,29.325,77.639Z" style="fill:#fff"/><path d="M28.189,86.164v29.124c0,3.551-.955,6.254-2.847,8-1.857,1.73-4.668,2.6-8.543,2.631a2.262,2.262,0,0,1-2.361-2.324V121.38a2.273,2.273,0,0,1,2.343-2.343c2.848-.036,3.965-1.081,3.965-3.749V86.164a2.273,2.273,0,0,1,2.343-2.343h2.757A2.273,2.273,0,0,1,28.189,86.164Z" style="fill:#fff"/><path d="M56.449,105.466a8.5,8.5,0,0,1-3.461,7.047,13.457,13.457,0,0,1-8.38,2.469,16.11,16.11,0,0,1-6.056-1.1,10.773,10.773,0,0,1-4.343-3.153,7.555,7.555,0,0,1-1.64-4.722v-.649a2.262,2.262,0,0,1,2.343-2.343h2.577a2.262,2.262,0,0,1,2.343,2.343v.432c0,.235,0,.848,1.1,1.64a6.191,6.191,0,0,0,3.623.974,5.725,5.725,0,0,0,3.46-.919,1.989,1.989,0,0,0,.991-1.749,1.128,1.128,0,0,0-.342-.919,4.662,4.662,0,0,0-1.514-.973c-.739-.288-1.964-.685-3.587-1.171a38.851,38.851,0,0,1-5.172-1.821,10.917,10.917,0,0,1-3.911-2.865A7.6,7.6,0,0,1,32.731,92.9a8.3,8.3,0,0,1,3.406-6.938,13.229,13.229,0,0,1,8.2-2.415A15.238,15.238,0,0,1,50.3,84.668a10.168,10.168,0,0,1,4.289,3.262A8.14,8.14,0,0,1,56.178,92.8a2.317,2.317,0,0,1-2.343,2.5H51.294a2.273,2.273,0,0,1-2.343-2.343,1.929,1.929,0,0,0-.991-1.766,6.4,6.4,0,0,0-3.677-.9,6.33,6.33,0,0,0-3.424.793,1.7,1.7,0,0,0-.865,1.55,1.34,1.34,0,0,0,.739,1.262,20.935,20.935,0,0,0,4.6,1.748,49.407,49.407,0,0,1,5.262,1.8,11.022,11.022,0,0,1,3.983,2.793A7.463,7.463,0,0,1,56.449,105.466Z" style="fill:#fff"/><path d="M84.2,92.057a11.88,11.88,0,0,0-4.487-6.344,12.9,12.9,0,0,0-7.66-2.325,13.344,13.344,0,0,0-7.84,2.325,11.811,11.811,0,0,0-4.5,6.38,24.512,24.512,0,0,0-.829,7.119,24.946,24.946,0,0,0,.829,7.155,12.183,12.183,0,0,0,4.559,6.452,13.989,13.989,0,0,0,15.446,0,11.8,11.8,0,0,0,4.469-6.4,24.014,24.014,0,0,0,.847-7.209A24.476,24.476,0,0,0,84.2,92.057Zm-8.885,15.085A5.174,5.174,0,0,1,72,108.187a5.559,5.559,0,0,1-3.46-1.045,4.945,4.945,0,0,1-1.785-2.829,24.635,24.635,0,0,1-.4-5.047,24.912,24.912,0,0,1,.378-4.974,5.21,5.21,0,0,1,1.839-2.9,5.336,5.336,0,0,1,3.37-1.045,5.406,5.406,0,0,1,3.406,1.045,5.078,5.078,0,0,1,1.857,2.83,25.014,25.014,0,0,1,.378,5.046,22.987,22.987,0,0,1-.415,4.993A5.245,5.245,0,0,1,75.318,107.142Z" style="fill:#fff"/><path d="M113.562,94.58v17.789a2.273,2.273,0,0,1-2.343,2.343h-2.758a2.273,2.273,0,0,1-2.342-2.343V95.337a5.069,5.069,0,0,0-1.3-3.622,4.467,4.467,0,0,0-3.37-1.316,4.653,4.653,0,0,0-3.515,1.3,4.73,4.73,0,0,0-1.315,3.532v17.14a2.274,2.274,0,0,1-2.343,2.343h-2.74a2.263,2.263,0,0,1-2.343-2.343v-26.2a2.263,2.263,0,0,1,2.343-2.343h2.74a2.266,2.266,0,0,1,2.036,1.135,11.289,11.289,0,0,1,6-1.514,11.174,11.174,0,0,1,8.146,3.046v.018A10.864,10.864,0,0,1,113.562,94.58Z" style="fill:#fff"/><rect x="60.5" y="2.079" width="9.833" height="68.226" rx="1.999" transform="translate(16.43 -20.284) rotate(20.108)" style="fill:#fff"/></svg>