<svg id="Layer_1" data-name="Layer 1" xmlns="http://www.w3.org/2000/svg" viewBox="0 0 128 128"><g id="unlock"><g id="Group_4" data-name="Group 4"><path d="M103.53,51.69H98.3V36.31a34.328,34.328,0,0,0-66.94-10.7c-.07.23-.14.46-.22.69a6.794,6.794,0,0,0-.23,1.76A6.91,6.91,0,0,0,44.3,30.47c.07-.27.15-.53.24-.79a20.547,20.547,0,0,1,40.04,6.34V51.69H24.59a7.107,7.107,0,0,0-7.08,6.92v53.55a13.937,13.937,0,0,0,14,13.84h65.1a13.931,13.931,0,0,0,13.88-13.84V58.59A7,7,0,0,0,103.53,51.69Zm-6.76,60.39a.234.234,0,0,1-.21.2H31.63a.5.5,0,0,1-.02-.12V65.41H96.77Z" style="fill:#fff"/><path d="M63.944,104.982a6.865,6.865,0,0,1-6.8-6.921V81.46a6.859,6.859,0,1,1,13.718-.007V98.079a6.88,6.88,0,0,1-6.856,6.9Z" style="fill:#fff"/></g></g></svg>