<svg id="Layer_1" data-name="Layer 1" xmlns="http://www.w3.org/2000/svg" viewBox="0 0 128 128"><path d="M36.82,116.89c6.88,6.04,16.08,9.09,27.38,9.09,11.86,0,21.36-3.37,28.23-10.02,6.85-6.62,10.32-15.74,10.32-27.11V50.96L86.22,67.49V89.93c0,6.72-2.03,12.15-6.04,16.15s-9.39,6.04-15.98,6.04c-6.71,0-12.18-2.03-16.24-6.03l-.17-.17Z" style="fill:#fff"/><path d="M4.76,117.08l6.18,6.18a3.9,3.9,0,0,0,5.51,0L123.26,16.45a3.9,3.9,0,0,0,0-5.51l-6.18-6.18a3.9,3.9,0,0,0-5.51,0L97.78,18.55a30.932,30.932,0,0,0-5.34-6.69C85.56,5.32,76.06,2,64.2,2S42.77,5.32,35.77,11.87c-6.96,6.51-10.48,15.5-10.48,26.74V88.85c0,.73.01,1.44.04,2.15L4.76,111.57A3.9,3.9,0,0,0,4.76,117.08ZM85.38,30.95,41.82,74.51V37.88c0-6.7,2.06-12.14,6.14-16.16,4.06-4,9.53-6.03,16.24-6.03,6.59,0,11.97,2.03,15.98,6.04A19.893,19.893,0,0,1,85.38,30.95Z" style="fill:#fff"/></svg>