<svg id="Layer_3" data-name="Layer 3" xmlns="http://www.w3.org/2000/svg" viewBox="0 0 128 128"><path d="M82.674,126a6.324,6.324,0,0,1-4.387-1.811L52.3,102.2H21.164A15.664,15.664,0,0,1,5.518,86.559V45.991A15.664,15.664,0,0,1,21.164,30.345h1.982v.013h28.83L78.349,3.815a6.224,6.224,0,0,1,10.63,4.448V119.735A6.294,6.294,0,0,1,82.7,126ZM21.169,42.893A3.131,3.131,0,0,0,18.054,46V86.584a3.127,3.127,0,0,0,3.115,3.1h33.74l.314.109a15.359,15.359,0,0,1,3.2,1.256l.092.061,18,15.174V23.431L59.284,40.758a6.272,6.272,0,0,1-4.717,2.135Zm86.164,69.577a6,6,0,0,1-5.723-4.21,5.957,5.957,0,0,1,.412-4.573c5.677-10.972,8.607-24.3,8.467-38.523a98.059,98.059,0,0,0-9.214-40.944h0a5.982,5.982,0,1,1,10.775-5.2,110.368,110.368,0,0,1,10.433,46.114c.119,16.18-3.279,31.434-9.823,44.109A5.991,5.991,0,0,1,107.333,112.47Z" style="fill:#fff"/></svg>