<svg id="Layer_2" data-name="Layer 2" xmlns="http://www.w3.org/2000/svg" viewBox="0 0 120 60"><path d="M52.708,54H43.292A1.291,1.291,0,0,0,42,55.292v2.416A1.291,1.291,0,0,0,43.292,59H57.708A1.291,1.291,0,0,0,59,57.708V43.292A1.291,1.291,0,0,0,57.708,42H55.292A1.291,1.291,0,0,0,54,43.292v9.416A1.291,1.291,0,0,1,52.708,54Zm2.584-16h2.416A1.291,1.291,0,0,0,59,36.708V23.292A1.291,1.291,0,0,0,57.708,22H55.292A1.291,1.291,0,0,0,54,23.292V36.708A1.291,1.291,0,0,0,55.292,38ZM42,2.292V4.708A1.291,1.291,0,0,0,43.292,6h9.416A1.291,1.291,0,0,1,54,7.292v9.416A1.291,1.291,0,0,0,55.292,18h2.416A1.291,1.291,0,0,0,59,16.708V2.292A1.291,1.291,0,0,0,57.708,1H43.292A1.291,1.291,0,0,0,42,2.292ZM23.292,59H36.708A1.291,1.291,0,0,0,38,57.708V55.292A1.291,1.291,0,0,0,36.708,54H23.292A1.291,1.291,0,0,0,22,55.292v2.416A1.291,1.291,0,0,0,23.292,59Zm0-53H36.708A1.291,1.291,0,0,0,38,4.708V2.292A1.291,1.291,0,0,0,36.708,1H23.292A1.291,1.291,0,0,0,22,2.292V4.708A1.291,1.291,0,0,0,23.292,6ZM4.708,42H2.292A1.291,1.291,0,0,0,1,43.292V57.708A1.291,1.291,0,0,0,2.292,59H16.708A1.291,1.291,0,0,0,18,57.708V55.292A1.291,1.291,0,0,0,16.708,54H7.292A1.291,1.291,0,0,1,6,52.708V43.292A1.291,1.291,0,0,0,4.708,42ZM2.292,18H4.708A1.291,1.291,0,0,0,6,16.708V7.292A1.291,1.291,0,0,1,7.292,6h9.416A1.291,1.291,0,0,0,18,4.708V2.292A1.291,1.291,0,0,0,16.708,1H2.292A1.291,1.291,0,0,0,1,2.292V16.708A1.291,1.291,0,0,0,2.292,18Zm2.416,4H2.292A1.291,1.291,0,0,0,1,23.292V36.708A1.291,1.291,0,0,0,2.292,38H4.708A1.291,1.291,0,0,0,6,36.708V23.292A1.291,1.291,0,0,0,4.708,22Z" style="fill:#fff"/><path d="M112.708,54h-9.416A1.291,1.291,0,0,0,102,55.292v2.416A1.291,1.291,0,0,0,103.292,59h14.416A1.291,1.291,0,0,0,119,57.708V43.292A1.291,1.291,0,0,0,117.708,42h-2.416A1.291,1.291,0,0,0,114,43.292v9.416A1.291,1.291,0,0,1,112.708,54Zm2.584-16h2.416A1.291,1.291,0,0,0,119,36.708V23.292A1.291,1.291,0,0,0,117.708,22h-2.416A1.291,1.291,0,0,0,114,23.292V36.708A1.291,1.291,0,0,0,115.292,38ZM102,2.292V4.708A1.291,1.291,0,0,0,103.292,6h9.416A1.291,1.291,0,0,1,114,7.292v9.416A1.291,1.291,0,0,0,115.292,18h2.416A1.291,1.291,0,0,0,119,16.708V2.292A1.291,1.291,0,0,0,117.708,1H103.292A1.291,1.291,0,0,0,102,2.292ZM83.292,59H96.708A1.291,1.291,0,0,0,98,57.708V55.292A1.291,1.291,0,0,0,96.708,54H83.292A1.291,1.291,0,0,0,82,55.292v2.416A1.291,1.291,0,0,0,83.292,59Zm0-53H96.708A1.291,1.291,0,0,0,98,4.708V2.292A1.291,1.291,0,0,0,96.708,1H83.292A1.291,1.291,0,0,0,82,2.292V4.708A1.291,1.291,0,0,0,83.292,6ZM64.708,42H62.292A1.291,1.291,0,0,0,61,43.292V57.708A1.291,1.291,0,0,0,62.292,59H76.708A1.291,1.291,0,0,0,78,57.708V55.292A1.291,1.291,0,0,0,76.708,54H67.292A1.291,1.291,0,0,1,66,52.708V43.292A1.291,1.291,0,0,0,64.708,42ZM62.292,18h2.416A1.291,1.291,0,0,0,66,16.708V7.292A1.291,1.291,0,0,1,67.292,6h9.416A1.291,1.291,0,0,0,78,4.708V2.292A1.291,1.291,0,0,0,76.708,1H62.292A1.291,1.291,0,0,0,61,2.292V16.708A1.291,1.291,0,0,0,62.292,18Zm2.416,4H62.292A1.291,1.291,0,0,0,61,23.292V36.708A1.291,1.291,0,0,0,62.292,38h2.416A1.291,1.291,0,0,0,66,36.708V23.292A1.291,1.291,0,0,0,64.708,22Z" style="fill:#ababab"/></svg>