<svg id="Layer_1" data-name="Layer 1" xmlns="http://www.w3.org/2000/svg" viewBox="0 0 128 128"><path d="M20.815,2,3.558,12.785V30.043L20.815,40.828,38.072,30.043V12.785Zm15.1,27.234-15.1,9.437v-15.1l15.1-9.437Z" style="fill:#fff"/><rect x="51.015" y="14.134" width="74.152" height="14.561" rx="3.847" style="fill:#fff"/><path d="M20.815,87.9,3.558,98.684v17.258l17.257,10.785,17.257-10.785V98.684Zm15.1,27.233-15.1,9.438v-15.1l15.1-9.437Z" style="fill:#fff"/><path d="M120.45,100.659H57.141c-3.7-.626-6.126,1.8-6.126,4.795v3.718a5.421,5.421,0,0,0,5.421,5.421h63.31a5.421,5.421,0,0,0,5.421-5.421v-3.718C125.167,102.46,122.74,100.033,120.45,100.659Z" style="fill:#fff"/><path d="M20.815,44.949,3.558,55.735V72.992L20.815,83.778,38.072,72.992V55.735Zm15.1,27.234-15.1,9.437v-15.1l15.1-9.438Z" style="fill:#fff"/><rect x="51.015" y="57.083" width="74.152" height="14.561" rx="3.847" style="fill:#fff"/></svg>