<svg id="Layer_2" data-name="Layer 2" xmlns="http://www.w3.org/2000/svg" viewBox="0 0 107.444 107.444"><path d="M73,14.462A5.646,5.646,0,0,1,73,3.17H98.555A5.646,5.646,0,0,1,104.2,8.816v26.03a5.646,5.646,0,1,1-11.292,0V22.414L70.624,44.793a5.646,5.646,0,0,1-7.97-7.924L85.013,14.462ZM14.459,34.584a5.646,5.646,0,1,1-11.292,0V9.025A5.646,5.646,0,0,1,8.813,3.379h26.03a5.646,5.646,0,0,1,0,11.292H22.411l22.369,22.3a5.647,5.647,0,1,1-7.914,7.971L14.459,22.567ZM34.4,93.085a5.646,5.646,0,1,1,0,11.292H8.813a5.646,5.646,0,0,1-5.646-5.646V72.673a5.646,5.646,0,1,1,11.292,0V85.105l22.3-22.369a5.646,5.646,0,0,1,7.971,7.914L22.355,93.085Zm58.585-20.01a5.647,5.647,0,0,1,11.293,0V98.634a5.647,5.647,0,0,1-5.647,5.647H72.545a5.647,5.647,0,0,1,0-11.293H84.977L62.6,70.7a5.647,5.647,0,0,1,7.924-7.971l22.435,22.36V73.075Z" style="fill:#ffffff"/></svg>