<svg id="Layer_1" data-name="Layer 1" xmlns="http://www.w3.org/2000/svg" viewBox="0 0 122.879 119.799"><path d="M51.332,7.031h.014v.007a44.1,44.1,0,0,1,44.1,44.084h.006v.065h-.006a44.062,44.062,0,0,1-2.289,14.026c-.248.739-.508,1.449-.774,2.126v.007a44.168,44.168,0,0,1-4.9,9.1l25.668,23.07.016.014.138.129.01.01a7.621,7.621,0,0,1,.591,10.372l-.009.014-.155.179-.031.031-.128.141-.015.019a7.627,7.627,0,0,1-10.371.589l-.013-.01-.18-.154-.026-.021-26.25-23.6c-.777.547-1.57,1.067-2.372,1.558-1.088.666-2.215,1.294-3.365,1.867a43.95,43.95,0,0,1-19.658,4.609v.006h-.014v-.006a44.106,44.106,0,0,1-44.1-44.083H7.212v-.044h.006A44.1,44.1,0,0,1,51.3,7.038V7.031Zm.014,9.9v.006H51.3v-.006A34.234,34.234,0,0,0,17.1,51.143h.006v.043H17.1a34.234,34.234,0,0,0,34.212,34.2v-.007h.043v.007a34.234,34.234,0,0,0,34.2-34.21H85.55v-.043h.006a34.234,34.234,0,0,0-34.21-34.2Z" style="fill:#0054a3"/></svg>