# Blender v2.92.0 OBJ File: ''
# www.blender.org
mtllib quad.mtl
o Cylinder
v 0.000000 0.500000 -1.000000
v 0.000000 0.500000 0.000000
v 0.433013 -0.250000 -1.000000
v 0.433013 -0.250000 0.000000
v -0.433013 -0.250000 -1.000000
v -0.433013 -0.250000 0.000000
vt -0.003842 0.001954
vt 0.997641 0.001954
vt 0.997641 0.334264
vt -0.003842 0.334264
vt 0.997641 0.666573
vt -0.003842 0.666573
vt 0.997641 0.998883
vt -0.003842 0.998883
vn 0.8660 0.5000 0.0000
vn -0.0000 -1.0000 0.0000
vn -0.8660 0.5000 0.0000
usemtl None
s off
f 1/1/1 2/2/1 4/3/1 3/4/1
f 3/4/2 4/3/2 6/5/2 5/6/2
f 5/6/3 6/5/3 2/7/3 1/8/3
