<svg id="Layer_8" data-name="Layer 8" xmlns="http://www.w3.org/2000/svg" viewBox="0 0 107.444 107.444"><path d="M104.029,94.792a4.49,4.49,0,0,1,0,6.328l-2.909,2.909a4.49,4.49,0,0,1-6.328,0L53.727,62.964,12.652,104.029a4.489,4.489,0,0,1-6.327,0L3.416,101.12a4.488,4.488,0,0,1,0-6.328L44.491,53.727,3.416,12.652a4.487,4.487,0,0,1,0-6.327L6.325,3.416a4.487,4.487,0,0,1,6.327,0L53.727,44.491,94.792,3.416a4.488,4.488,0,0,1,6.328,0l2.909,2.909a4.489,4.489,0,0,1,0,6.327L62.964,53.727Z" style="fill:#d9b8ff;fill-rule:evenodd"/></svg>