<svg id="Layer_7" data-name="Layer 7" xmlns="http://www.w3.org/2000/svg" viewBox="0 0 107.444 107.444"><path d="M18.788,34.1H86.909a6.817,6.817,0,0,1,1.632.131,4.836,4.836,0,0,1,2.351,1.273A4.427,4.427,0,0,1,92.23,38.23a6.32,6.32,0,0,1-.049,1.175l-5.8,60.1h0v.335h0a5.759,5.759,0,0,1-.163.734h0v.049h0a4.806,4.806,0,0,1-4.464,3.321H23.806a4.962,4.962,0,0,1-1.02-.155,5.041,5.041,0,0,1-.946-.391h0a5.045,5.045,0,0,1-2.514-3.982l-5.712-59.97a6.331,6.331,0,0,1-.049-1.355,4.381,4.381,0,0,1,1.33-2.684,4.9,4.9,0,0,1,2.448-1.29,7.378,7.378,0,0,1,1.461-.106ZM14.283,10.959H39.964V8.674h0a2.018,2.018,0,0,1,0-.22A4.9,4.9,0,0,1,41.4,5.189h0a4.9,4.9,0,0,1,3.435-1.411H60.886a4.9,4.9,0,0,1,4.652,4.9h0v2.285H91.969a3.835,3.835,0,0,1,3.517,3.615v8.454a2.114,2.114,0,0,1-2.114,2.113H11.786a2.113,2.113,0,0,1-2.113-2.089V14.819h0a1.189,1.189,0,0,1,0-.253h0a3.852,3.852,0,0,1,3.166-3.542A8.4,8.4,0,0,1,14.283,10.959Zm34.355,43a3.892,3.892,0,0,1,7.744,0V84.156a3.892,3.892,0,0,1-7.744,0ZM68,53.8a3.737,3.737,0,0,1,4.08-3.313,3.647,3.647,0,0,1,3.68,3.615v.024L74.13,84.319a3.728,3.728,0,0,1-4.08,3.313,3.648,3.648,0,0,1-3.68-3.615v-.024Zm-37.929.326a3.64,3.64,0,0,1,3.64-3.639h.033a3.737,3.737,0,0,1,4.08,3.313l1.632,30.193A3.647,3.647,0,0,1,35.8,87.632h-.025a3.729,3.729,0,0,1-4.08-3.313L30.065,54.126Z" style="fill:#d9b8ff;fill-rule:evenodd"/></svg>