<svg id="Layer_1" data-name="Layer 1" xmlns="http://www.w3.org/2000/svg" viewBox="0 0 107.444 107.444"><rect x="22.253" y="22.448" width="81.598" height="81.598" rx="11.987" style="fill:#999"/><rect x="22.253" y="22.448" width="81.598" height="81.598" rx="11.987" style="fill:#d9b8ff"/><path d="M83.854,14.434v1.01H76.3a5.9,5.9,0,0,0-5.88-5.47H15.684a5.907,5.907,0,0,0-5.91,5.9v54.74a5.915,5.915,0,0,0,5.48,5.89v7.54h-1.01a11.992,11.992,0,0,1-11.99-11.99V14.434a11.992,11.992,0,0,1,11.99-11.99h57.62A11.992,11.992,0,0,1,83.854,14.434Z" style="fill:#d9b8ff"/></svg>