<svg id="Layer_5" data-name="Layer 5" xmlns="http://www.w3.org/2000/svg" viewBox="0 0 107.444 107.444"><path d="M27.82,5.2h24.8L40.787,17.569H27.82a11.1,11.1,0,0,0-7.871,3.282h0a11.1,11.1,0,0,0-3.282,7.871V91.209H79.154a11.075,11.075,0,0,0,7.87-3.283h0a11.075,11.075,0,0,0,3.283-7.87V67.294l12.368-12.918v25.68a23.473,23.473,0,0,1-6.9,16.594v.041a23.456,23.456,0,0,1-16.578,6.886H13.737a9.418,9.418,0,0,1-6.648-2.766h0a9.453,9.453,0,0,1-2.79-6.68V28.722a23.45,23.45,0,0,1,6.9-16.586l.041-.074A23.452,23.452,0,0,1,27.82,5.168ZM58.811,74.886,31.483,80.459l3.948-29.083ZM44.07,42.57,80.455,4.7A2.545,2.545,0,0,1,83.6,4.206l20.881,20.213a2.22,2.22,0,0,1,.02,3.14,2.342,2.342,0,0,1-.2.176L67.432,66.089Z" style="fill:#d9b8ff"/></svg>