<svg id="Layer_1" data-name="Layer 1" xmlns="http://www.w3.org/2000/svg" viewBox="0 0 122.9 103.6"><path d="M12.6,2.3h97.6a9.923,9.923,0,0,1,9.9,9.9h0a9.923,9.923,0,0,1-9.9,9.9H12.6a9.923,9.923,0,0,1-9.9-9.9h0a9.923,9.923,0,0,1,9.9-9.9Zm0,79.2h97.6a9.923,9.923,0,0,1,9.9,9.9h0a9.923,9.923,0,0,1-9.9,9.9H12.6a9.923,9.923,0,0,1-9.9-9.9h0a9.988,9.988,0,0,1,9.9-9.9Zm0-39.6h97.6a9.923,9.923,0,0,1,9.9,9.9h0a9.923,9.923,0,0,1-9.9,9.9H12.6a9.923,9.923,0,0,1-9.9-9.9h0a9.988,9.988,0,0,1,9.9-9.9Z" style="fill:#fff;fill-rule:evenodd"/></svg>