<svg id="Layer_1" data-name="Layer 1" xmlns="http://www.w3.org/2000/svg" viewBox="0 0 122.879 119.799"><path d="M50.4,2.157h.016v.007A48.173,48.173,0,0,1,98.581,50.313h.006v.07h-.006a48.128,48.128,0,0,1-2.5,15.32q-.407,1.21-.845,2.322v.007a48.2,48.2,0,0,1-5.348,9.936l28.035,25.2.018.015.151.141.011.011a8.325,8.325,0,0,1,.645,11.328l-.01.015-.169.2-.034.033-.14.155-.016.02a8.329,8.329,0,0,1-11.328.644l-.014-.011-.2-.168-.028-.024L78.137,89.75c-.848.6-1.714,1.166-2.59,1.7-1.189.728-2.42,1.414-3.676,2.039A47.97,47.97,0,0,1,50.4,98.524v.007h-.015v-.007A48.171,48.171,0,0,1,2.219,50.377H2.212v-.048h.007A48.171,48.171,0,0,1,50.369,2.164V2.157Zm.016,10.806v.007h-.047v-.007A37.389,37.389,0,0,0,13.019,50.33h.006v.048h-.006A37.389,37.389,0,0,0,50.385,87.725v-.007h.047v.007A37.387,37.387,0,0,0,87.779,50.361h-.006v-.047h.006A37.389,37.389,0,0,0,50.416,12.963Z" style="fill:#fff"/></svg>